<svg width="1440" height="1358" viewBox="0 0 1440 1358" fill="none" xmlns="http://www.w3.org/2000/svg">
<rect width="1440" height="1392" fill="url(#paint0_linear_0_1)"/>
<circle cx="1113.5" cy="591.5" r="460.5" fill="#0E2F53" fill-opacity="0.2"/>
<rect x="1304" y="16" width="5.46269" height="5.46269" rx="2.58729" fill="#7D97F1"/>
<rect x="1325.85" y="16" width="5.46269" height="5.46269" rx="2.58729" fill="#7D97F1"/>
<rect x="1347.7" y="16" width="5.46269" height="5.46269" rx="2.58729" fill="#7D97F1"/>
<rect x="1369.55" y="16" width="5.46269" height="5.46269" rx="2.58729" fill="#7D97F1"/>
<rect x="1391.4" y="16" width="5.46269" height="5.46269" rx="2.58729" fill="#7D97F1"/>
<rect x="1413.25" y="16" width="5.46269" height="5.46269" rx="2.58729" fill="#7D97F1"/>
<rect x="1435.11" y="16" width="5.46269" height="5.46269" rx="2.58729" fill="#7D97F1"/>
<rect x="1304" y="37.8516" width="5.46269" height="5.46269" rx="2.58729" fill="#7D97F1"/>
<rect x="1325.85" y="37.8516" width="5.46269" height="5.46269" rx="2.58729" fill="#7D97F1"/>
<rect x="1347.7" y="37.8516" width="5.46269" height="5.46269" rx="2.58729" fill="#7D97F1"/>
<rect x="1369.55" y="37.8516" width="5.46269" height="5.46269" rx="2.58729" fill="#7D97F1"/>
<rect x="1391.4" y="37.8516" width="5.46269" height="5.46269" rx="2.58729" fill="#7D97F1"/>
<rect x="1413.25" y="37.8516" width="5.46269" height="5.46269" rx="2.58729" fill="#7D97F1"/>
<rect x="1435.11" y="37.8516" width="5.46269" height="5.46269" rx="2.58729" fill="#7D97F1"/>
<rect x="1304" y="59.7031" width="5.46269" height="5.46269" rx="2.58729" fill="#7D97F1"/>
<rect x="1325.85" y="59.7031" width="5.46269" height="5.46269" rx="2.58729" fill="#7D97F1"/>
<rect x="1347.7" y="59.7031" width="5.46269" height="5.46269" rx="2.58729" fill="#7D97F1"/>
<rect x="1369.55" y="59.7031" width="5.46269" height="5.46269" rx="2.58729" fill="#7D97F1"/>
<rect x="1391.4" y="59.7031" width="5.46269" height="5.46269" rx="2.58729" fill="#7D97F1"/>
<rect x="1413.25" y="59.7031" width="5.46269" height="5.46269" rx="2.58729" fill="#7D97F1"/>
<rect x="1435.11" y="59.7031" width="5.46269" height="5.46269" rx="2.58729" fill="#7D97F1"/>
<rect x="1304" y="81.5547" width="5.46269" height="5.46269" rx="2.58729" fill="#7D97F1"/>
<rect x="1325.85" y="81.5547" width="5.46269" height="5.46269" rx="2.58729" fill="#7D97F1"/>
<rect x="1347.7" y="81.5547" width="5.46269" height="5.46269" rx="2.58729" fill="#7D97F1"/>
<rect x="1369.55" y="81.5547" width="5.46269" height="5.46269" rx="2.58729" fill="#7D97F1"/>
<rect x="1391.4" y="81.5547" width="5.46269" height="5.46269" rx="2.58729" fill="#7D97F1"/>
<rect x="1413.25" y="81.5547" width="5.46269" height="5.46269" rx="2.58729" fill="#7D97F1"/>
<rect x="1435.11" y="81.5547" width="5.46269" height="5.46269" rx="2.58729" fill="#7D97F1"/>
<rect x="1304" y="103.402" width="5.46269" height="5.46269" rx="2.58729" fill="#7D97F1"/>
<rect x="1325.85" y="103.402" width="5.46269" height="5.46269" rx="2.58729" fill="#7D97F1"/>
<rect x="1347.7" y="103.402" width="5.46269" height="5.46269" rx="2.58729" fill="#7D97F1"/>
<rect x="1369.55" y="103.402" width="5.46269" height="5.46269" rx="2.58729" fill="#7D97F1"/>
<rect x="1391.4" y="103.402" width="5.46269" height="5.46269" rx="2.58729" fill="#7D97F1"/>
<rect x="1413.25" y="103.402" width="5.46269" height="5.46269" rx="2.58729" fill="#7D97F1"/>
<rect x="1435.11" y="103.402" width="5.46269" height="5.46269" rx="2.58729" fill="#7D97F1"/>
<rect x="1304" y="125.254" width="5.46269" height="5.46269" rx="2.58729" fill="#7D97F1"/>
<rect x="1325.85" y="125.254" width="5.46269" height="5.46269" rx="2.58729" fill="#7D97F1"/>
<rect x="1347.7" y="125.254" width="5.46269" height="5.46269" rx="2.58729" fill="#7D97F1"/>
<rect x="1369.55" y="125.254" width="5.46269" height="5.46269" rx="2.58729" fill="#7D97F1"/>
<rect x="1391.4" y="125.254" width="5.46269" height="5.46269" rx="2.58729" fill="#7D97F1"/>
<rect x="1413.25" y="125.254" width="5.46269" height="5.46269" rx="2.58729" fill="#7D97F1"/>
<rect x="1435.11" y="125.254" width="5.46269" height="5.46269" rx="2.58729" fill="#7D97F1"/>
<rect x="1304" y="147.105" width="5.46269" height="5.46269" rx="2.58729" fill="#7D97F1"/>
<rect x="1304" y="168.18" width="5.46269" height="5.46269" rx="2.58729" fill="#7D97F1"/>
<rect x="1304" y="189.254" width="5.46269" height="5.46269" rx="2.58729" fill="#7D97F1"/>
<rect x="1304" y="210.328" width="5.46269" height="5.46269" rx="2.58729" fill="#7D97F1"/>
<rect x="1325.85" y="147.105" width="5.46269" height="5.46269" rx="2.58729" fill="#7D97F1"/>
<rect x="1325.85" y="168.18" width="5.46269" height="5.46269" rx="2.58729" fill="#7D97F1"/>
<rect x="1325.85" y="189.254" width="5.46269" height="5.46269" rx="2.58729" fill="#7D97F1"/>
<rect x="1325.85" y="210.328" width="5.46269" height="5.46269" rx="2.58729" fill="#7D97F1"/>
<rect x="1347.7" y="147.105" width="5.46269" height="5.46269" rx="2.58729" fill="#7D97F1"/>
<rect x="1347.7" y="168.18" width="5.46269" height="5.46269" rx="2.58729" fill="#7D97F1"/>
<rect x="1347.7" y="189.254" width="5.46269" height="5.46269" rx="2.58729" fill="#7D97F1"/>
<rect x="1347.7" y="210.328" width="5.46269" height="5.46269" rx="2.58729" fill="#7D97F1"/>
<rect x="1369.55" y="147.105" width="5.46269" height="5.46269" rx="2.58729" fill="#7D97F1"/>
<rect x="1369.55" y="168.18" width="5.46269" height="5.46269" rx="2.58729" fill="#7D97F1"/>
<rect x="1369.55" y="189.254" width="5.46269" height="5.46269" rx="2.58729" fill="#7D97F1"/>
<rect x="1369.55" y="210.328" width="5.46269" height="5.46269" rx="2.58729" fill="#7D97F1"/>
<rect x="1391.4" y="147.105" width="5.46269" height="5.46269" rx="2.58729" fill="#7D97F1"/>
<rect x="1391.4" y="168.18" width="5.46269" height="5.46269" rx="2.58729" fill="#7D97F1"/>
<rect x="1391.4" y="189.254" width="5.46269" height="5.46269" rx="2.58729" fill="#7D97F1"/>
<rect x="1391.4" y="210.328" width="5.46269" height="5.46269" rx="2.58729" fill="#7D97F1"/>
<rect x="1413.25" y="147.105" width="5.46269" height="5.46269" rx="2.58729" fill="#7D97F1"/>
<rect x="1413.25" y="168.18" width="5.46269" height="5.46269" rx="2.58729" fill="#7D97F1"/>
<rect x="1413.25" y="189.254" width="5.46269" height="5.46269" rx="2.58729" fill="#7D97F1"/>
<rect x="1413.25" y="210.328" width="5.46269" height="5.46269" rx="2.58729" fill="#7D97F1"/>
<rect x="1435.11" y="147.105" width="5.46269" height="5.46269" rx="2.58729" fill="#7D97F1"/>
<rect x="1435.11" y="168.18" width="5.46269" height="5.46269" rx="2.58729" fill="#7D97F1"/>
<rect x="1435.11" y="189.254" width="5.46269" height="5.46269" rx="2.58729" fill="#7D97F1"/>
<rect x="1435.11" y="210.328" width="5.46269" height="5.46269" rx="2.58729" fill="#7D97F1"/>
<rect x="0.550781" y="320" width="5.46269" height="5.46269" rx="2.58729" fill="#7D97F1"/>
<rect x="22.4023" y="320" width="5.46269" height="5.46269" rx="2.58729" fill="#7D97F1"/>
<rect x="44.2539" y="320" width="5.46269" height="5.46269" rx="2.58729" fill="#7D97F1"/>
<rect x="66.1055" y="320" width="5.46269" height="5.46269" rx="2.58729" fill="#7D97F1"/>
<rect x="87.957" y="320" width="5.46269" height="5.46269" rx="2.58729" fill="#7D97F1"/>
<rect x="109.805" y="320" width="5.46269" height="5.46269" rx="2.58729" fill="#7D97F1"/>
<rect x="131.656" y="320" width="5.46269" height="5.46269" rx="2.58729" fill="#7D97F1"/>
<rect x="0.550781" y="341.852" width="5.46269" height="5.46269" rx="2.58729" fill="#7D97F1"/>
<rect x="22.4023" y="341.852" width="5.46269" height="5.46269" rx="2.58729" fill="#7D97F1"/>
<rect x="44.2539" y="341.852" width="5.46269" height="5.46269" rx="2.58729" fill="#7D97F1"/>
<rect x="66.1055" y="341.852" width="5.46269" height="5.46269" rx="2.58729" fill="#7D97F1"/>
<rect x="87.957" y="341.852" width="5.46269" height="5.46269" rx="2.58729" fill="#7D97F1"/>
<rect x="109.805" y="341.852" width="5.46269" height="5.46269" rx="2.58729" fill="#7D97F1"/>
<rect x="131.656" y="341.852" width="5.46269" height="5.46269" rx="2.58729" fill="#7D97F1"/>
<rect x="0.550781" y="363.703" width="5.46269" height="5.46269" rx="2.58729" fill="#7D97F1"/>
<rect x="22.4023" y="363.703" width="5.46269" height="5.46269" rx="2.58729" fill="#7D97F1"/>
<rect x="44.2539" y="363.703" width="5.46269" height="5.46269" rx="2.58729" fill="#7D97F1"/>
<rect x="66.1055" y="363.703" width="5.46269" height="5.46269" rx="2.58729" fill="#7D97F1"/>
<rect x="87.957" y="363.703" width="5.46269" height="5.46269" rx="2.58729" fill="#7D97F1"/>
<rect x="109.805" y="363.703" width="5.46269" height="5.46269" rx="2.58729" fill="#7D97F1"/>
<rect x="131.656" y="363.703" width="5.46269" height="5.46269" rx="2.58729" fill="#7D97F1"/>
<rect x="0.550781" y="385.555" width="5.46269" height="5.46269" rx="2.58729" fill="#7D97F1"/>
<rect x="22.4023" y="385.555" width="5.46269" height="5.46269" rx="2.58729" fill="#7D97F1"/>
<rect x="44.2539" y="385.555" width="5.46269" height="5.46269" rx="2.58729" fill="#7D97F1"/>
<rect x="66.1055" y="385.555" width="5.46269" height="5.46269" rx="2.58729" fill="#7D97F1"/>
<rect x="87.957" y="385.555" width="5.46269" height="5.46269" rx="2.58729" fill="#7D97F1"/>
<rect x="109.805" y="385.555" width="5.46269" height="5.46269" rx="2.58729" fill="#7D97F1"/>
<rect x="131.656" y="385.555" width="5.46269" height="5.46269" rx="2.58729" fill="#7D97F1"/>
<rect x="0.550781" y="407.402" width="5.46269" height="5.46269" rx="2.58729" fill="#7D97F1"/>
<rect x="22.4023" y="407.402" width="5.46269" height="5.46269" rx="2.58729" fill="#7D97F1"/>
<rect x="44.2539" y="407.402" width="5.46269" height="5.46269" rx="2.58729" fill="#7D97F1"/>
<rect x="66.1055" y="407.402" width="5.46269" height="5.46269" rx="2.58729" fill="#7D97F1"/>
<rect x="87.957" y="407.402" width="5.46269" height="5.46269" rx="2.58729" fill="#7D97F1"/>
<rect x="109.805" y="407.402" width="5.46269" height="5.46269" rx="2.58729" fill="#7D97F1"/>
<rect x="131.656" y="407.402" width="5.46269" height="5.46269" rx="2.58729" fill="#7D97F1"/>
<rect x="0.550781" y="429.254" width="5.46269" height="5.46269" rx="2.58729" fill="#7D97F1"/>
<rect x="22.4023" y="429.254" width="5.46269" height="5.46269" rx="2.58729" fill="#7D97F1"/>
<rect x="44.2539" y="429.254" width="5.46269" height="5.46269" rx="2.58729" fill="#7D97F1"/>
<rect x="66.1055" y="429.254" width="5.46269" height="5.46269" rx="2.58729" fill="#7D97F1"/>
<rect x="87.957" y="429.254" width="5.46269" height="5.46269" rx="2.58729" fill="#7D97F1"/>
<rect x="109.805" y="429.254" width="5.46269" height="5.46269" rx="2.58729" fill="#7D97F1"/>
<rect x="131.656" y="429.254" width="5.46269" height="5.46269" rx="2.58729" fill="#7D97F1"/>
<rect x="0.550781" y="451.105" width="5.46269" height="5.46269" rx="2.58729" fill="#7D97F1"/>
<rect x="0.550781" y="472.18" width="5.46269" height="5.46269" rx="2.58729" fill="#7D97F1"/>
<rect x="0.550781" y="493.254" width="5.46269" height="5.46269" rx="2.58729" fill="#7D97F1"/>
<rect x="0.550781" y="514.328" width="5.46269" height="5.46269" rx="2.58729" fill="#7D97F1"/>
<rect x="22.4023" y="451.105" width="5.46269" height="5.46269" rx="2.58729" fill="#7D97F1"/>
<rect x="22.4023" y="472.18" width="5.46269" height="5.46269" rx="2.58729" fill="#7D97F1"/>
<rect x="22.4023" y="493.254" width="5.46269" height="5.46269" rx="2.58729" fill="#7D97F1"/>
<rect x="22.4023" y="514.328" width="5.46269" height="5.46269" rx="2.58729" fill="#7D97F1"/>
<rect x="44.2539" y="451.105" width="5.46269" height="5.46269" rx="2.58729" fill="#7D97F1"/>
<rect x="44.2539" y="472.18" width="5.46269" height="5.46269" rx="2.58729" fill="#7D97F1"/>
<rect x="44.2539" y="493.254" width="5.46269" height="5.46269" rx="2.58729" fill="#7D97F1"/>
<rect x="44.2539" y="514.328" width="5.46269" height="5.46269" rx="2.58729" fill="#7D97F1"/>
<rect x="66.1055" y="451.105" width="5.46269" height="5.46269" rx="2.58729" fill="#7D97F1"/>
<rect x="66.1055" y="472.18" width="5.46269" height="5.46269" rx="2.58729" fill="#7D97F1"/>
<rect x="66.1055" y="493.254" width="5.46269" height="5.46269" rx="2.58729" fill="#7D97F1"/>
<rect x="66.1055" y="514.328" width="5.46269" height="5.46269" rx="2.58729" fill="#7D97F1"/>
<rect x="87.957" y="451.105" width="5.46269" height="5.46269" rx="2.58729" fill="#7D97F1"/>
<rect x="87.957" y="472.18" width="5.46269" height="5.46269" rx="2.58729" fill="#7D97F1"/>
<rect x="87.957" y="493.254" width="5.46269" height="5.46269" rx="2.58729" fill="#7D97F1"/>
<rect x="87.957" y="514.328" width="5.46269" height="5.46269" rx="2.58729" fill="#7D97F1"/>
<rect x="109.805" y="451.105" width="5.46269" height="5.46269" rx="2.58729" fill="#7D97F1"/>
<rect x="109.805" y="472.18" width="5.46269" height="5.46269" rx="2.58729" fill="#7D97F1"/>
<rect x="109.805" y="493.254" width="5.46269" height="5.46269" rx="2.58729" fill="#7D97F1"/>
<rect x="109.805" y="514.328" width="5.46269" height="5.46269" rx="2.58729" fill="#7D97F1"/>
<rect x="131.656" y="451.105" width="5.46269" height="5.46269" rx="2.58729" fill="#7D97F1"/>
<rect x="131.656" y="472.18" width="5.46269" height="5.46269" rx="2.58729" fill="#7D97F1"/>
<rect x="131.656" y="493.254" width="5.46269" height="5.46269" rx="2.58729" fill="#7D97F1"/>
<rect x="131.656" y="514.328" width="5.46269" height="5.46269" rx="2.58729" fill="#7D97F1"/>
<g opacity="0.3">
<rect x="474" y="700" width="5.46269" height="5.46269" rx="2.58729" fill="#7D97F1"/>
<rect x="495.852" y="700" width="5.46269" height="5.46269" rx="2.58729" fill="#7D97F1"/>
<rect x="517.703" y="700" width="5.46269" height="5.46269" rx="2.58729" fill="#7D97F1"/>
<rect x="539.551" y="700" width="5.46269" height="5.46269" rx="2.58729" fill="#7D97F1"/>
<rect x="561.402" y="700" width="5.46269" height="5.46269" rx="2.58729" fill="#7D97F1"/>
<rect x="583.254" y="700" width="5.46269" height="5.46269" rx="2.58729" fill="#7D97F1"/>
<rect x="605.105" y="700" width="5.46269" height="5.46269" rx="2.58729" fill="#7D97F1"/>
<rect x="626.957" y="700" width="5.46269" height="5.46269" rx="2.58729" fill="#7D97F1"/>
<rect x="648.805" y="700" width="5.46269" height="5.46269" rx="2.58729" fill="#7D97F1"/>
<rect x="670.656" y="700" width="5.46269" height="5.46269" rx="2.58729" fill="#7D97F1"/>
<rect x="474" y="721.852" width="5.46269" height="5.46269" rx="2.58729" fill="#7D97F1"/>
<rect x="495.852" y="721.852" width="5.46269" height="5.46269" rx="2.58729" fill="#7D97F1"/>
<rect x="517.703" y="721.852" width="5.46269" height="5.46269" rx="2.58729" fill="#7D97F1"/>
<rect x="539.551" y="721.852" width="5.46269" height="5.46269" rx="2.58729" fill="#7D97F1"/>
<rect x="561.402" y="721.852" width="5.46269" height="5.46269" rx="2.58729" fill="#7D97F1"/>
<rect x="583.254" y="721.852" width="5.46269" height="5.46269" rx="2.58729" fill="#7D97F1"/>
<rect x="605.105" y="721.852" width="5.46269" height="5.46269" rx="2.58729" fill="#7D97F1"/>
<rect x="626.957" y="721.852" width="5.46269" height="5.46269" rx="2.58729" fill="#7D97F1"/>
<rect x="648.805" y="721.852" width="5.46269" height="5.46269" rx="2.58729" fill="#7D97F1"/>
<rect x="670.656" y="721.852" width="5.46269" height="5.46269" rx="2.58729" fill="#7D97F1"/>
<rect x="474" y="743.703" width="5.46269" height="5.46269" rx="2.58729" fill="#7D97F1"/>
<rect x="495.852" y="743.703" width="5.46269" height="5.46269" rx="2.58729" fill="#7D97F1"/>
<rect x="517.703" y="743.703" width="5.46269" height="5.46269" rx="2.58729" fill="#7D97F1"/>
<rect x="539.551" y="743.703" width="5.46269" height="5.46269" rx="2.58729" fill="#7D97F1"/>
<rect x="561.402" y="743.703" width="5.46269" height="5.46269" rx="2.58729" fill="#7D97F1"/>
<rect x="583.254" y="743.703" width="5.46269" height="5.46269" rx="2.58729" fill="#7D97F1"/>
<rect x="605.105" y="743.703" width="5.46269" height="5.46269" rx="2.58729" fill="#7D97F1"/>
<rect x="626.957" y="743.703" width="5.46269" height="5.46269" rx="2.58729" fill="#7D97F1"/>
<rect x="648.805" y="743.703" width="5.46269" height="5.46269" rx="2.58729" fill="#7D97F1"/>
<rect x="670.656" y="743.703" width="5.46269" height="5.46269" rx="2.58729" fill="#7D97F1"/>
<rect x="474" y="765.555" width="5.46269" height="5.46269" rx="2.58729" fill="#7D97F1"/>
<rect x="495.852" y="765.555" width="5.46269" height="5.46269" rx="2.58729" fill="#7D97F1"/>
<rect x="517.703" y="765.555" width="5.46269" height="5.46269" rx="2.58729" fill="#7D97F1"/>
<rect x="539.551" y="765.555" width="5.46269" height="5.46269" rx="2.58729" fill="#7D97F1"/>
<rect x="561.402" y="765.555" width="5.46269" height="5.46269" rx="2.58729" fill="#7D97F1"/>
<rect x="583.254" y="765.555" width="5.46269" height="5.46269" rx="2.58729" fill="#7D97F1"/>
<rect x="605.105" y="765.555" width="5.46269" height="5.46269" rx="2.58729" fill="#7D97F1"/>
<rect x="626.957" y="765.555" width="5.46269" height="5.46269" rx="2.58729" fill="#7D97F1"/>
<rect x="648.805" y="765.555" width="5.46269" height="5.46269" rx="2.58729" fill="#7D97F1"/>
<rect x="670.656" y="765.555" width="5.46269" height="5.46269" rx="2.58729" fill="#7D97F1"/>
<rect x="474" y="787.402" width="5.46269" height="5.46269" rx="2.58729" fill="#7D97F1"/>
<rect x="495.852" y="787.402" width="5.46269" height="5.46269" rx="2.58729" fill="#7D97F1"/>
<rect x="517.703" y="787.402" width="5.46269" height="5.46269" rx="2.58729" fill="#7D97F1"/>
<rect x="539.551" y="787.402" width="5.46269" height="5.46269" rx="2.58729" fill="#7D97F1"/>
<rect x="561.402" y="787.402" width="5.46269" height="5.46269" rx="2.58729" fill="#7D97F1"/>
<rect x="583.254" y="787.402" width="5.46269" height="5.46269" rx="2.58729" fill="#7D97F1"/>
<rect x="605.105" y="787.402" width="5.46269" height="5.46269" rx="2.58729" fill="#7D97F1"/>
<rect x="626.957" y="787.402" width="5.46269" height="5.46269" rx="2.58729" fill="#7D97F1"/>
<rect x="648.805" y="787.402" width="5.46269" height="5.46269" rx="2.58729" fill="#7D97F1"/>
<rect x="670.656" y="787.402" width="5.46269" height="5.46269" rx="2.58729" fill="#7D97F1"/>
<rect x="474" y="809.254" width="5.46269" height="5.46269" rx="2.58729" fill="#7D97F1"/>
<rect x="495.852" y="809.254" width="5.46269" height="5.46269" rx="2.58729" fill="#7D97F1"/>
<rect x="517.703" y="809.254" width="5.46269" height="5.46269" rx="2.58729" fill="#7D97F1"/>
<rect x="539.551" y="809.254" width="5.46269" height="5.46269" rx="2.58729" fill="#7D97F1"/>
<rect x="561.402" y="809.254" width="5.46269" height="5.46269" rx="2.58729" fill="#7D97F1"/>
<rect x="583.254" y="809.254" width="5.46269" height="5.46269" rx="2.58729" fill="#7D97F1"/>
<rect x="605.105" y="809.254" width="5.46269" height="5.46269" rx="2.58729" fill="#7D97F1"/>
<rect x="626.957" y="809.254" width="5.46269" height="5.46269" rx="2.58729" fill="#7D97F1"/>
<rect x="648.805" y="809.254" width="5.46269" height="5.46269" rx="2.58729" fill="#7D97F1"/>
<rect x="670.656" y="809.254" width="5.46269" height="5.46269" rx="2.58729" fill="#7D97F1"/>
<rect x="474" y="831.105" width="5.46269" height="5.46269" rx="2.58729" fill="#7D97F1"/>
<rect x="474" y="852.18" width="5.46269" height="5.46269" rx="2.58729" fill="#7D97F1"/>
<rect x="474" y="873.254" width="5.46269" height="5.46269" rx="2.58729" fill="#7D97F1"/>
<rect x="474" y="894.328" width="5.46269" height="5.46269" rx="2.58729" fill="#7D97F1"/>
<rect x="495.852" y="831.105" width="5.46269" height="5.46269" rx="2.58729" fill="#7D97F1"/>
<rect x="495.852" y="852.18" width="5.46269" height="5.46269" rx="2.58729" fill="#7D97F1"/>
<rect x="495.852" y="873.254" width="5.46269" height="5.46269" rx="2.58729" fill="#7D97F1"/>
<rect x="495.852" y="894.328" width="5.46269" height="5.46269" rx="2.58729" fill="#7D97F1"/>
<rect x="517.703" y="831.105" width="5.46269" height="5.46269" rx="2.58729" fill="#7D97F1"/>
<rect x="517.703" y="852.18" width="5.46269" height="5.46269" rx="2.58729" fill="#7D97F1"/>
<rect x="517.703" y="873.254" width="5.46269" height="5.46269" rx="2.58729" fill="#7D97F1"/>
<rect x="517.703" y="894.328" width="5.46269" height="5.46269" rx="2.58729" fill="#7D97F1"/>
<rect x="539.551" y="831.105" width="5.46269" height="5.46269" rx="2.58729" fill="#7D97F1"/>
<rect x="539.551" y="852.18" width="5.46269" height="5.46269" rx="2.58729" fill="#7D97F1"/>
<rect x="539.551" y="873.254" width="5.46269" height="5.46269" rx="2.58729" fill="#7D97F1"/>
<rect x="539.551" y="894.328" width="5.46269" height="5.46269" rx="2.58729" fill="#7D97F1"/>
<rect x="561.402" y="831.105" width="5.46269" height="5.46269" rx="2.58729" fill="#7D97F1"/>
<rect x="561.402" y="852.18" width="5.46269" height="5.46269" rx="2.58729" fill="#7D97F1"/>
<rect x="561.402" y="873.254" width="5.46269" height="5.46269" rx="2.58729" fill="#7D97F1"/>
<rect x="561.402" y="894.328" width="5.46269" height="5.46269" rx="2.58729" fill="#7D97F1"/>
<rect x="583.254" y="831.105" width="5.46269" height="5.46269" rx="2.58729" fill="#7D97F1"/>
<rect x="583.254" y="852.18" width="5.46269" height="5.46269" rx="2.58729" fill="#7D97F1"/>
<rect x="583.254" y="873.254" width="5.46269" height="5.46269" rx="2.58729" fill="#7D97F1"/>
<rect x="583.254" y="894.328" width="5.46269" height="5.46269" rx="2.58729" fill="#7D97F1"/>
<rect x="605.105" y="831.105" width="5.46269" height="5.46269" rx="2.58729" fill="#7D97F1"/>
<rect x="605.105" y="852.18" width="5.46269" height="5.46269" rx="2.58729" fill="#7D97F1"/>
<rect x="605.105" y="873.254" width="5.46269" height="5.46269" rx="2.58729" fill="#7D97F1"/>
<rect x="605.105" y="894.328" width="5.46269" height="5.46269" rx="2.58729" fill="#7D97F1"/>
<rect x="626.957" y="831.105" width="5.46269" height="5.46269" rx="2.58729" fill="#7D97F1"/>
<rect x="626.957" y="852.18" width="5.46269" height="5.46269" rx="2.58729" fill="#7D97F1"/>
<rect x="626.957" y="873.254" width="5.46269" height="5.46269" rx="2.58729" fill="#7D97F1"/>
<rect x="626.957" y="894.328" width="5.46269" height="5.46269" rx="2.58729" fill="#7D97F1"/>
<rect x="648.805" y="831.105" width="5.46269" height="5.46269" rx="2.58729" fill="#7D97F1"/>
<rect x="648.805" y="852.18" width="5.46269" height="5.46269" rx="2.58729" fill="#7D97F1"/>
<rect x="648.805" y="873.254" width="5.46269" height="5.46269" rx="2.58729" fill="#7D97F1"/>
<rect x="648.805" y="894.328" width="5.46269" height="5.46269" rx="2.58729" fill="#7D97F1"/>
<rect x="670.656" y="831.105" width="5.46269" height="5.46269" rx="2.58729" fill="#7D97F1"/>
<rect x="670.656" y="852.18" width="5.46269" height="5.46269" rx="2.58729" fill="#7D97F1"/>
<rect x="670.656" y="873.254" width="5.46269" height="5.46269" rx="2.58729" fill="#7D97F1"/>
<rect x="670.656" y="894.328" width="5.46269" height="5.46269" rx="2.58729" fill="#7D97F1"/>
</g>
<defs>
<linearGradient id="paint0_linear_0_1" x1="720" y1="0" x2="720" y2="1392" gradientUnits="userSpaceOnUse">
<stop offset="0.295" stop-color="#262858"/>
<stop offset="0.9999" stop-color="#5156BE"/>
</linearGradient>
</defs>
</svg>
