<svg width="18" height="18" viewBox="0 0 18 18" fill="none" xmlns="http://www.w3.org/2000/svg">
<path d="M4.82085 1.81047C4.91541 1.69762 4.96195 1.55219 4.95048 1.40541C4.93901 1.25862 4.87045 1.12218 4.75952 1.02538C4.64858 0.928585 4.50411 0.879139 4.35713 0.887663C4.21014 0.896187 4.07236 0.962 3.97335 1.07097L3.00435 2.18097C2.45489 2.81065 2.14428 3.61345 2.12685 4.44897L2.0841 6.48822C2.08258 6.56209 2.09562 6.63554 2.12247 6.70437C2.14933 6.7732 2.18948 6.83606 2.24064 6.88938C2.29179 6.94269 2.35294 6.9854 2.4206 7.01508C2.48827 7.04476 2.56111 7.06082 2.63498 7.06235C2.70885 7.06388 2.78229 7.05084 2.85112 7.02398C2.91995 6.99712 2.98282 6.95697 3.03613 6.90582C3.08944 6.85466 3.13216 6.79351 3.16184 6.72585C3.19152 6.65819 3.20758 6.58534 3.2091 6.51147L3.2511 4.47297C3.26314 3.90127 3.47579 3.35199 3.85185 2.92122L4.82085 1.81047Z" fill="#5156BE"/>
<path fill-rule="evenodd" clip-rule="evenodd" d="M4.67796 5.775C4.72832 4.9726 5.0826 4.21956 5.66865 3.66918C6.2547 3.11879 7.02848 2.81245 7.83246 2.8125H8.25021V2.25C8.25021 2.05109 8.32922 1.86032 8.46988 1.71967C8.61053 1.57902 8.80129 1.5 9.00021 1.5C9.19912 1.5 9.38988 1.57902 9.53054 1.71967C9.67119 1.86032 9.75021 2.05109 9.75021 2.25V2.8125H10.168C10.9719 2.81245 11.7457 3.11879 12.3318 3.66918C12.9178 4.21956 13.2721 4.9726 13.3225 5.775L13.4882 8.4255C13.5514 9.43609 13.8907 10.41 14.4692 11.241C14.5887 11.4128 14.6618 11.6126 14.6812 11.821C14.7006 12.0294 14.6658 12.2392 14.5801 12.4302C14.4944 12.6211 14.3608 12.7866 14.1922 12.9106C14.0236 13.0346 13.8258 13.1129 13.618 13.1378L11.0627 13.4437V14.25C11.0627 14.797 10.8454 15.3216 10.4586 15.7084C10.0718 16.0952 9.54722 16.3125 9.00021 16.3125C8.4532 16.3125 7.92859 16.0952 7.5418 15.7084C7.155 15.3216 6.93771 14.797 6.93771 14.25V13.4437L4.38246 13.137C4.17478 13.112 3.97709 13.0338 3.80859 12.9098C3.64009 12.7859 3.50652 12.6205 3.42085 12.4296C3.33517 12.2388 3.30031 12.0291 3.31965 11.8208C3.33898 11.6125 3.41187 11.4128 3.53121 11.241C4.10968 10.4099 4.449 9.43609 4.51221 8.4255L4.67796 5.775ZM7.83246 3.9375C7.31464 3.93744 6.81626 4.13473 6.43879 4.48921C6.06132 4.84368 5.83314 5.3287 5.80071 5.8455L5.63571 8.496C5.55946 9.71173 5.15115 10.8833 4.45521 11.883C4.44656 11.8954 4.44127 11.9099 4.43986 11.9249C4.43845 11.94 4.44096 11.9552 4.44715 11.969C4.45334 11.9828 4.463 11.9948 4.47518 12.0038C4.48737 12.0128 4.50168 12.0184 4.51671 12.0203L7.31946 12.357C8.43621 12.4905 9.56421 12.4905 10.681 12.357L13.4837 12.0203C13.4987 12.0184 13.513 12.0128 13.5252 12.0038C13.5374 11.9948 13.5471 11.9828 13.5533 11.969C13.5595 11.9552 13.562 11.94 13.5606 11.9249C13.5591 11.9099 13.5539 11.8954 13.5452 11.883C12.8495 10.8832 12.4414 9.71167 12.3655 8.496L12.1997 5.8455C12.1673 5.3287 11.9391 4.84368 11.5616 4.48921C11.1842 4.13473 10.6858 3.93744 10.168 3.9375H7.83246ZM9.00021 15.1875C8.48271 15.1875 8.06271 14.7675 8.06271 14.25V13.6875H9.93771V14.25C9.93771 14.7675 9.51771 15.1875 9.00021 15.1875Z" fill="#5156BE"/>
<path d="M13.2317 1.0175C13.1193 1.11558 13.0505 1.25427 13.0404 1.40307C13.0302 1.55187 13.0796 1.6986 13.1777 1.811L14.1467 2.921C14.5226 3.35207 14.735 3.90163 14.7467 4.4735L14.7894 6.51125C14.7925 6.66043 14.8547 6.80228 14.9624 6.90559C15.07 7.0089 15.2143 7.06521 15.3635 7.06212C15.5127 7.05904 15.6546 6.99682 15.7579 6.88915C15.8612 6.78148 15.9175 6.63718 15.9144 6.488L15.8717 4.4495C15.8542 3.61398 15.5436 2.81117 14.9942 2.1815L14.0252 1.0715C13.9271 0.959139 13.7884 0.890332 13.6396 0.880205C13.4908 0.870079 13.3441 0.919463 13.2317 1.0175Z" fill="#5156BE"/>
</svg>
