<svg width="18" height="18" viewBox="0 0 18 18" fill="none" xmlns="http://www.w3.org/2000/svg">
<path d="M12.7539 12.0039H14.2539V3.00391H6.75391V4.50391H12.7539V12.0039ZM12.7539 13.5039V15.7532C12.7539 16.1679 12.4164 16.5032 11.9987 16.5032H3.00916C2.91022 16.5038 2.81213 16.485 2.72053 16.4476C2.62893 16.4102 2.54563 16.3551 2.47543 16.2854C2.40523 16.2156 2.34951 16.1327 2.31149 16.0414C2.27348 15.95 2.2539 15.8521 2.25391 15.7532L2.25541 5.25466C2.25541 4.83991 2.59291 4.50391 3.01066 4.50391H5.25316V2.25391C5.25316 2.05499 5.33217 1.86423 5.47283 1.72358C5.61348 1.58292 5.80424 1.50391 6.00316 1.50391H15.0032C15.2021 1.50391 15.3928 1.58292 15.5335 1.72358C15.6741 1.86423 15.7532 2.05499 15.7532 2.25391V12.7539C15.7532 12.9528 15.6741 13.1436 15.5335 13.2842C15.3928 13.4249 15.2021 13.5039 15.0032 13.5039H12.7539ZM3.75541 6.00391L3.75391 15.0039H11.2539V6.00391H3.75541ZM5.25391 12.0039H8.62891C8.72836 12.0039 8.82374 11.9644 8.89407 11.8941C8.9644 11.8237 9.00391 11.7284 9.00391 11.6289C9.00391 11.5295 8.9644 11.4341 8.89407 11.3637C8.82374 11.2934 8.72836 11.2539 8.62891 11.2539H6.37891C5.88163 11.2539 5.40471 11.0564 5.05308 10.7047C4.70145 10.3531 4.50391 9.87619 4.50391 9.37891C4.50391 8.88163 4.70145 8.40471 5.05308 8.05308C5.40471 7.70145 5.88163 7.50391 6.37891 7.50391H6.75391V6.75391H8.25391V7.50391H9.75391V9.00391H6.37891C6.27945 9.00391 6.18407 9.04341 6.11374 9.11374C6.04341 9.18407 6.00391 9.27945 6.00391 9.37891C6.00391 9.47836 6.04341 9.57374 6.11374 9.64407C6.18407 9.7144 6.27945 9.75391 6.37891 9.75391H8.62891C9.12619 9.75391 9.6031 9.95145 9.95473 10.3031C10.3064 10.6547 10.5039 11.1316 10.5039 11.6289C10.5039 12.1262 10.3064 12.6031 9.95473 12.9547C9.6031 13.3064 9.12619 13.5039 8.62891 13.5039H8.25391V14.2539H6.75391V13.5039H5.25391V12.0039Z" fill="#5156BE"/>
</svg>
