<svg width="18" height="18" viewBox="0 0 18 18" fill="none" xmlns="http://www.w3.org/2000/svg">
<path d="M12.9375 5.0625C12.9375 6.10679 12.5227 7.10831 11.7842 7.84673C11.0458 8.58516 10.0443 9 9 9C7.95571 9 6.95419 8.58516 6.21577 7.84673C5.47734 7.10831 5.0625 6.10679 5.0625 5.0625C5.0625 4.01821 5.47734 3.01669 6.21577 2.27827C6.95419 1.53984 7.95571 1.125 9 1.125C10.0443 1.125 11.0458 1.53984 11.7842 2.27827C12.5227 3.01669 12.9375 4.01821 12.9375 5.0625ZM11.8125 5.0625C11.8125 4.31658 11.5162 3.60121 10.9887 3.07376C10.4613 2.54632 9.74592 2.25 9 2.25C8.25408 2.25 7.53871 2.54632 7.01126 3.07376C6.48382 3.60121 6.1875 4.31658 6.1875 5.0625C6.1875 5.80842 6.48382 6.52379 7.01126 7.05124C7.53871 7.57868 8.25408 7.875 9 7.875C9.74592 7.875 10.4613 7.57868 10.9887 7.05124C11.5162 6.52379 11.8125 5.80842 11.8125 5.0625ZM4.21875 10.125C3.69661 10.125 3.19585 10.3324 2.82663 10.7016C2.45742 11.0708 2.25 11.5716 2.25 12.0938V12.375C2.25 13.7211 3.10669 14.8596 4.32281 15.6336C5.54569 16.4121 7.20113 16.875 9 16.875C10.7989 16.875 12.4538 16.4121 13.6772 15.6336C14.8933 14.8596 15.75 13.7211 15.75 12.375V12.0938C15.75 11.5716 15.5426 11.0708 15.1734 10.7016C14.8042 10.3324 14.3034 10.125 13.7812 10.125H4.21875ZM3.375 12.0938C3.375 11.87 3.46389 11.6554 3.62213 11.4971C3.78036 11.3389 3.99497 11.25 4.21875 11.25H13.7812C14.005 11.25 14.2196 11.3389 14.3779 11.4971C14.5361 11.6554 14.625 11.87 14.625 12.0938V12.375C14.625 13.2036 14.0962 14.0338 13.0731 14.6846C12.0566 15.3315 10.6183 15.75 9 15.75C7.38169 15.75 5.94337 15.3315 4.92694 14.6846C3.90319 14.0344 3.375 13.203 3.375 12.375V12.0938Z" fill="#5156BE"/>
</svg>
