<svg width="18" height="18" viewBox="0 0 18 18" fill="none" xmlns="http://www.w3.org/2000/svg">
<path d="M8.99934 8.65494C8.5675 8.65494 8.15335 8.48339 7.848 8.17803C7.54264 7.87268 7.37109 7.45853 7.37109 7.02669C7.37109 6.59485 7.54264 6.1807 7.848 5.87534C8.15335 5.56998 8.5675 5.39844 8.99934 5.39844C9.43128 5.39844 9.84553 5.57002 10.151 5.87545C10.4564 6.18088 10.628 6.59512 10.628 7.02706C10.628 7.459 10.4564 7.87325 10.151 8.17867C9.84553 8.4841 9.43128 8.65569 8.99934 8.65569V11.0977" stroke="#5156BE" stroke-width="1.5" stroke-linecap="round" stroke-linejoin="round"/>
<path d="M15.5041 8.91791V4.95791C15.5043 4.65401 15.4088 4.35777 15.2311 4.11126C15.0533 3.86475 14.8025 3.68049 14.5141 3.58466L10.8286 2.35541C9.64087 1.96486 8.35931 1.96486 7.17159 2.35541L3.48609 3.58391C3.19777 3.6796 2.94692 3.86372 2.7692 4.1101C2.59148 4.35649 2.49592 4.65261 2.49609 4.95641V8.91641C2.49616 9.89392 2.74407 10.8555 3.21664 11.7112C3.68921 12.5669 4.37102 13.2888 5.19834 13.8094L8.23434 15.7174C8.46399 15.8609 8.72932 15.9369 9.00009 15.9369C9.27087 15.9369 9.5362 15.8609 9.76584 15.7174L12.8011 13.8094C13.6285 13.289 14.3104 12.5672 14.7831 11.7117C15.2558 10.8561 15.5039 9.89463 15.5041 8.91716" stroke="#5156BE" stroke-width="1.5" stroke-linecap="round" stroke-linejoin="round"/>
</svg>
