<svg width="15" height="16" viewBox="0 0 15 16" fill="none" xmlns="http://www.w3.org/2000/svg">
<g clip-path="url(#clip0_987_5847)">
<path d="M10.6021 3.23702C10.8446 3.37702 10.9362 3.65849 10.8102 3.87673L6.76016 10.8915C6.63416 11.1098 6.34463 11.1713 6.10214 11.0313C5.85966 10.8913 5.76813 10.6098 5.89413 10.3915L9.94413 3.37673C10.0701 3.15849 10.3597 3.09702 10.6021 3.23702Z" fill="#DDDDDD"/>
<path d="M4.6174 6.60281C4.67451 6.63503 4.72557 6.67664 4.76727 6.72496C4.80898 6.77328 4.84042 6.82723 4.85957 6.88336L6.30786 10.6748L10.3155 10.0334C10.57 9.99263 10.8385 10.1476 10.9304 10.3884C11.0224 10.6291 10.8964 10.8472 10.642 10.8879L6.18901 11.6007C5.93455 11.6414 5.66608 11.4864 5.57413 11.2457L3.96491 7.03294C3.87296 6.79221 3.9989 6.57408 4.25335 6.53336C4.38058 6.51299 4.51348 6.54281 4.6174 6.60281Z" fill="#DDDDDD"/>
</g>
<defs>
<clipPath id="clip0_987_5847">
<rect width="9" height="13" fill="white" transform="translate(8.5 15.8789) rotate(-150)"/>
</clipPath>
</defs>
</svg>
