<svg width="8" height="5" viewBox="0 0 8 5" fill="none" xmlns="http://www.w3.org/2000/svg">
<path d="M4.42958 4.66797C4.34506 4.76888 4.24267 4.84945 4.1224 4.90967C4.00213 4.96989 3.87211 5 3.73233 5C3.59256 5 3.46172 4.96989 3.33982 4.90967C3.21793 4.84945 3.11635 4.77051 3.03508 4.67285L3.03021 4.66797L2.23544 3.56934L0.953093 2.00195L0.406997 1.2793C0.354988 1.21419 0.315168 1.14014 0.287539 1.05713C0.259909 0.974121 0.246094 0.887044 0.246094 0.795898C0.246094 0.574544 0.324107 0.386556 0.480135 0.231934C0.636162 0.077311 0.824695 0 1.04573 0C1.05549 0 1.06524 0 1.07499 0C1.08474 0 1.09612 0 1.10912 0H1.10424H6.35554C6.36529 0 6.37586 0 6.38724 0C6.39861 0 6.40918 0 6.41893 0C6.63997 0 6.8285 0.077311 6.98453 0.231934C7.14056 0.386556 7.21857 0.574544 7.21857 0.795898C7.21857 0.887044 7.20394 0.974121 7.17469 1.05713C7.14543 1.14014 7.1048 1.21582 7.05279 1.28418L7.05767 1.2793L6.50669 2.00195L5.27798 3.56934L4.42958 4.66797Z" fill="#747ED1"/>
</svg>
