<svg width="24" height="24" viewBox="0 0 24 24" fill="none" xmlns="http://www.w3.org/2000/svg">
<path opacity="0.2" d="M23.9359 11.9992C23.9359 18.5917 18.5917 23.936 11.9993 23.936C5.40674 23.936 0.0625 18.5917 0.0625 11.9992C0.0625 5.40674 5.40674 0.0625 11.9993 0.0625C18.5917 0.0625 23.9359 5.40674 23.9359 11.9992Z" fill="#505050"/>
<g opacity="0.8">
<path d="M11.9604 6.46094L11.8867 6.71154V13.9834L11.9604 14.057L15.3359 12.0617L11.9604 6.46094Z" fill="#122A44"/>
<path d="M11.9614 6.46094L8.58594 12.0617L11.9614 14.057V10.5275V6.46094Z" fill="#122A44"/>
<path d="M11.9595 15.1544L11.918 15.205V17.7954L11.9595 17.9168L15.337 13.1602L11.9595 15.1544Z" fill="#122A44"/>
<path d="M11.9614 17.9168V15.1544L8.58594 13.1602L11.9614 17.9168Z" fill="#122A44"/>
<path d="M11.9609 14.0568L15.3364 12.0616L11.9609 10.5273V14.0568Z" fill="#122A44"/>
<path d="M8.58594 12.0616L11.9614 14.0568V10.5273L8.58594 12.0616Z" fill="#122A44"/>
</g>
</svg>
