<svg width="22" height="22" viewBox="0 0 22 22" fill="none" xmlns="http://www.w3.org/2000/svg">
<path d="M10.7955 6.70116C11.3323 6.70116 11.8471 6.91441 12.2267 7.29399C12.6063 7.67358 12.8195 8.18841 12.8195 8.72522C12.8195 9.26204 12.6063 9.77686 12.2267 10.1564C11.8471 10.536 11.3323 10.7493 10.7955 10.7493C10.2587 10.7493 9.74383 10.536 9.36424 10.1564C8.98466 9.77686 8.77141 9.26204 8.77141 8.72522C8.77141 8.18841 8.98466 7.67358 9.36424 7.29399C9.74383 6.91441 10.2587 6.70116 10.7955 6.70116ZM10.1208 8.72522C10.1208 8.90416 10.1919 9.07577 10.3184 9.2023C10.4449 9.32883 10.6165 9.39991 10.7955 9.39991C10.9744 9.39991 11.146 9.32883 11.2725 9.2023C11.3991 9.07577 11.4702 8.90416 11.4702 8.72522C11.4702 8.54628 11.3991 8.37467 11.2725 8.24815C11.146 8.12162 10.9744 8.05053 10.7955 8.05053C10.6165 8.05053 10.4449 8.12162 10.3184 8.24815C10.1919 8.37467 10.1208 8.54628 10.1208 8.72522ZM9.67099 12.7733V15.4721C9.67099 15.651 9.59991 15.8226 9.47338 15.9492C9.34685 16.0757 9.17524 16.1468 8.9963 16.1468C8.81736 16.1468 8.64576 16.0757 8.51923 15.9492C8.3927 15.8226 8.32162 15.651 8.32162 15.4721V12.7733C8.32162 12.5944 8.3927 12.4228 8.51923 12.2963C8.64576 12.1697 8.81736 12.0987 8.9963 12.0987C9.17524 12.0987 9.34685 12.1697 9.47338 12.2963C9.59991 12.4228 9.67099 12.5944 9.67099 12.7733ZM12.5946 12.0987C12.7736 12.0987 12.9452 12.1697 13.0717 12.2963C13.1982 12.4228 13.2693 12.5944 13.2693 12.7733V15.4721C13.2693 15.651 13.1982 15.8226 13.0717 15.9492C12.9452 16.0757 12.7736 16.1468 12.5946 16.1468C12.4157 16.1468 12.2441 16.0757 12.1176 15.9492C11.991 15.8226 11.9199 15.651 11.9199 15.4721V12.7733C11.9199 12.5944 11.991 12.4228 12.1176 12.2963C12.2441 12.1697 12.4157 12.0987 12.5946 12.0987ZM11.2363 3.12712L18.4329 7.17524C18.572 7.25342 18.6878 7.36719 18.7684 7.50488C18.8491 7.64257 18.8916 7.79922 18.8917 7.95878V10.0188C18.8917 10.2574 18.7969 10.4862 18.6282 10.6549C18.4595 10.8236 18.2307 10.9184 17.9921 10.9184H17.7106C17.472 10.9184 17.2432 11.0132 17.0745 11.1819C16.9058 11.3506 16.811 11.5794 16.811 11.818V14.1794C16.811 14.418 16.9058 14.6468 17.0745 14.8155C17.2432 14.9842 17.472 15.079 17.7106 15.079H17.9921C18.2307 15.079 18.4595 15.1738 18.6282 15.3425C18.7969 15.5112 18.8917 15.74 18.8917 15.9786V18.1717C18.8917 18.4103 18.7969 18.6391 18.6282 18.8078C18.4595 18.9766 18.2307 19.0713 17.9921 19.0713H3.5988C3.36022 19.0713 3.13141 18.9766 2.9627 18.8078C2.794 18.6391 2.69922 18.4103 2.69922 18.1717V15.9786C2.69922 15.74 2.794 15.5112 2.9627 15.3425C3.13141 15.1738 3.36022 15.079 3.5988 15.079H3.88037C4.11896 15.079 4.34777 14.9842 4.51647 14.8155C4.68518 14.6468 4.77996 14.418 4.77996 14.1794V11.818C4.77996 11.5794 4.68518 11.3506 4.51647 11.1819C4.34777 11.0132 4.11896 10.9184 3.88037 10.9184H3.5988C3.36022 10.9184 3.13141 10.8236 2.9627 10.6549C2.794 10.4862 2.69922 10.2574 2.69922 10.0188V7.95878C2.69933 7.79922 2.74188 7.64257 2.82251 7.50488C2.90313 7.36719 3.01892 7.25342 3.15801 7.17524L10.3547 3.12712C10.4893 3.05146 10.6411 3.01172 10.7955 3.01172C10.9499 3.01172 11.1017 3.05146 11.2363 3.12712ZM6.12843 10.4686V15.5288C6.12843 15.7674 6.03365 15.9962 5.86495 16.1649C5.69624 16.3336 5.46743 16.4284 5.22885 16.4284H4.69449C4.52885 16.4371 4.37287 16.509 4.25872 16.6294C4.14456 16.7497 4.08092 16.9093 4.08092 17.0752C4.08092 17.241 4.14456 17.4006 4.25872 17.5209C4.37287 17.6413 4.52885 17.7132 4.69449 17.722H16.8964C17.068 17.722 17.2325 17.6538 17.3538 17.5325C17.4751 17.4112 17.5432 17.2467 17.5432 17.0752C17.5432 16.9036 17.4751 16.7391 17.3538 16.6178C17.2325 16.4965 17.068 16.4284 16.8964 16.4284H16.3612C16.1226 16.4284 15.8938 16.3336 15.7251 16.1649C15.5564 15.9962 15.4616 15.7674 15.4616 15.5288V10.4686C15.4616 10.23 15.5564 10.0012 15.7251 9.83251C15.8938 9.66381 16.1226 9.56903 16.3612 9.56903H16.6922C16.88 9.56875 17.0623 9.50632 17.2109 9.3915C17.3594 9.27667 17.4658 9.11591 17.5133 8.93429C17.5609 8.75267 17.547 8.56041 17.4738 8.38752C17.4006 8.21463 17.2723 8.07084 17.1087 7.97857L11.2363 4.6753C11.1016 4.59948 10.9496 4.55965 10.795 4.55965C10.6404 4.55965 10.4885 4.59948 10.3538 4.6753L4.48219 7.97857C4.31869 8.07084 4.19032 8.21463 4.11714 8.38752C4.04395 8.56041 4.03005 8.75267 4.07761 8.93429C4.12517 9.11591 4.23152 9.27667 4.38005 9.3915C4.52859 9.50632 4.71096 9.56875 4.8987 9.56903H5.22975C5.46833 9.56903 5.69714 9.66381 5.86585 9.83251C6.03455 10.0012 6.12933 10.23 6.12933 10.4686H6.12843Z" fill="#60697B"/>
</svg>
