<svg width="347" height="69" viewBox="0 0 347 69" fill="none" xmlns="http://www.w3.org/2000/svg">
<path d="M3.10742 52.1973H4.15332V60.9951H9.10938V62H3.10742V52.1973ZM10.8763 56.0801C11.5554 55.3965 12.3893 55.0547 13.3783 55.0547C14.3672 55.0547 15.2012 55.3965 15.8802 56.0801C16.5638 56.7591 16.9056 57.5977 16.9056 58.5957C16.9056 59.5938 16.5638 60.4346 15.8802 61.1182C15.2012 61.7972 14.3672 62.1367 13.3783 62.1367C12.3893 62.1367 11.5554 61.7972 10.8763 61.1182C10.2018 60.4346 9.86461 59.5938 9.86461 58.5957C9.86461 57.5977 10.2018 56.7591 10.8763 56.0801ZM13.3783 56.0254C12.6719 56.0254 12.0772 56.2715 11.5941 56.7637C11.111 57.2559 10.8695 57.8665 10.8695 58.5957C10.8695 59.3203 11.111 59.931 11.5941 60.4277C12.0772 60.9245 12.6719 61.1729 13.3783 61.1729C14.0847 61.1729 14.6817 60.9245 15.1693 60.4277C15.6569 59.9264 15.9007 59.3158 15.9007 58.5957C15.9007 57.8711 15.6569 57.2627 15.1693 56.7705C14.6862 56.2738 14.0892 56.0254 13.3783 56.0254ZM20.1013 62L17.613 55.1982H18.7068L20.5251 60.5439L22.4392 55.1982H23.28L25.2146 60.5439L27.0329 55.1982H28.1267L25.6316 62H24.7907L22.863 56.6543L20.9284 62H20.1013ZM33.6635 57.3926C33.4311 57.3926 33.2374 57.3174 33.0825 57.167C32.9275 57.012 32.85 56.8206 32.85 56.5928C32.85 56.3604 32.9275 56.1667 33.0825 56.0117C33.2374 55.8522 33.4311 55.7725 33.6635 55.7725C33.9005 55.7725 34.0965 55.8522 34.2514 56.0117C34.4064 56.1667 34.4838 56.3604 34.4838 56.5928C34.4838 56.8206 34.4064 57.012 34.2514 57.167C34.0965 57.3174 33.9005 57.3926 33.6635 57.3926ZM33.6635 62.1367C33.4311 62.1367 33.2374 62.0615 33.0825 61.9111C32.9275 61.7562 32.85 61.5625 32.85 61.3301C32.85 61.1022 32.9275 60.9108 33.0825 60.7559C33.2374 60.5964 33.4311 60.5166 33.6635 60.5166C33.9005 60.5166 34.0965 60.5964 34.2514 60.7559C34.4064 60.9108 34.4838 61.1022 34.4838 61.3301C34.4838 61.5625 34.4064 61.7562 34.2514 61.9111C34.0965 62.0615 33.9005 62.1367 33.6635 62.1367ZM46.3234 59.2998C46.3234 60.0381 46.0568 60.6738 45.5236 61.207C44.9904 61.7357 44.2863 62.041 43.4113 62.123V63.6816H42.4338V62.1094C41.8322 62.0456 41.2648 61.8883 40.7316 61.6377C40.1984 61.3825 39.7336 61.0703 39.3371 60.7012L40.0138 59.9014C40.9298 60.7126 41.9188 61.1182 42.9806 61.1182C43.6414 61.1182 44.1815 60.9518 44.6007 60.6191C45.0246 60.2819 45.2365 59.8467 45.2365 59.3135C45.2365 59.0446 45.1727 58.8099 45.0451 58.6094C44.922 58.4089 44.7534 58.2471 44.5392 58.124C44.3296 57.9964 44.088 57.8848 43.8146 57.7891C43.5412 57.6934 43.2518 57.6045 42.9464 57.5225C42.6457 57.4404 42.3426 57.3538 42.0373 57.2627C41.7319 57.1715 41.4425 57.0576 41.1691 56.9209C40.8957 56.7796 40.6518 56.6156 40.4377 56.4287C40.228 56.2419 40.0594 56.0003 39.9318 55.7041C39.8088 55.4033 39.7472 55.0615 39.7472 54.6787C39.7472 53.9951 39.9956 53.4141 40.4923 52.9355C40.9936 52.457 41.6408 52.1745 42.4338 52.0879V50.5225H43.4113V52.0879C43.9399 52.1517 44.4367 52.2952 44.9015 52.5186C45.3664 52.7373 45.7287 53.0039 45.9884 53.3184L45.3459 54.1318C45.0633 53.8083 44.6942 53.5531 44.2384 53.3662C43.7873 53.1748 43.3156 53.0791 42.8234 53.0791C42.2401 53.0791 41.757 53.2227 41.3742 53.5098C40.9959 53.7969 40.8068 54.1637 40.8068 54.6104C40.8068 54.9658 40.9071 55.2666 41.1076 55.5127C41.3127 55.7588 41.577 55.9502 41.9005 56.0869C42.2241 56.2236 42.5819 56.3467 42.9738 56.4561C43.3703 56.5654 43.7645 56.6862 44.1564 56.8184C44.5483 56.9505 44.9061 57.11 45.2296 57.2969C45.5532 57.4792 45.8153 57.7412 46.0158 58.083C46.2209 58.4202 46.3234 58.8258 46.3234 59.2998ZM54.687 58.7939V59.7988H53.3609V62H52.3081V59.7988H47.3384V59.0605L50.9478 52.1973H52.1372L48.6372 58.7939H52.3081V55.4785H53.3609V58.7939H54.687ZM57.493 56.415L60.3641 53.209H55.6884V52.1973H61.8612V52.9424L58.8397 56.2168C58.9445 56.1986 59.0972 56.1895 59.2977 56.1895C60.0725 56.1895 60.7242 56.4515 61.2528 56.9756C61.7815 57.4951 62.0458 58.1536 62.0458 58.9512C62.0458 59.8809 61.7313 60.6442 61.1024 61.2412C60.4781 61.8382 59.6805 62.1367 58.7098 62.1367C57.8895 62.1367 57.1672 61.9066 56.5429 61.4463C55.9231 60.986 55.5357 60.3958 55.3807 59.6758L56.3173 59.3408C56.4449 59.8604 56.732 60.2865 57.1786 60.6191C57.6252 60.9518 58.1356 61.1182 58.7098 61.1182C59.3615 61.1182 59.897 60.9131 60.3163 60.5029C60.7401 60.0882 60.952 59.5596 60.952 58.917C60.952 58.3245 60.7492 57.8506 60.3436 57.4951C59.9426 57.1396 59.4367 56.9619 58.8261 56.9619C58.4751 56.9619 58.147 57.012 57.8417 57.1123L57.493 56.415ZM64.8996 60.6396L63.9631 63.4834H63.1496L63.7512 60.6396H64.8996ZM71.8961 61.3164C71.29 61.8542 70.5175 62.123 69.5787 62.123C68.6399 62.123 67.8652 61.8542 67.2545 61.3164C66.6484 60.7786 66.3453 60.0973 66.3453 59.2725C66.3453 58.6846 66.5276 58.1559 66.8922 57.6865C67.2568 57.2126 67.7307 56.8913 68.3141 56.7227C67.8538 56.5677 67.4755 56.292 67.1793 55.8955C66.8831 55.499 66.735 55.0661 66.735 54.5967C66.735 53.8675 67.0016 53.2682 67.5348 52.7988C68.0725 52.3249 68.7538 52.0879 69.5787 52.0879C70.4036 52.0879 71.0826 52.3249 71.6158 52.7988C72.1536 53.2682 72.4225 53.8675 72.4225 54.5967C72.4225 55.0661 72.2721 55.499 71.9713 55.8955C71.6751 56.292 71.2968 56.5677 70.8365 56.7227C71.4199 56.8913 71.8938 57.2126 72.2584 57.6865C72.6275 58.1559 72.8121 58.6846 72.8121 59.2725C72.8121 60.0973 72.5068 60.7786 71.8961 61.3164ZM68.2662 55.7861C68.608 56.0824 69.0455 56.2305 69.5787 56.2305C70.1119 56.2305 70.5471 56.0824 70.8844 55.7861C71.2262 55.4899 71.3971 55.1071 71.3971 54.6377C71.3971 54.1729 71.2262 53.79 70.8844 53.4893C70.5471 53.1885 70.1119 53.0381 69.5787 53.0381C69.0455 53.0381 68.608 53.1885 68.2662 53.4893C67.929 53.79 67.7604 54.1729 67.7604 54.6377C67.7604 55.1071 67.929 55.4899 68.2662 55.7861ZM67.9996 60.5918C68.4189 60.9609 68.9452 61.1455 69.5787 61.1455C70.2122 61.1455 70.7363 60.9609 71.151 60.5918C71.5657 60.2227 71.773 59.7578 71.773 59.1973C71.773 58.6413 71.5657 58.1833 71.151 57.8232C70.7363 57.4632 70.2122 57.2832 69.5787 57.2832C68.9407 57.2832 68.4143 57.4655 67.9996 57.8301C67.5849 58.1901 67.3775 58.6458 67.3775 59.1973C67.3775 59.7578 67.5849 60.2227 67.9996 60.5918ZM75.4814 52.498C75.9918 52.2064 76.5455 52.0605 77.1425 52.0605C77.7395 52.0605 78.291 52.2064 78.7968 52.498C79.3027 52.7852 79.7037 53.1794 80 53.6807C80.2962 54.1774 80.4443 54.7197 80.4443 55.3076C80.4443 55.654 80.3714 56.0436 80.2255 56.4766C80.0843 56.9049 79.8815 57.3311 79.6171 57.7549L76.9716 62H75.7685L78.2158 58.165C77.8421 58.3975 77.4319 58.5137 76.9853 58.5137C76.0966 58.5137 75.3492 58.2061 74.7431 57.5908C74.137 56.9756 73.8339 56.2145 73.8339 55.3076C73.8339 54.7197 73.9821 54.1774 74.2783 53.6807C74.5745 53.1794 74.9755 52.7852 75.4814 52.498ZM77.1562 57.6045C77.7851 57.6045 78.316 57.3835 78.749 56.9414C79.1865 56.4993 79.4052 55.9593 79.4052 55.3213C79.4052 54.6878 79.1865 54.1546 78.749 53.7217C78.316 53.2842 77.7806 53.0654 77.1425 53.0654C76.5 53.0654 75.9576 53.2842 75.5156 53.7217C75.0781 54.1546 74.8593 54.6878 74.8593 55.3213C74.8593 55.9593 75.0804 56.4993 75.5224 56.9414C75.969 57.3835 76.5136 57.6045 77.1562 57.6045ZM81.1107 52.1973H87.5364V52.9561L83.2366 62H82.0609L86.2718 53.209H81.1107V52.1973ZM87.861 62.1367C87.6286 62.1367 87.4349 62.0615 87.28 61.9111C87.125 61.7562 87.0475 61.5625 87.0475 61.3301C87.0475 61.1022 87.125 60.9108 87.28 60.7559C87.4349 60.5964 87.6286 60.5166 87.861 60.5166C88.098 60.5166 88.294 60.5964 88.4489 60.7559C88.6039 60.9108 88.6813 61.1022 88.6813 61.3301C88.6813 61.5625 88.6039 61.7562 88.4489 61.9111C88.294 62.0615 88.098 62.1367 87.861 62.1367ZM90.8311 52.498C91.3415 52.2064 91.8952 52.0605 92.4922 52.0605C93.0892 52.0605 93.6407 52.2064 94.1465 52.498C94.6524 52.7852 95.0534 53.1794 95.3496 53.6807C95.6459 54.1774 95.794 54.7197 95.794 55.3076C95.794 55.654 95.7211 56.0436 95.5752 56.4766C95.434 56.9049 95.2312 57.3311 94.9668 57.7549L92.3213 62H91.1182L93.5655 58.165C93.1918 58.3975 92.7816 58.5137 92.335 58.5137C91.4463 58.5137 90.6989 58.2061 90.0928 57.5908C89.4867 56.9756 89.1836 56.2145 89.1836 55.3076C89.1836 54.7197 89.3317 54.1774 89.628 53.6807C89.9242 53.1794 90.3252 52.7852 90.8311 52.498ZM92.5059 57.6045C93.1348 57.6045 93.6657 57.3835 94.0987 56.9414C94.5362 56.4993 94.7549 55.9593 94.7549 55.3213C94.7549 54.6878 94.5362 54.1546 94.0987 53.7217C93.6657 53.2842 93.1302 53.0654 92.4922 53.0654C91.8496 53.0654 91.3073 53.2842 90.8653 53.7217C90.4278 54.1546 90.209 54.6878 90.209 55.3213C90.209 55.9593 90.4301 56.4993 90.8721 56.9414C91.3187 57.3835 91.8633 57.6045 92.5059 57.6045ZM100.569 62.1367C99.4613 62.1367 98.5932 61.6878 97.9643 60.79C97.3399 59.8923 97.0277 58.6618 97.0277 57.0986C97.0277 55.5355 97.3399 54.305 97.9643 53.4072C98.5932 52.5094 99.4613 52.0605 100.569 52.0605C101.672 52.0605 102.535 52.5094 103.16 53.4072C103.784 54.305 104.096 55.5355 104.096 57.0986C104.096 58.6618 103.784 59.8923 103.16 60.79C102.535 61.6878 101.672 62.1367 100.569 62.1367ZM100.569 61.1182C101.343 61.1182 101.945 60.7695 102.373 60.0723C102.806 59.375 103.023 58.3838 103.023 57.0986C103.023 55.8135 102.806 54.8223 102.373 54.125C101.945 53.4277 101.343 53.0791 100.569 53.0791C99.7895 53.0791 99.1856 53.4277 98.7572 54.125C98.3334 54.8177 98.1215 55.8089 98.1215 57.0986C98.1215 58.3883 98.3334 59.3818 98.7572 60.0791C99.1856 60.7718 99.7895 61.1182 100.569 61.1182Z" fill="#979797"/>
<path d="M246.67 52.1973H247.736V62H246.67V57.4062H241.153V62H240.107V52.1973H241.153V56.4014H246.67V52.1973ZM250.385 52.2246C250.581 52.2246 250.754 52.2975 250.905 52.4434C251.055 52.5892 251.13 52.7601 251.13 52.9561C251.13 53.1566 251.055 53.332 250.905 53.4824C250.754 53.6283 250.581 53.7012 250.385 53.7012C250.185 53.7012 250.014 53.6283 249.872 53.4824C249.731 53.3366 249.661 53.1611 249.661 52.9561C249.661 52.7601 249.731 52.5892 249.872 52.4434C250.014 52.2975 250.185 52.2246 250.385 52.2246ZM249.866 55.1982H250.891V62H249.866V55.1982ZM258.728 55.1846H259.754V61.6104C259.754 62.5492 259.419 63.3307 258.749 63.9551C258.083 64.584 257.256 64.8984 256.267 64.8984C255.634 64.8984 255.035 64.7891 254.469 64.5703C253.904 64.3561 253.481 64.0645 253.198 63.6953L253.745 63.0049C254 63.3057 254.351 63.5426 254.798 63.7158C255.244 63.889 255.734 63.9756 256.267 63.9756C256.937 63.9756 257.514 63.7454 257.997 63.2852C258.484 62.8249 258.728 62.2666 258.728 61.6104V60.3457C258.482 60.888 258.12 61.3096 257.641 61.6104C257.163 61.9066 256.602 62.0547 255.96 62.0547C255.344 62.0547 254.777 61.8997 254.258 61.5898C253.743 61.2754 253.335 60.8493 253.034 60.3115C252.733 59.7692 252.583 59.179 252.583 58.541C252.583 57.903 252.733 57.3151 253.034 56.7773C253.335 56.2396 253.743 55.8158 254.258 55.5059C254.777 55.196 255.344 55.041 255.96 55.041C256.602 55.041 257.163 55.1914 257.641 55.4922C258.12 55.7884 258.482 56.2077 258.728 56.75V55.1846ZM256.151 61.1045C256.894 61.1045 257.509 60.863 257.997 60.3799C258.484 59.8968 258.728 59.2839 258.728 58.541C258.728 57.8073 258.484 57.1989 257.997 56.7158C257.509 56.2327 256.894 55.9912 256.151 55.9912C255.431 55.9912 254.818 56.2396 254.312 56.7363C253.811 57.2331 253.56 57.8346 253.56 58.541C253.56 59.2565 253.811 59.8626 254.312 60.3594C254.818 60.8561 255.431 61.1045 256.151 61.1045ZM265.198 55.0547C266.078 55.0547 266.775 55.3281 267.29 55.875C267.81 56.4173 268.069 57.1533 268.069 58.083V62H267.044V58.1787C267.044 57.527 266.855 57.0052 266.477 56.6133C266.103 56.2214 265.606 56.0254 264.986 56.0254C264.348 56.0254 263.836 56.2236 263.448 56.6201C263.066 57.012 262.874 57.5316 262.874 58.1787V62H261.849V52.1973H262.874V56.5244C263.093 56.0596 263.403 55.6995 263.804 55.4443C264.205 55.1846 264.67 55.0547 265.198 55.0547ZM274.331 57.3926C274.098 57.3926 273.905 57.3174 273.75 57.167C273.595 57.012 273.517 56.8206 273.517 56.5928C273.517 56.3604 273.595 56.1667 273.75 56.0117C273.905 55.8522 274.098 55.7725 274.331 55.7725C274.568 55.7725 274.764 55.8522 274.919 56.0117C275.074 56.1667 275.151 56.3604 275.151 56.5928C275.151 56.8206 275.074 57.012 274.919 57.167C274.764 57.3174 274.568 57.3926 274.331 57.3926ZM274.331 62.1367C274.098 62.1367 273.905 62.0615 273.75 61.9111C273.595 61.7562 273.517 61.5625 273.517 61.3301C273.517 61.1022 273.595 60.9108 273.75 60.7559C273.905 60.5964 274.098 60.5166 274.331 60.5166C274.568 60.5166 274.764 60.5964 274.919 60.7559C275.074 60.9108 275.151 61.1022 275.151 61.3301C275.151 61.5625 275.074 61.7562 274.919 61.9111C274.764 62.0615 274.568 62.1367 274.331 62.1367ZM286.991 59.2998C286.991 60.0381 286.724 60.6738 286.191 61.207C285.658 61.7357 284.954 62.041 284.079 62.123V63.6816H283.101V62.1094C282.5 62.0456 281.932 61.8883 281.399 61.6377C280.866 61.3825 280.401 61.0703 280.004 60.7012L280.681 59.9014C281.597 60.7126 282.586 61.1182 283.648 61.1182C284.309 61.1182 284.849 60.9518 285.268 60.6191C285.692 60.2819 285.904 59.8467 285.904 59.3135C285.904 59.0446 285.84 58.8099 285.712 58.6094C285.589 58.4089 285.421 58.2471 285.207 58.124C284.997 57.9964 284.755 57.8848 284.482 57.7891C284.209 57.6934 283.919 57.6045 283.614 57.5225C283.313 57.4404 283.01 57.3538 282.705 57.2627C282.399 57.1715 282.11 57.0576 281.836 56.9209C281.563 56.7796 281.319 56.6156 281.105 56.4287C280.895 56.2419 280.727 56.0003 280.599 55.7041C280.476 55.4033 280.415 55.0615 280.415 54.6787C280.415 53.9951 280.663 53.4141 281.16 52.9355C281.661 52.457 282.308 52.1745 283.101 52.0879V50.5225H284.079V52.0879C284.607 52.1517 285.104 52.2952 285.569 52.5186C286.034 52.7373 286.396 53.0039 286.656 53.3184L286.013 54.1318C285.731 53.8083 285.362 53.5531 284.906 53.3662C284.455 53.1748 283.983 53.0791 283.491 53.0791C282.907 53.0791 282.424 53.2227 282.042 53.5098C281.663 53.7969 281.474 54.1637 281.474 54.6104C281.474 54.9658 281.574 55.2666 281.775 55.5127C281.98 55.7588 282.244 55.9502 282.568 56.0869C282.891 56.2236 283.249 56.3467 283.641 56.4561C284.038 56.5654 284.432 56.6862 284.824 56.8184C285.216 56.9505 285.573 57.11 285.897 57.2969C286.221 57.4792 286.483 57.7412 286.683 58.083C286.888 58.4202 286.991 58.8258 286.991 59.2998ZM295.354 58.7939V59.7988H294.028V62H292.975V59.7988H288.006V59.0605L291.615 52.1973H292.805L289.305 58.7939H292.975V55.4785H294.028V58.7939H295.354ZM298.16 56.415L301.031 53.209H296.356V52.1973H302.529V52.9424L299.507 56.2168C299.612 56.1986 299.765 56.1895 299.965 56.1895C300.74 56.1895 301.392 56.4515 301.92 56.9756C302.449 57.4951 302.713 58.1536 302.713 58.9512C302.713 59.8809 302.399 60.6442 301.77 61.2412C301.145 61.8382 300.348 62.1367 299.377 62.1367C298.557 62.1367 297.835 61.9066 297.21 61.4463C296.59 60.986 296.203 60.3958 296.048 59.6758L296.985 59.3408C297.112 59.8604 297.399 60.2865 297.846 60.6191C298.293 60.9518 298.803 61.1182 299.377 61.1182C300.029 61.1182 300.564 60.9131 300.984 60.5029C301.407 60.0882 301.619 59.5596 301.619 58.917C301.619 58.3245 301.417 57.8506 301.011 57.4951C300.61 57.1396 300.104 56.9619 299.493 56.9619C299.142 56.9619 298.814 57.012 298.509 57.1123L298.16 56.415ZM305.567 60.6396L304.63 63.4834H303.817L304.419 60.6396H305.567ZM312.563 61.3164C311.957 61.8542 311.185 62.123 310.246 62.123C309.307 62.123 308.533 61.8542 307.922 61.3164C307.316 60.7786 307.013 60.0973 307.013 59.2725C307.013 58.6846 307.195 58.1559 307.56 57.6865C307.924 57.2126 308.398 56.8913 308.981 56.7227C308.521 56.5677 308.143 56.292 307.847 55.8955C307.55 55.499 307.402 55.0661 307.402 54.5967C307.402 53.8675 307.669 53.2682 308.202 52.7988C308.74 52.3249 309.421 52.0879 310.246 52.0879C311.071 52.0879 311.75 52.3249 312.283 52.7988C312.821 53.2682 313.09 53.8675 313.09 54.5967C313.09 55.0661 312.939 55.499 312.639 55.8955C312.342 56.292 311.964 56.5677 311.504 56.7227C312.087 56.8913 312.561 57.2126 312.926 57.6865C313.295 58.1559 313.479 58.6846 313.479 59.2725C313.479 60.0973 313.174 60.7786 312.563 61.3164ZM308.934 55.7861C309.275 56.0824 309.713 56.2305 310.246 56.2305C310.779 56.2305 311.214 56.0824 311.552 55.7861C311.894 55.4899 312.064 55.1071 312.064 54.6377C312.064 54.1729 311.894 53.79 311.552 53.4893C311.214 53.1885 310.779 53.0381 310.246 53.0381C309.713 53.0381 309.275 53.1885 308.934 53.4893C308.596 53.79 308.428 54.1729 308.428 54.6377C308.428 55.1071 308.596 55.4899 308.934 55.7861ZM308.667 60.5918C309.086 60.9609 309.613 61.1455 310.246 61.1455C310.88 61.1455 311.404 60.9609 311.818 60.5918C312.233 60.2227 312.44 59.7578 312.44 59.1973C312.44 58.6413 312.233 58.1833 311.818 57.8232C311.404 57.4632 310.88 57.2832 310.246 57.2832C309.608 57.2832 309.082 57.4655 308.667 57.8301C308.252 58.1901 308.045 58.6458 308.045 59.1973C308.045 59.7578 308.252 60.2227 308.667 60.5918ZM316.149 52.498C316.659 52.2064 317.213 52.0605 317.81 52.0605C318.407 52.0605 318.958 52.2064 319.464 52.498C319.97 52.7852 320.371 53.1794 320.667 53.6807C320.964 54.1774 321.112 54.7197 321.112 55.3076C321.112 55.654 321.039 56.0436 320.893 56.4766C320.752 56.9049 320.549 57.3311 320.284 57.7549L317.639 62H316.436L318.883 58.165C318.509 58.3975 318.099 58.5137 317.653 58.5137C316.764 58.5137 316.017 58.2061 315.41 57.5908C314.804 56.9756 314.501 56.2145 314.501 55.3076C314.501 54.7197 314.649 54.1774 314.946 53.6807C315.242 53.1794 315.643 52.7852 316.149 52.498ZM317.824 57.6045C318.452 57.6045 318.983 57.3835 319.416 56.9414C319.854 56.4993 320.073 55.9593 320.073 55.3213C320.073 54.6878 319.854 54.1546 319.416 53.7217C318.983 53.2842 318.448 53.0654 317.81 53.0654C317.167 53.0654 316.625 53.2842 316.183 53.7217C315.745 54.1546 315.527 54.6878 315.527 55.3213C315.527 55.9593 315.748 56.4993 316.19 56.9414C316.636 57.3835 317.181 57.6045 317.824 57.6045ZM321.778 52.1973H328.204V52.9561L323.904 62H322.728L326.939 53.209H321.778V52.1973ZM328.528 62.1367C328.296 62.1367 328.102 62.0615 327.947 61.9111C327.792 61.7562 327.715 61.5625 327.715 61.3301C327.715 61.1022 327.792 60.9108 327.947 60.7559C328.102 60.5964 328.296 60.5166 328.528 60.5166C328.765 60.5166 328.961 60.5964 329.116 60.7559C329.271 60.9108 329.349 61.1022 329.349 61.3301C329.349 61.5625 329.271 61.7562 329.116 61.9111C328.961 62.0615 328.765 62.1367 328.528 62.1367ZM331.498 52.498C332.009 52.2064 332.563 52.0605 333.16 52.0605C333.757 52.0605 334.308 52.2064 334.814 52.498C335.32 52.7852 335.721 53.1794 336.017 53.6807C336.313 54.1774 336.461 54.7197 336.461 55.3076C336.461 55.654 336.388 56.0436 336.243 56.4766C336.101 56.9049 335.899 57.3311 335.634 57.7549L332.989 62H331.786L334.233 58.165C333.859 58.3975 333.449 58.5137 333.002 58.5137C332.114 58.5137 331.366 58.2061 330.76 57.5908C330.154 56.9756 329.851 56.2145 329.851 55.3076C329.851 54.7197 329.999 54.1774 330.295 53.6807C330.592 53.1794 330.993 52.7852 331.498 52.498ZM333.173 57.6045C333.802 57.6045 334.333 57.3835 334.766 56.9414C335.204 56.4993 335.422 55.9593 335.422 55.3213C335.422 54.6878 335.204 54.1546 334.766 53.7217C334.333 53.2842 333.798 53.0654 333.16 53.0654C332.517 53.0654 331.975 53.2842 331.533 53.7217C331.095 54.1546 330.876 54.6878 330.876 55.3213C330.876 55.9593 331.097 56.4993 331.539 56.9414C331.986 57.3835 332.531 57.6045 333.173 57.6045ZM341.236 62.1367C340.129 62.1367 339.261 61.6878 338.632 60.79C338.007 59.8923 337.695 58.6618 337.695 57.0986C337.695 55.5355 338.007 54.305 338.632 53.4072C339.261 52.5094 340.129 52.0605 341.236 52.0605C342.339 52.0605 343.203 52.5094 343.827 53.4072C344.451 54.305 344.763 55.5355 344.763 57.0986C344.763 58.6618 344.451 59.8923 343.827 60.79C343.203 61.6878 342.339 62.1367 341.236 62.1367ZM341.236 61.1182C342.011 61.1182 342.612 60.7695 343.041 60.0723C343.474 59.375 343.69 58.3838 343.69 57.0986C343.69 55.8135 343.474 54.8223 343.041 54.125C342.612 53.4277 342.011 53.0791 341.236 53.0791C340.457 53.0791 339.853 53.4277 339.425 54.125C339.001 54.8177 338.789 55.8089 338.789 57.0986C338.789 58.3883 339.001 59.3818 339.425 60.0791C339.853 60.7718 340.457 61.1182 341.236 61.1182Z" fill="#979797"/>
<path d="M9.66992 5.19727H10.7363V15H9.66992V10.4062H4.15332V15H3.10742V5.19727H4.15332V9.40137H9.66992V5.19727ZM13.3851 5.22461C13.5811 5.22461 13.7543 5.29753 13.9046 5.44336C14.055 5.58919 14.1302 5.76009 14.1302 5.95605C14.1302 6.15658 14.055 6.33203 13.9046 6.48242C13.7543 6.62826 13.5811 6.70117 13.3851 6.70117C13.1846 6.70117 13.0137 6.62826 12.8724 6.48242C12.7311 6.33659 12.6605 6.16113 12.6605 5.95605C12.6605 5.76009 12.7311 5.58919 12.8724 5.44336C13.0137 5.29753 13.1846 5.22461 13.3851 5.22461ZM12.8656 8.19824H13.891V15H12.8656V8.19824ZM21.7282 8.18457H22.7536V14.6104C22.7536 15.5492 22.4187 16.3307 21.7487 16.9551C21.0834 17.584 20.2562 17.8984 19.2673 17.8984C18.6338 17.8984 18.0346 17.7891 17.4695 17.5703C16.9043 17.3561 16.4805 17.0645 16.198 16.6953L16.7448 16.0049C17.0001 16.3057 17.351 16.5426 17.7976 16.7158C18.2442 16.889 18.7341 16.9756 19.2673 16.9756C19.9372 16.9756 20.5137 16.7454 20.9968 16.2852C21.4844 15.8249 21.7282 15.2666 21.7282 14.6104V13.3457C21.4821 13.888 21.1198 14.3096 20.6413 14.6104C20.1628 14.9066 19.6023 15.0547 18.9597 15.0547C18.3445 15.0547 17.7771 14.8997 17.2575 14.5898C16.7426 14.2754 16.3347 13.8493 16.0339 13.3115C15.7331 12.7692 15.5827 12.179 15.5827 11.541C15.5827 10.903 15.7331 10.3151 16.0339 9.77734C16.3347 9.23958 16.7426 8.81576 17.2575 8.50586C17.7771 8.19596 18.3445 8.04102 18.9597 8.04102C19.6023 8.04102 20.1628 8.19141 20.6413 8.49219C21.1198 8.78841 21.4821 9.20768 21.7282 9.75V8.18457ZM19.1511 14.1045C19.8939 14.1045 20.5092 13.863 20.9968 13.3799C21.4844 12.8968 21.7282 12.2839 21.7282 11.541C21.7282 10.8073 21.4844 10.1989 20.9968 9.71582C20.5092 9.23275 19.8939 8.99121 19.1511 8.99121C18.431 8.99121 17.8181 9.23958 17.3122 9.73633C16.8109 10.2331 16.5603 10.8346 16.5603 11.541C16.5603 12.2565 16.8109 12.8626 17.3122 13.3594C17.8181 13.8561 18.431 14.1045 19.1511 14.1045ZM28.1983 8.05469C29.0779 8.05469 29.7751 8.32812 30.2901 8.875C30.8096 9.41732 31.0694 10.1533 31.0694 11.083V15H30.044V11.1787C30.044 10.527 29.8549 10.0052 29.4766 9.61328C29.1029 9.22135 28.6062 9.02539 27.9864 9.02539C27.3484 9.02539 26.8357 9.22363 26.4483 9.62012C26.0655 10.012 25.8741 10.5316 25.8741 11.1787V15H24.8487V5.19727H25.8741V9.52441C26.0929 9.05957 26.4027 8.69954 26.8038 8.44434C27.2048 8.18457 27.6697 8.05469 28.1983 8.05469ZM32.31 15L36.6235 5.19727H37.7172L33.4037 15H32.31ZM42.6115 5.19727H43.6574V13.9951H48.6134V15H42.6115V5.19727ZM50.3804 9.08008C51.0594 8.39648 51.8934 8.05469 52.8823 8.05469C53.8713 8.05469 54.7053 8.39648 55.3843 9.08008C56.0679 9.75911 56.4097 10.5977 56.4097 11.5957C56.4097 12.5938 56.0679 13.4346 55.3843 14.1182C54.7053 14.7972 53.8713 15.1367 52.8823 15.1367C51.8934 15.1367 51.0594 14.7972 50.3804 14.1182C49.7059 13.4346 49.3687 12.5938 49.3687 11.5957C49.3687 10.5977 49.7059 9.75911 50.3804 9.08008ZM52.8823 9.02539C52.176 9.02539 51.5812 9.27148 51.0982 9.76367C50.6151 10.2559 50.3736 10.8665 50.3736 11.5957C50.3736 12.3203 50.6151 12.931 51.0982 13.4277C51.5812 13.9245 52.176 14.1729 52.8823 14.1729C53.5887 14.1729 54.1857 13.9245 54.6734 13.4277C55.161 12.9264 55.4048 12.3158 55.4048 11.5957C55.4048 10.8711 55.161 10.2627 54.6734 9.77051C54.1903 9.27376 53.5933 9.02539 52.8823 9.02539ZM59.6054 15L57.1171 8.19824H58.2108L60.0292 13.5439L61.9432 8.19824H62.7841L64.7186 13.5439L66.537 8.19824H67.6307L65.1356 15H64.2948L62.3671 9.6543L60.4325 15H59.6054ZM76.4146 5.19727C77.2395 5.19727 77.9277 5.46842 78.4791 6.01074C79.0351 6.5485 79.3131 7.21615 79.3131 8.01367C79.3131 8.82031 79.0351 9.49479 78.4791 10.0371C77.9277 10.5749 77.2395 10.8438 76.4146 10.8438H73.6939V15H72.648V5.19727H76.4146ZM76.4146 9.83203C76.9342 9.83203 77.3694 9.65885 77.7203 9.3125C78.0712 8.96159 78.2467 8.52865 78.2467 8.01367C78.2467 7.50326 78.0712 7.07487 77.7203 6.72852C77.3694 6.38216 76.9342 6.20898 76.4146 6.20898H73.6939V9.83203H76.4146ZM83.6914 8.05469C84.0013 8.05469 84.2724 8.10254 84.5048 8.19824L84.3818 9.18945C84.1722 9.08008 83.9147 9.02539 83.6093 9.02539C83.1354 9.02539 82.7207 9.20996 82.3652 9.5791C82.0097 9.94368 81.832 10.4062 81.832 10.9668V15H80.8066V8.19824H81.832V9.33301C81.9915 8.95931 82.2467 8.65397 82.5976 8.41699C82.9485 8.17546 83.3131 8.05469 83.6914 8.05469ZM86.4974 5.22461C86.6933 5.22461 86.8665 5.29753 87.0169 5.44336C87.1673 5.58919 87.2425 5.76009 87.2425 5.95605C87.2425 6.15658 87.1673 6.33203 87.0169 6.48242C86.8665 6.62826 86.6933 6.70117 86.4974 6.70117C86.2969 6.70117 86.126 6.62826 85.9847 6.48242C85.8434 6.33659 85.7728 6.16113 85.7728 5.95605C85.7728 5.76009 85.8434 5.58919 85.9847 5.44336C86.126 5.29753 86.2969 5.22461 86.4974 5.22461ZM85.9779 8.19824H87.0032V15H85.9779V8.19824ZM95.278 13.3867C95.0091 13.9245 94.6035 14.3506 94.0612 14.665C93.5189 14.9795 92.9059 15.1367 92.2223 15.1367C91.2334 15.1367 90.3971 14.7972 89.7136 14.1182C89.0345 13.4346 88.695 12.5938 88.695 11.5957C88.695 10.9395 88.8499 10.3402 89.1598 9.79785C89.4697 9.25553 89.8936 8.82943 90.4313 8.51953C90.9736 8.20964 91.5707 8.05469 92.2223 8.05469C92.8695 8.05469 93.4505 8.20508 93.9655 8.50586C94.4805 8.80208 94.8519 9.19857 95.0798 9.69531L94.2116 10.1533C94.0658 9.81152 93.8106 9.53809 93.446 9.33301C93.086 9.12793 92.6781 9.02539 92.2223 9.02539C91.5023 9.02539 90.9007 9.27148 90.4177 9.76367C89.9391 10.2559 89.6999 10.8665 89.6999 11.5957C89.6999 12.3203 89.9414 12.931 90.4245 13.4277C90.9121 13.9245 91.5114 14.1729 92.2223 14.1729C92.7054 14.1729 93.1384 14.068 93.5212 13.8584C93.9085 13.6442 94.2002 13.348 94.3962 12.9697L95.278 13.3867ZM103.088 11.2881C103.088 11.3883 103.079 11.5296 103.061 11.7119H97.3731C97.4141 12.4639 97.6648 13.07 98.125 13.5303C98.5899 13.986 99.1755 14.2139 99.8819 14.2139C100.374 14.2139 100.816 14.1136 101.208 13.9131C101.605 13.7126 101.901 13.4391 102.097 13.0928L102.903 13.6123C102.644 14.0817 102.243 14.4531 101.7 14.7266C101.158 15 100.543 15.1367 99.8545 15.1367C99.3806 15.1367 98.9294 15.0456 98.501 14.8633C98.0772 14.681 97.708 14.4326 97.3936 14.1182C97.0837 13.8037 96.8376 13.4255 96.6553 12.9834C96.473 12.5368 96.3819 12.0605 96.3819 11.5547C96.3819 10.5749 96.7168 9.74772 97.3868 9.07324C98.0567 8.39421 98.8747 8.05469 99.8409 8.05469C100.757 8.05469 101.527 8.36686 102.151 8.99121C102.776 9.611 103.088 10.3766 103.088 11.2881ZM97.4346 10.9121H102.035C101.994 10.3288 101.762 9.85026 101.338 9.47656C100.919 9.09831 100.406 8.90918 99.7998 8.90918C99.2028 8.90918 98.6879 9.09375 98.2549 9.46289C97.8265 9.82747 97.5531 10.3105 97.4346 10.9121Z" fill="#979797"/>
<path d="M305.714 14.478C306.899 13.526 307.828 12.7467 308.5 12.14C309.172 11.524 309.737 10.8847 310.194 10.222C310.661 9.55 310.894 8.892 310.894 8.248C310.894 7.64133 310.745 7.16533 310.446 6.82C310.157 6.46533 309.685 6.288 309.032 6.288C308.397 6.288 307.903 6.48867 307.548 6.89C307.203 7.282 307.016 7.80933 306.988 8.472H305.756C305.793 7.42667 306.111 6.61933 306.708 6.05C307.305 5.48067 308.075 5.196 309.018 5.196C309.979 5.196 310.74 5.462 311.3 5.994C311.869 6.526 312.154 7.25867 312.154 8.192C312.154 8.96667 311.921 9.72267 311.454 10.46C310.997 11.188 310.474 11.832 309.886 12.392C309.298 12.9427 308.547 13.5867 307.632 14.324H312.448V15.388H305.714V14.478ZM313.753 13.246V12.28L318.667 5.476H320.193V12.14H321.593V13.246H320.193V15.5H318.933V13.246H313.753ZM318.989 6.806L315.223 12.14H318.989V6.806ZM327.023 7.688C327.602 7.688 328.125 7.814 328.591 8.066C329.058 8.30867 329.422 8.67733 329.683 9.172C329.954 9.66667 330.089 10.2687 330.089 10.978V15.5H328.829V11.16C328.829 10.3947 328.638 9.81133 328.255 9.41C327.873 8.99933 327.35 8.794 326.687 8.794C326.015 8.794 325.479 9.004 325.077 9.424C324.685 9.844 324.489 10.4553 324.489 11.258V15.5H323.215V5.14H324.489V8.92C324.741 8.528 325.087 8.22467 325.525 8.01C325.973 7.79533 326.473 7.688 327.023 7.688Z" fill="#979797"/>
<path d="M338.251 13.9185H345.751C345.827 13.9183 345.901 13.8974 345.966 13.858C346.031 13.8186 346.084 13.7622 346.119 13.695C346.155 13.6277 346.171 13.5521 346.166 13.4763C346.162 13.4005 346.137 13.3274 346.094 13.2648L342.344 7.84812C342.188 7.62354 341.814 7.62354 341.658 7.84812L337.908 13.2648C337.865 13.3273 337.84 13.4004 337.835 13.4764C337.83 13.5523 337.846 13.6281 337.882 13.6955C337.917 13.7628 337.97 13.8193 338.035 13.8586C338.1 13.8979 338.175 13.9187 338.251 13.9185Z" fill="#14233A" fill-opacity="0.7"/>
<line x1="2" y1="32.5" x2="347" y2="32.5" stroke="#D7DCE4"/>
<path d="M2 32H196" stroke="#13B799" stroke-width="2.5" stroke-linecap="round"/>
</svg>
