<svg width="24" height="24" viewBox="0 0 24 24" fill="none" xmlns="http://www.w3.org/2000/svg">
<g clip-path="url(#clip0_287_64575)">
<path d="M21.7008 14.419C20.3651 19.7762 14.9385 23.0365 9.58005 21.7006C4.22386 20.365 0.96321 14.9387 2.29952 9.58197C3.63465 4.22419 9.06123 0.963662 14.418 2.29923C19.7761 3.63481 23.0365 9.0617 21.7006 14.4191L21.7007 14.419H21.7008Z" fill="#F7931A"/>
<path d="M16.4109 10.5758C16.61 9.24498 15.5967 8.52964 14.2111 8.05243L14.6606 6.24977L13.5632 5.97634L13.1256 7.73154C12.8371 7.65959 12.5408 7.5918 12.2463 7.52459L12.687 5.7578L11.5903 5.48438L11.1405 7.28645C10.9018 7.2321 10.6673 7.17838 10.4398 7.12178L10.441 7.11611L8.92762 6.73822L8.63568 7.91024C8.63568 7.91024 9.44991 8.09686 9.43275 8.10835C9.87716 8.21926 9.95752 8.51341 9.94418 8.74657L9.43216 10.8002C9.46276 10.808 9.50246 10.8192 9.54626 10.8368C9.50964 10.8277 9.47068 10.8178 9.43025 10.8081L8.71258 13.685C8.65827 13.82 8.52041 14.0226 8.2097 13.9457C8.2207 13.9616 7.41206 13.7467 7.41206 13.7467L6.86719 15.0027L8.29535 15.3587C8.56104 15.4254 8.8214 15.4951 9.0778 15.5606L8.62366 17.3839L9.71985 17.6574L10.1696 15.8534C10.4691 15.9347 10.7597 16.0097 11.0442 16.0803L10.596 17.8758L11.6935 18.1492L12.1476 16.3293C14.019 16.6835 15.4261 16.5407 16.0184 14.8482C16.4956 13.4855 15.9946 12.6996 15.0101 12.187C15.7272 12.0217 16.2673 11.5501 16.4113 10.5759L16.411 10.5757L16.4109 10.5758ZM13.9035 14.0914C13.5643 15.4541 11.2698 14.7175 10.5259 14.5328L11.1285 12.1172C11.8724 12.3029 14.2579 12.6703 13.9035 14.0914H13.9035ZM14.2429 10.556C13.9335 11.7955 12.0237 11.1658 11.4042 11.0114L11.9506 8.82057C12.5701 8.97498 14.5652 9.26317 14.243 10.556H14.2429Z" fill="white"/>
</g>
<defs>
<clipPath id="clip0_287_64575">
<rect width="20" height="20" fill="white" transform="translate(2 2)"/>
</clipPath>
</defs>
</svg>
