<svg width="783" height="316" viewBox="0 0 783 316" fill="none" xmlns="http://www.w3.org/2000/svg">
<path d="M129.818 43.6797V132.832" stroke="#3AB67A" stroke-width="2.25295" stroke-miterlimit="10" stroke-linecap="round"/>
<path fill-rule="evenodd" clip-rule="evenodd" d="M132.548 114.219H127.176C126.527 114.219 126 113.183 126 111.905V63.3375C126 62.0598 126.527 61.0234 127.176 61.0234H132.548C133.198 61.0234 133.724 62.0598 133.724 63.3375V111.905C133.724 113.183 133.198 114.219 132.548 114.219Z" fill="#3AB67A"/>
<path d="M147.189 75.4297V164.582" stroke="#FD5353" stroke-width="2.25295" stroke-miterlimit="10" stroke-linecap="round"/>
<path fill-rule="evenodd" clip-rule="evenodd" d="M149.922 145.969H144.551C143.902 145.969 143.375 144.933 143.375 143.655V95.0875C143.375 93.8098 143.902 92.7734 144.551 92.7734H149.923C150.573 92.7734 151.099 93.8098 151.099 95.0875V143.655C151.098 144.933 150.571 145.969 149.922 145.969Z" fill="#FD5353"/>
<path fill-rule="evenodd" clip-rule="evenodd" d="M161.965 62.5885H167.309C167.955 62.5885 168.479 63.0713 168.479 63.6664V86.2893C168.479 86.8844 167.955 87.3672 167.309 87.3672H161.963C161.317 87.3672 160.793 86.8844 160.793 86.2893V63.6664C160.795 63.0713 161.319 62.5885 161.965 62.5885Z" fill="#3AB67A"/>
<path d="M164.664 141.109V51.9705" stroke="#3AB67A" stroke-width="2.25261" stroke-miterlimit="10" stroke-linecap="round"/>
<path fill-rule="evenodd" clip-rule="evenodd" d="M184.647 153.947H179.303C178.657 153.947 178.133 153.464 178.133 152.869V130.246C178.133 129.651 178.657 129.168 179.303 129.168H184.648C185.294 129.168 185.818 129.651 185.818 130.246V152.869C185.817 153.464 185.293 153.947 184.647 153.947Z" fill="#3AB67A"/>
<path d="M181.947 75.4258V164.565" stroke="#3AB67A" stroke-width="2.25261" stroke-miterlimit="10" stroke-linecap="round"/>
<path fill-rule="evenodd" clip-rule="evenodd" d="M202.024 100.22H196.68C196.034 100.22 195.51 99.7373 195.51 99.1422V76.5193C195.51 75.9241 196.034 75.4414 196.68 75.4414H202.025C202.671 75.4414 203.195 75.9241 203.195 76.5193V99.1422C203.194 99.7373 202.67 100.22 202.024 100.22Z" fill="#FD5353"/>
<path d="M199.322 21.6992V110.838" stroke="#FD5353" stroke-width="2.25261" stroke-miterlimit="10" stroke-linecap="round"/>
<path d="M216.699 75.4258L216.828 183.873" stroke="#FD5353" stroke-width="2.25261" stroke-miterlimit="10" stroke-linecap="round"/>
<path fill-rule="evenodd" clip-rule="evenodd" d="M219.433 132.761H214.062C213.413 132.761 212.887 131.725 212.887 130.448V81.888C212.887 80.6104 213.413 79.5742 214.062 79.5742H219.434C220.083 79.5742 220.61 80.6104 220.61 81.888V130.448C220.608 131.725 220.082 132.761 219.433 132.761Z" fill="#FD5353"/>
<path d="M234.078 65.6602V154.799" stroke="#FD5353" stroke-width="2.25261" stroke-miterlimit="10" stroke-linecap="round"/>
<path fill-rule="evenodd" clip-rule="evenodd" d="M236.811 129.109H231.441C230.792 129.109 230.266 128.073 230.266 126.795V78.2356C230.266 76.9581 230.792 75.9219 231.441 75.9219H236.813C237.462 75.9219 237.989 76.9581 237.989 78.2356V126.795C237.987 128.073 237.461 129.109 236.811 129.109Z" fill="#FD5353"/>
<path d="M251.568 36.1797L251.459 110.838" stroke="#3AB67A" stroke-width="2.25261" stroke-miterlimit="10" stroke-linecap="round"/>
<path fill-rule="evenodd" clip-rule="evenodd" d="M254.188 98.6638H248.818C248.169 98.6638 247.643 97.6276 247.643 96.3501V47.7903C247.643 46.5128 248.169 45.4766 248.818 45.4766H254.19C254.839 45.4766 255.366 46.5128 255.366 47.7903V96.3501C255.364 97.6276 254.838 98.6638 254.188 98.6638Z" fill="#3AB67A"/>
<path d="M268.945 89.9062L268.836 164.564" stroke="#FD5353" stroke-width="2.25261" stroke-miterlimit="10" stroke-linecap="round"/>
<path fill-rule="evenodd" clip-rule="evenodd" d="M271.565 152.39H266.195C265.546 152.39 265.02 151.354 265.02 150.077V101.517C265.02 100.239 265.546 99.2031 266.195 99.2031H271.567C272.216 99.2031 272.743 100.239 272.743 101.517V150.077C272.741 151.354 272.215 152.39 271.565 152.39Z" fill="#FD5353"/>
<path d="M286.322 89.9062L286.213 164.564" stroke="#3AB67A" stroke-width="2.25261" stroke-miterlimit="10" stroke-linecap="round"/>
<path fill-rule="evenodd" clip-rule="evenodd" d="M288.942 152.39H283.572C282.923 152.39 282.396 151.354 282.396 150.077V101.517C282.396 100.239 282.923 99.2031 283.572 99.2031H288.944C289.593 99.2031 290.12 100.239 290.12 101.517V150.077C290.118 151.354 289.592 152.39 288.942 152.39Z" fill="#3AB67A"/>
<path d="M303.588 21.6992L303.717 130.146" stroke="#3AB67A" stroke-width="2.25261" stroke-miterlimit="10" stroke-linecap="round"/>
<path fill-rule="evenodd" clip-rule="evenodd" d="M306.319 79.0349H300.949C300.3 79.0349 299.773 77.9987 299.773 76.7212V28.1614C299.773 26.8839 300.3 25.8477 300.949 25.8477H306.321C306.97 25.8477 307.497 26.8839 307.497 28.1614V76.7212C307.495 77.9987 306.968 79.0349 306.319 79.0349Z" fill="#3AB67A"/>
<path fill-rule="evenodd" clip-rule="evenodd" d="M318.359 86.0455H323.703C324.349 86.0455 324.873 86.5283 324.873 87.1235V109.746C324.873 110.341 324.349 110.824 323.703 110.824H318.357C317.711 110.824 317.187 110.341 317.187 109.746V87.1235C317.189 86.5283 317.713 86.0455 318.359 86.0455Z" fill="#3AB67A"/>
<path d="M321.061 164.566V75.4275" stroke="#3AB67A" stroke-width="2.25261" stroke-miterlimit="10" stroke-linecap="round"/>
<path fill-rule="evenodd" clip-rule="evenodd" d="M335.736 117.182H341.08C341.726 117.182 342.25 117.665 342.25 118.26V140.883C342.25 141.478 341.726 141.961 341.08 141.961H335.734C335.088 141.961 334.564 141.478 334.564 140.883V118.26C334.566 117.665 335.09 117.182 335.736 117.182Z" fill="#FD5353"/>
<path d="M338.438 195.703V106.564" stroke="#FD5353" stroke-width="2.25261" stroke-miterlimit="10" stroke-linecap="round"/>
<path d="M349.002 75.4258V164.578" stroke="#3AB67A" stroke-width="2.25295" stroke-miterlimit="10" stroke-linecap="round"/>
<path fill-rule="evenodd" clip-rule="evenodd" d="M351.732 145.965H346.36C345.71 145.965 345.184 144.929 345.184 143.651V95.0836C345.184 93.8059 345.71 92.7695 346.36 92.7695H351.732C352.381 92.7695 352.908 93.8059 352.908 95.0836V143.651C352.908 144.929 352.381 145.965 351.732 145.965Z" fill="#3AB67A"/>
<path d="M366.377 106.562V195.715" stroke="#FD5353" stroke-width="2.25295" stroke-miterlimit="10" stroke-linecap="round"/>
<path fill-rule="evenodd" clip-rule="evenodd" d="M369.109 177.102H363.738C363.089 177.102 362.562 176.065 362.562 174.788V126.22C362.562 124.943 363.089 123.906 363.738 123.906H369.111C369.76 123.906 370.287 124.943 370.287 126.22V174.788C370.285 176.065 369.759 177.102 369.109 177.102Z" fill="#FD5353"/>
<path fill-rule="evenodd" clip-rule="evenodd" d="M381.148 61.0104H386.492C387.138 61.0104 387.662 61.4931 387.662 62.0883V84.7111C387.662 85.3063 387.138 85.7891 386.492 85.7891H381.147C380.5 85.7891 379.976 85.3063 379.976 84.7111V62.0883C379.978 61.4931 380.502 61.0104 381.148 61.0104Z" fill="#3AB67A"/>
<path d="M383.848 139.531V50.3924" stroke="#3AB67A" stroke-width="2.25261" stroke-miterlimit="10" stroke-linecap="round"/>
<path fill-rule="evenodd" clip-rule="evenodd" d="M403.83 153.947H398.486C397.84 153.947 397.316 153.464 397.316 152.869V130.246C397.316 129.651 397.84 129.168 398.486 129.168H403.832C404.478 129.168 405.002 129.651 405.002 130.246V152.869C405 153.464 404.476 153.947 403.83 153.947Z" fill="#3AB67A"/>
<path d="M401.131 75.4258V164.565" stroke="#3AB67A" stroke-width="2.25261" stroke-miterlimit="10" stroke-linecap="round"/>
<path fill-rule="evenodd" clip-rule="evenodd" d="M421.207 153.947H415.863C415.217 153.947 414.693 153.464 414.693 152.869V130.246C414.693 129.651 415.217 129.168 415.863 129.168H421.209C421.855 129.168 422.379 129.651 422.379 130.246V152.869C422.377 153.464 421.853 153.947 421.207 153.947Z" fill="#FD5353"/>
<path d="M418.508 75.4258V164.565" stroke="#FD5353" stroke-width="2.25261" stroke-miterlimit="10" stroke-linecap="round"/>
<path d="M435.885 97.9844L436.013 206.431" stroke="#FD5353" stroke-width="2.25261" stroke-miterlimit="10" stroke-linecap="round"/>
<path fill-rule="evenodd" clip-rule="evenodd" d="M438.616 155.32H433.246C432.597 155.32 432.07 154.284 432.07 153.006V104.447C432.07 103.169 432.597 102.133 433.246 102.133H438.618C439.267 102.133 439.794 103.169 439.794 104.447V153.006C439.792 154.284 439.265 155.32 438.616 155.32Z" fill="#FD5353"/>
<path d="M453.262 75.4258V164.565" stroke="#FD5353" stroke-width="2.25261" stroke-miterlimit="10" stroke-linecap="round"/>
<path fill-rule="evenodd" clip-rule="evenodd" d="M455.993 138.875H450.623C449.974 138.875 449.447 137.839 449.447 136.561V88.0012C449.447 86.7237 449.974 85.6875 450.623 85.6875H455.995C456.644 85.6875 457.17 86.7237 457.17 88.0012V136.561C457.169 137.839 456.642 138.875 455.993 138.875Z" fill="#FD5353"/>
<path d="M470.75 89.9062L470.64 164.564" stroke="#3AB67A" stroke-width="2.25261" stroke-miterlimit="10" stroke-linecap="round"/>
<path fill-rule="evenodd" clip-rule="evenodd" d="M473.37 152.39H468C467.351 152.39 466.824 151.354 466.824 150.077V101.517C466.824 100.239 467.351 99.2031 468 99.2031H473.372C474.021 99.2031 474.547 100.239 474.547 101.517V150.077C474.546 151.354 474.019 152.39 473.37 152.39Z" fill="#3AB67A"/>
<path d="M488.127 117.898L488.017 192.556" stroke="#FD5353" stroke-width="2.25261" stroke-miterlimit="10" stroke-linecap="round"/>
<path fill-rule="evenodd" clip-rule="evenodd" d="M490.749 180.383H485.379C484.73 180.383 484.203 179.346 484.203 178.069V129.509C484.203 128.232 484.73 127.195 485.379 127.195H490.751C491.4 127.195 491.926 128.232 491.926 129.509V178.069C491.925 179.346 491.398 180.383 490.749 180.383Z" fill="#FD5353"/>
<path d="M505.504 89.9062L505.394 164.564" stroke="#3AB67A" stroke-width="2.25261" stroke-miterlimit="10" stroke-linecap="round"/>
<path fill-rule="evenodd" clip-rule="evenodd" d="M508.126 152.39H502.756C502.107 152.39 501.58 151.354 501.58 150.077V101.517C501.58 100.239 502.107 99.2031 502.756 99.2031H508.128C508.777 99.2031 509.303 100.239 509.303 101.517V150.077C509.302 151.354 508.775 152.39 508.126 152.39Z" fill="#3AB67A"/>
<path d="M522.771 45.5078L522.9 153.955" stroke="#3AB67A" stroke-width="2.25261" stroke-miterlimit="10" stroke-linecap="round"/>
<path fill-rule="evenodd" clip-rule="evenodd" d="M525.503 102.844H520.133C519.484 102.844 518.957 101.807 518.957 100.53V51.97C518.957 50.6924 519.484 49.6562 520.133 49.6562H525.505C526.154 49.6562 526.68 50.6924 526.68 51.97V100.53C526.679 101.807 526.152 102.844 525.503 102.844Z" fill="#3AB67A"/>
<path fill-rule="evenodd" clip-rule="evenodd" d="M537.545 86.0455H542.889C543.535 86.0455 544.059 86.5283 544.059 87.1235V109.746C544.059 110.341 543.535 110.824 542.889 110.824H537.543C536.897 110.824 536.373 110.341 536.373 109.746V87.1235C536.375 86.5283 536.899 86.0455 537.545 86.0455Z" fill="#3AB67A"/>
<path d="M540.242 164.566V75.4275" stroke="#3AB67A" stroke-width="2.25261" stroke-miterlimit="10" stroke-linecap="round"/>
<path fill-rule="evenodd" clip-rule="evenodd" d="M554.922 56.1276H560.266C560.912 56.1276 561.436 56.6103 561.436 57.2055V79.8283C561.436 80.4235 560.912 80.9062 560.266 80.9062H554.92C554.274 80.9062 553.75 80.4235 553.75 79.8283V57.2055C553.752 56.6103 554.276 56.1276 554.922 56.1276Z" fill="#FD5353"/>
<path d="M557.619 134.648V45.5096" stroke="#FD5353" stroke-width="2.25261" stroke-miterlimit="10" stroke-linecap="round"/>
<path d="M573.057 61.4414V150.594" stroke="#3AB67A" stroke-width="2.25295" stroke-miterlimit="10" stroke-linecap="round"/>
<path fill-rule="evenodd" clip-rule="evenodd" d="M575.787 131.981H570.414C569.765 131.981 569.238 130.944 569.238 129.666V81.0993C569.238 79.8215 569.765 78.7852 570.414 78.7852H575.787C576.436 78.7852 576.963 79.8215 576.963 81.0993V129.666C576.963 130.944 576.436 131.981 575.787 131.981Z" fill="#3AB67A"/>
<path d="M590.432 93.1875V182.34" stroke="#FD5353" stroke-width="2.25295" stroke-miterlimit="10" stroke-linecap="round"/>
<path fill-rule="evenodd" clip-rule="evenodd" d="M593.164 163.727H587.793C587.144 163.727 586.617 162.69 586.617 161.413V112.845C586.617 111.568 587.144 110.531 587.793 110.531H593.166C593.815 110.531 594.342 111.568 594.342 112.845V161.413C594.34 162.69 593.813 163.727 593.164 163.727Z" fill="#FD5353"/>
<path fill-rule="evenodd" clip-rule="evenodd" d="M605.201 80.3502H610.545C611.191 80.3502 611.715 80.833 611.715 81.4282V104.051C611.715 104.646 611.191 105.129 610.545 105.129H605.199C604.553 105.129 604.029 104.646 604.029 104.051V81.4282C604.031 80.833 604.555 80.3502 605.201 80.3502Z" fill="#3AB67A"/>
<path d="M607.9 158.871V69.7322" stroke="#3AB67A" stroke-width="2.25261" stroke-miterlimit="10" stroke-linecap="round"/>
<path fill-rule="evenodd" clip-rule="evenodd" d="M627.885 171.708H622.541C621.895 171.708 621.371 171.226 621.371 170.63V148.008C621.371 147.412 621.895 146.93 622.541 146.93H627.887C628.533 146.93 629.057 147.412 629.057 148.008V170.63C629.055 171.226 628.531 171.708 627.885 171.708Z" fill="#3AB67A"/>
<path d="M625.186 93.1875V182.326" stroke="#3AB67A" stroke-width="2.25261" stroke-miterlimit="10" stroke-linecap="round"/>
<path fill-rule="evenodd" clip-rule="evenodd" d="M645.26 117.982H639.916C639.27 117.982 638.746 117.499 638.746 116.904V94.281C638.746 93.6859 639.27 93.2031 639.916 93.2031H645.262C645.908 93.2031 646.432 93.6859 646.432 94.281V116.904C646.43 117.499 645.906 117.982 645.26 117.982Z" fill="#FD5353"/>
<path d="M642.562 39.4609V128.6" stroke="#FD5353" stroke-width="2.25261" stroke-miterlimit="10" stroke-linecap="round"/>
<path d="M659.941 93.1875L660.07 201.635" stroke="#FD5353" stroke-width="2.25261" stroke-miterlimit="10" stroke-linecap="round"/>
<path fill-rule="evenodd" clip-rule="evenodd" d="M662.671 150.523H657.301C656.652 150.523 656.125 149.487 656.125 148.209V99.6497C656.125 98.3721 656.652 97.3359 657.301 97.3359H662.672C663.322 97.3359 663.848 98.3721 663.848 99.6497V148.209C663.847 149.487 663.32 150.523 662.671 150.523Z" fill="#FD5353"/>
<path d="M677.318 83.4219V172.561" stroke="#FD5353" stroke-width="2.25261" stroke-miterlimit="10" stroke-linecap="round"/>
<path fill-rule="evenodd" clip-rule="evenodd" d="M680.048 146.871H674.678C674.028 146.871 673.502 145.835 673.502 144.557V95.9973C673.502 94.7198 674.028 93.6836 674.678 93.6836H680.049C680.699 93.6836 681.225 94.7198 681.225 95.9973V144.557C681.224 145.835 680.697 146.871 680.048 146.871Z" fill="#FD5353"/>
<g clip-path="url(#clip0_0_1)">
<path d="M6.81836 43.9766V133.129" stroke="#3AB67A" stroke-width="2.25295" stroke-miterlimit="10" stroke-linecap="round"/>
<path fill-rule="evenodd" clip-rule="evenodd" d="M9.5485 114.516H4.17592C3.52663 114.516 3 113.479 3 112.202V63.6344C3 62.3567 3.52663 61.3203 4.17592 61.3203H9.5485C10.1978 61.3203 10.7244 62.3567 10.7244 63.6344V112.202C10.7244 113.479 10.1978 114.516 9.5485 114.516Z" fill="#3AB67A"/>
<path d="M24.1895 75.7266V164.879" stroke="#FD5353" stroke-width="2.25295" stroke-miterlimit="10" stroke-linecap="round"/>
<path fill-rule="evenodd" clip-rule="evenodd" d="M26.9219 146.266H21.5509C20.9016 146.266 20.375 145.229 20.375 143.952V95.3844C20.375 94.1067 20.9016 93.0703 21.5509 93.0703H26.9235C27.5728 93.0703 28.0994 94.1067 28.0994 95.3844V143.952C28.0978 145.229 27.5711 146.266 26.9219 146.266Z" fill="#FD5353"/>
<path fill-rule="evenodd" clip-rule="evenodd" d="M38.9645 62.8893H44.3085C44.9545 62.8893 45.4785 63.372 45.4785 63.9672V86.59C45.4785 87.1852 44.9545 87.668 44.3085 87.668H38.9629C38.3169 87.668 37.7929 87.1852 37.7929 86.59V63.9672C37.7945 63.372 38.3185 62.8893 38.9645 62.8893Z" fill="#3AB67A"/>
<path d="M41.6641 141.41L41.6641 52.2713" stroke="#3AB67A" stroke-width="2.25261" stroke-miterlimit="10" stroke-linecap="round"/>
<path fill-rule="evenodd" clip-rule="evenodd" d="M61.6468 154.247H56.3028C55.6568 154.247 55.1328 153.765 55.1328 153.17V130.547C55.1328 129.951 55.6568 129.469 56.3028 129.469H61.6484C62.2944 129.469 62.8184 129.951 62.8184 130.547V153.17C62.8168 153.765 62.2928 154.247 61.6468 154.247Z" fill="#3AB67A"/>
<path d="M58.9473 75.7266V164.865" stroke="#3AB67A" stroke-width="2.25261" stroke-miterlimit="10" stroke-linecap="round"/>
<path fill-rule="evenodd" clip-rule="evenodd" d="M79.0237 100.521H73.6798C73.0337 100.521 72.5098 100.038 72.5098 99.4429V76.8201C72.5098 76.2249 73.0337 75.7422 73.6798 75.7422H79.0254C79.6714 75.7422 80.1954 76.2249 80.1954 76.8201V99.4429C80.1938 100.038 79.6698 100.521 79.0237 100.521Z" fill="#FD5353"/>
<path d="M76.3223 22V111.139" stroke="#FD5353" stroke-width="2.25261" stroke-miterlimit="10" stroke-linecap="round"/>
<path d="M93.6992 75.7266L93.8279 184.174" stroke="#FD5353" stroke-width="2.25261" stroke-miterlimit="10" stroke-linecap="round"/>
<path fill-rule="evenodd" clip-rule="evenodd" d="M96.4326 133.062H91.0625C90.4133 133.062 89.8867 132.026 89.8867 130.749V82.1887C89.8867 80.9112 90.4133 79.875 91.0625 79.875H96.4342C97.0834 79.875 97.6099 80.9112 97.6099 82.1887V130.749C97.6083 132.026 97.0818 133.062 96.4326 133.062Z" fill="#FD5353"/>
<path d="M111.078 65.9609V155.1" stroke="#FD5353" stroke-width="2.25261" stroke-miterlimit="10" stroke-linecap="round"/>
<path fill-rule="evenodd" clip-rule="evenodd" d="M113.811 129.41H108.441C107.792 129.41 107.266 128.374 107.266 127.096V78.5364C107.266 77.2589 107.792 76.2227 108.441 76.2227H113.813C114.462 76.2227 114.989 77.2589 114.989 78.5364V127.096C114.987 128.374 114.461 129.41 113.811 129.41Z" fill="#FD5353"/>
</g>
<path d="M1.8546 302.777V307.711C1.8546 308.519 2.03345 309.118 2.39115 309.507C2.74885 309.888 3.24264 310.079 3.8725 310.079C4.49459 310.079 4.9806 309.884 5.33052 309.495C5.68045 309.107 5.85541 308.512 5.85541 307.711V302.777H6.91685V307.711C6.91685 308.83 6.63691 309.674 6.07703 310.242C5.52492 310.802 4.7823 311.082 3.84917 311.082C2.92382 311.082 2.1812 310.802 1.62132 310.242C1.06921 309.674 0.793163 308.83 0.793163 307.711V302.777H1.8546ZM13.7653 308.865C13.7653 309.254 13.6719 309.616 13.4853 309.95C13.2987 310.285 13.0149 310.557 12.6338 310.767C12.2528 310.977 11.7823 311.082 11.2225 311.082C10.6781 311.082 10.1921 310.984 9.76445 310.79C9.34454 310.588 9.00628 310.316 8.74967 309.974C8.50083 309.624 8.35697 309.227 8.31809 308.784H9.44952C9.47285 309.017 9.55061 309.246 9.6828 309.472C9.82277 309.69 10.0172 309.872 10.266 310.02C10.5226 310.16 10.8298 310.23 11.1875 310.23C11.654 310.23 12.0117 310.106 12.2606 309.857C12.5094 309.608 12.6338 309.289 12.6338 308.9C12.6338 308.566 12.5444 308.294 12.3656 308.084C12.1945 307.874 11.9806 307.711 11.724 307.594C11.4674 307.47 11.1175 307.337 10.6743 307.197C10.1533 307.026 9.73334 306.867 9.41452 306.719C9.10348 306.564 8.8352 306.334 8.6097 306.031C8.39197 305.728 8.2831 305.327 8.2831 304.83C8.2831 304.402 8.38419 304.025 8.58637 303.698C8.79632 303.372 9.09182 303.119 9.47285 302.94C9.86165 302.761 10.3166 302.672 10.8376 302.672C11.6463 302.672 12.2878 302.87 12.7621 303.267C13.2365 303.655 13.5125 304.153 13.5903 304.76H12.4472C12.385 304.433 12.2178 304.145 11.9456 303.897C11.6735 303.648 11.3041 303.523 10.8376 303.523C10.4099 303.523 10.0677 303.636 9.81111 303.862C9.55449 304.079 9.42619 304.39 9.42619 304.795C9.42619 305.113 9.50784 305.374 9.67114 305.576C9.84221 305.771 10.0522 305.926 10.301 306.043C10.5498 306.152 10.892 306.276 11.3274 306.416C11.8562 306.587 12.28 306.75 12.5988 306.906C12.9254 307.061 13.2015 307.299 13.427 307.617C13.6525 307.928 13.7653 308.344 13.7653 308.865ZM22.121 306.883C22.121 307.715 21.9538 308.442 21.6194 309.064C21.2851 309.678 20.7913 310.156 20.1381 310.498C19.4927 310.833 18.7151 311 17.8052 311H15.1925V302.777H17.8052C18.7151 302.777 19.4927 302.944 20.1381 303.278C20.7913 303.605 21.2851 304.079 21.6194 304.701C21.9538 305.316 22.121 306.043 22.121 306.883ZM17.7236 310.044C18.7967 310.044 19.6171 309.767 20.1847 309.215C20.7524 308.663 21.0362 307.886 21.0362 306.883C21.0362 305.879 20.7524 305.102 20.1847 304.55C19.6249 303.99 18.8045 303.71 17.7236 303.71H16.2539V310.044H17.7236Z" fill="#717579"/>
<path d="M763.342 305.754C763.84 305.855 764.236 306.093 764.532 306.466C764.835 306.831 764.987 307.263 764.987 307.76C764.987 308.453 764.754 309.001 764.287 309.405C763.828 309.802 763.159 310 762.281 310H758.747V301.765H762.211C763.043 301.765 763.68 301.948 764.124 302.313C764.575 302.679 764.8 303.192 764.8 303.853C764.8 304.366 764.664 304.786 764.392 305.113C764.128 305.439 763.778 305.653 763.342 305.754ZM760.391 305.218H761.873C762.285 305.218 762.596 305.128 762.806 304.949C763.023 304.763 763.132 304.498 763.132 304.156C763.132 303.814 763.027 303.55 762.817 303.363C762.607 303.176 762.285 303.083 761.849 303.083H760.391V305.218ZM761.954 308.659C762.39 308.659 762.724 308.565 762.957 308.379C763.191 308.184 763.307 307.904 763.307 307.539C763.307 307.173 763.187 306.893 762.946 306.699C762.712 306.497 762.378 306.396 761.942 306.396H760.391V308.659H761.954ZM771.738 301.765V303.071H769.463V310H767.819V303.071H765.556V301.765H771.738ZM776.364 301.683C777.391 301.683 778.242 301.948 778.919 302.477C779.595 303.005 780.042 303.725 780.26 304.634H778.534C778.355 304.191 778.075 303.841 777.694 303.585C777.321 303.328 776.87 303.2 776.341 303.2C775.905 303.2 775.513 303.309 775.163 303.526C774.813 303.744 774.541 304.055 774.346 304.46C774.152 304.864 774.055 305.338 774.055 305.883C774.055 306.419 774.152 306.89 774.346 307.294C774.541 307.698 774.813 308.009 775.163 308.227C775.513 308.445 775.905 308.554 776.341 308.554C776.87 308.554 777.321 308.425 777.694 308.169C778.075 307.912 778.355 307.562 778.534 307.119H780.26C780.042 308.029 779.595 308.748 778.919 309.277C778.242 309.806 777.391 310.07 776.364 310.07C775.579 310.07 774.883 309.895 774.276 309.545C773.677 309.187 773.211 308.69 772.877 308.052C772.55 307.414 772.387 306.691 772.387 305.883C772.387 305.066 772.55 304.339 772.877 303.701C773.211 303.064 773.677 302.57 774.276 302.22C774.875 301.862 775.571 301.683 776.364 301.683Z" fill="#717579"/>
<path d="M52.4977 309.927C52.0623 309.188 51.8445 308.158 51.8445 306.836C51.8445 305.522 52.0623 304.499 52.4977 303.768C52.9332 303.029 53.6875 302.66 54.7606 302.66C55.8337 302.66 56.588 303.029 57.0234 303.768C57.4667 304.507 57.6883 305.53 57.6883 306.836C57.6883 308.158 57.4667 309.188 57.0234 309.927C56.588 310.666 55.8337 311.035 54.7606 311.035C53.6875 311.035 52.9332 310.666 52.4977 309.927ZM56.4869 308.539C56.588 308.08 56.6385 307.512 56.6385 306.836C56.6385 306.167 56.588 305.607 56.4869 305.156C56.3936 304.705 56.2108 304.348 55.9387 304.083C55.6665 303.811 55.2738 303.675 54.7606 303.675C54.2551 303.675 53.8663 303.811 53.5942 304.083C53.322 304.348 53.1354 304.705 53.0343 305.156C52.941 305.607 52.8943 306.167 52.8943 306.836C52.8943 307.512 52.941 308.08 53.0343 308.539C53.1354 308.99 53.322 309.351 53.5942 309.624C53.8663 309.896 54.2551 310.032 54.7606 310.032C55.2738 310.032 55.6665 309.896 55.9387 309.624C56.2108 309.351 56.3936 308.99 56.4869 308.539ZM64.5498 303.617H60.3274V306.369C60.5218 306.105 60.8017 305.895 61.1672 305.739C61.5327 305.584 61.9332 305.506 62.3686 305.506C62.9518 305.506 63.4339 305.631 63.815 305.879C64.2038 306.12 64.4876 306.443 64.6665 306.848C64.8531 307.244 64.9464 307.687 64.9464 308.177C64.9464 309.025 64.7092 309.717 64.2349 310.253C63.7605 310.79 63.0646 311.058 62.147 311.058C61.3227 311.058 60.6501 310.837 60.1291 310.393C59.6081 309.942 59.3165 309.34 59.2543 308.586H60.3041C60.3896 309.068 60.5879 309.445 60.8989 309.717C61.2178 309.981 61.6182 310.114 62.1003 310.114C62.6991 310.114 63.1501 309.935 63.4534 309.577C63.7567 309.219 63.9083 308.749 63.9083 308.166C63.9083 307.598 63.7528 307.155 63.4417 306.836C63.1307 306.517 62.6913 306.358 62.1237 306.358C61.7193 306.358 61.3655 306.447 61.0622 306.626C60.759 306.797 60.5296 307.03 60.3741 307.326H59.3476V302.672H64.5498V303.617ZM73.9194 302.777V303.64H70.3269V306.486H73.3712V307.314H70.3269V311H69.2654V302.777H73.9194ZM81.0676 307.442C81.0676 307.668 81.0521 307.862 81.021 308.026H75.9004C75.9237 308.757 76.1298 309.305 76.5186 309.67C76.9152 310.036 77.3973 310.219 77.965 310.219C78.4782 310.219 78.9059 310.09 79.248 309.834C79.5979 309.569 79.8118 309.219 79.8896 308.784H81.021C80.9432 309.227 80.7683 309.624 80.4961 309.974C80.2317 310.323 79.8857 310.596 79.458 310.79C79.0303 310.984 78.5482 311.082 78.0116 311.082C77.3973 311.082 76.853 310.949 76.3786 310.685C75.9043 310.421 75.531 310.044 75.2589 309.554C74.9945 309.056 74.8623 308.473 74.8623 307.804C74.8623 307.135 74.9945 306.552 75.2589 306.054C75.531 305.557 75.9043 305.176 76.3786 304.911C76.853 304.647 77.3973 304.515 78.0116 304.515C78.6337 304.515 79.1742 304.647 79.6329 304.911C80.0995 305.176 80.4533 305.53 80.6944 305.973C80.9432 306.416 81.0676 306.906 81.0676 307.442ZM79.9945 307.512C80.0179 307.038 79.9401 306.641 79.7612 306.323C79.5824 306.004 79.3375 305.767 79.0264 305.611C78.7154 305.456 78.3771 305.378 78.0116 305.378C77.4284 305.378 76.9385 305.561 76.5419 305.926C76.1454 306.284 75.9315 306.813 75.9004 307.512H79.9945ZM85.9902 304.515C86.5578 304.515 87.0633 304.647 87.5065 304.911C87.9498 305.176 88.2958 305.557 88.5446 306.054C88.8012 306.552 88.9295 307.135 88.9295 307.804C88.9295 308.473 88.8012 309.056 88.5446 309.554C88.2958 310.044 87.9498 310.421 87.5065 310.685C87.0633 310.949 86.5578 311.082 85.9902 311.082C85.3681 311.082 84.8393 310.926 84.4039 310.615C83.9762 310.296 83.6807 309.88 83.5174 309.367V311H82.4559V302.369H83.5174V306.229C83.6807 305.716 83.9762 305.304 84.4039 304.993C84.8393 304.674 85.3681 304.515 85.9902 304.515ZM85.6869 305.46C85.2748 305.46 84.9015 305.557 84.5672 305.751C84.2328 305.938 83.9723 306.21 83.7857 306.568C83.599 306.925 83.5057 307.337 83.5057 307.804C83.5057 308.271 83.599 308.683 83.7857 309.04C83.9723 309.39 84.2328 309.663 84.5672 309.857C84.9015 310.051 85.2748 310.149 85.6869 310.149C86.3479 310.149 86.8728 309.942 87.2616 309.53C87.6582 309.11 87.8564 308.535 87.8564 307.804C87.8564 307.073 87.6582 306.502 87.2616 306.089C86.8728 305.669 86.3479 305.46 85.6869 305.46Z" fill="#717579"/>
<path d="M115.322 309.927C114.886 309.188 114.669 308.158 114.669 306.836C114.669 305.522 114.886 304.499 115.322 303.768C115.757 303.029 116.512 302.66 117.585 302.66C118.658 302.66 119.412 303.029 119.848 303.768C120.291 304.507 120.513 305.53 120.513 306.836C120.513 308.158 120.291 309.188 119.848 309.927C119.412 310.666 118.658 311.035 117.585 311.035C116.512 311.035 115.757 310.666 115.322 309.927ZM119.311 308.539C119.412 308.08 119.463 307.512 119.463 306.836C119.463 306.167 119.412 305.607 119.311 305.156C119.218 304.705 119.035 304.348 118.763 304.083C118.491 303.811 118.098 303.675 117.585 303.675C117.079 303.675 116.691 303.811 116.418 304.083C116.146 304.348 115.96 304.705 115.859 305.156C115.765 305.607 115.719 306.167 115.719 306.836C115.719 307.512 115.765 308.08 115.859 308.539C115.96 308.99 116.146 309.351 116.418 309.624C116.691 309.896 117.079 310.032 117.585 310.032C118.098 310.032 118.491 309.896 118.763 309.624C119.035 309.351 119.218 308.99 119.311 308.539ZM126.476 304.97C126.414 304.48 126.247 304.103 125.974 303.838C125.71 303.566 125.341 303.43 124.866 303.43C124.205 303.43 123.704 303.687 123.362 304.2C123.027 304.713 122.86 305.526 122.86 306.638L122.872 307.069C122.988 306.603 123.257 306.233 123.677 305.961C124.096 305.681 124.59 305.541 125.158 305.541C125.974 305.541 126.612 305.786 127.071 306.276C127.537 306.766 127.771 307.45 127.771 308.329C127.771 308.842 127.67 309.309 127.467 309.729C127.265 310.141 126.954 310.471 126.534 310.72C126.122 310.961 125.609 311.082 124.995 311.082C123.82 311.082 123.012 310.712 122.568 309.974C122.133 309.235 121.915 308.232 121.915 306.964C121.915 305.502 122.148 304.406 122.615 303.675C123.089 302.936 123.859 302.567 124.925 302.567C125.71 302.567 126.313 302.788 126.733 303.232C127.16 303.675 127.413 304.254 127.491 304.97H126.476ZM122.988 308.154C122.988 308.722 123.152 309.2 123.478 309.589C123.813 309.97 124.31 310.16 124.971 310.16C125.516 310.16 125.951 310.001 126.278 309.682C126.604 309.355 126.768 308.9 126.768 308.317C126.768 307.687 126.604 307.209 126.278 306.883C125.951 306.548 125.5 306.381 124.925 306.381C124.598 306.381 124.287 306.447 123.991 306.579C123.696 306.711 123.455 306.914 123.268 307.186C123.082 307.45 122.988 307.773 122.988 308.154ZM136.801 302.777V303.64H133.208V306.486H136.252V307.314H133.208V311H132.147V302.777H136.801ZM143.949 307.442C143.949 307.668 143.933 307.862 143.902 308.026H138.782C138.805 308.757 139.011 309.305 139.4 309.67C139.796 310.036 140.278 310.219 140.846 310.219C141.359 310.219 141.787 310.09 142.129 309.834C142.479 309.569 142.693 309.219 142.771 308.784H143.902C143.824 309.227 143.649 309.624 143.377 309.974C143.113 310.323 142.767 310.596 142.339 310.79C141.911 310.984 141.429 311.082 140.893 311.082C140.278 311.082 139.734 310.949 139.26 310.685C138.785 310.421 138.412 310.044 138.14 309.554C137.876 309.056 137.743 308.473 137.743 307.804C137.743 307.135 137.876 306.552 138.14 306.054C138.412 305.557 138.785 305.176 139.26 304.911C139.734 304.647 140.278 304.515 140.893 304.515C141.515 304.515 142.055 304.647 142.514 304.911C142.981 305.176 143.334 305.53 143.576 305.973C143.824 306.416 143.949 306.906 143.949 307.442ZM142.876 307.512C142.899 307.038 142.821 306.641 142.642 306.323C142.464 306.004 142.219 305.767 141.908 305.611C141.597 305.456 141.258 305.378 140.893 305.378C140.31 305.378 139.82 305.561 139.423 305.926C139.027 306.284 138.813 306.813 138.782 307.512H142.876ZM148.871 304.515C149.439 304.515 149.944 304.647 150.388 304.911C150.831 305.176 151.177 305.557 151.426 306.054C151.682 306.552 151.811 307.135 151.811 307.804C151.811 308.473 151.682 309.056 151.426 309.554C151.177 310.044 150.831 310.421 150.388 310.685C149.944 310.949 149.439 311.082 148.871 311.082C148.249 311.082 147.72 310.926 147.285 310.615C146.857 310.296 146.562 309.88 146.399 309.367V311H145.337V302.369H146.399V306.229C146.562 305.716 146.857 305.304 147.285 304.993C147.72 304.674 148.249 304.515 148.871 304.515ZM148.568 305.46C148.156 305.46 147.783 305.557 147.448 305.751C147.114 305.938 146.853 306.21 146.667 306.568C146.48 306.925 146.387 307.337 146.387 307.804C146.387 308.271 146.48 308.683 146.667 309.04C146.853 309.39 147.114 309.663 147.448 309.857C147.783 310.051 148.156 310.149 148.568 310.149C149.229 310.149 149.754 309.942 150.143 309.53C150.539 309.11 150.738 308.535 150.738 307.804C150.738 307.073 150.539 306.502 150.143 306.089C149.754 305.669 149.229 305.46 148.568 305.46Z" fill="#717579"/>
<path d="M179.119 309.927C178.683 309.188 178.466 308.158 178.466 306.836C178.466 305.522 178.683 304.499 179.119 303.768C179.554 303.029 180.309 302.66 181.382 302.66C182.455 302.66 183.209 303.029 183.645 303.768C184.088 304.507 184.309 305.53 184.309 306.836C184.309 308.158 184.088 309.188 183.645 309.927C183.209 310.666 182.455 311.035 181.382 311.035C180.309 311.035 179.554 310.666 179.119 309.927ZM183.108 308.539C183.209 308.08 183.26 307.512 183.26 306.836C183.26 306.167 183.209 305.607 183.108 305.156C183.015 304.705 182.832 304.348 182.56 304.083C182.288 303.811 181.895 303.675 181.382 303.675C180.876 303.675 180.487 303.811 180.215 304.083C179.943 304.348 179.756 304.705 179.655 305.156C179.562 305.607 179.515 306.167 179.515 306.836C179.515 307.512 179.562 308.08 179.655 308.539C179.756 308.99 179.943 309.351 180.215 309.624C180.487 309.896 180.876 310.032 181.382 310.032C181.895 310.032 182.288 309.896 182.56 309.624C182.832 309.351 183.015 308.99 183.108 308.539ZM190.518 303.547L187.403 311H186.284L189.445 303.652H185.129V302.73H190.518V303.547ZM199.253 302.777V303.64H195.661V306.486H198.705V307.314H195.661V311H194.599V302.777H199.253ZM206.402 307.442C206.402 307.668 206.386 307.862 206.355 308.026H201.234C201.258 308.757 201.464 309.305 201.853 309.67C202.249 310.036 202.731 310.219 203.299 310.219C203.812 310.219 204.24 310.09 204.582 309.834C204.932 309.569 205.146 309.219 205.223 308.784H206.355C206.277 309.227 206.102 309.624 205.83 309.974C205.566 310.323 205.22 310.596 204.792 310.79C204.364 310.984 203.882 311.082 203.346 311.082C202.731 311.082 202.187 310.949 201.713 310.685C201.238 310.421 200.865 310.044 200.593 309.554C200.328 309.056 200.196 308.473 200.196 307.804C200.196 307.135 200.328 306.552 200.593 306.054C200.865 305.557 201.238 305.176 201.713 304.911C202.187 304.647 202.731 304.515 203.346 304.515C203.968 304.515 204.508 304.647 204.967 304.911C205.433 305.176 205.787 305.53 206.028 305.973C206.277 306.416 206.402 306.906 206.402 307.442ZM205.328 307.512C205.352 307.038 205.274 306.641 205.095 306.323C204.916 306.004 204.671 305.767 204.36 305.611C204.049 305.456 203.711 305.378 203.346 305.378C202.762 305.378 202.272 305.561 201.876 305.926C201.479 306.284 201.265 306.813 201.234 307.512H205.328ZM211.324 304.515C211.892 304.515 212.397 304.647 212.84 304.911C213.284 305.176 213.63 305.557 213.879 306.054C214.135 306.552 214.263 307.135 214.263 307.804C214.263 308.473 214.135 309.056 213.879 309.554C213.63 310.044 213.284 310.421 212.84 310.685C212.397 310.949 211.892 311.082 211.324 311.082C210.702 311.082 210.173 310.926 209.738 310.615C209.31 310.296 209.015 309.88 208.851 309.367V311H207.79V302.369H208.851V306.229C209.015 305.716 209.31 305.304 209.738 304.993C210.173 304.674 210.702 304.515 211.324 304.515ZM211.021 305.46C210.609 305.46 210.235 305.557 209.901 305.751C209.567 305.938 209.306 306.21 209.12 306.568C208.933 306.925 208.84 307.337 208.84 307.804C208.84 308.271 208.933 308.683 209.12 309.04C209.306 309.39 209.567 309.663 209.901 309.857C210.235 310.051 210.609 310.149 211.021 310.149C211.682 310.149 212.207 309.942 212.596 309.53C212.992 309.11 213.19 308.535 213.19 307.804C213.19 307.073 212.992 306.502 212.596 306.089C212.207 305.669 211.682 305.46 211.021 305.46Z" fill="#717579"/>
<path d="M242.916 309.927C242.48 309.188 242.263 308.158 242.263 306.836C242.263 305.522 242.48 304.499 242.916 303.768C243.351 303.029 244.105 302.66 245.179 302.66C246.252 302.66 247.006 303.029 247.441 303.768C247.885 304.507 248.106 305.53 248.106 306.836C248.106 308.158 247.885 309.188 247.441 309.927C247.006 310.666 246.252 311.035 245.179 311.035C244.105 311.035 243.351 310.666 242.916 309.927ZM246.905 308.539C247.006 308.08 247.056 307.512 247.056 306.836C247.056 306.167 247.006 305.607 246.905 305.156C246.812 304.705 246.629 304.348 246.357 304.083C246.084 303.811 245.692 303.675 245.179 303.675C244.673 303.675 244.284 303.811 244.012 304.083C243.74 304.348 243.553 304.705 243.452 305.156C243.359 305.607 243.312 306.167 243.312 306.836C243.312 307.512 243.359 308.08 243.452 308.539C243.553 308.99 243.74 309.351 244.012 309.624C244.284 309.896 244.673 310.032 245.179 310.032C245.692 310.032 246.084 309.896 246.357 309.624C246.629 309.351 246.812 308.99 246.905 308.539ZM249.591 304.713C249.591 304.309 249.699 303.939 249.917 303.605C250.135 303.271 250.458 303.006 250.885 302.812C251.313 302.617 251.822 302.52 252.413 302.52C253.004 302.52 253.51 302.617 253.93 302.812C254.357 303.006 254.68 303.271 254.898 303.605C255.116 303.939 255.224 304.309 255.224 304.713C255.224 305.172 255.1 305.568 254.851 305.903C254.602 306.237 254.225 306.474 253.72 306.614C254.264 306.762 254.688 307.019 254.991 307.384C255.294 307.75 255.446 308.201 255.446 308.737C255.446 309.515 255.17 310.125 254.618 310.568C254.066 311.012 253.331 311.233 252.413 311.233C251.496 311.233 250.761 311.012 250.209 310.568C249.657 310.125 249.381 309.515 249.381 308.737C249.381 308.201 249.528 307.75 249.824 307.384C250.127 307.019 250.551 306.762 251.095 306.614C250.59 306.474 250.213 306.237 249.964 305.903C249.715 305.568 249.591 305.172 249.591 304.713ZM250.64 304.865C250.64 305.331 250.8 305.693 251.119 305.949C251.437 306.198 251.869 306.323 252.413 306.323C252.958 306.323 253.385 306.198 253.696 305.949C254.015 305.693 254.175 305.331 254.175 304.865C254.175 304.398 254.015 304.04 253.696 303.792C253.378 303.535 252.95 303.407 252.413 303.407C251.877 303.407 251.445 303.535 251.119 303.792C250.8 304.04 250.64 304.398 250.64 304.865ZM250.419 308.679C250.419 309.208 250.598 309.62 250.955 309.915C251.313 310.203 251.799 310.347 252.413 310.347C253.02 310.347 253.502 310.199 253.86 309.904C254.217 309.608 254.396 309.2 254.396 308.679C254.396 308.15 254.21 307.75 253.836 307.477C253.463 307.205 252.989 307.069 252.413 307.069C251.83 307.069 251.352 307.205 250.979 307.477C250.605 307.75 250.419 308.15 250.419 308.679ZM264.44 302.777V303.64H260.847V306.486H263.892V307.314H260.847V311H259.786V302.777H264.44ZM271.588 307.442C271.588 307.668 271.573 307.862 271.541 308.026H266.421C266.444 308.757 266.65 309.305 267.039 309.67C267.436 310.036 267.918 310.219 268.485 310.219C268.999 310.219 269.426 310.09 269.769 309.834C270.118 309.569 270.332 309.219 270.41 308.784H271.541C271.464 309.227 271.289 309.624 271.017 309.974C270.752 310.323 270.406 310.596 269.978 310.79C269.551 310.984 269.069 311.082 268.532 311.082C267.918 311.082 267.373 310.949 266.899 310.685C266.425 310.421 266.052 310.044 265.779 309.554C265.515 309.056 265.383 308.473 265.383 307.804C265.383 307.135 265.515 306.552 265.779 306.054C266.052 305.557 266.425 305.176 266.899 304.911C267.373 304.647 267.918 304.515 268.532 304.515C269.154 304.515 269.695 304.647 270.153 304.911C270.62 305.176 270.974 305.53 271.215 305.973C271.464 306.416 271.588 306.906 271.588 307.442ZM270.515 307.512C270.538 307.038 270.461 306.641 270.282 306.323C270.103 306.004 269.858 305.767 269.547 305.611C269.236 305.456 268.898 305.378 268.532 305.378C267.949 305.378 267.459 305.561 267.062 305.926C266.666 306.284 266.452 306.813 266.421 307.512H270.515ZM276.511 304.515C277.078 304.515 277.584 304.647 278.027 304.911C278.47 305.176 278.816 305.557 279.065 306.054C279.322 306.552 279.45 307.135 279.45 307.804C279.45 308.473 279.322 309.056 279.065 309.554C278.816 310.044 278.47 310.421 278.027 310.685C277.584 310.949 277.078 311.082 276.511 311.082C275.889 311.082 275.36 310.926 274.924 310.615C274.497 310.296 274.201 309.88 274.038 309.367V311H272.976V302.369H274.038V306.229C274.201 305.716 274.497 305.304 274.924 304.993C275.36 304.674 275.889 304.515 276.511 304.515ZM276.207 305.46C275.795 305.46 275.422 305.557 275.088 305.751C274.753 305.938 274.493 306.21 274.306 306.568C274.12 306.925 274.026 307.337 274.026 307.804C274.026 308.271 274.12 308.683 274.306 309.04C274.493 309.39 274.753 309.663 275.088 309.857C275.422 310.051 275.795 310.149 276.207 310.149C276.868 310.149 277.393 309.942 277.782 309.53C278.179 309.11 278.377 308.535 278.377 307.804C278.377 307.073 278.179 306.502 277.782 306.089C277.393 305.669 276.868 305.46 276.207 305.46Z" fill="#717579"/>
<path d="M306.713 309.927C306.277 309.188 306.059 308.158 306.059 306.836C306.059 305.522 306.277 304.499 306.713 303.768C307.148 303.029 307.902 302.66 308.975 302.66C310.049 302.66 310.803 303.029 311.238 303.768C311.682 304.507 311.903 305.53 311.903 306.836C311.903 308.158 311.682 309.188 311.238 309.927C310.803 310.666 310.049 311.035 308.975 311.035C307.902 311.035 307.148 310.666 306.713 309.927ZM310.702 308.539C310.803 308.08 310.853 307.512 310.853 306.836C310.853 306.167 310.803 305.607 310.702 305.156C310.608 304.705 310.426 304.348 310.154 304.083C309.881 303.811 309.489 303.675 308.975 303.675C308.47 303.675 308.081 303.811 307.809 304.083C307.537 304.348 307.35 304.705 307.249 305.156C307.156 305.607 307.109 306.167 307.109 306.836C307.109 307.512 307.156 308.08 307.249 308.539C307.35 308.99 307.537 309.351 307.809 309.624C308.081 309.896 308.47 310.032 308.975 310.032C309.489 310.032 309.881 309.896 310.154 309.624C310.426 309.351 310.608 308.99 310.702 308.539ZM314.426 308.69C314.496 309.18 314.667 309.558 314.939 309.822C315.211 310.086 315.584 310.219 316.059 310.219C316.712 310.219 317.206 309.966 317.54 309.46C317.874 308.955 318.041 308.154 318.041 307.058C318.041 306.848 318.038 306.688 318.03 306.579C317.921 307.046 317.657 307.419 317.237 307.699C316.817 307.979 316.323 308.119 315.755 308.119C314.939 308.119 314.297 307.874 313.831 307.384C313.364 306.894 313.131 306.21 313.131 305.331C313.131 304.818 313.232 304.351 313.434 303.932C313.636 303.512 313.943 303.181 314.356 302.94C314.776 302.691 315.293 302.567 315.907 302.567C317.089 302.567 317.898 302.932 318.333 303.663C318.776 304.386 318.998 305.382 318.998 306.649C318.998 308.096 318.772 309.2 318.321 309.962C317.87 310.716 317.116 311.093 316.059 311.093C315.273 311.093 314.655 310.872 314.204 310.428C313.761 309.977 313.5 309.398 313.422 308.69H314.426ZM317.925 305.495C317.925 304.935 317.758 304.46 317.423 304.071C317.097 303.683 316.603 303.488 315.942 303.488C315.398 303.488 314.962 303.652 314.636 303.978C314.309 304.305 314.146 304.76 314.146 305.343C314.146 305.965 314.309 306.443 314.636 306.778C314.962 307.112 315.409 307.279 315.977 307.279C316.304 307.279 316.615 307.213 316.91 307.081C317.213 306.949 317.458 306.746 317.645 306.474C317.832 306.202 317.925 305.876 317.925 305.495ZM328.043 302.777V303.64H324.451V306.486H327.495V307.314H324.451V311H323.389V302.777H328.043ZM335.191 307.442C335.191 307.668 335.176 307.862 335.145 308.026H330.024C330.047 308.757 330.254 309.305 330.642 309.67C331.039 310.036 331.521 310.219 332.089 310.219C332.602 310.219 333.03 310.09 333.372 309.834C333.722 309.569 333.936 309.219 334.013 308.784H335.145C335.067 309.227 334.892 309.624 334.62 309.974C334.355 310.323 334.009 310.596 333.582 310.79C333.154 310.984 332.672 311.082 332.135 311.082C331.521 311.082 330.977 310.949 330.502 310.685C330.028 310.421 329.655 310.044 329.383 309.554C329.118 309.056 328.986 308.473 328.986 307.804C328.986 307.135 329.118 306.552 329.383 306.054C329.655 305.557 330.028 305.176 330.502 304.911C330.977 304.647 331.521 304.515 332.135 304.515C332.757 304.515 333.298 304.647 333.757 304.911C334.223 305.176 334.577 305.53 334.818 305.973C335.067 306.416 335.191 306.906 335.191 307.442ZM334.118 307.512C334.142 307.038 334.064 306.641 333.885 306.323C333.706 306.004 333.461 305.767 333.15 305.611C332.839 305.456 332.501 305.378 332.135 305.378C331.552 305.378 331.062 305.561 330.666 305.926C330.269 306.284 330.055 306.813 330.024 307.512H334.118ZM340.114 304.515C340.682 304.515 341.187 304.647 341.63 304.911C342.073 305.176 342.42 305.557 342.668 306.054C342.925 306.552 343.053 307.135 343.053 307.804C343.053 308.473 342.925 309.056 342.668 309.554C342.42 310.044 342.073 310.421 341.63 310.685C341.187 310.949 340.682 311.082 340.114 311.082C339.492 311.082 338.963 310.926 338.528 310.615C338.1 310.296 337.804 309.88 337.641 309.367V311H336.58V302.369H337.641V306.229C337.804 305.716 338.1 305.304 338.528 304.993C338.963 304.674 339.492 304.515 340.114 304.515ZM339.811 305.46C339.398 305.46 339.025 305.557 338.691 305.751C338.356 305.938 338.096 306.21 337.909 306.568C337.723 306.925 337.629 307.337 337.629 307.804C337.629 308.271 337.723 308.683 337.909 309.04C338.096 309.39 338.356 309.663 338.691 309.857C339.025 310.051 339.398 310.149 339.811 310.149C340.472 310.149 340.996 309.942 341.385 309.53C341.782 309.11 341.98 308.535 341.98 307.804C341.98 307.073 341.782 306.502 341.385 306.089C340.996 305.669 340.472 305.46 339.811 305.46Z" fill="#717579"/>
<path d="M368.37 303.768V302.777H370.727V311H369.607V303.768H368.37ZM372.886 309.927C372.45 309.188 372.232 308.158 372.232 306.836C372.232 305.522 372.45 304.499 372.886 303.768C373.321 303.029 374.075 302.66 375.149 302.66C376.222 302.66 376.976 303.029 377.411 303.768C377.855 304.507 378.076 305.53 378.076 306.836C378.076 308.158 377.855 309.188 377.411 309.927C376.976 310.666 376.222 311.035 375.149 311.035C374.075 311.035 373.321 310.666 372.886 309.927ZM376.875 308.539C376.976 308.08 377.026 307.512 377.026 306.836C377.026 306.167 376.976 305.607 376.875 305.156C376.782 304.705 376.599 304.348 376.327 304.083C376.054 303.811 375.662 303.675 375.149 303.675C374.643 303.675 374.254 303.811 373.982 304.083C373.71 304.348 373.523 304.705 373.422 305.156C373.329 305.607 373.282 306.167 373.282 306.836C373.282 307.512 373.329 308.08 373.422 308.539C373.523 308.99 373.71 309.351 373.982 309.624C374.254 309.896 374.643 310.032 375.149 310.032C375.662 310.032 376.054 309.896 376.327 309.624C376.599 309.351 376.782 308.99 376.875 308.539ZM387.12 302.777V303.64H383.527V306.486H386.572V307.314H383.527V311H382.466V302.777H387.12ZM394.268 307.442C394.268 307.668 394.252 307.862 394.221 308.026H389.101C389.124 308.757 389.33 309.305 389.719 309.67C390.116 310.036 390.598 310.219 391.165 310.219C391.679 310.219 392.106 310.09 392.448 309.834C392.798 309.569 393.012 309.219 393.09 308.784H394.221C394.144 309.227 393.969 309.624 393.696 309.974C393.432 310.323 393.086 310.596 392.658 310.79C392.231 310.984 391.749 311.082 391.212 311.082C390.598 311.082 390.053 310.949 389.579 310.685C389.105 310.421 388.731 310.044 388.459 309.554C388.195 309.056 388.063 308.473 388.063 307.804C388.063 307.135 388.195 306.552 388.459 306.054C388.731 305.557 389.105 305.176 389.579 304.911C390.053 304.647 390.598 304.515 391.212 304.515C391.834 304.515 392.375 304.647 392.833 304.911C393.3 305.176 393.654 305.53 393.895 305.973C394.144 306.416 394.268 306.906 394.268 307.442ZM393.195 307.512C393.218 307.038 393.14 306.641 392.962 306.323C392.783 306.004 392.538 305.767 392.227 305.611C391.916 305.456 391.577 305.378 391.212 305.378C390.629 305.378 390.139 305.561 389.742 305.926C389.346 306.284 389.132 306.813 389.101 307.512H393.195ZM399.191 304.515C399.758 304.515 400.264 304.647 400.707 304.911C401.15 305.176 401.496 305.557 401.745 306.054C402.002 306.552 402.13 307.135 402.13 307.804C402.13 308.473 402.002 309.056 401.745 309.554C401.496 310.044 401.15 310.421 400.707 310.685C400.264 310.949 399.758 311.082 399.191 311.082C398.568 311.082 398.04 310.926 397.604 310.615C397.177 310.296 396.881 309.88 396.718 309.367V311H395.656V302.369H396.718V306.229C396.881 305.716 397.177 305.304 397.604 304.993C398.04 304.674 398.568 304.515 399.191 304.515ZM398.887 305.46C398.475 305.46 398.102 305.557 397.768 305.751C397.433 305.938 397.173 306.21 396.986 306.568C396.799 306.925 396.706 307.337 396.706 307.804C396.706 308.271 396.799 308.683 396.986 309.04C397.173 309.39 397.433 309.663 397.768 309.857C398.102 310.051 398.475 310.149 398.887 310.149C399.548 310.149 400.073 309.942 400.462 309.53C400.859 309.11 401.057 308.535 401.057 307.804C401.057 307.073 400.859 306.502 400.462 306.089C400.073 305.669 399.548 305.46 398.887 305.46Z" fill="#717579"/>
<path d="M432.167 303.768V302.777H434.523V311H433.404V303.768H432.167ZM435.516 303.768V302.777H437.872V311H436.753V303.768H435.516ZM447.101 302.777V303.64H443.508V306.486H446.553V307.314H443.508V311H442.447V302.777H447.101ZM454.249 307.442C454.249 307.668 454.233 307.862 454.202 308.026H449.082C449.105 308.757 449.311 309.305 449.7 309.67C450.097 310.036 450.579 310.219 451.146 310.219C451.66 310.219 452.087 310.09 452.429 309.834C452.779 309.569 452.993 309.219 453.071 308.784H454.202C454.125 309.227 453.95 309.624 453.677 309.974C453.413 310.323 453.067 310.596 452.639 310.79C452.212 310.984 451.73 311.082 451.193 311.082C450.579 311.082 450.034 310.949 449.56 310.685C449.086 310.421 448.712 310.044 448.44 309.554C448.176 309.056 448.044 308.473 448.044 307.804C448.044 307.135 448.176 306.552 448.44 306.054C448.712 305.557 449.086 305.176 449.56 304.911C450.034 304.647 450.579 304.515 451.193 304.515C451.815 304.515 452.355 304.647 452.814 304.911C453.281 305.176 453.635 305.53 453.876 305.973C454.125 306.416 454.249 306.906 454.249 307.442ZM453.176 307.512C453.199 307.038 453.121 306.641 452.943 306.323C452.764 306.004 452.519 305.767 452.208 305.611C451.897 305.456 451.558 305.378 451.193 305.378C450.61 305.378 450.12 305.561 449.723 305.926C449.327 306.284 449.113 306.813 449.082 307.512H453.176ZM459.172 304.515C459.739 304.515 460.245 304.647 460.688 304.911C461.131 305.176 461.477 305.557 461.726 306.054C461.983 306.552 462.111 307.135 462.111 307.804C462.111 308.473 461.983 309.056 461.726 309.554C461.477 310.044 461.131 310.421 460.688 310.685C460.245 310.949 459.739 311.082 459.172 311.082C458.549 311.082 458.021 310.926 457.585 310.615C457.158 310.296 456.862 309.88 456.699 309.367V311H455.637V302.369H456.699V306.229C456.862 305.716 457.158 305.304 457.585 304.993C458.021 304.674 458.549 304.515 459.172 304.515ZM458.868 305.46C458.456 305.46 458.083 305.557 457.748 305.751C457.414 305.938 457.154 306.21 456.967 306.568C456.78 306.925 456.687 307.337 456.687 307.804C456.687 308.271 456.78 308.683 456.967 309.04C457.154 309.39 457.414 309.663 457.748 309.857C458.083 310.051 458.456 310.149 458.868 310.149C459.529 310.149 460.054 309.942 460.443 309.53C460.839 309.11 461.038 308.535 461.038 307.804C461.038 307.073 460.839 306.502 460.443 306.089C460.054 305.669 459.529 305.46 458.868 305.46Z" fill="#717579"/>
<path d="M494.991 303.768V302.777H497.348V311H496.228V303.768H494.991ZM498.679 310.184C500.001 309.297 501.058 308.418 501.851 307.547C502.644 306.669 503.041 305.852 503.041 305.098C503.041 304.631 502.92 304.258 502.679 303.978C502.446 303.69 502.065 303.547 501.536 303.547C500.992 303.547 500.58 303.722 500.3 304.071C500.02 304.414 499.864 304.888 499.833 305.495H498.784C498.838 304.577 499.122 303.873 499.635 303.383C500.148 302.886 500.809 302.637 501.618 302.637C502.388 302.637 502.998 302.843 503.449 303.255C503.9 303.667 504.126 304.25 504.126 305.005C504.126 305.627 503.924 306.26 503.519 306.906C503.123 307.544 502.621 308.138 502.015 308.69C501.416 309.235 500.798 309.698 500.16 310.079H504.336V310.953H498.679V310.184ZM513.194 302.777V303.64H509.602V306.486H512.646V307.314H509.602V311H508.54V302.777H513.194ZM520.342 307.442C520.342 307.668 520.327 307.862 520.296 308.026H515.175C515.198 308.757 515.405 309.305 515.793 309.67C516.19 310.036 516.672 310.219 517.24 310.219C517.753 310.219 518.181 310.09 518.523 309.834C518.873 309.569 519.086 309.219 519.164 308.784H520.296C520.218 309.227 520.043 309.624 519.771 309.974C519.506 310.323 519.16 310.596 518.733 310.79C518.305 310.984 517.823 311.082 517.286 311.082C516.672 311.082 516.128 310.949 515.653 310.685C515.179 310.421 514.806 310.044 514.534 309.554C514.269 309.056 514.137 308.473 514.137 307.804C514.137 307.135 514.269 306.552 514.534 306.054C514.806 305.557 515.179 305.176 515.653 304.911C516.128 304.647 516.672 304.515 517.286 304.515C517.908 304.515 518.449 304.647 518.908 304.911C519.374 305.176 519.728 305.53 519.969 305.973C520.218 306.416 520.342 306.906 520.342 307.442ZM519.269 307.512C519.293 307.038 519.215 306.641 519.036 306.323C518.857 306.004 518.612 305.767 518.301 305.611C517.99 305.456 517.652 305.378 517.286 305.378C516.703 305.378 516.213 305.561 515.817 305.926C515.42 306.284 515.206 306.813 515.175 307.512H519.269ZM525.265 304.515C525.833 304.515 526.338 304.647 526.781 304.911C527.224 305.176 527.571 305.557 527.819 306.054C528.076 306.552 528.204 307.135 528.204 307.804C528.204 308.473 528.076 309.056 527.819 309.554C527.571 310.044 527.224 310.421 526.781 310.685C526.338 310.949 525.833 311.082 525.265 311.082C524.643 311.082 524.114 310.926 523.679 310.615C523.251 310.296 522.955 309.88 522.792 309.367V311H521.731V302.369H522.792V306.229C522.955 305.716 523.251 305.304 523.679 304.993C524.114 304.674 524.643 304.515 525.265 304.515ZM524.962 305.46C524.549 305.46 524.176 305.557 523.842 305.751C523.507 305.938 523.247 306.21 523.06 306.568C522.874 306.925 522.78 307.337 522.78 307.804C522.78 308.271 522.874 308.683 523.06 309.04C523.247 309.39 523.507 309.663 523.842 309.857C524.176 310.051 524.549 310.149 524.962 310.149C525.623 310.149 526.147 309.942 526.536 309.53C526.933 309.11 527.131 308.535 527.131 307.804C527.131 307.073 526.933 306.502 526.536 306.089C526.147 305.669 525.623 305.46 524.962 305.46Z" fill="#717579"/>
<path d="M560.732 303.768V302.777H563.088V311H561.968V303.768H560.732ZM567.417 302.555C567.945 302.555 568.4 302.648 568.781 302.835C569.162 303.022 569.45 303.278 569.644 303.605C569.839 303.932 569.936 304.301 569.936 304.713C569.936 305.226 569.784 305.658 569.481 306.008C569.186 306.358 568.75 306.568 568.175 306.638V306.708C568.773 306.863 569.24 307.104 569.574 307.431C569.917 307.757 570.088 308.208 570.088 308.784C570.088 309.46 569.862 310.012 569.411 310.44C568.96 310.868 568.311 311.082 567.463 311.082C566.616 311.082 565.927 310.864 565.399 310.428C564.878 309.985 564.57 309.34 564.477 308.492H565.527C565.597 309.005 565.791 309.414 566.11 309.717C566.437 310.02 566.876 310.172 567.428 310.172C567.949 310.172 568.35 310.04 568.63 309.775C568.91 309.503 569.05 309.153 569.05 308.725C569.05 308.212 568.847 307.823 568.443 307.559C568.046 307.287 567.479 307.151 566.74 307.151H566.46V306.264H566.74C568.171 306.264 568.886 305.786 568.886 304.83C568.886 304.41 568.754 304.075 568.49 303.827C568.225 303.578 567.86 303.453 567.393 303.453C566.927 303.453 566.534 303.589 566.215 303.862C565.896 304.126 565.71 304.519 565.655 305.04H564.617C564.672 304.262 564.94 303.655 565.422 303.22C565.912 302.777 566.577 302.555 567.417 302.555ZM579.185 302.777V303.64H575.592V306.486H578.637V307.314H575.592V311H574.531V302.777H579.185ZM586.333 307.442C586.333 307.668 586.318 307.862 586.287 308.026H581.166C581.189 308.757 581.395 309.305 581.784 309.67C582.181 310.036 582.663 310.219 583.231 310.219C583.744 310.219 584.171 310.09 584.514 309.834C584.863 309.569 585.077 309.219 585.155 308.784H586.287C586.209 309.227 586.034 309.624 585.762 309.974C585.497 310.323 585.151 310.596 584.724 310.79C584.296 310.984 583.814 311.082 583.277 311.082C582.663 311.082 582.119 310.949 581.644 310.685C581.17 310.421 580.797 310.044 580.524 309.554C580.26 309.056 580.128 308.473 580.128 307.804C580.128 307.135 580.26 306.552 580.524 306.054C580.797 305.557 581.17 305.176 581.644 304.911C582.119 304.647 582.663 304.515 583.277 304.515C583.899 304.515 584.44 304.647 584.898 304.911C585.365 305.176 585.719 305.53 585.96 305.973C586.209 306.416 586.333 306.906 586.333 307.442ZM585.26 307.512C585.283 307.038 585.206 306.641 585.027 306.323C584.848 306.004 584.603 305.767 584.292 305.611C583.981 305.456 583.643 305.378 583.277 305.378C582.694 305.378 582.204 305.561 581.807 305.926C581.411 306.284 581.197 306.813 581.166 307.512H585.26ZM591.256 304.515C591.823 304.515 592.329 304.647 592.772 304.911C593.215 305.176 593.561 305.557 593.81 306.054C594.067 306.552 594.195 307.135 594.195 307.804C594.195 308.473 594.067 309.056 593.81 309.554C593.561 310.044 593.215 310.421 592.772 310.685C592.329 310.949 591.823 311.082 591.256 311.082C590.634 311.082 590.105 310.926 589.669 310.615C589.242 310.296 588.946 309.88 588.783 309.367V311H587.721V302.369H588.783V306.229C588.946 305.716 589.242 305.304 589.669 304.993C590.105 304.674 590.634 304.515 591.256 304.515ZM590.952 305.46C590.54 305.46 590.167 305.557 589.833 305.751C589.498 305.938 589.238 306.21 589.051 306.568C588.865 306.925 588.771 307.337 588.771 307.804C588.771 308.271 588.865 308.683 589.051 309.04C589.238 309.39 589.498 309.663 589.833 309.857C590.167 310.051 590.54 310.149 590.952 310.149C591.613 310.149 592.138 309.942 592.527 309.53C592.924 309.11 593.122 308.535 593.122 307.804C593.122 307.073 592.924 306.502 592.527 306.089C592.138 305.669 591.613 305.46 590.952 305.46Z" fill="#717579"/>
<path d="M626.472 303.768V302.777H628.828V311H627.708V303.768H626.472ZM630.031 309.11V308.224L634.253 302.718H635.396V308.189H636.609V309.11H635.396V311H634.323V309.11H630.031ZM634.393 304.013L631.151 308.189H634.393V304.013ZM645.29 302.777V303.64H641.697V306.486H644.741V307.314H641.697V311H640.636V302.777H645.29ZM652.438 307.442C652.438 307.668 652.422 307.862 652.391 308.026H647.271C647.294 308.757 647.5 309.305 647.889 309.67C648.285 310.036 648.768 310.219 649.335 310.219C649.848 310.219 650.276 310.09 650.618 309.834C650.968 309.569 651.182 309.219 651.26 308.784H652.391C652.313 309.227 652.139 309.624 651.866 309.974C651.602 310.323 651.256 310.596 650.828 310.79C650.401 310.984 649.918 311.082 649.382 311.082C648.768 311.082 648.223 310.949 647.749 310.685C647.275 310.421 646.901 310.044 646.629 309.554C646.365 309.056 646.233 308.473 646.233 307.804C646.233 307.135 646.365 306.552 646.629 306.054C646.901 305.557 647.275 305.176 647.749 304.911C648.223 304.647 648.768 304.515 649.382 304.515C650.004 304.515 650.544 304.647 651.003 304.911C651.47 305.176 651.824 305.53 652.065 305.973C652.313 306.416 652.438 306.906 652.438 307.442ZM651.365 307.512C651.388 307.038 651.31 306.641 651.132 306.323C650.953 306.004 650.708 305.767 650.397 305.611C650.086 305.456 649.747 305.378 649.382 305.378C648.799 305.378 648.309 305.561 647.912 305.926C647.516 306.284 647.302 306.813 647.271 307.512H651.365ZM657.36 304.515C657.928 304.515 658.434 304.647 658.877 304.911C659.32 305.176 659.666 305.557 659.915 306.054C660.172 306.552 660.3 307.135 660.3 307.804C660.3 308.473 660.172 309.056 659.915 309.554C659.666 310.044 659.32 310.421 658.877 310.685C658.434 310.949 657.928 311.082 657.36 311.082C656.738 311.082 656.21 310.926 655.774 310.615C655.346 310.296 655.051 309.88 654.888 309.367V311H653.826V302.369H654.888V306.229C655.051 305.716 655.346 305.304 655.774 304.993C656.21 304.674 656.738 304.515 657.36 304.515ZM657.057 305.46C656.645 305.46 656.272 305.557 655.937 305.751C655.603 305.938 655.343 306.21 655.156 306.568C654.969 306.925 654.876 307.337 654.876 307.804C654.876 308.271 654.969 308.683 655.156 309.04C655.343 309.39 655.603 309.663 655.937 309.857C656.272 310.051 656.645 310.149 657.057 310.149C657.718 310.149 658.243 309.942 658.632 309.53C659.028 309.11 659.227 308.535 659.227 307.804C659.227 307.073 659.028 306.502 658.632 306.089C658.243 305.669 657.718 305.46 657.057 305.46Z" fill="#717579"/>
<path d="M692.212 303.768V302.777H694.568V311H693.449V303.768H692.212ZM701.615 303.617H697.392V306.369C697.587 306.105 697.867 305.895 698.232 305.739C698.598 305.584 698.998 305.506 699.434 305.506C700.017 305.506 700.499 305.631 700.88 305.879C701.269 306.12 701.553 306.443 701.731 306.848C701.918 307.244 702.011 307.687 702.011 308.177C702.011 309.025 701.774 309.717 701.3 310.253C700.825 310.79 700.13 311.058 699.212 311.058C698.388 311.058 697.715 310.837 697.194 310.393C696.673 309.942 696.381 309.34 696.319 308.586H697.369C697.455 309.068 697.653 309.445 697.964 309.717C698.283 309.981 698.683 310.114 699.165 310.114C699.764 310.114 700.215 309.935 700.518 309.577C700.822 309.219 700.973 308.749 700.973 308.166C700.973 307.598 700.818 307.155 700.507 306.836C700.196 306.517 699.756 306.358 699.189 306.358C698.784 306.358 698.43 306.447 698.127 306.626C697.824 306.797 697.595 307.03 697.439 307.326H696.413V302.672H701.615V303.617ZM710.984 302.777V303.64H707.392V306.486H710.436V307.314H707.392V311H706.33V302.777H710.984ZM718.133 307.442C718.133 307.668 718.117 307.862 718.086 308.026H712.965C712.989 308.757 713.195 309.305 713.584 309.67C713.98 310.036 714.462 310.219 715.03 310.219C715.543 310.219 715.971 310.09 716.313 309.834C716.663 309.569 716.877 309.219 716.955 308.784H718.086C718.008 309.227 717.833 309.624 717.561 309.974C717.297 310.323 716.951 310.596 716.523 310.79C716.095 310.984 715.613 311.082 715.077 311.082C714.462 311.082 713.918 310.949 713.444 310.685C712.969 310.421 712.596 310.044 712.324 309.554C712.059 309.056 711.927 308.473 711.927 307.804C711.927 307.135 712.059 306.552 712.324 306.054C712.596 305.557 712.969 305.176 713.444 304.911C713.918 304.647 714.462 304.515 715.077 304.515C715.699 304.515 716.239 304.647 716.698 304.911C717.164 305.176 717.518 305.53 717.759 305.973C718.008 306.416 718.133 306.906 718.133 307.442ZM717.059 307.512C717.083 307.038 717.005 306.641 716.826 306.323C716.647 306.004 716.402 305.767 716.091 305.611C715.78 305.456 715.442 305.378 715.077 305.378C714.493 305.378 714.003 305.561 713.607 305.926C713.21 306.284 712.996 306.813 712.965 307.512H717.059ZM723.055 304.515C723.623 304.515 724.128 304.647 724.571 304.911C725.015 305.176 725.361 305.557 725.61 306.054C725.866 306.552 725.994 307.135 725.994 307.804C725.994 308.473 725.866 309.056 725.61 309.554C725.361 310.044 725.015 310.421 724.571 310.685C724.128 310.949 723.623 311.082 723.055 311.082C722.433 311.082 721.904 310.926 721.469 310.615C721.041 310.296 720.746 309.88 720.582 309.367V311H719.521V302.369H720.582V306.229C720.746 305.716 721.041 305.304 721.469 304.993C721.904 304.674 722.433 304.515 723.055 304.515ZM722.752 305.46C722.34 305.46 721.966 305.557 721.632 305.751C721.298 305.938 721.037 306.21 720.851 306.568C720.664 306.925 720.571 307.337 720.571 307.804C720.571 308.271 720.664 308.683 720.851 309.04C721.037 309.39 721.298 309.663 721.632 309.857C721.966 310.051 722.34 310.149 722.752 310.149C723.413 310.149 723.938 309.942 724.327 309.53C724.723 309.11 724.921 308.535 724.921 307.804C724.921 307.073 724.723 306.502 724.327 306.089C723.938 305.669 723.413 305.46 722.752 305.46Z" fill="#717579"/>
<path d="M749.997 4.55515C750.526 4.55515 750.981 4.64846 751.362 4.83509C751.743 5.02172 752.031 5.27833 752.225 5.60492C752.419 5.93152 752.517 6.30089 752.517 6.71302C752.517 7.22624 752.365 7.65782 752.062 8.00774C751.766 8.35766 751.331 8.56762 750.755 8.6376V8.70759C751.354 8.86311 751.821 9.10417 752.155 9.43077C752.497 9.75736 752.668 10.2084 752.668 10.7838C752.668 11.4603 752.443 12.0124 751.992 12.4401C751.541 12.8678 750.891 13.0816 750.044 13.0816C749.196 13.0816 748.508 12.8639 747.979 12.4285C747.458 11.9852 747.151 11.3398 747.058 10.4922H748.107C748.177 11.0054 748.372 11.4137 748.691 11.7169C749.017 12.0202 749.457 12.1718 750.009 12.1718C750.53 12.1718 750.93 12.0397 751.21 11.7753C751.49 11.5031 751.63 11.1532 751.63 10.7255C751.63 10.2123 751.428 9.82346 751.024 9.55907C750.627 9.28691 750.059 9.15083 749.321 9.15083H749.041V8.26435H749.321C750.751 8.26435 751.467 7.78612 751.467 6.82966C751.467 6.40975 751.335 6.07538 751.07 5.82654C750.806 5.57771 750.44 5.45329 749.974 5.45329C749.507 5.45329 749.114 5.58937 748.796 5.86153C748.477 6.12592 748.29 6.51862 748.236 7.03961H747.198C747.252 6.262 747.52 5.65547 748.002 5.22001C748.492 4.77677 749.157 4.55515 749.997 4.55515ZM754.206 6.71302C754.206 6.30866 754.315 5.9393 754.533 5.60492C754.751 5.27055 755.073 5.00616 755.501 4.81176C755.929 4.61736 756.438 4.52016 757.029 4.52016C757.62 4.52016 758.125 4.61736 758.545 4.81176C758.973 5.00616 759.296 5.27055 759.513 5.60492C759.731 5.9393 759.84 6.30866 759.84 6.71302C759.84 7.17181 759.716 7.56839 759.467 7.90276C759.218 8.23714 758.841 8.47431 758.335 8.61428C758.88 8.76202 759.304 9.01863 759.607 9.38411C759.91 9.74959 760.062 10.2006 760.062 10.7372C760.062 11.5148 759.786 12.1252 759.234 12.5684C758.681 13.0117 757.947 13.2333 757.029 13.2333C756.111 13.2333 755.377 13.0117 754.824 12.5684C754.272 12.1252 753.996 11.5148 753.996 10.7372C753.996 10.2006 754.144 9.74959 754.44 9.38411C754.743 9.01863 755.167 8.76202 755.711 8.61428C755.205 8.47431 754.828 8.23714 754.58 7.90276C754.331 7.56839 754.206 7.17181 754.206 6.71302ZM755.256 6.86465C755.256 7.33122 755.415 7.69281 755.734 7.94942C756.053 8.19825 756.485 8.32267 757.029 8.32267C757.573 8.32267 758.001 8.19825 758.312 7.94942C758.631 7.69281 758.79 7.33122 758.79 6.86465C758.79 6.39809 758.631 6.04039 758.312 5.79155C757.993 5.53494 757.566 5.40663 757.029 5.40663C756.492 5.40663 756.061 5.53494 755.734 5.79155C755.415 6.04039 755.256 6.39809 755.256 6.86465ZM755.034 10.6788C755.034 11.2076 755.213 11.6197 755.571 11.9152C755.929 12.2029 756.415 12.3468 757.029 12.3468C757.636 12.3468 758.118 12.1991 758.475 11.9036C758.833 11.6081 759.012 11.1998 759.012 10.6788C759.012 10.1501 758.825 9.74959 758.452 9.47742C758.079 9.20526 757.604 9.06918 757.029 9.06918C756.446 9.06918 755.968 9.20526 755.594 9.47742C755.221 9.74959 755.034 10.1501 755.034 10.6788ZM762.301 11.7519V13H761.018V11.7519H762.301ZM768.214 5.5466L765.099 13H763.98L767.141 5.65158H762.825V4.73011H768.214V5.5466ZM769.88 11.9269C769.445 11.1882 769.227 10.1578 769.227 8.8359C769.227 7.52173 769.445 6.49918 769.88 5.76822C770.316 5.02949 771.07 4.66013 772.143 4.66013C773.216 4.66013 773.97 5.02949 774.406 5.76822C774.849 6.50695 775.071 7.52951 775.071 8.8359C775.071 10.1578 774.849 11.1882 774.406 11.9269C773.97 12.6656 773.216 13.035 772.143 13.035C771.07 13.035 770.316 12.6656 769.88 11.9269ZM773.869 10.5389C773.97 10.0801 774.021 9.51242 774.021 8.8359C774.021 8.16715 773.97 7.60727 773.869 7.15626C773.776 6.70524 773.593 6.34754 773.321 6.08315C773.049 5.81099 772.656 5.67491 772.143 5.67491C771.637 5.67491 771.249 5.81099 770.977 6.08315C770.704 6.34754 770.518 6.70524 770.417 7.15626C770.323 7.60727 770.277 8.16715 770.277 8.8359C770.277 9.51242 770.323 10.0801 770.417 10.5389C770.518 10.9899 770.704 11.3515 770.977 11.6236C771.249 11.8958 771.637 12.0319 772.143 12.0319C772.656 12.0319 773.049 11.8958 773.321 11.6236C773.593 11.3515 773.776 10.9899 773.869 10.5389ZM778.62 8.84756L782.375 13H781.069L777.64 9.16249V13H776.578V4.77677H777.64V8.59095L781.081 4.77677H782.375L778.62 8.84756Z" fill="#717579"/>
<path d="M748.654 45.0512C749.182 45.0512 749.637 45.1446 750.018 45.3312C750.399 45.5178 750.687 45.7744 750.881 46.101C751.076 46.4276 751.173 46.797 751.173 47.2091C751.173 47.7223 751.021 48.1539 750.718 48.5038C750.423 48.8538 749.987 49.0637 749.412 49.1337V49.2037C750.011 49.3592 750.477 49.6003 750.811 49.9269C751.154 50.2535 751.325 50.7045 751.325 51.2799C751.325 51.9564 751.099 52.5085 750.648 52.9362C750.197 53.3639 749.548 53.5777 748.7 53.5777C747.853 53.5777 747.164 53.36 746.636 52.9245C746.115 52.4813 745.808 51.8359 745.714 50.9883H746.764C746.834 51.5015 747.028 51.9098 747.347 52.213C747.674 52.5163 748.113 52.6679 748.665 52.6679C749.186 52.6679 749.587 52.5357 749.867 52.2714C750.147 51.9992 750.287 51.6493 750.287 51.2216C750.287 50.7084 750.084 50.3196 749.68 50.0552C749.283 49.783 748.716 49.6469 747.977 49.6469H747.697V48.7604H747.977C749.408 48.7604 750.123 48.2822 750.123 47.3258C750.123 46.9058 749.991 46.5715 749.727 46.3226C749.462 46.0738 749.097 45.9494 748.63 45.9494C748.164 45.9494 747.771 46.0855 747.452 46.3576C747.133 46.622 746.947 47.0147 746.892 47.5357H745.854C745.909 46.7581 746.177 46.1516 746.659 45.7161C747.149 45.2729 747.814 45.0512 748.654 45.0512ZM752.863 47.2091C752.863 46.8048 752.972 46.4354 753.189 46.101C753.407 45.7666 753.73 45.5023 754.158 45.3079C754.585 45.1135 755.095 45.0163 755.686 45.0163C756.277 45.0163 756.782 45.1135 757.202 45.3079C757.63 45.5023 757.952 45.7666 758.17 46.101C758.388 46.4354 758.497 46.8048 758.497 47.2091C758.497 47.6679 758.372 48.0645 758.123 48.3989C757.875 48.7332 757.497 48.9704 756.992 49.1104C757.536 49.2581 757.96 49.5147 758.263 49.8802C758.567 50.2457 758.718 50.6967 758.718 51.2332C758.718 52.0109 758.442 52.6213 757.89 53.0645C757.338 53.5078 756.603 53.7294 755.686 53.7294C754.768 53.7294 754.033 53.5078 753.481 53.0645C752.929 52.6213 752.653 52.0109 752.653 51.2332C752.653 50.6967 752.801 50.2457 753.096 49.8802C753.399 49.5147 753.823 49.2581 754.367 49.1104C753.862 48.9704 753.485 48.7332 753.236 48.3989C752.987 48.0645 752.863 47.6679 752.863 47.2091ZM753.913 47.3607C753.913 47.8273 754.072 48.1889 754.391 48.4455C754.71 48.6943 755.141 48.8188 755.686 48.8188C756.23 48.8188 756.658 48.6943 756.969 48.4455C757.287 48.1889 757.447 47.8273 757.447 47.3607C757.447 46.8942 757.287 46.5365 756.969 46.2876C756.65 46.031 756.222 45.9027 755.686 45.9027C755.149 45.9027 754.717 46.031 754.391 46.2876C754.072 46.5365 753.913 46.8942 753.913 47.3607ZM753.691 51.1749C753.691 51.7037 753.87 52.1158 754.228 52.4113C754.585 52.699 755.071 52.8429 755.686 52.8429C756.292 52.8429 756.774 52.6952 757.132 52.3997C757.49 52.1042 757.668 51.6959 757.668 51.1749C757.668 50.6462 757.482 50.2457 757.109 49.9735C756.735 49.7014 756.261 49.5653 755.686 49.5653C755.102 49.5653 754.624 49.7014 754.251 49.9735C753.878 50.2457 753.691 50.6462 753.691 51.1749ZM760.958 52.248V53.4961H759.675V52.248H760.958ZM766.625 47.4657C766.563 46.9758 766.396 46.5987 766.124 46.3343C765.859 46.0621 765.49 45.9261 765.016 45.9261C764.355 45.9261 763.853 46.1827 763.511 46.6959C763.177 47.2091 763.009 48.0217 763.009 49.1337L763.021 49.5653C763.138 49.0987 763.406 48.7293 763.826 48.4572C764.246 48.1772 764.74 48.0373 765.307 48.0373C766.124 48.0373 766.761 48.2822 767.22 48.7721C767.687 49.262 767.92 49.9463 767.92 50.825C767.92 51.3382 767.819 51.8048 767.617 52.2247C767.415 52.6368 767.104 52.9673 766.684 53.2162C766.272 53.4572 765.758 53.5777 765.144 53.5777C763.97 53.5777 763.161 53.2084 762.718 52.4696C762.282 51.7309 762.065 50.7278 762.065 49.4603C762.065 47.9984 762.298 46.902 762.764 46.171C763.239 45.4323 764.009 45.0629 765.074 45.0629C765.859 45.0629 766.462 45.2845 766.882 45.7278C767.31 46.171 767.562 46.7503 767.64 47.4657H766.625ZM763.138 50.65C763.138 51.2177 763.301 51.6959 763.628 52.0847C763.962 52.4658 764.46 52.6563 765.121 52.6563C765.665 52.6563 766.1 52.4969 766.427 52.178C766.754 51.8514 766.917 51.3965 766.917 50.8133C766.917 50.1835 766.754 49.7052 766.427 49.3786C766.1 49.0443 765.649 48.8771 765.074 48.8771C764.747 48.8771 764.436 48.9432 764.141 49.0754C763.845 49.2076 763.604 49.4098 763.418 49.6819C763.231 49.9463 763.138 50.269 763.138 50.65ZM769.881 52.423C769.445 51.6843 769.228 50.6539 769.228 49.332C769.228 48.0178 769.445 46.9953 769.881 46.2643C770.316 45.5256 771.07 45.1562 772.144 45.1562C773.217 45.1562 773.971 45.5256 774.406 46.2643C774.85 47.003 775.071 48.0256 775.071 49.332C775.071 50.6539 774.85 51.6843 774.406 52.423C773.971 53.1617 773.217 53.5311 772.144 53.5311C771.07 53.5311 770.316 53.1617 769.881 52.423ZM773.87 51.035C773.971 50.5762 774.021 50.0085 774.021 49.332C774.021 48.6632 773.971 48.1034 773.87 47.6524C773.777 47.2013 773.594 46.8436 773.322 46.5792C773.049 46.3071 772.657 46.171 772.144 46.171C771.638 46.171 771.249 46.3071 770.977 46.5792C770.705 46.8436 770.518 47.2013 770.417 47.6524C770.324 48.1034 770.277 48.6632 770.277 49.332C770.277 50.0085 770.324 50.5762 770.417 51.035C770.518 51.486 770.705 51.8476 770.977 52.1197C771.249 52.3919 771.638 52.528 772.144 52.528C772.657 52.528 773.049 52.3919 773.322 52.1197C773.594 51.8476 773.777 51.486 773.87 51.035ZM778.62 49.3437L782.376 53.4961H781.07L777.64 49.6586V53.4961H776.579V45.2729H777.64V49.087L781.081 45.2729H782.376L778.62 49.3437Z" fill="#717579"/>
<path d="M748.71 85.5473C749.239 85.5473 749.694 85.6406 750.075 85.8273C750.456 86.0139 750.743 86.2705 750.938 86.5971C751.132 86.9237 751.229 87.2931 751.229 87.7052C751.229 88.2184 751.078 88.65 750.774 88.9999C750.479 89.3499 750.043 89.5598 749.468 89.6298V89.6998C750.067 89.8553 750.533 90.0964 750.868 90.423C751.21 90.7496 751.381 91.2006 751.381 91.776C751.381 92.4525 751.155 93.0046 750.704 93.4323C750.253 93.86 749.604 94.0738 748.757 94.0738C747.909 94.0738 747.221 93.8561 746.692 93.4206C746.171 92.9774 745.864 92.332 745.771 91.4844H746.82C746.89 91.9976 747.085 92.4059 747.404 92.7091C747.73 93.0124 748.169 93.164 748.722 93.164C749.243 93.164 749.643 93.0318 749.923 92.7675C750.203 92.4953 750.343 92.1454 750.343 91.7177C750.343 91.2045 750.141 90.8156 749.736 90.5513C749.34 90.2791 748.772 90.143 748.033 90.143H747.753V89.2565H748.033C749.464 89.2565 750.18 88.7783 750.18 87.8218C750.18 87.4019 750.047 87.0676 749.783 86.8187C749.519 86.5699 749.153 86.4455 748.687 86.4455C748.22 86.4455 747.827 86.5816 747.508 86.8537C747.19 87.1181 747.003 87.5108 746.949 88.0318H745.91C745.965 87.2542 746.233 86.6477 746.715 86.2122C747.205 85.769 747.87 85.5473 748.71 85.5473ZM752.919 87.7052C752.919 87.3008 753.028 86.9315 753.246 86.5971C753.463 86.2627 753.786 85.9984 754.214 85.8039C754.642 85.6095 755.151 85.5123 755.742 85.5123C756.333 85.5123 756.838 85.6095 757.258 85.8039C757.686 85.9984 758.009 86.2627 758.226 86.5971C758.444 86.9315 758.553 87.3008 758.553 87.7052C758.553 88.164 758.428 88.5606 758.18 88.895C757.931 89.2293 757.554 89.4665 757.048 89.6065C757.593 89.7542 758.016 90.0108 758.32 90.3763C758.623 90.7418 758.775 91.1928 758.775 91.7293C758.775 92.507 758.498 93.1174 757.946 93.5606C757.394 94.0039 756.659 94.2255 755.742 94.2255C754.824 94.2255 754.089 94.0039 753.537 93.5606C752.985 93.1174 752.709 92.507 752.709 91.7293C752.709 91.1928 752.857 90.7418 753.152 90.3763C753.456 90.0108 753.879 89.7542 754.424 89.6065C753.918 89.4665 753.541 89.2293 753.292 88.895C753.044 88.5606 752.919 88.164 752.919 87.7052ZM753.969 87.8568C753.969 88.3234 754.128 88.685 754.447 88.9416C754.766 89.1904 755.198 89.3149 755.742 89.3149C756.286 89.3149 756.714 89.1904 757.025 88.9416C757.344 88.685 757.503 88.3234 757.503 87.8568C757.503 87.3903 757.344 87.0326 757.025 86.7837C756.706 86.5271 756.278 86.3988 755.742 86.3988C755.205 86.3988 754.774 86.5271 754.447 86.7837C754.128 87.0326 753.969 87.3903 753.969 87.8568ZM753.747 91.671C753.747 92.1998 753.926 92.6119 754.284 92.9074C754.642 93.1951 755.128 93.339 755.742 93.339C756.348 93.339 756.83 93.1912 757.188 92.8958C757.546 92.6003 757.725 92.192 757.725 91.671C757.725 91.1422 757.538 90.7418 757.165 90.4696C756.792 90.1974 756.317 90.0614 755.742 90.0614C755.159 90.0614 754.68 90.1974 754.307 90.4696C753.934 90.7418 753.747 91.1422 753.747 91.671ZM761.014 92.7441V93.9922H759.731V92.7441H761.014ZM767.58 86.6088H763.357V89.3615C763.552 89.0971 763.832 88.8872 764.197 88.7317C764.563 88.5761 764.963 88.4984 765.399 88.4984C765.982 88.4984 766.464 88.6228 766.845 88.8716C767.234 89.1127 767.518 89.4354 767.696 89.8397C767.883 90.2363 767.976 90.6796 767.976 91.1695C767.976 92.0171 767.739 92.7091 767.265 93.2457C766.79 93.7822 766.095 94.0505 765.177 94.0505C764.353 94.0505 763.68 93.8289 763.159 93.3857C762.638 92.9346 762.346 92.332 762.284 91.5777H763.334C763.42 92.0598 763.618 92.437 763.929 92.7091C764.248 92.9735 764.648 93.1057 765.13 93.1057C765.729 93.1057 766.18 92.9269 766.483 92.5692C766.787 92.2115 766.938 91.741 766.938 91.1578C766.938 90.5901 766.783 90.1469 766.472 89.8281C766.161 89.5093 765.721 89.3499 765.154 89.3499C764.749 89.3499 764.395 89.4393 764.092 89.6181C763.789 89.7892 763.56 90.0225 763.404 90.318H762.378V85.664H767.58V86.6088ZM769.88 92.9191C769.445 92.1804 769.227 91.15 769.227 89.8281C769.227 88.5139 769.445 87.4914 769.88 86.7604C770.316 86.0217 771.07 85.6523 772.143 85.6523C773.216 85.6523 773.97 86.0217 774.406 86.7604C774.849 87.4991 775.071 88.5217 775.071 89.8281C775.071 91.15 774.849 92.1804 774.406 92.9191C773.97 93.6578 773.216 94.0272 772.143 94.0272C771.07 94.0272 770.316 93.6578 769.88 92.9191ZM773.869 91.5311C773.97 91.0723 774.021 90.5046 774.021 89.8281C774.021 89.1593 773.97 88.5995 773.869 88.1484C773.776 87.6974 773.593 87.3397 773.321 87.0753C773.049 86.8032 772.656 86.6671 772.143 86.6671C771.637 86.6671 771.249 86.8032 770.977 87.0753C770.704 87.3397 770.518 87.6974 770.417 88.1484C770.323 88.5995 770.277 89.1593 770.277 89.8281C770.277 90.5046 770.323 91.0723 770.417 91.5311C770.518 91.9821 770.704 92.3437 770.977 92.6158C771.249 92.888 771.637 93.0241 772.143 93.0241C772.656 93.0241 773.049 92.888 773.321 92.6158C773.593 92.3437 773.776 91.9821 773.869 91.5311ZM778.62 89.8397L782.375 93.9922H781.069L777.64 90.1547V93.9922H776.578V85.769H777.64V89.5831L781.081 85.769H782.375L778.62 89.8397Z" fill="#717579"/>
<path d="M748.664 126.043C749.193 126.043 749.648 126.137 750.029 126.323C750.41 126.51 750.698 126.767 750.892 127.093C751.087 127.42 751.184 127.789 751.184 128.201C751.184 128.715 751.032 129.146 750.729 129.496C750.433 129.846 749.998 130.056 749.423 130.126V130.196C750.021 130.351 750.488 130.592 750.822 130.919C751.164 131.246 751.335 131.697 751.335 132.272C751.335 132.949 751.11 133.501 750.659 133.928C750.208 134.356 749.559 134.57 748.711 134.57C747.863 134.57 747.175 134.352 746.646 133.917C746.125 133.473 745.818 132.828 745.725 131.98H746.775C746.845 132.494 747.039 132.902 747.358 133.205C747.685 133.508 748.124 133.66 748.676 133.66C749.197 133.66 749.597 133.528 749.877 133.264C750.157 132.991 750.297 132.641 750.297 132.214C750.297 131.701 750.095 131.312 749.691 131.047C749.294 130.775 748.727 130.639 747.988 130.639H747.708V129.753H747.988C749.419 129.753 750.134 129.274 750.134 128.318C750.134 127.898 750.002 127.564 749.737 127.315C749.473 127.066 749.108 126.942 748.641 126.942C748.174 126.942 747.782 127.078 747.463 127.35C747.144 127.614 746.957 128.007 746.903 128.528H745.865C745.919 127.75 746.188 127.144 746.67 126.708C747.16 126.265 747.825 126.043 748.664 126.043ZM752.874 128.201C752.874 127.797 752.982 127.428 753.2 127.093C753.418 126.759 753.741 126.494 754.168 126.3C754.596 126.106 755.105 126.008 755.696 126.008C756.287 126.008 756.793 126.106 757.213 126.3C757.64 126.494 757.963 126.759 758.181 127.093C758.398 127.428 758.507 127.797 758.507 128.201C758.507 128.66 758.383 129.057 758.134 129.391C757.885 129.725 757.508 129.963 757.003 130.103C757.547 130.25 757.971 130.507 758.274 130.872C758.577 131.238 758.729 131.689 758.729 132.225C758.729 133.003 758.453 133.613 757.901 134.057C757.349 134.5 756.614 134.722 755.696 134.722C754.779 134.722 754.044 134.5 753.492 134.057C752.94 133.613 752.664 133.003 752.664 132.225C752.664 131.689 752.811 131.238 753.107 130.872C753.41 130.507 753.834 130.25 754.378 130.103C753.873 129.963 753.496 129.725 753.247 129.391C752.998 129.057 752.874 128.66 752.874 128.201ZM753.923 128.353C753.923 128.82 754.083 129.181 754.402 129.438C754.72 129.687 755.152 129.811 755.696 129.811C756.241 129.811 756.668 129.687 756.979 129.438C757.298 129.181 757.458 128.82 757.458 128.353C757.458 127.886 757.298 127.529 756.979 127.28C756.661 127.023 756.233 126.895 755.696 126.895C755.16 126.895 754.728 127.023 754.402 127.28C754.083 127.529 753.923 127.886 753.923 128.353ZM753.702 132.167C753.702 132.696 753.881 133.108 754.238 133.404C754.596 133.691 755.082 133.835 755.696 133.835C756.303 133.835 756.785 133.687 757.143 133.392C757.5 133.096 757.679 132.688 757.679 132.167C757.679 131.638 757.493 131.238 757.119 130.966C756.746 130.694 756.272 130.557 755.696 130.557C755.113 130.557 754.635 130.694 754.262 130.966C753.888 131.238 753.702 131.638 753.702 132.167ZM760.968 133.24V134.488H759.685V133.24H760.968ZM761.69 132.599V131.712L765.913 126.207H767.056V131.677H768.269V132.599H767.056V134.488H765.983V132.599H761.69ZM766.053 127.501L762.81 131.677H766.053V127.501ZM769.88 133.415C769.445 132.676 769.227 131.646 769.227 130.324C769.227 129.01 769.445 127.987 769.88 127.257C770.316 126.518 771.07 126.148 772.143 126.148C773.216 126.148 773.97 126.518 774.406 127.257C774.849 127.995 775.071 129.018 775.071 130.324C775.071 131.646 774.849 132.676 774.406 133.415C773.97 134.154 773.216 134.523 772.143 134.523C771.07 134.523 770.316 134.154 769.88 133.415ZM773.869 132.027C773.97 131.568 774.021 131.001 774.021 130.324C774.021 129.655 773.97 129.096 773.869 128.645C773.776 128.194 773.593 127.836 773.321 127.571C773.049 127.299 772.656 127.163 772.143 127.163C771.637 127.163 771.249 127.299 770.977 127.571C770.704 127.836 770.518 128.194 770.417 128.645C770.323 129.096 770.277 129.655 770.277 130.324C770.277 131.001 770.323 131.568 770.417 132.027C770.518 132.478 770.704 132.84 770.977 133.112C771.249 133.384 771.637 133.52 772.143 133.52C772.656 133.52 773.049 133.384 773.321 133.112C773.593 132.84 773.776 132.478 773.869 132.027ZM778.62 130.336L782.375 134.488H781.069L777.64 130.651V134.488H776.578V126.265H777.64V130.079L781.081 126.265H782.375L778.62 130.336Z" fill="#717579"/>
<path d="M749.029 166.54C749.558 166.54 750.013 166.633 750.394 166.819C750.775 167.006 751.063 167.263 751.257 167.589C751.452 167.916 751.549 168.285 751.549 168.697C751.549 169.211 751.397 169.642 751.094 169.992C750.799 170.342 750.363 170.552 749.788 170.622V170.692C750.386 170.847 750.853 171.089 751.187 171.415C751.53 171.742 751.701 172.193 751.701 172.768C751.701 173.445 751.475 173.997 751.024 174.424C750.573 174.852 749.924 175.066 749.076 175.066C748.229 175.066 747.54 174.848 747.012 174.413C746.491 173.97 746.183 173.324 746.09 172.477H747.14C747.21 172.99 747.404 173.398 747.723 173.701C748.05 174.005 748.489 174.156 749.041 174.156C749.562 174.156 749.963 174.024 750.243 173.76C750.522 173.487 750.662 173.138 750.662 172.71C750.662 172.197 750.46 171.808 750.056 171.543C749.659 171.271 749.092 171.135 748.353 171.135H748.073V170.249H748.353C749.784 170.249 750.499 169.77 750.499 168.814C750.499 168.394 750.367 168.06 750.103 167.811C749.838 167.562 749.473 167.438 749.006 167.438C748.54 167.438 748.147 167.574 747.828 167.846C747.509 168.11 747.323 168.503 747.268 169.024H746.23C746.285 168.246 746.553 167.64 747.035 167.204C747.525 166.761 748.19 166.54 749.029 166.54ZM753.239 168.697C753.239 168.293 753.348 167.924 753.565 167.589C753.783 167.255 754.106 166.991 754.533 166.796C754.961 166.602 755.47 166.505 756.061 166.505C756.652 166.505 757.158 166.602 757.578 166.796C758.005 166.991 758.328 167.255 758.546 167.589C758.764 167.924 758.872 168.293 758.872 168.697C758.872 169.156 758.748 169.553 758.499 169.887C758.25 170.222 757.873 170.459 757.368 170.599C757.912 170.746 758.336 171.003 758.639 171.368C758.942 171.734 759.094 172.185 759.094 172.722C759.094 173.499 758.818 174.11 758.266 174.553C757.714 174.996 756.979 175.218 756.061 175.218C755.144 175.218 754.409 174.996 753.857 174.553C753.305 174.11 753.029 173.499 753.029 172.722C753.029 172.185 753.176 171.734 753.472 171.368C753.775 171.003 754.199 170.746 754.743 170.599C754.238 170.459 753.861 170.222 753.612 169.887C753.363 169.553 753.239 169.156 753.239 168.697ZM754.288 168.849C754.288 169.316 754.448 169.677 754.767 169.934C755.086 170.183 755.517 170.307 756.061 170.307C756.606 170.307 757.033 170.183 757.344 169.934C757.663 169.677 757.823 169.316 757.823 168.849C757.823 168.382 757.663 168.025 757.344 167.776C757.026 167.519 756.598 167.391 756.061 167.391C755.525 167.391 755.093 167.519 754.767 167.776C754.448 168.025 754.288 168.382 754.288 168.849ZM754.067 172.663C754.067 173.192 754.246 173.604 754.603 173.9C754.961 174.187 755.447 174.331 756.061 174.331C756.668 174.331 757.15 174.183 757.508 173.888C757.865 173.592 758.044 173.184 758.044 172.663C758.044 172.134 757.858 171.734 757.484 171.462C757.111 171.19 756.637 171.054 756.061 171.054C755.478 171.054 755 171.19 754.627 171.462C754.253 171.734 754.067 172.134 754.067 172.663ZM761.334 173.736V174.984H760.051V173.736H761.334ZM765.182 166.54C765.71 166.54 766.165 166.633 766.546 166.819C766.927 167.006 767.215 167.263 767.409 167.589C767.604 167.916 767.701 168.285 767.701 168.697C767.701 169.211 767.549 169.642 767.246 169.992C766.951 170.342 766.515 170.552 765.94 170.622V170.692C766.539 170.847 767.005 171.089 767.339 171.415C767.682 171.742 767.853 172.193 767.853 172.768C767.853 173.445 767.627 173.997 767.176 174.424C766.725 174.852 766.076 175.066 765.228 175.066C764.381 175.066 763.692 174.848 763.164 174.413C762.643 173.97 762.336 173.324 762.242 172.477H763.292C763.362 172.99 763.556 173.398 763.875 173.701C764.202 174.005 764.641 174.156 765.193 174.156C765.714 174.156 766.115 174.024 766.395 173.76C766.675 173.487 766.815 173.138 766.815 172.71C766.815 172.197 766.612 171.808 766.208 171.543C765.811 171.271 765.244 171.135 764.505 171.135H764.225V170.249H764.505C765.936 170.249 766.651 169.77 766.651 168.814C766.651 168.394 766.519 168.06 766.255 167.811C765.99 167.562 765.625 167.438 765.158 167.438C764.692 167.438 764.299 167.574 763.98 167.846C763.661 168.11 763.475 168.503 763.42 169.024H762.382C762.437 168.246 762.705 167.64 763.187 167.204C763.677 166.761 764.342 166.54 765.182 166.54ZM769.881 173.911C769.445 173.173 769.228 172.142 769.228 170.82C769.228 169.506 769.445 168.484 769.881 167.753C770.316 167.014 771.07 166.645 772.144 166.645C773.217 166.645 773.971 167.014 774.406 167.753C774.85 168.491 775.071 169.514 775.071 170.82C775.071 172.142 774.85 173.173 774.406 173.911C773.971 174.65 773.217 175.019 772.144 175.019C771.07 175.019 770.316 174.65 769.881 173.911ZM773.87 172.523C773.971 172.064 774.021 171.497 774.021 170.82C774.021 170.152 773.971 169.592 773.87 169.141C773.777 168.69 773.594 168.332 773.322 168.068C773.049 167.795 772.657 167.659 772.144 167.659C771.638 167.659 771.249 167.795 770.977 168.068C770.705 168.332 770.518 168.69 770.417 169.141C770.324 169.592 770.277 170.152 770.277 170.82C770.277 171.497 770.324 172.064 770.417 172.523C770.518 172.974 770.705 173.336 770.977 173.608C771.249 173.88 771.638 174.016 772.144 174.016C772.657 174.016 773.049 173.88 773.322 173.608C773.594 173.336 773.777 172.974 773.87 172.523ZM778.62 170.832L782.376 174.984H781.07L777.64 171.147V174.984H776.579V166.761H777.64V170.575L781.081 166.761H782.376L778.62 170.832Z" fill="#717579"/>
<path d="M749.28 206.54C749.809 206.54 750.264 206.633 750.645 206.819C751.026 207.006 751.314 207.263 751.508 207.589C751.702 207.916 751.8 208.285 751.8 208.697C751.8 209.211 751.648 209.642 751.345 209.992C751.049 210.342 750.614 210.552 750.038 210.622V210.692C750.637 210.847 751.104 211.089 751.438 211.415C751.78 211.742 751.951 212.193 751.951 212.768C751.951 213.445 751.726 213.997 751.275 214.424C750.824 214.852 750.174 215.066 749.327 215.066C748.479 215.066 747.791 214.848 747.262 214.413C746.741 213.97 746.434 213.324 746.341 212.477H747.39C747.46 212.99 747.655 213.398 747.974 213.701C748.3 214.005 748.74 214.156 749.292 214.156C749.813 214.156 750.213 214.024 750.493 213.76C750.773 213.487 750.913 213.138 750.913 212.71C750.913 212.197 750.711 211.808 750.307 211.543C749.91 211.271 749.342 211.135 748.604 211.135H748.324V210.249H748.604C750.034 210.249 750.75 209.77 750.75 208.814C750.75 208.394 750.618 208.06 750.353 207.811C750.089 207.562 749.723 207.438 749.257 207.438C748.79 207.438 748.397 207.574 748.079 207.846C747.76 208.11 747.573 208.503 747.519 209.024H746.481C746.535 208.246 746.803 207.64 747.286 207.204C747.775 206.761 748.44 206.54 749.28 206.54ZM753.489 208.697C753.489 208.293 753.598 207.924 753.816 207.589C754.034 207.255 754.356 206.991 754.784 206.796C755.212 206.602 755.721 206.505 756.312 206.505C756.903 206.505 757.408 206.602 757.828 206.796C758.256 206.991 758.579 207.255 758.796 207.589C759.014 207.924 759.123 208.293 759.123 208.697C759.123 209.156 758.999 209.553 758.75 209.887C758.501 210.222 758.124 210.459 757.618 210.599C758.163 210.746 758.587 211.003 758.89 211.368C759.193 211.734 759.345 212.185 759.345 212.722C759.345 213.499 759.069 214.11 758.517 214.553C757.964 214.996 757.23 215.218 756.312 215.218C755.394 215.218 754.66 214.996 754.107 214.553C753.555 214.11 753.279 213.499 753.279 212.722C753.279 212.185 753.427 211.734 753.723 211.368C754.026 211.003 754.45 210.746 754.994 210.599C754.489 210.459 754.111 210.222 753.863 209.887C753.614 209.553 753.489 209.156 753.489 208.697ZM754.539 208.849C754.539 209.316 754.698 209.677 755.017 209.934C755.336 210.183 755.768 210.307 756.312 210.307C756.856 210.307 757.284 210.183 757.595 209.934C757.914 209.677 758.073 209.316 758.073 208.849C758.073 208.382 757.914 208.025 757.595 207.776C757.276 207.519 756.849 207.391 756.312 207.391C755.775 207.391 755.344 207.519 755.017 207.776C754.698 208.025 754.539 208.382 754.539 208.849ZM754.317 212.663C754.317 213.192 754.496 213.604 754.854 213.9C755.212 214.187 755.698 214.331 756.312 214.331C756.919 214.331 757.401 214.183 757.758 213.888C758.116 213.592 758.295 213.184 758.295 212.663C758.295 212.134 758.108 211.734 757.735 211.462C757.362 211.19 756.887 211.054 756.312 211.054C755.729 211.054 755.251 211.19 754.877 211.462C754.504 211.734 754.317 212.134 754.317 212.663ZM761.584 213.736V214.984H760.301V213.736H761.584ZM762.435 214.168C763.756 213.281 764.814 212.403 765.607 211.532C766.4 210.653 766.797 209.837 766.797 209.082C766.797 208.616 766.676 208.242 766.435 207.963C766.202 207.675 765.821 207.531 765.292 207.531C764.748 207.531 764.336 207.706 764.056 208.056C763.776 208.398 763.62 208.872 763.589 209.479H762.539C762.594 208.561 762.878 207.858 763.391 207.368C763.904 206.87 764.565 206.621 765.374 206.621C766.144 206.621 766.754 206.827 767.205 207.239C767.656 207.652 767.882 208.235 767.882 208.989C767.882 209.611 767.679 210.245 767.275 210.89C766.879 211.528 766.377 212.123 765.77 212.675C765.172 213.219 764.554 213.682 763.916 214.063H768.092V214.938H762.435V214.168ZM769.881 213.911C769.445 213.173 769.228 212.142 769.228 210.82C769.228 209.506 769.445 208.484 769.881 207.753C770.316 207.014 771.07 206.645 772.144 206.645C773.217 206.645 773.971 207.014 774.406 207.753C774.85 208.491 775.071 209.514 775.071 210.82C775.071 212.142 774.85 213.173 774.406 213.911C773.971 214.65 773.217 215.019 772.144 215.019C771.07 215.019 770.316 214.65 769.881 213.911ZM773.87 212.523C773.971 212.064 774.021 211.497 774.021 210.82C774.021 210.152 773.971 209.592 773.87 209.141C773.777 208.69 773.594 208.332 773.322 208.068C773.049 207.795 772.657 207.659 772.144 207.659C771.638 207.659 771.249 207.795 770.977 208.068C770.705 208.332 770.518 208.69 770.417 209.141C770.324 209.592 770.277 210.152 770.277 210.82C770.277 211.497 770.324 212.064 770.417 212.523C770.518 212.974 770.705 213.336 770.977 213.608C771.249 213.88 771.638 214.016 772.144 214.016C772.657 214.016 773.049 213.88 773.322 213.608C773.594 213.336 773.777 212.974 773.87 212.523ZM778.62 210.832L782.376 214.984H781.07L777.64 211.147V214.984H776.579V206.761H777.64V210.575L781.081 206.761H782.376L778.62 210.832Z" fill="#717579"/>
<path d="M752.549 247.036C753.078 247.036 753.533 247.129 753.914 247.316C754.295 247.502 754.583 247.759 754.777 248.085C754.971 248.412 755.069 248.781 755.069 249.193C755.069 249.707 754.917 250.138 754.614 250.488C754.318 250.838 753.883 251.048 753.307 251.118V251.188C753.906 251.344 754.373 251.585 754.707 251.911C755.049 252.238 755.22 252.689 755.22 253.264C755.22 253.941 754.995 254.493 754.544 254.921C754.093 255.348 753.443 255.562 752.596 255.562C751.748 255.562 751.06 255.344 750.531 254.909C750.01 254.466 749.703 253.82 749.61 252.973H750.66C750.73 253.486 750.924 253.894 751.243 254.197C751.569 254.501 752.009 254.652 752.561 254.652C753.082 254.652 753.482 254.52 753.762 254.256C754.042 253.984 754.182 253.634 754.182 253.206C754.182 252.693 753.98 252.304 753.576 252.04C753.179 251.767 752.611 251.631 751.873 251.631H751.593V250.745H751.873C753.304 250.745 754.019 250.267 754.019 249.31C754.019 248.89 753.887 248.556 753.622 248.307C753.358 248.058 752.992 247.934 752.526 247.934C752.059 247.934 751.667 248.07 751.348 248.342C751.029 248.606 750.842 248.999 750.788 249.52H749.75C749.804 248.742 750.073 248.136 750.555 247.7C751.045 247.257 751.709 247.036 752.549 247.036ZM756.758 249.193C756.758 248.789 756.867 248.42 757.085 248.085C757.303 247.751 757.625 247.487 758.053 247.292C758.481 247.098 758.99 247.001 759.581 247.001C760.172 247.001 760.678 247.098 761.098 247.292C761.525 247.487 761.848 247.751 762.066 248.085C762.283 248.42 762.392 248.789 762.392 249.193C762.392 249.652 762.268 250.049 762.019 250.383C761.77 250.718 761.393 250.955 760.888 251.095C761.432 251.242 761.856 251.499 762.159 251.865C762.462 252.23 762.614 252.681 762.614 253.218C762.614 253.995 762.338 254.606 761.786 255.049C761.234 255.492 760.499 255.714 759.581 255.714C758.664 255.714 757.929 255.492 757.377 255.049C756.825 254.606 756.548 253.995 756.548 253.218C756.548 252.681 756.696 252.23 756.992 251.865C757.295 251.499 757.719 251.242 758.263 251.095C757.758 250.955 757.381 250.718 757.132 250.383C756.883 250.049 756.758 249.652 756.758 249.193ZM757.808 249.345C757.808 249.812 757.968 250.173 758.286 250.43C758.605 250.679 759.037 250.803 759.581 250.803C760.125 250.803 760.553 250.679 760.864 250.43C761.183 250.173 761.342 249.812 761.342 249.345C761.342 248.879 761.183 248.521 760.864 248.272C760.545 248.015 760.118 247.887 759.581 247.887C759.045 247.887 758.613 248.015 758.286 248.272C757.968 248.521 757.808 248.879 757.808 249.345ZM757.587 253.159C757.587 253.688 757.765 254.1 758.123 254.396C758.481 254.683 758.967 254.827 759.581 254.827C760.188 254.827 760.67 254.68 761.028 254.384C761.385 254.089 761.564 253.68 761.564 253.159C761.564 252.631 761.377 252.23 761.004 251.958C760.631 251.686 760.157 251.55 759.581 251.55C758.998 251.55 758.52 251.686 758.146 251.958C757.773 252.23 757.587 252.631 757.587 253.159ZM764.853 254.232V255.48H763.57V254.232H764.853ZM765.365 248.249V247.257H767.722V255.48H766.602V248.249H765.365ZM769.881 254.407C769.445 253.669 769.228 252.638 769.228 251.316C769.228 250.002 769.445 248.98 769.881 248.249C770.316 247.51 771.07 247.141 772.144 247.141C773.217 247.141 773.971 247.51 774.406 248.249C774.85 248.987 775.071 250.01 775.071 251.316C775.071 252.638 774.85 253.669 774.406 254.407C773.971 255.146 773.217 255.515 772.144 255.515C771.07 255.515 770.316 255.146 769.881 254.407ZM773.87 253.019C773.971 252.561 774.021 251.993 774.021 251.316C774.021 250.648 773.971 250.088 773.87 249.637C773.777 249.186 773.594 248.828 773.322 248.564C773.049 248.291 772.657 248.155 772.144 248.155C771.638 248.155 771.249 248.291 770.977 248.564C770.705 248.828 770.518 249.186 770.417 249.637C770.324 250.088 770.277 250.648 770.277 251.316C770.277 251.993 770.324 252.561 770.417 253.019C770.518 253.47 770.705 253.832 770.977 254.104C771.249 254.376 771.638 254.512 772.144 254.512C772.657 254.512 773.049 254.376 773.322 254.104C773.594 253.832 773.777 253.47 773.87 253.019ZM778.62 251.328L782.376 255.48H781.07L777.64 251.643V255.48H776.579V247.257H777.64V251.071L781.081 247.257H782.376L778.62 251.328Z" fill="#717579"/>
<defs>
<clipPath id="clip0_0_1">
<rect width="117" height="174" fill="white" transform="translate(3 22)"/>
</clipPath>
</defs>
</svg>
