<svg width="22" height="22" viewBox="0 0 22 22" fill="none" xmlns="http://www.w3.org/2000/svg">
<path d="M9.20591 11.4315C9.37455 11.2628 9.46929 11.034 9.46929 10.7955C9.46929 10.5569 9.37455 10.3282 9.20591 10.1595L7.61544 8.569C7.49627 8.4411 7.43138 8.27194 7.43447 8.09715C7.43755 7.92236 7.50836 7.75559 7.63198 7.63198C7.75559 7.50836 7.92236 7.43755 8.09715 7.43447C8.27194 7.43138 8.4411 7.49627 8.569 7.61544L10.1595 9.20501C10.3282 9.37365 10.5569 9.46839 10.7955 9.46839C11.034 9.46839 11.2628 9.37365 11.4315 9.20501L13.0219 7.61454C13.1498 7.49537 13.319 7.43048 13.4938 7.43357C13.6686 7.43665 13.8353 7.50746 13.959 7.63107C14.0826 7.75469 14.1534 7.92146 14.1565 8.09625C14.1596 8.27104 14.0947 8.4402 13.9755 8.5681L12.3859 10.1595C12.2173 10.3282 12.1225 10.5569 12.1225 10.7955C12.1225 11.034 12.2173 11.2628 12.3859 11.4315L13.9764 13.0219C14.0956 13.1498 14.1605 13.319 14.1574 13.4938C14.1543 13.6686 14.0835 13.8353 13.9599 13.959C13.8362 14.0826 13.6695 14.1534 13.4947 14.1565C13.3199 14.1596 13.1507 14.0947 13.0228 13.9755L11.4315 12.385C11.2628 12.2164 11.034 12.1216 10.7955 12.1216C10.5569 12.1216 10.3282 12.2164 10.1595 12.385L8.569 13.9755C8.50639 14.0381 8.43206 14.0878 8.35025 14.1217C8.26845 14.1555 8.18077 14.173 8.09222 14.173C8.00367 14.173 7.916 14.1555 7.83419 14.1217C7.75238 14.0878 7.67805 14.0381 7.61544 13.9755C7.55283 13.9129 7.50316 13.8386 7.46928 13.7567C7.43539 13.6749 7.41795 13.5873 7.41795 13.4987C7.41795 13.4102 7.43539 13.3225 7.46928 13.2407C7.50316 13.1589 7.55283 13.0845 7.61544 13.0219L9.20591 11.4315ZM10.7955 18.8917C9.73225 18.8917 8.67945 18.6823 7.69717 18.2754C6.71489 17.8686 5.82236 17.2722 5.07056 16.5204C4.31875 15.7686 3.72238 14.8761 3.31551 13.8938C2.90863 12.9115 2.69922 11.8587 2.69922 10.7955C2.69922 9.73225 2.90863 8.67945 3.31551 7.69717C3.72238 6.71489 4.31875 5.82236 5.07056 5.07056C5.82236 4.31875 6.71489 3.72238 7.69717 3.31551C8.67945 2.90863 9.73225 2.69922 10.7955 2.69922C12.9427 2.69922 15.002 3.55221 16.5204 5.07056C18.0387 6.5889 18.8917 8.64821 18.8917 10.7955C18.8917 12.9427 18.0387 15.002 16.5204 16.5204C15.002 18.0387 12.9427 18.8917 10.7955 18.8917ZM10.7955 17.5423C12.5849 17.5423 14.3009 16.8315 15.5662 15.5662C16.8315 14.3009 17.5423 12.5849 17.5423 10.7955C17.5423 9.00609 16.8315 7.28999 15.5662 6.02471C14.3009 4.75942 12.5849 4.04859 10.7955 4.04859C9.00609 4.04859 7.28999 4.75942 6.02471 6.02471C4.75942 7.28999 4.04859 9.00609 4.04859 10.7955C4.04859 12.5849 4.75942 14.3009 6.02471 15.5662C7.28999 16.8315 9.00609 17.5423 10.7955 17.5423Z" fill="#60697B"/>
</svg>
