<svg width="10" height="10" viewBox="0 0 10 10" fill="none" xmlns="http://www.w3.org/2000/svg">
<path d="M1.24894 7.91854H8.74894C8.82487 7.9183 8.8993 7.89736 8.96422 7.85797C9.02914 7.81857 9.08208 7.76222 9.11735 7.69498C9.15262 7.62773 9.16889 7.55214 9.1644 7.47634C9.1599 7.40054 9.13482 7.3274 9.09185 7.26479L5.34185 1.84812C5.18644 1.62354 4.81227 1.62354 4.65644 1.84812L0.906437 7.26479C0.863031 7.32727 0.837576 7.40045 0.832839 7.47637C0.828102 7.5523 0.844264 7.62807 0.879568 7.69546C0.914872 7.76285 0.967969 7.81927 1.03309 7.8586C1.09821 7.89793 1.17286 7.91866 1.24894 7.91854Z" fill="#14233A" fill-opacity="0.7"/>
</svg>
