<svg width="7" height="6" viewBox="0 0 7 6" fill="none" xmlns="http://www.w3.org/2000/svg">
<path d="M4.19911 5.61328C4.1146 5.71419 4.0122 5.79476 3.89193 5.85498C3.77166 5.9152 3.64164 5.94531 3.50186 5.94531C3.36209 5.94531 3.23125 5.9152 3.10936 5.85498C2.98746 5.79476 2.88588 5.71582 2.80462 5.61816L2.79974 5.61328L2.00497 4.51465L0.722624 2.94727L0.176528 2.22461C0.124519 2.15951 0.0846996 2.08545 0.0570698 2.00244C0.0294399 1.91943 0.015625 1.83236 0.015625 1.74121C0.015625 1.51986 0.0936387 1.33187 0.249666 1.17725C0.405694 1.02262 0.594227 0.945312 0.815266 0.945312C0.825017 0.945312 0.834769 0.945312 0.844521 0.945312C0.854272 0.945312 0.865649 0.945312 0.878652 0.945312H0.873776H6.12507C6.13483 0.945312 6.14539 0.945312 6.15677 0.945312C6.16814 0.945312 6.17871 0.945312 6.18846 0.945312C6.4095 0.945312 6.59803 1.02262 6.75406 1.17725C6.91009 1.33187 6.9881 1.51986 6.9881 1.74121C6.9881 1.83236 6.97347 1.91943 6.94422 2.00244C6.91496 2.08545 6.87433 2.16113 6.82232 2.22949L6.8272 2.22461L6.27623 2.94727L5.04751 4.51465L4.19911 5.61328Z" fill="#747ED1"/>
</svg>
