<svg width="835" height="390" viewBox="0 0 835 390" fill="none" xmlns="http://www.w3.org/2000/svg">
<path d="M60.4634 44.9756C61.3228 44.9756 61.9207 45.1994 62.2573 45.647C62.5975 46.091 62.7676 46.5493 62.7676 47.022H61.8115C61.7542 46.7176 61.6629 46.4795 61.5376 46.3076C61.3049 45.9854 60.9521 45.8242 60.4795 45.8242C59.9388 45.8242 59.5091 46.0749 59.1904 46.5762C58.8717 47.0739 58.6945 47.7882 58.6587 48.7192C58.8807 48.3934 59.16 48.1499 59.4966 47.9888C59.8045 47.8455 60.1483 47.7739 60.5278 47.7739C61.1724 47.7739 61.7345 47.9798 62.2144 48.3916C62.6942 48.8034 62.9341 49.4175 62.9341 50.2339C62.9341 50.9321 62.7067 51.5516 62.252 52.0923C61.7972 52.6294 61.1491 52.8979 60.3076 52.8979C59.5879 52.8979 58.9666 52.6258 58.4438 52.0815C57.9211 51.5337 57.6597 50.6134 57.6597 49.3208C57.6597 48.3647 57.776 47.5537 58.0088 46.8877C58.4564 45.613 59.2746 44.9756 60.4634 44.9756ZM60.3936 52.0386C60.902 52.0386 61.2816 51.8685 61.5322 51.5283C61.7865 51.1846 61.9136 50.7799 61.9136 50.3145C61.9136 49.9206 61.8008 49.5464 61.5752 49.1919C61.3496 48.8338 60.9396 48.6548 60.3452 48.6548C59.9299 48.6548 59.5646 48.7926 59.2495 49.0684C58.938 49.3441 58.7822 49.7594 58.7822 50.3145C58.7822 50.8014 58.9237 51.2114 59.2065 51.5444C59.493 51.8739 59.8887 52.0386 60.3936 52.0386ZM66.3447 45.0078C67.3402 45.0078 68.0599 45.4178 68.5039 46.2378C68.8477 46.8716 69.0195 47.7399 69.0195 48.8428C69.0195 49.8883 68.8638 50.7531 68.5522 51.437C68.1011 52.4181 67.3634 52.9087 66.3394 52.9087C65.4155 52.9087 64.728 52.5076 64.2769 51.7056C63.9009 51.036 63.7129 50.1372 63.7129 49.0093C63.7129 48.1356 63.8257 47.3854 64.0513 46.7588C64.4738 45.5915 65.2383 45.0078 66.3447 45.0078ZM66.334 52.0278C66.8353 52.0278 67.2345 51.8058 67.5317 51.3618C67.8289 50.9178 67.9775 50.0907 67.9775 48.8804C67.9775 48.0067 67.8701 47.2887 67.6553 46.7266C67.4404 46.1608 67.0233 45.8779 66.4038 45.8779C65.8345 45.8779 65.4173 46.1465 65.1523 46.6836C64.891 47.2171 64.7603 48.0049 64.7603 49.0469C64.7603 49.8311 64.8444 50.4613 65.0127 50.9375C65.2705 51.6644 65.7109 52.0278 66.334 52.0278ZM70.1797 44.8091H71.1089V49.3906L73.5903 46.9468H74.8257L72.6235 49.1006L74.9492 52.6992H73.7139L71.9199 49.7988L71.1089 50.54V52.6992H70.1797V44.8091Z" fill="#ADB5BD"/>
<path d="M58.605 93.7583C58.6694 94.3097 58.9255 94.6911 59.373 94.9023C59.6022 95.0098 59.8672 95.0635 60.168 95.0635C60.7409 95.0635 61.1652 94.8809 61.4409 94.5156C61.7166 94.1504 61.8545 93.7458 61.8545 93.3018C61.8545 92.7646 61.6898 92.3493 61.3604 92.0557C61.0345 91.762 60.6424 91.6152 60.1841 91.6152C59.8511 91.6152 59.5646 91.6797 59.3247 91.8086C59.0884 91.9375 58.8861 92.1165 58.7178 92.3457L57.8799 92.2974L58.4653 88.1562H62.4614V89.0908H59.1904L58.8628 91.2285C59.0418 91.0924 59.2119 90.9904 59.373 90.9224C59.6595 90.8042 59.9907 90.7451 60.3667 90.7451C61.0721 90.7451 61.6701 90.9725 62.1606 91.4272C62.6512 91.882 62.8965 92.4585 62.8965 93.1567C62.8965 93.8836 62.6709 94.5246 62.2197 95.0796C61.7721 95.6346 61.056 95.9121 60.0713 95.9121C59.4447 95.9121 58.8896 95.7367 58.4062 95.3857C57.9264 95.0312 57.6579 94.4888 57.6006 93.7583H58.605ZM66.3447 88.0273C67.3402 88.0273 68.0599 88.4373 68.5039 89.2573C68.8477 89.8911 69.0195 90.7594 69.0195 91.8623C69.0195 92.9079 68.8638 93.7726 68.5522 94.4565C68.1011 95.4377 67.3634 95.9282 66.3394 95.9282C65.4155 95.9282 64.728 95.5272 64.2769 94.7251C63.9009 94.0555 63.7129 93.1567 63.7129 92.0288C63.7129 91.1551 63.8257 90.4049 64.0513 89.7783C64.4738 88.611 65.2383 88.0273 66.3447 88.0273ZM66.334 95.0474C66.8353 95.0474 67.2345 94.8254 67.5317 94.3813C67.8289 93.9373 67.9775 93.1102 67.9775 91.8999C67.9775 91.0262 67.8701 90.3083 67.6553 89.7461C67.4404 89.1803 67.0233 88.8975 66.4038 88.8975C65.8345 88.8975 65.4173 89.166 65.1523 89.7031C64.891 90.2367 64.7603 91.0244 64.7603 92.0664C64.7603 92.8506 64.8444 93.4808 65.0127 93.957C65.2705 94.6839 65.7109 95.0474 66.334 95.0474ZM70.1797 87.8286H71.1089V92.4102L73.5903 89.9663H74.8257L72.6235 92.1201L74.9492 95.7188H73.7139L71.9199 92.8184L71.1089 93.5596V95.7188H70.1797V87.8286Z" fill="#ADB5BD"/>
<path d="M60.8823 136.015V132.529L58.417 136.015H60.8823ZM60.8984 138.738V136.858H57.5254V135.913L61.0488 131.025H61.8652V136.015H62.9985V136.858H61.8652V138.738H60.8984ZM66.3447 131.047C67.3402 131.047 68.0599 131.457 68.5039 132.277C68.8477 132.911 69.0195 133.779 69.0195 134.882C69.0195 135.927 68.8638 136.792 68.5522 137.476C68.1011 138.457 67.3634 138.948 66.3394 138.948C65.4155 138.948 64.728 138.547 64.2769 137.745C63.9009 137.075 63.7129 136.176 63.7129 135.048C63.7129 134.175 63.8257 133.424 64.0513 132.798C64.4738 131.631 65.2383 131.047 66.3447 131.047ZM66.334 138.067C66.8353 138.067 67.2345 137.845 67.5317 137.401C67.8289 136.957 67.9775 136.13 67.9775 134.919C67.9775 134.046 67.8701 133.328 67.6553 132.766C67.4404 132.2 67.0233 131.917 66.4038 131.917C65.8345 131.917 65.4173 132.186 65.1523 132.723C64.891 133.256 64.7603 134.044 64.7603 135.086C64.7603 135.87 64.8444 136.5 65.0127 136.977C65.2705 137.703 65.7109 138.067 66.334 138.067ZM70.1797 130.848H71.1089V135.43L73.5903 132.986H74.8257L72.6235 135.14L74.9492 138.738H73.7139L71.9199 135.838L71.1089 136.579V138.738H70.1797V130.848Z" fill="#ADB5BD"/>
<path d="M60.1035 181.963C59.194 181.963 58.5334 181.715 58.1216 181.217C57.7134 180.715 57.5093 180.107 57.5093 179.391H58.519C58.562 179.888 58.6551 180.25 58.7983 180.476C59.049 180.88 59.502 181.083 60.1572 181.083C60.6657 181.083 61.0739 180.946 61.3818 180.674C61.6898 180.402 61.8438 180.051 61.8438 179.622C61.8438 179.092 61.6808 178.721 61.355 178.51C61.0327 178.299 60.5833 178.193 60.0068 178.193C59.9424 178.193 59.8761 178.195 59.8081 178.198C59.7437 178.198 59.6774 178.2 59.6094 178.204V177.35C59.7096 177.36 59.7938 177.368 59.8618 177.371C59.9299 177.375 60.0033 177.376 60.082 177.376C60.4437 177.376 60.7409 177.319 60.9736 177.205C61.3818 177.004 61.5859 176.646 61.5859 176.13C61.5859 175.747 61.4499 175.452 61.1777 175.244C60.9056 175.036 60.5887 174.933 60.2271 174.933C59.5825 174.933 59.1367 175.147 58.8896 175.577C58.7536 175.813 58.6766 176.15 58.6587 176.587H57.7026C57.7026 176.014 57.8172 175.527 58.0464 175.126C58.4403 174.41 59.1331 174.052 60.125 174.052C60.9092 174.052 61.5161 174.227 61.9458 174.578C62.3755 174.925 62.5903 175.43 62.5903 176.093C62.5903 176.565 62.4632 176.949 62.209 177.242C62.0514 177.425 61.8473 177.568 61.5967 177.672C62.0013 177.783 62.3164 177.998 62.542 178.316C62.7712 178.632 62.8857 179.018 62.8857 179.477C62.8857 180.211 62.644 180.809 62.1606 181.271C61.6772 181.732 60.9915 181.963 60.1035 181.963ZM66.3447 174.062C67.3402 174.062 68.0599 174.472 68.5039 175.292C68.8477 175.926 69.0195 176.795 69.0195 177.897C69.0195 178.943 68.8638 179.808 68.5522 180.492C68.1011 181.473 67.3634 181.963 66.3394 181.963C65.4155 181.963 64.728 181.562 64.2769 180.76C63.9009 180.091 63.7129 179.192 63.7129 178.064C63.7129 177.19 63.8257 176.44 64.0513 175.813C64.4738 174.646 65.2383 174.062 66.3447 174.062ZM66.334 181.083C66.8353 181.083 67.2345 180.861 67.5317 180.417C67.8289 179.972 67.9775 179.145 67.9775 177.935C67.9775 177.061 67.8701 176.343 67.6553 175.781C67.4404 175.215 67.0233 174.933 66.4038 174.933C65.8345 174.933 65.4173 175.201 65.1523 175.738C64.891 176.272 64.7603 177.06 64.7603 178.102C64.7603 178.886 64.8444 179.516 65.0127 179.992C65.2705 180.719 65.7109 181.083 66.334 181.083ZM70.1797 173.864H71.1089V178.445L73.5903 176.001H74.8257L72.6235 178.155L74.9492 181.754H73.7139L71.9199 178.854L71.1089 179.595V181.754H70.1797V173.864Z" fill="#ADB5BD"/>
<path d="M57.5898 224.773C57.6257 224.111 57.7617 223.535 57.998 223.044C58.238 222.553 58.7035 222.108 59.3945 221.707L60.4258 221.11C60.8877 220.842 61.2118 220.613 61.3979 220.423C61.6916 220.126 61.8384 219.785 61.8384 219.402C61.8384 218.955 61.7041 218.6 61.4355 218.339C61.167 218.074 60.8089 217.941 60.3613 217.941C59.6989 217.941 59.2406 218.192 58.9863 218.693C58.8503 218.962 58.7751 219.334 58.7607 219.811H57.7778C57.7886 219.141 57.9121 218.595 58.1484 218.172C58.5674 217.428 59.3068 217.055 60.3667 217.055C61.2476 217.055 61.8903 217.293 62.2949 217.77C62.7031 218.246 62.9072 218.776 62.9072 219.359C62.9072 219.975 62.6906 220.502 62.2573 220.938C62.0067 221.193 61.5573 221.501 60.9092 221.862L60.1733 222.271C59.8224 222.464 59.5467 222.648 59.3462 222.824C58.9881 223.135 58.7625 223.481 58.6694 223.86H62.8696V224.773H57.5898ZM66.3447 217.082C67.3402 217.082 68.0599 217.492 68.5039 218.312C68.8477 218.946 69.0195 219.814 69.0195 220.917C69.0195 221.963 68.8638 222.827 68.5522 223.511C68.1011 224.492 67.3634 224.983 66.3394 224.983C65.4155 224.983 64.728 224.582 64.2769 223.78C63.9009 223.11 63.7129 222.211 63.7129 221.083C63.7129 220.21 63.8257 219.46 64.0513 218.833C64.4738 217.666 65.2383 217.082 66.3447 217.082ZM66.334 224.102C66.8353 224.102 67.2345 223.88 67.5317 223.436C67.8289 222.992 67.9775 222.165 67.9775 220.955C67.9775 220.081 67.8701 219.363 67.6553 218.801C67.4404 218.235 67.0233 217.952 66.4038 217.952C65.8345 217.952 65.4173 218.221 65.1523 218.758C64.891 219.291 64.7603 220.079 64.7603 221.121C64.7603 221.905 64.8444 222.535 65.0127 223.012C65.2705 223.739 65.7109 224.102 66.334 224.102ZM70.1797 216.883H71.1089V221.465L73.5903 219.021H74.8257L72.6235 221.175L74.9492 224.773H73.7139L71.9199 221.873L71.1089 222.614V224.773H70.1797V216.883Z" fill="#ADB5BD"/>
<path d="M58.2988 262.347V261.605C58.9971 261.537 59.484 261.425 59.7598 261.267C60.0355 261.106 60.2414 260.728 60.3774 260.134H61.1401V267.793H60.1089V262.347H58.2988ZM66.3447 260.102C67.3402 260.102 68.0599 260.512 68.5039 261.332C68.8477 261.965 69.0195 262.834 69.0195 263.937C69.0195 264.982 68.8638 265.847 68.5522 266.531C68.1011 267.512 67.3634 268.002 66.3394 268.002C65.4155 268.002 64.728 267.601 64.2769 266.799C63.9009 266.13 63.7129 265.231 63.7129 264.103C63.7129 263.229 63.8257 262.479 64.0513 261.853C64.4738 260.685 65.2383 260.102 66.3447 260.102ZM66.334 267.122C66.8353 267.122 67.2345 266.9 67.5317 266.456C67.8289 266.012 67.9775 265.184 67.9775 263.974C67.9775 263.1 67.8701 262.382 67.6553 261.82C67.4404 261.255 67.0233 260.972 66.4038 260.972C65.8345 260.972 65.4173 261.24 65.1523 261.777C64.891 262.311 64.7603 263.099 64.7603 264.141C64.7603 264.925 64.8444 265.555 65.0127 266.031C65.2705 266.758 65.7109 267.122 66.334 267.122ZM70.1797 259.903H71.1089V264.484L73.5903 262.041H74.8257L72.6235 264.194L74.9492 267.793H73.7139L71.9199 264.893L71.1089 265.634V267.793H70.1797V259.903Z" fill="#ADB5BD"/>
<path d="M71.8447 303.121C72.8402 303.121 73.5599 303.531 74.0039 304.351C74.3477 304.985 74.5195 305.853 74.5195 306.956C74.5195 308.002 74.3638 308.866 74.0522 309.55C73.6011 310.531 72.8634 311.022 71.8394 311.022C70.9155 311.022 70.228 310.621 69.7769 309.819C69.4009 309.149 69.2129 308.25 69.2129 307.123C69.2129 306.249 69.3257 305.499 69.5513 304.872C69.9738 303.705 70.7383 303.121 71.8447 303.121ZM71.834 310.141C72.3353 310.141 72.7345 309.919 73.0317 309.475C73.3289 309.031 73.4775 308.204 73.4775 306.994C73.4775 306.12 73.3701 305.402 73.1553 304.84C72.9404 304.274 72.5233 303.991 71.9038 303.991C71.3345 303.991 70.9173 304.26 70.6523 304.797C70.391 305.33 70.2603 306.118 70.2603 307.16C70.2603 307.944 70.3444 308.575 70.5127 309.051C70.7705 309.778 71.2109 310.141 71.834 310.141Z" fill="#ADB5BD"/>
<path d="M84.9922 308.145V314.145" stroke="#E0E0E0"/>
<path d="M109.477 308.145V314.145" stroke="#E0E0E0"/>
<path d="M133.957 308.145V314.145" stroke="#E0E0E0"/>
<path d="M158.441 308.145V314.145" stroke="#E0E0E0"/>
<path d="M182.926 308.145V314.145" stroke="#E0E0E0"/>
<path d="M207.406 308.145V314.145" stroke="#E0E0E0"/>
<path d="M231.891 308.145V314.145" stroke="#E0E0E0"/>
<path d="M256.375 308.145V314.145" stroke="#E0E0E0"/>
<path d="M280.855 308.145V314.145" stroke="#E0E0E0"/>
<path d="M305.34 308.145V314.145" stroke="#E0E0E0"/>
<path d="M329.824 308.145V314.145" stroke="#E0E0E0"/>
<path d="M354.305 308.145V314.145" stroke="#E0E0E0"/>
<path d="M378.789 308.145V314.145" stroke="#E0E0E0"/>
<path d="M403.273 308.145V314.145" stroke="#E0E0E0"/>
<path d="M427.754 308.145V314.145" stroke="#E0E0E0"/>
<path d="M452.238 308.145V314.145" stroke="#E0E0E0"/>
<path d="M476.719 308.145V314.145" stroke="#E0E0E0"/>
<path d="M501.203 308.145V314.145" stroke="#E0E0E0"/>
<path d="M525.688 308.145V314.145" stroke="#E0E0E0"/>
<path d="M550.168 308.145V314.145" stroke="#E0E0E0"/>
<path d="M574.652 308.145V314.145" stroke="#E0E0E0"/>
<path d="M599.137 308.145V314.145" stroke="#E0E0E0"/>
<path d="M623.617 308.145V314.145" stroke="#E0E0E0"/>
<path d="M648.102 308.145V314.145" stroke="#E0E0E0"/>
<path d="M672.586 308.145V314.145" stroke="#E0E0E0"/>
<path d="M697.066 308.145V314.145" stroke="#E0E0E0"/>
<path d="M721.551 308.145V314.145" stroke="#E0E0E0"/>
<path d="M746.035 308.145V314.145" stroke="#E0E0E0"/>
<path d="M770.516 308.145V314.145" stroke="#E0E0E0"/>
<path d="M795 308.145V314.145" stroke="#E0E0E0"/>
<path d="M84.9922 93.0508H795" stroke="#F8F9FA"/>
<path d="M84.9922 136.07H795" stroke="#F8F9FA"/>
<path d="M84.9922 179.09H795" stroke="#F8F9FA"/>
<path d="M84.9922 222.105H795" stroke="#F8F9FA"/>
<path d="M84.9922 265.125H795" stroke="#F8F9FA"/>
<path d="M84.9922 50.0312H795" stroke="#F8F9FA"/>
<path d="M84.9922 308.145H795" stroke="#F8F9FA"/>
<path d="M84.9922 308.145H795" stroke="#E0E0E0"/>
<mask id="mask0_287_67333" style="mask-type:luminance" maskUnits="userSpaceOnUse" x="81" y="46" width="718" height="266">
<path d="M798.5 46.5312H81.4922V311.643H798.5V46.5312Z" fill="white"/>
</mask>
<g mask="url(#mask0_287_67333)">
<path d="M84.9922 308.143C93.5612 308.143 100.906 308.143 109.475 308.143C118.044 308.143 125.389 308.143 133.958 308.143C142.527 308.143 149.872 308.143 158.441 308.143C167.01 308.143 174.355 308.143 182.924 308.143C191.493 308.143 198.838 308.143 207.407 308.143C215.976 308.143 223.321 308.143 231.89 308.143C240.459 308.143 247.804 308.143 256.373 308.143C264.942 308.143 272.287 308.143 280.856 308.143C289.425 308.143 296.77 308.143 305.339 308.143C313.909 308.143 321.253 308.143 329.822 308.143C338.392 308.143 345.736 308.143 354.305 308.143C362.875 308.143 370.219 308.143 378.789 308.143C387.358 308.143 394.702 308.143 403.272 308.143C411.841 308.143 419.186 308.143 427.755 308.143C436.324 308.143 443.669 308.143 452.238 308.143C460.807 308.143 468.152 308.143 476.721 308.143C485.29 308.143 492.635 308.143 501.204 308.143C509.773 308.143 517.118 308.143 525.687 308.143C534.256 308.143 541.601 308.143 550.17 308.143C558.739 308.143 566.084 308.143 574.653 308.143C583.222 308.143 590.567 308.143 599.136 308.143C607.705 308.143 615.05 308.143 623.619 308.143C632.188 308.143 639.533 308.143 648.102 308.143C656.671 308.143 664.016 308.143 672.585 308.143C681.154 308.143 688.499 98.4533 697.068 98.4533C705.637 98.4533 712.982 82.2568 721.551 82.2568C730.12 82.2568 737.465 76.2729 746.034 76.2729C754.603 76.2729 761.948 70.7148 770.517 70.7148C779.086 70.7148 786.431 70.7148 795 70.7148C795 70.7148 795 70.7148 795 308.143H84.9922Z" fill="url(#paint0_linear_287_67333)"/>
</g>
<mask id="mask1_287_67333" style="mask-type:luminance" maskUnits="userSpaceOnUse" x="81" y="46" width="718" height="266">
<path d="M798.5 46.5312H81.4922V311.643H798.5V46.5312Z" fill="white"/>
</mask>
<g mask="url(#mask1_287_67333)">
<path d="M84.9922 308.143C93.5612 308.143 100.906 308.143 109.475 308.143C118.044 308.143 125.389 308.143 133.958 308.143C142.527 308.143 149.872 308.143 158.441 308.143C167.01 308.143 174.355 308.143 182.924 308.143C191.493 308.143 198.838 308.143 207.407 308.143C215.976 308.143 223.321 308.143 231.89 308.143C240.459 308.143 247.804 308.143 256.373 308.143C264.942 308.143 272.287 308.143 280.856 308.143C289.425 308.143 296.77 308.143 305.339 308.143C313.909 308.143 321.253 308.143 329.822 308.143C338.392 308.143 345.736 308.143 354.305 308.143C362.875 308.143 370.219 308.143 378.789 308.143C387.358 308.143 394.702 308.143 403.272 308.143C411.841 308.143 419.186 308.143 427.755 308.143C436.324 308.143 443.669 308.143 452.238 308.143C460.807 308.143 468.152 308.143 476.721 308.143C485.29 308.143 492.635 308.143 501.204 308.143C509.773 308.143 517.118 308.143 525.687 308.143C534.256 308.143 541.601 308.143 550.17 308.143C558.739 308.143 566.084 308.143 574.653 308.143C583.222 308.143 590.567 308.143 599.136 308.143C607.705 308.143 615.05 308.143 623.619 308.143C632.188 308.143 639.533 308.143 648.102 308.143C656.671 308.143 664.016 308.143 672.585 308.143C681.154 308.143 688.499 98.4533 697.068 98.4533C705.637 98.4533 712.982 82.2568 721.551 82.2568C730.12 82.2568 737.465 76.2729 746.034 76.2729C754.603 76.2729 761.948 70.7148 770.517 70.7148C779.086 70.7148 786.431 70.7148 795 70.7148" stroke="#098738" stroke-width="3"/>
</g>
<mask id="mask2_287_67333" style="mask-type:luminance" maskUnits="userSpaceOnUse" x="81" y="46" width="718" height="266">
<path d="M798.5 46.5312H81.4922V311.643H798.5V46.5312Z" fill="white"/>
</mask>
<g mask="url(#mask2_287_67333)">
<path d="M84.9922 308.145C93.5612 308.145 100.906 308.145 109.475 308.145C118.044 308.145 125.389 308.145 133.958 308.145C142.527 308.145 149.872 308.145 158.441 308.145C167.01 308.145 174.355 308.145 182.924 308.145C191.493 308.145 198.838 308.145 207.407 308.145C215.976 308.145 223.321 308.145 231.89 308.145C240.459 308.145 247.804 308.145 256.373 308.145C264.942 308.145 272.287 308.145 280.856 308.145C289.425 308.145 296.77 308.145 305.339 308.145C313.909 308.145 321.253 308.145 329.822 308.145C338.392 308.145 345.736 308.145 354.305 308.145C362.875 308.145 370.219 308.145 378.789 308.145C387.358 308.145 394.702 308.145 403.272 308.145C411.841 308.145 419.186 308.145 427.755 308.145C436.324 308.145 443.669 308.145 452.238 308.145C460.807 308.145 468.152 308.145 476.721 308.145C485.29 308.145 492.635 308.145 501.204 308.145C509.773 308.145 517.118 308.145 525.687 308.145C534.256 308.145 541.601 308.145 550.17 308.145C558.739 308.145 566.084 308.145 574.653 308.145C583.222 308.145 590.567 308.145 599.136 308.145C607.705 308.145 615.05 308.145 623.619 308.145C632.188 308.145 639.533 308.145 648.102 308.145C656.671 308.145 664.016 308.145 672.585 308.145C681.154 308.145 688.499 308.145 697.068 308.145C705.637 308.145 712.982 308.145 721.551 308.145C730.12 308.145 737.465 308.145 746.034 308.145C754.603 308.145 761.948 308.145 770.517 308.145C779.086 308.145 786.431 308.145 795 308.145" stroke="#5156BE" stroke-width="3"/>
</g>
<path d="M79.4609 325.203V324.395C80.2227 324.32 80.7539 324.197 81.0547 324.025C81.3555 323.85 81.5801 323.438 81.7285 322.789H82.5605V331.145H81.4355V325.203H79.4609ZM88.2559 326.27C88.7207 326.27 89.084 326.141 89.3457 325.883C89.6074 325.621 89.7383 325.311 89.7383 324.951C89.7383 324.639 89.6133 324.352 89.3633 324.09C89.1133 323.828 88.7324 323.697 88.2207 323.697C87.7129 323.697 87.3457 323.828 87.1191 324.09C86.8926 324.352 86.7793 324.658 86.7793 325.01C86.7793 325.404 86.9258 325.713 87.2188 325.936C87.5117 326.158 87.8574 326.27 88.2559 326.27ZM88.3203 330.424C88.8086 330.424 89.2129 330.293 89.5332 330.031C89.8574 329.766 90.0195 329.371 90.0195 328.848C90.0195 328.305 89.8535 327.893 89.5215 327.611C89.1895 327.33 88.7637 327.189 88.2441 327.189C87.7402 327.189 87.3281 327.334 87.0078 327.623C86.6914 327.908 86.5332 328.305 86.5332 328.812C86.5332 329.25 86.6777 329.629 86.9668 329.949C87.2598 330.266 87.7109 330.424 88.3203 330.424ZM86.8203 326.674C86.5273 326.549 86.2988 326.402 86.1348 326.234C85.8262 325.922 85.6719 325.516 85.6719 325.016C85.6719 324.391 85.8984 323.854 86.3516 323.404C86.8047 322.955 87.4473 322.73 88.2793 322.73C89.084 322.73 89.7148 322.943 90.1719 323.369C90.6289 323.791 90.8574 324.285 90.8574 324.852C90.8574 325.375 90.7246 325.799 90.459 326.123C90.3105 326.307 90.0801 326.486 89.7676 326.662C90.1152 326.822 90.3887 327.006 90.5879 327.213C90.959 327.604 91.1445 328.111 91.1445 328.736C91.1445 329.475 90.8965 330.102 90.4004 330.617C89.9043 331.129 89.2031 331.385 88.2969 331.385C87.4805 331.385 86.7891 331.164 86.2227 330.723C85.6602 330.277 85.3789 329.633 85.3789 328.789C85.3789 328.293 85.5 327.865 85.7422 327.506C85.9844 327.143 86.3438 326.865 86.8203 326.674Z" fill="#ADB5BD"/>
<path d="M103.945 325.203V324.395C104.707 324.32 105.238 324.197 105.539 324.025C105.84 323.85 106.064 323.438 106.213 322.789H107.045V331.145H105.92V325.203H103.945ZM111.07 329.117C111.102 329.699 111.326 330.102 111.744 330.324C111.959 330.441 112.201 330.5 112.471 330.5C112.975 330.5 113.404 330.291 113.76 329.873C114.115 329.451 114.367 328.598 114.516 327.312C114.281 327.684 113.99 327.945 113.643 328.098C113.299 328.246 112.928 328.32 112.529 328.32C111.721 328.32 111.08 328.068 110.607 327.564C110.139 327.061 109.904 326.412 109.904 325.619C109.904 324.857 110.137 324.188 110.602 323.609C111.066 323.031 111.752 322.742 112.658 322.742C113.881 322.742 114.725 323.293 115.189 324.395C115.447 325 115.576 325.758 115.576 326.668C115.576 327.695 115.422 328.605 115.113 329.398C114.602 330.719 113.734 331.379 112.512 331.379C111.691 331.379 111.068 331.164 110.643 330.734C110.217 330.305 110.004 329.766 110.004 329.117H111.07ZM112.67 327.395C113.088 327.395 113.469 327.258 113.812 326.984C114.16 326.707 114.334 326.225 114.334 325.537C114.334 324.92 114.178 324.461 113.865 324.16C113.557 323.855 113.162 323.703 112.682 323.703C112.166 323.703 111.756 323.877 111.451 324.225C111.15 324.568 111 325.029 111 325.607C111 326.154 111.133 326.59 111.398 326.914C111.664 327.234 112.088 327.395 112.67 327.395Z" fill="#ADB5BD"/>
<path d="M127.652 331.145C127.691 330.422 127.84 329.793 128.098 329.258C128.359 328.723 128.867 328.236 129.621 327.799L130.746 327.148C131.25 326.855 131.604 326.605 131.807 326.398C132.127 326.074 132.287 325.703 132.287 325.285C132.287 324.797 132.141 324.41 131.848 324.125C131.555 323.836 131.164 323.691 130.676 323.691C129.953 323.691 129.453 323.965 129.176 324.512C129.027 324.805 128.945 325.211 128.93 325.73H127.857C127.869 325 128.004 324.404 128.262 323.943C128.719 323.131 129.525 322.725 130.682 322.725C131.643 322.725 132.344 322.984 132.785 323.504C133.23 324.023 133.453 324.602 133.453 325.238C133.453 325.91 133.217 326.484 132.744 326.961C132.471 327.238 131.98 327.574 131.273 327.969L130.471 328.414C130.088 328.625 129.787 328.826 129.568 329.018C129.178 329.357 128.932 329.734 128.83 330.148H133.412V331.145H127.652ZM137.203 322.754C138.289 322.754 139.074 323.201 139.559 324.096C139.934 324.787 140.121 325.734 140.121 326.938C140.121 328.078 139.951 329.021 139.611 329.768C139.119 330.838 138.314 331.373 137.197 331.373C136.189 331.373 135.439 330.936 134.947 330.061C134.537 329.33 134.332 328.35 134.332 327.119C134.332 326.166 134.455 325.348 134.701 324.664C135.162 323.391 135.996 322.754 137.203 322.754ZM137.191 330.412C137.738 330.412 138.174 330.17 138.498 329.686C138.822 329.201 138.984 328.299 138.984 326.979C138.984 326.025 138.867 325.242 138.633 324.629C138.398 324.012 137.943 323.703 137.268 323.703C136.646 323.703 136.191 323.996 135.902 324.582C135.617 325.164 135.475 326.023 135.475 327.16C135.475 328.016 135.566 328.703 135.75 329.223C136.031 330.016 136.512 330.412 137.191 330.412Z" fill="#ADB5BD"/>
<path d="M152.137 331.145C152.176 330.422 152.324 329.793 152.582 329.258C152.844 328.723 153.352 328.236 154.105 327.799L155.23 327.148C155.734 326.855 156.088 326.605 156.291 326.398C156.611 326.074 156.771 325.703 156.771 325.285C156.771 324.797 156.625 324.41 156.332 324.125C156.039 323.836 155.648 323.691 155.16 323.691C154.438 323.691 153.938 323.965 153.66 324.512C153.512 324.805 153.43 325.211 153.414 325.73H152.342C152.354 325 152.488 324.404 152.746 323.943C153.203 323.131 154.01 322.725 155.166 322.725C156.127 322.725 156.828 322.984 157.27 323.504C157.715 324.023 157.938 324.602 157.938 325.238C157.938 325.91 157.701 326.484 157.229 326.961C156.955 327.238 156.465 327.574 155.758 327.969L154.955 328.414C154.572 328.625 154.271 328.826 154.053 329.018C153.662 329.357 153.416 329.734 153.314 330.148H157.896V331.145H152.137ZM159.59 325.203V324.395C160.352 324.32 160.883 324.197 161.184 324.025C161.484 323.85 161.709 323.438 161.857 322.789H162.689V331.145H161.564V325.203H159.59Z" fill="#ADB5BD"/>
<path d="M176.621 331.145C176.66 330.422 176.809 329.793 177.066 329.258C177.328 328.723 177.836 328.236 178.59 327.799L179.715 327.148C180.219 326.855 180.572 326.605 180.775 326.398C181.096 326.074 181.256 325.703 181.256 325.285C181.256 324.797 181.109 324.41 180.816 324.125C180.523 323.836 180.133 323.691 179.645 323.691C178.922 323.691 178.422 323.965 178.145 324.512C177.996 324.805 177.914 325.211 177.898 325.73H176.826C176.838 325 176.973 324.404 177.23 323.943C177.688 323.131 178.494 322.725 179.65 322.725C180.611 322.725 181.312 322.984 181.754 323.504C182.199 324.023 182.422 324.602 182.422 325.238C182.422 325.91 182.186 326.484 181.713 326.961C181.439 327.238 180.949 327.574 180.242 327.969L179.439 328.414C179.057 328.625 178.756 328.826 178.537 329.018C178.146 329.357 177.9 329.734 177.799 330.148H182.381V331.145H176.621ZM183.301 331.145C183.34 330.422 183.488 329.793 183.746 329.258C184.008 328.723 184.516 328.236 185.27 327.799L186.395 327.148C186.898 326.855 187.252 326.605 187.455 326.398C187.775 326.074 187.936 325.703 187.936 325.285C187.936 324.797 187.789 324.41 187.496 324.125C187.203 323.836 186.812 323.691 186.324 323.691C185.602 323.691 185.102 323.965 184.824 324.512C184.676 324.805 184.594 325.211 184.578 325.73H183.506C183.518 325 183.652 324.404 183.91 323.943C184.367 323.131 185.174 322.725 186.33 322.725C187.291 322.725 187.992 322.984 188.434 323.504C188.879 324.023 189.102 324.602 189.102 325.238C189.102 325.91 188.865 326.484 188.393 326.961C188.119 327.238 187.629 327.574 186.922 327.969L186.119 328.414C185.736 328.625 185.436 328.826 185.217 329.018C184.826 329.357 184.58 329.734 184.479 330.148H189.061V331.145H183.301Z" fill="#ADB5BD"/>
<path d="M201.102 331.145C201.141 330.422 201.289 329.793 201.547 329.258C201.809 328.723 202.316 328.236 203.07 327.799L204.195 327.148C204.699 326.855 205.053 326.605 205.256 326.398C205.576 326.074 205.736 325.703 205.736 325.285C205.736 324.797 205.59 324.41 205.297 324.125C205.004 323.836 204.613 323.691 204.125 323.691C203.402 323.691 202.902 323.965 202.625 324.512C202.477 324.805 202.395 325.211 202.379 325.73H201.307C201.318 325 201.453 324.404 201.711 323.943C202.168 323.131 202.975 322.725 204.131 322.725C205.092 322.725 205.793 322.984 206.234 323.504C206.68 324.023 206.902 324.602 206.902 325.238C206.902 325.91 206.666 326.484 206.193 326.961C205.92 327.238 205.43 327.574 204.723 327.969L203.92 328.414C203.537 328.625 203.236 328.826 203.018 329.018C202.627 329.357 202.381 329.734 202.279 330.148H206.861V331.145H201.102ZM210.523 331.373C209.531 331.373 208.811 331.102 208.361 330.559C207.916 330.012 207.693 329.348 207.693 328.566H208.795C208.842 329.109 208.943 329.504 209.1 329.75C209.373 330.191 209.867 330.412 210.582 330.412C211.137 330.412 211.582 330.264 211.918 329.967C212.254 329.67 212.422 329.287 212.422 328.818C212.422 328.24 212.244 327.836 211.889 327.605C211.537 327.375 211.047 327.26 210.418 327.26C210.348 327.26 210.275 327.262 210.201 327.266C210.131 327.266 210.059 327.268 209.984 327.271V326.34C210.094 326.352 210.186 326.359 210.26 326.363C210.334 326.367 210.414 326.369 210.5 326.369C210.895 326.369 211.219 326.307 211.473 326.182C211.918 325.963 212.141 325.572 212.141 325.01C212.141 324.592 211.992 324.27 211.695 324.043C211.398 323.816 211.053 323.703 210.658 323.703C209.955 323.703 209.469 323.938 209.199 324.406C209.051 324.664 208.967 325.031 208.947 325.508H207.904C207.904 324.883 208.029 324.352 208.279 323.914C208.709 323.133 209.465 322.742 210.547 322.742C211.402 322.742 212.064 322.934 212.533 323.316C213.002 323.695 213.236 324.246 213.236 324.969C213.236 325.484 213.098 325.902 212.82 326.223C212.648 326.422 212.426 326.578 212.152 326.691C212.594 326.812 212.938 327.047 213.184 327.395C213.434 327.738 213.559 328.16 213.559 328.66C213.559 329.461 213.295 330.113 212.768 330.617C212.24 331.121 211.492 331.373 210.523 331.373Z" fill="#ADB5BD"/>
<path d="M225.586 331.145C225.625 330.422 225.773 329.793 226.031 329.258C226.293 328.723 226.801 328.236 227.555 327.799L228.68 327.148C229.184 326.855 229.537 326.605 229.74 326.398C230.061 326.074 230.221 325.703 230.221 325.285C230.221 324.797 230.074 324.41 229.781 324.125C229.488 323.836 229.098 323.691 228.609 323.691C227.887 323.691 227.387 323.965 227.109 324.512C226.961 324.805 226.879 325.211 226.863 325.73H225.791C225.803 325 225.938 324.404 226.195 323.943C226.652 323.131 227.459 322.725 228.615 322.725C229.576 322.725 230.277 322.984 230.719 323.504C231.164 324.023 231.387 324.602 231.387 325.238C231.387 325.91 231.15 326.484 230.678 326.961C230.404 327.238 229.914 327.574 229.207 327.969L228.404 328.414C228.021 328.625 227.721 328.826 227.502 329.018C227.111 329.357 226.865 329.734 226.764 330.148H231.346V331.145H225.586ZM235.857 328.174V324.371L233.168 328.174H235.857ZM235.875 331.145V329.094H232.195V328.062L236.039 322.73H236.93V328.174H238.166V329.094H236.93V331.145H235.875Z" fill="#ADB5BD"/>
<path d="M250.07 331.145C250.109 330.422 250.258 329.793 250.516 329.258C250.777 328.723 251.285 328.236 252.039 327.799L253.164 327.148C253.668 326.855 254.021 326.605 254.225 326.398C254.545 326.074 254.705 325.703 254.705 325.285C254.705 324.797 254.559 324.41 254.266 324.125C253.973 323.836 253.582 323.691 253.094 323.691C252.371 323.691 251.871 323.965 251.594 324.512C251.445 324.805 251.363 325.211 251.348 325.73H250.275C250.287 325 250.422 324.404 250.68 323.943C251.137 323.131 251.943 322.725 253.1 322.725C254.061 322.725 254.762 322.984 255.203 323.504C255.648 324.023 255.871 324.602 255.871 325.238C255.871 325.91 255.635 326.484 255.162 326.961C254.889 327.238 254.398 327.574 253.691 327.969L252.889 328.414C252.506 328.625 252.205 328.826 251.986 329.018C251.596 329.357 251.35 329.734 251.248 330.148H255.83V331.145H250.07ZM257.857 329.006C257.928 329.607 258.207 330.023 258.695 330.254C258.945 330.371 259.234 330.43 259.562 330.43C260.188 330.43 260.65 330.23 260.951 329.832C261.252 329.434 261.402 328.992 261.402 328.508C261.402 327.922 261.223 327.469 260.863 327.148C260.508 326.828 260.08 326.668 259.58 326.668C259.217 326.668 258.904 326.738 258.643 326.879C258.385 327.02 258.164 327.215 257.98 327.465L257.066 327.412L257.705 322.895H262.064V323.914H258.496L258.139 326.246C258.334 326.098 258.52 325.986 258.695 325.912C259.008 325.783 259.369 325.719 259.779 325.719C260.549 325.719 261.201 325.967 261.736 326.463C262.271 326.959 262.539 327.588 262.539 328.35C262.539 329.143 262.293 329.842 261.801 330.447C261.312 331.053 260.531 331.355 259.457 331.355C258.773 331.355 258.168 331.164 257.641 330.781C257.117 330.395 256.824 329.803 256.762 329.006H257.857Z" fill="#ADB5BD"/>
<path d="M274.551 331.145C274.59 330.422 274.738 329.793 274.996 329.258C275.258 328.723 275.766 328.236 276.52 327.799L277.645 327.148C278.148 326.855 278.502 326.605 278.705 326.398C279.025 326.074 279.186 325.703 279.186 325.285C279.186 324.797 279.039 324.41 278.746 324.125C278.453 323.836 278.062 323.691 277.574 323.691C276.852 323.691 276.352 323.965 276.074 324.512C275.926 324.805 275.844 325.211 275.828 325.73H274.756C274.768 325 274.902 324.404 275.16 323.943C275.617 323.131 276.424 322.725 277.58 322.725C278.541 322.725 279.242 322.984 279.684 323.504C280.129 324.023 280.352 324.602 280.352 325.238C280.352 325.91 280.115 326.484 279.643 326.961C279.369 327.238 278.879 327.574 278.172 327.969L277.369 328.414C276.986 328.625 276.686 328.826 276.467 329.018C276.076 329.357 275.83 329.734 275.729 330.148H280.311V331.145H274.551ZM284.365 322.719C285.303 322.719 285.955 322.963 286.322 323.451C286.693 323.936 286.879 324.436 286.879 324.951H285.836C285.773 324.619 285.674 324.359 285.537 324.172C285.283 323.82 284.898 323.645 284.383 323.645C283.793 323.645 283.324 323.918 282.977 324.465C282.629 325.008 282.436 325.787 282.396 326.803C282.639 326.447 282.943 326.182 283.311 326.006C283.646 325.85 284.021 325.771 284.436 325.771C285.139 325.771 285.752 325.996 286.275 326.445C286.799 326.895 287.061 327.564 287.061 328.455C287.061 329.217 286.812 329.893 286.316 330.482C285.82 331.068 285.113 331.361 284.195 331.361C283.41 331.361 282.732 331.064 282.162 330.471C281.592 329.873 281.307 328.869 281.307 327.459C281.307 326.416 281.434 325.531 281.688 324.805C282.176 323.414 283.068 322.719 284.365 322.719ZM284.289 330.424C284.844 330.424 285.258 330.238 285.531 329.867C285.809 329.492 285.947 329.051 285.947 328.543C285.947 328.113 285.824 327.705 285.578 327.318C285.332 326.928 284.885 326.732 284.236 326.732C283.783 326.732 283.385 326.883 283.041 327.184C282.701 327.484 282.531 327.938 282.531 328.543C282.531 329.074 282.686 329.521 282.994 329.885C283.307 330.244 283.738 330.424 284.289 330.424Z" fill="#ADB5BD"/>
<path d="M299.035 331.145C299.074 330.422 299.223 329.793 299.48 329.258C299.742 328.723 300.25 328.236 301.004 327.799L302.129 327.148C302.633 326.855 302.986 326.605 303.189 326.398C303.51 326.074 303.67 325.703 303.67 325.285C303.67 324.797 303.523 324.41 303.23 324.125C302.938 323.836 302.547 323.691 302.059 323.691C301.336 323.691 300.836 323.965 300.559 324.512C300.41 324.805 300.328 325.211 300.312 325.73H299.24C299.252 325 299.387 324.404 299.645 323.943C300.102 323.131 300.908 322.725 302.064 322.725C303.025 322.725 303.727 322.984 304.168 323.504C304.613 324.023 304.836 324.602 304.836 325.238C304.836 325.91 304.6 326.484 304.127 326.961C303.854 327.238 303.363 327.574 302.656 327.969L301.854 328.414C301.471 328.625 301.17 328.826 300.951 329.018C300.561 329.357 300.314 329.734 300.213 330.148H304.795V331.145H299.035ZM311.615 322.895V323.814C311.346 324.076 310.986 324.531 310.537 325.18C310.092 325.828 309.697 326.527 309.354 327.277C309.014 328.008 308.756 328.674 308.58 329.275C308.467 329.662 308.32 330.285 308.141 331.145H306.975C307.24 329.543 307.826 327.949 308.732 326.363C309.268 325.434 309.83 324.631 310.42 323.955H305.779V322.895H311.615Z" fill="#ADB5BD"/>
<path d="M323.52 331.145C323.559 330.422 323.707 329.793 323.965 329.258C324.227 328.723 324.734 328.236 325.488 327.799L326.613 327.148C327.117 326.855 327.471 326.605 327.674 326.398C327.994 326.074 328.154 325.703 328.154 325.285C328.154 324.797 328.008 324.41 327.715 324.125C327.422 323.836 327.031 323.691 326.543 323.691C325.82 323.691 325.32 323.965 325.043 324.512C324.895 324.805 324.812 325.211 324.797 325.73H323.725C323.736 325 323.871 324.404 324.129 323.943C324.586 323.131 325.393 322.725 326.549 322.725C327.51 322.725 328.211 322.984 328.652 323.504C329.098 324.023 329.32 324.602 329.32 325.238C329.32 325.91 329.084 326.484 328.611 326.961C328.338 327.238 327.848 327.574 327.141 327.969L326.338 328.414C325.955 328.625 325.654 328.826 325.436 329.018C325.045 329.357 324.799 329.734 324.697 330.148H329.279V331.145H323.52ZM333.088 326.27C333.553 326.27 333.916 326.141 334.178 325.883C334.439 325.621 334.57 325.311 334.57 324.951C334.57 324.639 334.445 324.352 334.195 324.09C333.945 323.828 333.564 323.697 333.053 323.697C332.545 323.697 332.178 323.828 331.951 324.09C331.725 324.352 331.611 324.658 331.611 325.01C331.611 325.404 331.758 325.713 332.051 325.936C332.344 326.158 332.689 326.27 333.088 326.27ZM333.152 330.424C333.641 330.424 334.045 330.293 334.365 330.031C334.689 329.766 334.852 329.371 334.852 328.848C334.852 328.305 334.686 327.893 334.354 327.611C334.021 327.33 333.596 327.189 333.076 327.189C332.572 327.189 332.16 327.334 331.84 327.623C331.523 327.908 331.365 328.305 331.365 328.812C331.365 329.25 331.51 329.629 331.799 329.949C332.092 330.266 332.543 330.424 333.152 330.424ZM331.652 326.674C331.359 326.549 331.131 326.402 330.967 326.234C330.658 325.922 330.504 325.516 330.504 325.016C330.504 324.391 330.73 323.854 331.184 323.404C331.637 322.955 332.279 322.73 333.111 322.73C333.916 322.73 334.547 322.943 335.004 323.369C335.461 323.791 335.689 324.285 335.689 324.852C335.689 325.375 335.557 325.799 335.291 326.123C335.143 326.307 334.912 326.486 334.6 326.662C334.947 326.822 335.221 327.006 335.42 327.213C335.791 327.604 335.977 328.111 335.977 328.736C335.977 329.475 335.729 330.102 335.232 330.617C334.736 331.129 334.035 331.385 333.129 331.385C332.312 331.385 331.621 331.164 331.055 330.723C330.492 330.277 330.211 329.633 330.211 328.789C330.211 328.293 330.332 327.865 330.574 327.506C330.816 327.143 331.176 326.865 331.652 326.674Z" fill="#ADB5BD"/>
<path d="M348 331.145C348.039 330.422 348.188 329.793 348.445 329.258C348.707 328.723 349.215 328.236 349.969 327.799L351.094 327.148C351.598 326.855 351.951 326.605 352.154 326.398C352.475 326.074 352.635 325.703 352.635 325.285C352.635 324.797 352.488 324.41 352.195 324.125C351.902 323.836 351.512 323.691 351.023 323.691C350.301 323.691 349.801 323.965 349.523 324.512C349.375 324.805 349.293 325.211 349.277 325.73H348.205C348.217 325 348.352 324.404 348.609 323.943C349.066 323.131 349.873 322.725 351.029 322.725C351.99 322.725 352.691 322.984 353.133 323.504C353.578 324.023 353.801 324.602 353.801 325.238C353.801 325.91 353.564 326.484 353.092 326.961C352.818 327.238 352.328 327.574 351.621 327.969L350.818 328.414C350.436 328.625 350.135 328.826 349.916 329.018C349.525 329.357 349.279 329.734 349.178 330.148H353.76V331.145H348ZM355.898 329.117C355.93 329.699 356.154 330.102 356.572 330.324C356.787 330.441 357.029 330.5 357.299 330.5C357.803 330.5 358.232 330.291 358.588 329.873C358.943 329.451 359.195 328.598 359.344 327.312C359.109 327.684 358.818 327.945 358.471 328.098C358.127 328.246 357.756 328.32 357.357 328.32C356.549 328.32 355.908 328.068 355.436 327.564C354.967 327.061 354.732 326.412 354.732 325.619C354.732 324.857 354.965 324.188 355.43 323.609C355.895 323.031 356.58 322.742 357.486 322.742C358.709 322.742 359.553 323.293 360.018 324.395C360.275 325 360.404 325.758 360.404 326.668C360.404 327.695 360.25 328.605 359.941 329.398C359.43 330.719 358.562 331.379 357.34 331.379C356.52 331.379 355.896 331.164 355.471 330.734C355.045 330.305 354.832 329.766 354.832 329.117H355.898ZM357.498 327.395C357.916 327.395 358.297 327.258 358.641 326.984C358.988 326.707 359.162 326.225 359.162 325.537C359.162 324.92 359.006 324.461 358.693 324.16C358.385 323.855 357.99 323.703 357.51 323.703C356.994 323.703 356.584 323.877 356.279 324.225C355.979 324.568 355.828 325.029 355.828 325.607C355.828 326.154 355.961 326.59 356.227 326.914C356.492 327.234 356.916 327.395 357.498 327.395Z" fill="#ADB5BD"/>
<path d="M375.227 331.373C374.234 331.373 373.514 331.102 373.064 330.559C372.619 330.012 372.396 329.348 372.396 328.566H373.498C373.545 329.109 373.646 329.504 373.803 329.75C374.076 330.191 374.57 330.412 375.285 330.412C375.84 330.412 376.285 330.264 376.621 329.967C376.957 329.67 377.125 329.287 377.125 328.818C377.125 328.24 376.947 327.836 376.592 327.605C376.24 327.375 375.75 327.26 375.121 327.26C375.051 327.26 374.979 327.262 374.904 327.266C374.834 327.266 374.762 327.268 374.688 327.271V326.34C374.797 326.352 374.889 326.359 374.963 326.363C375.037 326.367 375.117 326.369 375.203 326.369C375.598 326.369 375.922 326.307 376.176 326.182C376.621 325.963 376.844 325.572 376.844 325.01C376.844 324.592 376.695 324.27 376.398 324.043C376.102 323.816 375.756 323.703 375.361 323.703C374.658 323.703 374.172 323.938 373.902 324.406C373.754 324.664 373.67 325.031 373.65 325.508H372.607C372.607 324.883 372.732 324.352 372.982 323.914C373.412 323.133 374.168 322.742 375.25 322.742C376.105 322.742 376.768 322.934 377.236 323.316C377.705 323.695 377.939 324.246 377.939 324.969C377.939 325.484 377.801 325.902 377.523 326.223C377.352 326.422 377.129 326.578 376.855 326.691C377.297 326.812 377.641 327.047 377.887 327.395C378.137 327.738 378.262 328.16 378.262 328.66C378.262 329.461 377.998 330.113 377.471 330.617C376.943 331.121 376.195 331.373 375.227 331.373ZM382.035 322.754C383.121 322.754 383.906 323.201 384.391 324.096C384.766 324.787 384.953 325.734 384.953 326.938C384.953 328.078 384.783 329.021 384.443 329.768C383.951 330.838 383.146 331.373 382.029 331.373C381.021 331.373 380.271 330.936 379.779 330.061C379.369 329.33 379.164 328.35 379.164 327.119C379.164 326.166 379.287 325.348 379.533 324.664C379.994 323.391 380.828 322.754 382.035 322.754ZM382.023 330.412C382.57 330.412 383.006 330.17 383.33 329.686C383.654 329.201 383.816 328.299 383.816 326.979C383.816 326.025 383.699 325.242 383.465 324.629C383.23 324.012 382.775 323.703 382.1 323.703C381.479 323.703 381.023 323.996 380.734 324.582C380.449 325.164 380.307 326.023 380.307 327.16C380.307 328.016 380.398 328.703 380.582 329.223C380.863 330.016 381.344 330.412 382.023 330.412Z" fill="#ADB5BD"/>
<path d="M399.711 331.373C398.719 331.373 397.998 331.102 397.549 330.559C397.104 330.012 396.881 329.348 396.881 328.566H397.982C398.029 329.109 398.131 329.504 398.287 329.75C398.561 330.191 399.055 330.412 399.77 330.412C400.324 330.412 400.77 330.264 401.105 329.967C401.441 329.67 401.609 329.287 401.609 328.818C401.609 328.24 401.432 327.836 401.076 327.605C400.725 327.375 400.234 327.26 399.605 327.26C399.535 327.26 399.463 327.262 399.389 327.266C399.318 327.266 399.246 327.268 399.172 327.271V326.34C399.281 326.352 399.373 326.359 399.447 326.363C399.521 326.367 399.602 326.369 399.688 326.369C400.082 326.369 400.406 326.307 400.66 326.182C401.105 325.963 401.328 325.572 401.328 325.01C401.328 324.592 401.18 324.27 400.883 324.043C400.586 323.816 400.24 323.703 399.846 323.703C399.143 323.703 398.656 323.938 398.387 324.406C398.238 324.664 398.154 325.031 398.135 325.508H397.092C397.092 324.883 397.217 324.352 397.467 323.914C397.896 323.133 398.652 322.742 399.734 322.742C400.59 322.742 401.252 322.934 401.721 323.316C402.189 323.695 402.424 324.246 402.424 324.969C402.424 325.484 402.285 325.902 402.008 326.223C401.836 326.422 401.613 326.578 401.34 326.691C401.781 326.812 402.125 327.047 402.371 327.395C402.621 327.738 402.746 328.16 402.746 328.66C402.746 329.461 402.482 330.113 401.955 330.617C401.428 331.121 400.68 331.373 399.711 331.373ZM404.422 325.203V324.395C405.184 324.32 405.715 324.197 406.016 324.025C406.316 323.85 406.541 323.438 406.689 322.789H407.521V331.145H406.396V325.203H404.422Z" fill="#ADB5BD"/>
<path d="M424.32 322.754C425.406 322.754 426.191 323.201 426.676 324.096C427.051 324.787 427.238 325.734 427.238 326.938C427.238 328.078 427.068 329.021 426.729 329.768C426.236 330.838 425.432 331.373 424.314 331.373C423.307 331.373 422.557 330.936 422.064 330.061C421.654 329.33 421.449 328.35 421.449 327.119C421.449 326.166 421.572 325.348 421.818 324.664C422.279 323.391 423.113 322.754 424.32 322.754ZM424.309 330.412C424.855 330.412 425.291 330.17 425.615 329.686C425.939 329.201 426.102 328.299 426.102 326.979C426.102 326.025 425.984 325.242 425.75 324.629C425.516 324.012 425.061 323.703 424.385 323.703C423.764 323.703 423.309 323.996 423.02 324.582C422.734 325.164 422.592 326.023 422.592 327.16C422.592 328.016 422.684 328.703 422.867 329.223C423.148 330.016 423.629 330.412 424.309 330.412ZM428.902 325.203V324.395C429.664 324.32 430.195 324.197 430.496 324.025C430.797 323.85 431.021 323.438 431.17 322.789H432.002V331.145H430.877V325.203H428.902Z" fill="#ADB5BD"/>
<path d="M448.805 322.754C449.891 322.754 450.676 323.201 451.16 324.096C451.535 324.787 451.723 325.734 451.723 326.938C451.723 328.078 451.553 329.021 451.213 329.768C450.721 330.838 449.916 331.373 448.799 331.373C447.791 331.373 447.041 330.936 446.549 330.061C446.139 329.33 445.934 328.35 445.934 327.119C445.934 326.166 446.057 325.348 446.303 324.664C446.764 323.391 447.598 322.754 448.805 322.754ZM448.793 330.412C449.34 330.412 449.775 330.17 450.1 329.686C450.424 329.201 450.586 328.299 450.586 326.979C450.586 326.025 450.469 325.242 450.234 324.629C450 324.012 449.545 323.703 448.869 323.703C448.248 323.703 447.793 323.996 447.504 324.582C447.219 325.164 447.076 326.023 447.076 327.16C447.076 328.016 447.168 328.703 447.352 329.223C447.633 330.016 448.113 330.412 448.793 330.412ZM452.613 331.145C452.652 330.422 452.801 329.793 453.059 329.258C453.32 328.723 453.828 328.236 454.582 327.799L455.707 327.148C456.211 326.855 456.564 326.605 456.768 326.398C457.088 326.074 457.248 325.703 457.248 325.285C457.248 324.797 457.102 324.41 456.809 324.125C456.516 323.836 456.125 323.691 455.637 323.691C454.914 323.691 454.414 323.965 454.137 324.512C453.988 324.805 453.906 325.211 453.891 325.73H452.818C452.83 325 452.965 324.404 453.223 323.943C453.68 323.131 454.486 322.725 455.643 322.725C456.604 322.725 457.305 322.984 457.746 323.504C458.191 324.023 458.414 324.602 458.414 325.238C458.414 325.91 458.178 326.484 457.705 326.961C457.432 327.238 456.941 327.574 456.234 327.969L455.432 328.414C455.049 328.625 454.748 328.826 454.529 329.018C454.139 329.357 453.893 329.734 453.791 330.148H458.373V331.145H452.613Z" fill="#ADB5BD"/>
<path d="M473.285 322.754C474.371 322.754 475.156 323.201 475.641 324.096C476.016 324.787 476.203 325.734 476.203 326.938C476.203 328.078 476.033 329.021 475.693 329.768C475.201 330.838 474.396 331.373 473.279 331.373C472.271 331.373 471.521 330.936 471.029 330.061C470.619 329.33 470.414 328.35 470.414 327.119C470.414 326.166 470.537 325.348 470.783 324.664C471.244 323.391 472.078 322.754 473.285 322.754ZM473.273 330.412C473.82 330.412 474.256 330.17 474.58 329.686C474.904 329.201 475.066 328.299 475.066 326.979C475.066 326.025 474.949 325.242 474.715 324.629C474.48 324.012 474.025 323.703 473.35 323.703C472.729 323.703 472.273 323.996 471.984 324.582C471.699 325.164 471.557 326.023 471.557 327.16C471.557 328.016 471.648 328.703 471.832 329.223C472.113 330.016 472.594 330.412 473.273 330.412ZM479.836 331.373C478.844 331.373 478.123 331.102 477.674 330.559C477.229 330.012 477.006 329.348 477.006 328.566H478.107C478.154 329.109 478.256 329.504 478.412 329.75C478.686 330.191 479.18 330.412 479.895 330.412C480.449 330.412 480.895 330.264 481.23 329.967C481.566 329.67 481.734 329.287 481.734 328.818C481.734 328.24 481.557 327.836 481.201 327.605C480.85 327.375 480.359 327.26 479.73 327.26C479.66 327.26 479.588 327.262 479.514 327.266C479.443 327.266 479.371 327.268 479.297 327.271V326.34C479.406 326.352 479.498 326.359 479.572 326.363C479.646 326.367 479.727 326.369 479.812 326.369C480.207 326.369 480.531 326.307 480.785 326.182C481.23 325.963 481.453 325.572 481.453 325.01C481.453 324.592 481.305 324.27 481.008 324.043C480.711 323.816 480.365 323.703 479.971 323.703C479.268 323.703 478.781 323.938 478.512 324.406C478.363 324.664 478.279 325.031 478.26 325.508H477.217C477.217 324.883 477.342 324.352 477.592 323.914C478.021 323.133 478.777 322.742 479.859 322.742C480.715 322.742 481.377 322.934 481.846 323.316C482.314 323.695 482.549 324.246 482.549 324.969C482.549 325.484 482.41 325.902 482.133 326.223C481.961 326.422 481.738 326.578 481.465 326.691C481.906 326.812 482.25 327.047 482.496 327.395C482.746 327.738 482.871 328.16 482.871 328.66C482.871 329.461 482.607 330.113 482.08 330.617C481.553 331.121 480.805 331.373 479.836 331.373Z" fill="#ADB5BD"/>
<path d="M497.77 322.754C498.855 322.754 499.641 323.201 500.125 324.096C500.5 324.787 500.688 325.734 500.688 326.938C500.688 328.078 500.518 329.021 500.178 329.768C499.686 330.838 498.881 331.373 497.764 331.373C496.756 331.373 496.006 330.936 495.514 330.061C495.104 329.33 494.898 328.35 494.898 327.119C494.898 326.166 495.021 325.348 495.268 324.664C495.729 323.391 496.562 322.754 497.77 322.754ZM497.758 330.412C498.305 330.412 498.74 330.17 499.064 329.686C499.389 329.201 499.551 328.299 499.551 326.979C499.551 326.025 499.434 325.242 499.199 324.629C498.965 324.012 498.51 323.703 497.834 323.703C497.213 323.703 496.758 323.996 496.469 324.582C496.184 325.164 496.041 326.023 496.041 327.16C496.041 328.016 496.133 328.703 496.316 329.223C496.598 330.016 497.078 330.412 497.758 330.412ZM505.17 328.174V324.371L502.48 328.174H505.17ZM505.188 331.145V329.094H501.508V328.062L505.352 322.73H506.242V328.174H507.479V329.094H506.242V331.145H505.188Z" fill="#ADB5BD"/>
<path d="M522.254 322.754C523.34 322.754 524.125 323.201 524.609 324.096C524.984 324.787 525.172 325.734 525.172 326.938C525.172 328.078 525.002 329.021 524.662 329.768C524.17 330.838 523.365 331.373 522.248 331.373C521.24 331.373 520.49 330.936 519.998 330.061C519.588 329.33 519.383 328.35 519.383 327.119C519.383 326.166 519.506 325.348 519.752 324.664C520.213 323.391 521.047 322.754 522.254 322.754ZM522.242 330.412C522.789 330.412 523.225 330.17 523.549 329.686C523.873 329.201 524.035 328.299 524.035 326.979C524.035 326.025 523.918 325.242 523.684 324.629C523.449 324.012 522.994 323.703 522.318 323.703C521.697 323.703 521.242 323.996 520.953 324.582C520.668 325.164 520.525 326.023 520.525 327.16C520.525 328.016 520.617 328.703 520.801 329.223C521.082 330.016 521.562 330.412 522.242 330.412ZM527.17 329.006C527.24 329.607 527.52 330.023 528.008 330.254C528.258 330.371 528.547 330.43 528.875 330.43C529.5 330.43 529.963 330.23 530.264 329.832C530.564 329.434 530.715 328.992 530.715 328.508C530.715 327.922 530.535 327.469 530.176 327.148C529.82 326.828 529.393 326.668 528.893 326.668C528.529 326.668 528.217 326.738 527.955 326.879C527.697 327.02 527.477 327.215 527.293 327.465L526.379 327.412L527.018 322.895H531.377V323.914H527.809L527.451 326.246C527.646 326.098 527.832 325.986 528.008 325.912C528.32 325.783 528.682 325.719 529.092 325.719C529.861 325.719 530.514 325.967 531.049 326.463C531.584 326.959 531.852 327.588 531.852 328.35C531.852 329.143 531.605 329.842 531.113 330.447C530.625 331.053 529.844 331.355 528.77 331.355C528.086 331.355 527.48 331.164 526.953 330.781C526.43 330.395 526.137 329.803 526.074 329.006H527.17Z" fill="#ADB5BD"/>
<path d="M546.734 322.754C547.82 322.754 548.605 323.201 549.09 324.096C549.465 324.787 549.652 325.734 549.652 326.938C549.652 328.078 549.482 329.021 549.143 329.768C548.65 330.838 547.846 331.373 546.729 331.373C545.721 331.373 544.971 330.936 544.479 330.061C544.068 329.33 543.863 328.35 543.863 327.119C543.863 326.166 543.986 325.348 544.232 324.664C544.693 323.391 545.527 322.754 546.734 322.754ZM546.723 330.412C547.27 330.412 547.705 330.17 548.029 329.686C548.354 329.201 548.516 328.299 548.516 326.979C548.516 326.025 548.398 325.242 548.164 324.629C547.93 324.012 547.475 323.703 546.799 323.703C546.178 323.703 545.723 323.996 545.434 324.582C545.148 325.164 545.006 326.023 545.006 327.16C545.006 328.016 545.098 328.703 545.281 329.223C545.562 330.016 546.043 330.412 546.723 330.412ZM553.678 322.719C554.615 322.719 555.268 322.963 555.635 323.451C556.006 323.936 556.191 324.436 556.191 324.951H555.148C555.086 324.619 554.986 324.359 554.85 324.172C554.596 323.82 554.211 323.645 553.695 323.645C553.105 323.645 552.637 323.918 552.289 324.465C551.941 325.008 551.748 325.787 551.709 326.803C551.951 326.447 552.256 326.182 552.623 326.006C552.959 325.85 553.334 325.771 553.748 325.771C554.451 325.771 555.064 325.996 555.588 326.445C556.111 326.895 556.373 327.564 556.373 328.455C556.373 329.217 556.125 329.893 555.629 330.482C555.133 331.068 554.426 331.361 553.508 331.361C552.723 331.361 552.045 331.064 551.475 330.471C550.904 329.873 550.619 328.869 550.619 327.459C550.619 326.416 550.746 325.531 551 324.805C551.488 323.414 552.381 322.719 553.678 322.719ZM553.602 330.424C554.156 330.424 554.57 330.238 554.844 329.867C555.121 329.492 555.26 329.051 555.26 328.543C555.26 328.113 555.137 327.705 554.891 327.318C554.645 326.928 554.197 326.732 553.549 326.732C553.096 326.732 552.697 326.883 552.354 327.184C552.014 327.484 551.844 327.938 551.844 328.543C551.844 329.074 551.998 329.521 552.307 329.885C552.619 330.244 553.051 330.424 553.602 330.424Z" fill="#ADB5BD"/>
<path d="M571.219 322.754C572.305 322.754 573.09 323.201 573.574 324.096C573.949 324.787 574.137 325.734 574.137 326.938C574.137 328.078 573.967 329.021 573.627 329.768C573.135 330.838 572.33 331.373 571.213 331.373C570.205 331.373 569.455 330.936 568.963 330.061C568.553 329.33 568.348 328.35 568.348 327.119C568.348 326.166 568.471 325.348 568.717 324.664C569.178 323.391 570.012 322.754 571.219 322.754ZM571.207 330.412C571.754 330.412 572.189 330.17 572.514 329.686C572.838 329.201 573 328.299 573 326.979C573 326.025 572.883 325.242 572.648 324.629C572.414 324.012 571.959 323.703 571.283 323.703C570.662 323.703 570.207 323.996 569.918 324.582C569.633 325.164 569.49 326.023 569.49 327.16C569.49 328.016 569.582 328.703 569.766 329.223C570.047 330.016 570.527 330.412 571.207 330.412ZM580.928 322.895V323.814C580.658 324.076 580.299 324.531 579.85 325.18C579.404 325.828 579.01 326.527 578.666 327.277C578.326 328.008 578.068 328.674 577.893 329.275C577.779 329.662 577.633 330.285 577.453 331.145H576.287C576.553 329.543 577.139 327.949 578.045 326.363C578.58 325.434 579.143 324.631 579.732 323.955H575.092V322.895H580.928Z" fill="#ADB5BD"/>
<path d="M595.703 322.754C596.789 322.754 597.574 323.201 598.059 324.096C598.434 324.787 598.621 325.734 598.621 326.938C598.621 328.078 598.451 329.021 598.111 329.768C597.619 330.838 596.814 331.373 595.697 331.373C594.689 331.373 593.939 330.936 593.447 330.061C593.037 329.33 592.832 328.35 592.832 327.119C592.832 326.166 592.955 325.348 593.201 324.664C593.662 323.391 594.496 322.754 595.703 322.754ZM595.691 330.412C596.238 330.412 596.674 330.17 596.998 329.686C597.322 329.201 597.484 328.299 597.484 326.979C597.484 326.025 597.367 325.242 597.133 324.629C596.898 324.012 596.443 323.703 595.768 323.703C595.146 323.703 594.691 323.996 594.402 324.582C594.117 325.164 593.975 326.023 593.975 327.16C593.975 328.016 594.066 328.703 594.25 329.223C594.531 330.016 595.012 330.412 595.691 330.412ZM602.4 326.27C602.865 326.27 603.229 326.141 603.49 325.883C603.752 325.621 603.883 325.311 603.883 324.951C603.883 324.639 603.758 324.352 603.508 324.09C603.258 323.828 602.877 323.697 602.365 323.697C601.857 323.697 601.49 323.828 601.264 324.09C601.037 324.352 600.924 324.658 600.924 325.01C600.924 325.404 601.07 325.713 601.363 325.936C601.656 326.158 602.002 326.27 602.4 326.27ZM602.465 330.424C602.953 330.424 603.357 330.293 603.678 330.031C604.002 329.766 604.164 329.371 604.164 328.848C604.164 328.305 603.998 327.893 603.666 327.611C603.334 327.33 602.908 327.189 602.389 327.189C601.885 327.189 601.473 327.334 601.152 327.623C600.836 327.908 600.678 328.305 600.678 328.812C600.678 329.25 600.822 329.629 601.111 329.949C601.404 330.266 601.855 330.424 602.465 330.424ZM600.965 326.674C600.672 326.549 600.443 326.402 600.279 326.234C599.971 325.922 599.816 325.516 599.816 325.016C599.816 324.391 600.043 323.854 600.496 323.404C600.949 322.955 601.592 322.73 602.424 322.73C603.229 322.73 603.859 322.943 604.316 323.369C604.773 323.791 605.002 324.285 605.002 324.852C605.002 325.375 604.869 325.799 604.604 326.123C604.455 326.307 604.225 326.486 603.912 326.662C604.26 326.822 604.533 327.006 604.732 327.213C605.104 327.604 605.289 328.111 605.289 328.736C605.289 329.475 605.041 330.102 604.545 330.617C604.049 331.129 603.348 331.385 602.441 331.385C601.625 331.385 600.934 331.164 600.367 330.723C599.805 330.277 599.523 329.633 599.523 328.789C599.523 328.293 599.645 327.865 599.887 327.506C600.129 327.143 600.488 326.865 600.965 326.674Z" fill="#ADB5BD"/>
<path d="M620.184 322.754C621.27 322.754 622.055 323.201 622.539 324.096C622.914 324.787 623.102 325.734 623.102 326.938C623.102 328.078 622.932 329.021 622.592 329.768C622.1 330.838 621.295 331.373 620.178 331.373C619.17 331.373 618.42 330.936 617.928 330.061C617.518 329.33 617.312 328.35 617.312 327.119C617.312 326.166 617.436 325.348 617.682 324.664C618.143 323.391 618.977 322.754 620.184 322.754ZM620.172 330.412C620.719 330.412 621.154 330.17 621.479 329.686C621.803 329.201 621.965 328.299 621.965 326.979C621.965 326.025 621.848 325.242 621.613 324.629C621.379 324.012 620.924 323.703 620.248 323.703C619.627 323.703 619.172 323.996 618.883 324.582C618.598 325.164 618.455 326.023 618.455 327.16C618.455 328.016 618.547 328.703 618.73 329.223C619.012 330.016 619.492 330.412 620.172 330.412ZM625.211 329.117C625.242 329.699 625.467 330.102 625.885 330.324C626.1 330.441 626.342 330.5 626.611 330.5C627.115 330.5 627.545 330.291 627.9 329.873C628.256 329.451 628.508 328.598 628.656 327.312C628.422 327.684 628.131 327.945 627.783 328.098C627.439 328.246 627.068 328.32 626.67 328.32C625.861 328.32 625.221 328.068 624.748 327.564C624.279 327.061 624.045 326.412 624.045 325.619C624.045 324.857 624.277 324.188 624.742 323.609C625.207 323.031 625.893 322.742 626.799 322.742C628.021 322.742 628.865 323.293 629.33 324.395C629.588 325 629.717 325.758 629.717 326.668C629.717 327.695 629.562 328.605 629.254 329.398C628.742 330.719 627.875 331.379 626.652 331.379C625.832 331.379 625.209 331.164 624.783 330.734C624.357 330.305 624.145 329.766 624.145 329.117H625.211ZM626.811 327.395C627.229 327.395 627.609 327.258 627.953 326.984C628.301 326.707 628.475 326.225 628.475 325.537C628.475 324.92 628.318 324.461 628.006 324.16C627.697 323.855 627.303 323.703 626.822 323.703C626.307 323.703 625.896 323.877 625.592 324.225C625.291 324.568 625.141 325.029 625.141 325.607C625.141 326.154 625.273 326.59 625.539 326.914C625.805 327.234 626.229 327.395 626.811 327.395Z" fill="#ADB5BD"/>
<path d="M642.57 325.203V324.395C643.332 324.32 643.863 324.197 644.164 324.025C644.465 323.85 644.689 323.438 644.838 322.789H645.67V331.145H644.545V325.203H642.57ZM651.348 322.754C652.434 322.754 653.219 323.201 653.703 324.096C654.078 324.787 654.266 325.734 654.266 326.938C654.266 328.078 654.096 329.021 653.756 329.768C653.264 330.838 652.459 331.373 651.342 331.373C650.334 331.373 649.584 330.936 649.092 330.061C648.682 329.33 648.477 328.35 648.477 327.119C648.477 326.166 648.6 325.348 648.846 324.664C649.307 323.391 650.141 322.754 651.348 322.754ZM651.336 330.412C651.883 330.412 652.318 330.17 652.643 329.686C652.967 329.201 653.129 328.299 653.129 326.979C653.129 326.025 653.012 325.242 652.777 324.629C652.543 324.012 652.088 323.703 651.412 323.703C650.791 323.703 650.336 323.996 650.047 324.582C649.762 325.164 649.619 326.023 649.619 327.16C649.619 328.016 649.711 328.703 649.895 329.223C650.176 330.016 650.656 330.412 651.336 330.412Z" fill="#ADB5BD"/>
<path d="M668 325.203V324.395C668.762 324.32 669.293 324.197 669.594 324.025C669.895 323.85 670.119 323.438 670.268 322.789H671.1V331.145H669.975V325.203H668ZM673.789 325.203V324.395C674.551 324.32 675.082 324.197 675.383 324.025C675.684 323.85 675.908 323.438 676.057 322.789H676.889V331.145H675.764V325.203H673.789Z" fill="#ADB5BD"/>
<path d="M691.535 325.203V324.395C692.297 324.32 692.828 324.197 693.129 324.025C693.43 323.85 693.654 323.438 693.803 322.789H694.635V331.145H693.51V325.203H691.535ZM697.441 331.145C697.48 330.422 697.629 329.793 697.887 329.258C698.148 328.723 698.656 328.236 699.41 327.799L700.535 327.148C701.039 326.855 701.393 326.605 701.596 326.398C701.916 326.074 702.076 325.703 702.076 325.285C702.076 324.797 701.93 324.41 701.637 324.125C701.344 323.836 700.953 323.691 700.465 323.691C699.742 323.691 699.242 323.965 698.965 324.512C698.816 324.805 698.734 325.211 698.719 325.73H697.646C697.658 325 697.793 324.404 698.051 323.943C698.508 323.131 699.314 322.725 700.471 322.725C701.432 322.725 702.133 322.984 702.574 323.504C703.02 324.023 703.242 324.602 703.242 325.238C703.242 325.91 703.006 326.484 702.533 326.961C702.26 327.238 701.77 327.574 701.062 327.969L700.26 328.414C699.877 328.625 699.576 328.826 699.357 329.018C698.967 329.357 698.721 329.734 698.619 330.148H703.201V331.145H697.441Z" fill="#ADB5BD"/>
<path d="M716.02 325.203V324.395C716.781 324.32 717.312 324.197 717.613 324.025C717.914 323.85 718.139 323.438 718.287 322.789H719.119V331.145H717.994V325.203H716.02ZM724.668 331.373C723.676 331.373 722.955 331.102 722.506 330.559C722.061 330.012 721.838 329.348 721.838 328.566H722.939C722.986 329.109 723.088 329.504 723.244 329.75C723.518 330.191 724.012 330.412 724.727 330.412C725.281 330.412 725.727 330.264 726.062 329.967C726.398 329.67 726.566 329.287 726.566 328.818C726.566 328.24 726.389 327.836 726.033 327.605C725.682 327.375 725.191 327.26 724.562 327.26C724.492 327.26 724.42 327.262 724.346 327.266C724.275 327.266 724.203 327.268 724.129 327.271V326.34C724.238 326.352 724.33 326.359 724.404 326.363C724.479 326.367 724.559 326.369 724.645 326.369C725.039 326.369 725.363 326.307 725.617 326.182C726.062 325.963 726.285 325.572 726.285 325.01C726.285 324.592 726.137 324.27 725.84 324.043C725.543 323.816 725.197 323.703 724.803 323.703C724.1 323.703 723.613 323.938 723.344 324.406C723.195 324.664 723.111 325.031 723.092 325.508H722.049C722.049 324.883 722.174 324.352 722.424 323.914C722.854 323.133 723.609 322.742 724.691 322.742C725.547 322.742 726.209 322.934 726.678 323.316C727.146 323.695 727.381 324.246 727.381 324.969C727.381 325.484 727.242 325.902 726.965 326.223C726.793 326.422 726.57 326.578 726.297 326.691C726.738 326.812 727.082 327.047 727.328 327.395C727.578 327.738 727.703 328.16 727.703 328.66C727.703 329.461 727.439 330.113 726.912 330.617C726.385 331.121 725.637 331.373 724.668 331.373Z" fill="#ADB5BD"/>
<path d="M740.504 325.203V324.395C741.266 324.32 741.797 324.197 742.098 324.025C742.398 323.85 742.623 323.438 742.771 322.789H743.604V331.145H742.479V325.203H740.504ZM750.002 328.174V324.371L747.312 328.174H750.002ZM750.02 331.145V329.094H746.34V328.062L750.184 322.73H751.074V328.174H752.311V329.094H751.074V331.145H750.02Z" fill="#ADB5BD"/>
<path d="M764.984 325.203V324.395C765.746 324.32 766.277 324.197 766.578 324.025C766.879 323.85 767.104 323.438 767.252 322.789H768.084V331.145H766.959V325.203H764.984ZM771.998 329.006C772.068 329.607 772.348 330.023 772.836 330.254C773.086 330.371 773.375 330.43 773.703 330.43C774.328 330.43 774.791 330.23 775.092 329.832C775.393 329.434 775.543 328.992 775.543 328.508C775.543 327.922 775.363 327.469 775.004 327.148C774.648 326.828 774.221 326.668 773.721 326.668C773.357 326.668 773.045 326.738 772.783 326.879C772.525 327.02 772.305 327.215 772.121 327.465L771.207 327.412L771.846 322.895H776.205V323.914H772.637L772.279 326.246C772.475 326.098 772.66 325.986 772.836 325.912C773.148 325.783 773.51 325.719 773.92 325.719C774.689 325.719 775.342 325.967 775.877 326.463C776.412 326.959 776.68 327.588 776.68 328.35C776.68 329.143 776.434 329.842 775.941 330.447C775.453 331.053 774.672 331.355 773.598 331.355C772.914 331.355 772.309 331.164 771.781 330.781C771.258 330.395 770.965 329.803 770.902 329.006H771.998Z" fill="#ADB5BD"/>
<path d="M789.469 325.203V324.395C790.23 324.32 790.762 324.197 791.062 324.025C791.363 323.85 791.588 323.438 791.736 322.789H792.568V331.145H791.443V325.203H789.469ZM798.51 322.719C799.447 322.719 800.1 322.963 800.467 323.451C800.838 323.936 801.023 324.436 801.023 324.951H799.98C799.918 324.619 799.818 324.359 799.682 324.172C799.428 323.82 799.043 323.645 798.527 323.645C797.938 323.645 797.469 323.918 797.121 324.465C796.773 325.008 796.58 325.787 796.541 326.803C796.783 326.447 797.088 326.182 797.455 326.006C797.791 325.85 798.166 325.771 798.58 325.771C799.283 325.771 799.896 325.996 800.42 326.445C800.943 326.895 801.205 327.564 801.205 328.455C801.205 329.217 800.957 329.893 800.461 330.482C799.965 331.068 799.258 331.361 798.34 331.361C797.555 331.361 796.877 331.064 796.307 330.471C795.736 329.873 795.451 328.869 795.451 327.459C795.451 326.416 795.578 325.531 795.832 324.805C796.32 323.414 797.213 322.719 798.51 322.719ZM798.434 330.424C798.988 330.424 799.402 330.238 799.676 329.867C799.953 329.492 800.092 329.051 800.092 328.543C800.092 328.113 799.969 327.705 799.723 327.318C799.477 326.928 799.029 326.732 798.381 326.732C797.928 326.732 797.529 326.883 797.186 327.184C796.846 327.484 796.676 327.938 796.676 328.543C796.676 329.074 796.83 329.521 797.139 329.885C797.451 330.244 797.883 330.424 798.434 330.424Z" fill="#ADB5BD"/>
<defs>
<linearGradient id="paint0_linear_287_67333" x1="84.9922" y1="70.7148" x2="84.9922" y2="308.143" gradientUnits="userSpaceOnUse">
<stop stop-color="#098738" stop-opacity="0.4225"/>
<stop offset="1" stop-color="#84C39C" stop-opacity="0.25"/>
</linearGradient>
</defs>
</svg>
