<svg width="16" height="16" viewBox="0 0 16 16" fill="none" xmlns="http://www.w3.org/2000/svg">
<path opacity="0.5" d="M8 5.33203V7.9987L9.66667 9.66536" stroke="#505050" stroke-width="1.5" stroke-linecap="round" stroke-linejoin="round"/>
<path d="M2.89231 4.58076L2.39231 4.58276C2.39283 4.71456 2.44538 4.84082 2.53851 4.93408C2.63165 5.02734 2.75784 5.08005 2.88964 5.08076L2.89231 4.58076ZM4.58698 5.08876C4.65264 5.08906 4.71771 5.07643 4.77849 5.05159C4.83927 5.02674 4.89457 4.99017 4.94121 4.94396C4.98786 4.89775 5.02495 4.8428 5.05036 4.78225C5.07577 4.72171 5.089 4.65675 5.08931 4.59109C5.08962 4.52543 5.07699 4.46035 5.05214 4.39957C5.0273 4.33879 4.99072 4.2835 4.94451 4.23685C4.8983 4.19021 4.84335 4.15312 4.78281 4.12771C4.72226 4.1023 4.6573 4.08906 4.59164 4.08876L4.58698 5.08876ZM3.38364 2.88076C3.38329 2.81509 3.37001 2.75015 3.34456 2.68962C3.31911 2.62909 3.28199 2.57416 3.23531 2.52798C3.18863 2.4818 3.13332 2.44527 3.07252 2.42046C3.01172 2.39566 2.94664 2.38307 2.88098 2.38342C2.81531 2.38377 2.75037 2.39705 2.68984 2.4225C2.62931 2.44795 2.57438 2.48508 2.5282 2.53175C2.48202 2.57843 2.44549 2.63375 2.42068 2.69454C2.39588 2.75534 2.38329 2.82043 2.38364 2.88609L3.38364 2.88076ZM2.55164 7.19009C2.56122 7.12474 2.55776 7.05814 2.54146 6.99414C2.52516 6.93014 2.49634 6.87 2.45666 6.8172C2.41699 6.7644 2.36724 6.71998 2.31031 6.68651C2.25337 6.65305 2.19037 6.63119 2.12493 6.62221C2.0595 6.61322 1.99294 6.61729 1.92909 6.63418C1.86524 6.65107 1.80537 6.68044 1.75293 6.72059C1.70049 6.76075 1.65653 6.8109 1.62359 6.86814C1.59064 6.92538 1.56936 6.98858 1.56098 7.05409L2.55164 7.19009ZM12.575 3.42542C10.0283 0.878756 5.91298 0.852089 3.38298 3.38276L4.08964 4.08942C6.22298 1.95676 9.70498 1.96942 11.8683 4.13209L12.575 3.42542ZM3.42564 12.5748C5.97231 15.1214 10.0876 15.1481 12.6176 12.6174L11.911 11.9108C9.77764 14.0434 6.29564 14.0308 4.13231 11.8681L3.42564 12.5748ZM12.6176 12.6174C15.1476 10.0874 15.1216 5.97209 12.575 3.42542L11.8683 4.13209C14.031 6.29542 14.0436 9.77742 11.911 11.9108L12.6176 12.6174ZM3.38298 3.38276L2.53831 4.22676L3.24564 4.93342L4.08964 4.08942L3.38298 3.38276ZM2.88964 5.08076L4.58698 5.08876L4.59164 4.08876L2.89498 4.08076L2.88964 5.08076ZM3.39231 4.57809L3.38364 2.88076L2.38364 2.88609L2.39231 4.58276L3.39231 4.57809ZM1.56031 7.05342C1.42334 8.05514 1.52043 9.07498 1.84396 10.0329C2.1675 10.9907 2.70866 11.8606 3.42498 12.5741L4.13164 11.8674C3.52446 11.2629 3.06571 10.5259 2.79145 9.71422C2.51718 8.90253 2.43487 8.03829 2.55098 7.18942L1.56031 7.05342Z" fill="#505050"/>
</svg>
