<svg width="200" height="201" viewBox="0 0 200 201" fill="none" xmlns="http://www.w3.org/2000/svg">
<path d="M153.967 77.3359H45.6172V170.051H153.967V77.3359Z" fill="white"/>
<path d="M154.277 170.367H45.2969V77.0195H154.277V170.367ZM45.9268 169.734H153.647V77.6524H45.9268V169.734Z" fill="#2C3131"/>
<path d="M113.33 95.3711H86.2422V170.049H113.33V95.3711Z" fill="#5156BE"/>
<path d="M113.33 95.3711H86.2422V170.049H113.33V95.3711Z" fill="#5156BE"/>
<path d="M160.261 68.793H39.3125V95.3733H160.261V68.793Z" fill="white"/>
<path d="M160.579 95.6898H39V68.4766H160.579V95.6898ZM39.6299 95.0569H159.949V69.1094H39.6299V95.0569Z" fill="#2C3131"/>
<path d="M113.33 66.2617H86.2422V95.0571H113.33V66.2617Z" fill="#5156BE"/>
<path d="M96.8867 41.1537C104.037 51.8022 97.3001 68.9288 97.3001 68.9288C97.3001 68.9288 78.9703 68.7907 71.82 58.1422C64.6697 47.4938 71.4066 30.3672 71.4066 30.3672C71.4066 30.3672 89.7364 30.5053 96.8867 41.1537Z" fill="#5156BE"/>
<path d="M100.172 41.1537C93.0213 51.8022 99.7582 68.9288 99.7582 68.9288C99.7582 68.9288 118.088 68.7907 125.238 58.1422C132.389 47.4938 125.652 30.3672 125.652 30.3672C125.652 30.3672 107.322 30.5053 100.172 41.1537Z" fill="#5156BE"/>
<ellipse cx="21.871" cy="22.016" rx="21.871" ry="22.016" transform="matrix(1.00041 0 -0.0011555 0.999591 78.2578 103.629)" fill="#FFBE55"/>
<path d="M98.0648 137.217C94.6561 136.912 91.2645 134.396 91.2659 133.079C91.2674 131.791 92.3076 131.182 93.3298 130.402C94.352 129.623 99.0128 134.355 101.802 133.403C104.591 132.451 102.915 129.926 100.408 128.283C97.4535 126.348 95.3215 124.908 93.3393 121.824C92.2701 120.303 90.563 116.028 94.1049 114.13C95.2127 113.536 95.6335 113.16 98.8962 113.261L98.9673 111.012C99.7225 110.144 102.87 110.185 103.742 111.158L103.671 113.407C105.673 113.894 110.443 115.253 110.911 116.713C111.47 117.314 111.888 119.062 110.907 120.261C109.28 122.25 98.0968 115.596 98.9781 120.261C99.7005 124.083 112.971 128.029 109.207 133.87C108.412 135.838 105.03 137.526 102.913 137.366L102.844 139.561C101.788 140.812 98.7132 140.624 98.0621 139.629L98.0648 137.217Z" fill="white"/>
</svg>
