<svg width="24" height="24" viewBox="0 0 24 24" fill="none" xmlns="http://www.w3.org/2000/svg">
<path d="M12.1875 21.1421L12.1875 12.0005C12.1875 11.8513 12.2468 11.7082 12.3523 11.6027C12.4577 11.4973 12.6008 11.438 12.75 11.438C12.8992 11.438 13.0423 11.4973 13.1477 11.6027C13.2532 11.7082 13.3125 11.8513 13.3125 12.0005L13.3125 21.1421L15.3525 19.103C15.4591 19.0036 15.6002 18.9495 15.7459 18.9521C15.8916 18.9547 16.0307 19.0137 16.1337 19.1168C16.2368 19.2198 16.2958 19.3589 16.2984 19.5046C16.301 19.6503 16.2469 19.7914 16.1475 19.898L13.1475 22.898C13.042 23.0033 12.8991 23.0625 12.75 23.0625C12.6009 23.0625 12.458 23.0033 12.3525 22.898L9.3525 19.898C9.29723 19.8465 9.25291 19.7844 9.22216 19.7154C9.19142 19.6464 9.17489 19.5719 9.17356 19.4964C9.17222 19.4209 9.18612 19.3458 9.21441 19.2758C9.2427 19.2058 9.28481 19.1421 9.33822 19.0887C9.39164 19.0353 9.45526 18.9932 9.5253 18.9649C9.59534 18.9366 9.67036 18.9227 9.74589 18.9241C9.82142 18.9254 9.8959 18.9419 9.9649 18.9727C10.0339 19.0034 10.096 19.0477 10.1475 19.103L12.1875 21.1421ZM6.1875 12.3108V15.0005C6.1875 15.3486 6.32578 15.6824 6.57192 15.9286C6.81806 16.1747 7.1519 16.313 7.5 16.313H9C9.14918 16.313 9.29226 16.2537 9.39775 16.1482C9.50324 16.0428 9.5625 15.8997 9.5625 15.7505C9.5625 15.6013 9.50324 15.4582 9.39775 15.3527C9.29226 15.2473 9.14918 15.188 9 15.188L7.5 15.188C7.45027 15.188 7.40258 15.1682 7.36742 15.1331C7.33225 15.0979 7.3125 15.0502 7.3125 15.0005V6.92487C7.65387 7.46251 8.1921 7.84519 8.81204 7.99104C9.43197 8.13688 10.0844 8.03431 10.6296 7.70526C11.1749 7.37622 11.5697 6.84683 11.7297 6.23038C11.8896 5.61392 11.8019 4.95936 11.4853 4.40675C11.4853 4.39737 11.475 4.38894 11.4694 4.37956L9.3825 1.19206C9.29612 1.07888 9.17003 1.00267 9.02966 0.978804C8.8893 0.954935 8.74511 0.985182 8.62617 1.06344C8.50723 1.14171 8.42239 1.26216 8.38877 1.40051C8.35515 1.53886 8.37524 1.68481 8.445 1.80893L10.5187 4.98143C10.6912 5.28391 10.7364 5.64249 10.6444 5.97829C10.5525 6.3141 10.3309 6.59963 10.0284 6.77206C9.72597 6.94449 9.36739 6.9897 9.03158 6.89775C8.69577 6.8058 8.41024 6.58422 8.23781 6.28175C8.23301 6.27239 8.22769 6.26332 8.22187 6.25456L7.21875 4.72643C7.15212 4.62598 7.05498 4.54958 6.94164 4.50851C6.82831 4.46744 6.70478 4.46386 6.58926 4.4983C6.47374 4.53275 6.37234 4.6034 6.3 4.69983C6.22767 4.79627 6.18823 4.91339 6.1875 5.03393V10.9158C5.36954 10.2425 4.71019 9.39697 4.25645 8.43958C3.80272 7.4822 3.56577 6.43651 3.5625 5.37706V1.5005C3.5625 1.35131 3.50324 1.20824 3.39775 1.10275C3.29226 0.997259 3.14919 0.937996 3 0.937996C2.85081 0.937996 2.70774 0.997259 2.60225 1.10275C2.49676 1.20824 2.4375 1.35131 2.4375 1.5005V5.37706C2.44172 6.75253 2.78637 8.10556 3.4407 9.31543C4.09504 10.5253 5.03871 11.5544 6.1875 12.3108ZM16.5 16.313H18C18.3481 16.313 18.6819 16.1747 18.9281 15.9286C19.1742 15.6824 19.3125 15.3486 19.3125 15.0005L19.3125 5.2505C19.3125 5.10131 19.2532 4.95824 19.1477 4.85275C19.0423 4.74726 18.8992 4.688 18.75 4.688C18.6008 4.688 18.4577 4.74726 18.3523 4.85275C18.2468 4.95824 18.1875 5.10131 18.1875 5.2505L18.1875 15.0005C18.1875 15.0502 18.1677 15.0979 18.1326 15.1331C18.0974 15.1682 18.0497 15.188 18 15.188H16.5C16.3508 15.188 16.2077 15.2473 16.1023 15.3527C15.9968 15.4582 15.9375 15.6013 15.9375 15.7505C15.9375 15.8997 15.9968 16.0428 16.1023 16.1482C16.2077 16.2537 16.3508 16.313 16.5 16.313Z" fill="#13B799"/>
</svg>
