<svg width="24" height="24" viewBox="0 0 24 24" fill="none" xmlns="http://www.w3.org/2000/svg">
<path fill-rule="evenodd" clip-rule="evenodd" d="M21.4559 5.41534C21.5509 5.55955 21.5932 5.73212 21.5757 5.90393C21.5582 6.07573 21.482 6.23624 21.3599 6.35834L12.1669 15.5503C12.0728 15.6443 11.9555 15.7116 11.8269 15.7453L7.99787 16.7453C7.8713 16.7784 7.7383 16.7777 7.61206 16.7434C7.48583 16.7091 7.37076 16.6424 7.27826 16.5499C7.18577 16.4575 7.11908 16.3424 7.0848 16.2161C7.05053 16.0899 7.04986 15.9569 7.08287 15.8303L8.08287 12.0023C8.11206 11.8874 8.16713 11.7807 8.24387 11.6903L17.4709 2.46934C17.6115 2.32889 17.8021 2.25 18.0009 2.25C18.1996 2.25 18.3902 2.32889 18.5309 2.46934L21.3599 5.29734C21.3958 5.33335 21.4279 5.37288 21.4559 5.41534ZM19.7689 5.82734L18.0009 4.06034L9.48287 12.5783L8.85787 14.9713L11.2509 14.3463L19.7689 5.82734Z" fill="#8B98B1"/>
<path d="M19.6415 17.1609C19.9149 14.8248 20.0021 12.4707 19.9025 10.1209C19.9004 10.0655 19.9096 10.0103 19.9298 9.95867C19.9499 9.90705 19.9805 9.86014 20.0195 9.82086L21.0035 8.83686C21.0304 8.80982 21.0646 8.79112 21.1018 8.78301C21.1391 8.77489 21.1779 8.77771 21.2136 8.79113C21.2493 8.80454 21.2803 8.82797 21.303 8.85862C21.3257 8.88926 21.3391 8.92581 21.3415 8.96386C21.5267 11.7551 21.4565 14.5574 21.1315 17.3359C20.8955 19.3579 19.2715 20.9429 17.2585 21.1679C13.7639 21.5549 10.2372 21.5549 6.74254 21.1679C4.73054 20.9429 3.10554 19.3579 2.86954 17.3359C2.45494 13.7913 2.45494 10.2104 2.86954 6.66586C3.10554 4.64386 4.72954 3.05886 6.74254 2.83386C9.39491 2.53975 12.0673 2.4685 14.7315 2.62086C14.7697 2.6236 14.8062 2.63721 14.8369 2.66007C14.8675 2.68294 14.8909 2.71411 14.9044 2.74988C14.9179 2.78566 14.9208 2.82455 14.9128 2.86194C14.9049 2.89933 14.8864 2.93366 14.8595 2.96086L13.8665 3.95286C13.8277 3.99161 13.7812 4.02198 13.7302 4.04211C13.6791 4.06223 13.6244 4.07167 13.5695 4.06986C11.3463 3.99429 9.1205 4.07951 6.90954 4.32486C6.26348 4.39637 5.6604 4.68359 5.1977 5.14011C4.735 5.59664 4.43972 6.19582 4.35954 6.84086C3.95859 10.2692 3.95859 13.7325 4.35954 17.1609C4.43972 17.8059 4.735 18.4051 5.1977 18.8616C5.6604 19.3181 6.26348 19.6054 6.90954 19.6769C10.2645 20.0519 13.7365 20.0519 17.0925 19.6769C17.7386 19.6054 18.3417 19.3181 18.8044 18.8616C19.2671 18.4051 19.5614 17.8059 19.6415 17.1609Z" fill="#8B98B1"/>
</svg>
