<svg width="24" height="24" viewBox="0 0 24 24" fill="none" xmlns="http://www.w3.org/2000/svg">
<path opacity="0.2" d="M23.9349 11.9992C23.9349 18.5917 18.5908 23.936 11.9983 23.936C5.40576 23.936 0.0615234 18.5917 0.0615234 11.9992C0.0615234 5.40674 5.40576 0.0625 11.9983 0.0625C18.5907 0.0625 23.9349 5.40674 23.9349 11.9992Z" fill="#505050"/>
<g opacity="0.8">
<path d="M11.96 6.46094L11.8862 6.71154V13.9834L11.96 14.057L15.3355 12.0617L11.96 6.46094Z" fill="#122A44"/>
<path d="M11.96 6.46094L8.58447 12.0617L11.96 14.057V10.5275V6.46094Z" fill="#122A44"/>
<path d="M11.96 15.1544L11.9185 15.205V17.7954L11.96 17.9168L15.3375 13.1602L11.96 15.1544Z" fill="#122A44"/>
<path d="M11.96 17.9168V15.1544L8.58447 13.1602L11.96 17.9168Z" fill="#122A44"/>
<path d="M11.96 14.0568L15.3354 12.0616L11.96 10.5273V14.0568Z" fill="#122A44"/>
<path d="M8.58447 12.0616L11.9599 14.0568V10.5273L8.58447 12.0616Z" fill="#122A44"/>
</g>
</svg>
