<svg width="16" height="16" viewBox="0 0 16 16" fill="none" xmlns="http://www.w3.org/2000/svg">
<path d="M5.64282 8.3795C3.77757 6.9845 2.44707 5.45 1.72032 4.5875C1.49532 4.3205 1.42182 4.12475 1.37757 3.7805C1.22607 2.6015 1.15032 2.012 1.49607 1.631C1.84182 1.25 2.45307 1.25 3.67557 1.25H12.3246C13.5471 1.25 14.1583 1.25 14.5041 1.63025C14.8498 2.01125 14.7741 2.60075 14.6226 3.77975C14.5776 4.124 14.5041 4.31975 14.2798 4.58675C13.5523 5.45075 12.2196 6.98825 10.3498 8.3855C10.2634 8.45278 10.1919 8.53735 10.14 8.63382C10.0881 8.73029 10.0568 8.83653 10.0483 8.94575C9.86307 10.994 9.69207 12.116 9.58557 12.683C9.41382 13.5995 8.11557 14.1508 7.41957 14.642C7.00557 14.9345 6.50307 14.5865 6.44982 14.1335C6.25067 12.4074 6.08214 10.6779 5.94432 8.94575C5.93661 8.83549 5.90579 8.72809 5.85384 8.63053C5.80189 8.53297 5.73 8.44744 5.64282 8.3795Z" stroke="#8B98B1" stroke-width="1.5" stroke-linecap="round" stroke-linejoin="round"/>
</svg>
