<svg width="15" height="16" viewBox="0 0 15 16" fill="none" xmlns="http://www.w3.org/2000/svg">
<g clip-path="url(#clip0_987_5839)">
<path d="M4.39786 12.763C4.15537 12.623 4.06384 12.3415 4.18984 12.1233L8.23984 5.10846C8.36584 4.89022 8.65537 4.82875 8.89786 4.96875C9.14034 5.10875 9.23187 5.39022 9.10587 5.60846L5.05587 12.6233C4.92987 12.8415 4.64034 12.903 4.39786 12.763Z" fill="#DDDDDD"/>
<path d="M10.3826 9.39719C10.3255 9.36497 10.2744 9.32336 10.2327 9.27504C10.191 9.22672 10.1596 9.17277 10.1404 9.11664L8.69214 5.32516L4.68447 5.96664C4.43001 6.00737 4.16155 5.85237 4.06959 5.61164C3.97764 5.37092 4.10357 5.15279 4.35803 5.11206L8.81099 4.3993C9.06545 4.35857 9.33392 4.51357 9.42587 4.7543L11.0351 8.96706C11.127 9.20779 11.0011 9.42592 10.7466 9.46665C10.6194 9.48701 10.4865 9.45719 10.3826 9.39719Z" fill="#DDDDDD"/>
</g>
<defs>
<clipPath id="clip0_987_5839">
<rect width="9" height="13" fill="white" transform="translate(6.5 0.121094) rotate(30)"/>
</clipPath>
</defs>
</svg>
