<svg width="200" height="201" viewBox="0 0 200 201" fill="none" xmlns="http://www.w3.org/2000/svg">
<path d="M153.031 163.871C149.135 168.031 144.67 171.624 139.769 174.542C139.656 174.611 139.542 174.676 139.427 174.742L131.492 167.739C131.576 167.661 131.668 167.575 131.767 167.479C137.68 161.881 167.031 122.736 168.987 113.203C168.852 113.997 170.752 145.141 153.031 163.871Z" fill="#5156BE"/>
<path d="M141.299 175.895C141.149 175.931 140.997 175.964 140.844 175.995L134.891 170.74C135.007 170.7 135.143 170.652 135.298 170.598C137.853 169.696 145.46 166.974 153.03 163.872C161.165 160.539 169.261 156.772 171.002 154.359C170.628 154.92 159.123 171.92 141.299 175.895Z" fill="#5156BE"/>
<path d="M67.2882 51.3169V78.9139C62.8911 80.0676 58.2873 80.1999 53.8309 79.3008C49.3744 78.4017 45.1842 76.4951 41.5826 73.7276C37.981 70.9602 35.064 67.4056 33.056 63.3375C31.048 59.2694 30.0025 54.7962 30 50.2619C30 49.4526 30.0326 48.6517 30.0978 47.8592H46.4123C47.1945 47.8599 47.9648 47.6687 48.6554 47.3023C49.3459 46.9359 49.9355 46.4056 50.3719 45.7583C50.8084 45.1109 51.0784 44.3664 51.1581 43.5904C51.2378 42.8144 51.1247 42.0307 50.8289 41.3086H57.2488C58.567 41.3081 59.8724 41.5666 61.0904 42.0694C62.3085 42.5721 63.4152 43.3093 64.3475 44.2387C65.2798 45.1681 66.0194 46.2716 66.5239 47.4861C67.0285 48.7006 67.2882 50.0023 67.2882 51.3169Z" fill="#5156BE"/>
<path d="M142.105 58.1868H141.223V34.2317C141.223 32.411 140.861 30.6081 140.159 28.926C139.456 27.2439 138.426 25.7155 137.128 24.428C135.83 23.1406 134.289 22.1193 132.593 21.4226C130.896 20.7258 129.078 20.3672 127.242 20.3672H76.0664C72.3585 20.3672 68.8026 21.8279 66.1807 24.428C63.5589 27.0281 62.0859 30.5546 62.0859 34.2317V165.651C62.0859 169.328 63.5589 172.855 66.1807 175.455C68.8025 178.055 72.3585 179.516 76.0663 179.516H127.242C130.95 179.516 134.506 178.055 137.128 175.455C139.75 172.855 141.223 169.328 141.223 165.651V75.2384H142.105L142.105 58.1868Z" fill="#111111"/>
<path d="M138.249 34.3309V165.557C138.249 168.303 137.149 170.937 135.191 172.878C133.233 174.82 130.577 175.911 127.808 175.911H76.3862C73.6171 175.911 70.9615 174.82 69.0034 172.878C67.0454 170.937 65.9454 168.303 65.9453 165.557V34.3309C65.9454 31.5848 67.0454 28.9511 69.0034 27.0093C70.9615 25.0675 73.6171 23.9766 76.3862 23.9766H82.6243C82.3177 24.7236 82.201 25.5338 82.2843 26.336C82.3677 27.1383 82.6485 27.9079 83.1022 28.5772C83.5558 29.2466 84.1684 29.7951 84.8859 30.1745C85.6035 30.554 86.4041 30.7528 87.2173 30.7534H116.536C117.349 30.7528 118.149 30.554 118.867 30.1745C119.585 29.7951 120.197 29.2466 120.651 28.5772C121.104 27.9079 121.385 27.1383 121.469 26.336C121.552 25.5338 121.435 24.7236 121.129 23.9766H127.808C130.577 23.9766 133.232 25.0675 135.191 27.0093C137.149 28.9511 138.249 31.5848 138.249 34.3309Z" fill="white"/>
<path d="M79.1265 36.1445C78.1999 36.1445 77.2823 36.3255 76.4262 36.6772C75.5701 37.0288 74.7923 37.5443 74.137 38.1941C73.4818 38.8439 72.962 39.6153 72.6074 40.4643C72.2528 41.3133 72.0703 42.2232 72.0703 43.1422C72.0703 44.0611 72.2528 44.9711 72.6074 45.8201C72.962 46.6691 73.4818 47.4405 74.137 48.0903C74.7922 48.7401 75.5701 49.2555 76.4262 49.6072C77.2823 49.9589 78.1998 50.1399 79.1264 50.1399H79.1265C80.9979 50.1399 82.7926 49.4026 84.1159 48.0903C85.4392 46.778 86.1826 44.9981 86.1826 43.1422C86.1826 41.2863 85.4392 39.5064 84.1159 38.1941C82.7926 36.8818 80.9979 36.1445 79.1265 36.1445Z" fill="#F2F2F2"/>
<path d="M130.356 49.0457H93.3109C92.8431 49.0457 92.3944 48.8614 92.0636 48.5333C91.7327 48.2052 91.5469 47.7603 91.5469 47.2963C91.5469 46.8323 91.7327 46.3874 92.0636 46.0593C92.3944 45.7312 92.8431 45.5469 93.3109 45.5469H130.356C130.823 45.5469 131.272 45.7312 131.603 46.0593C131.934 46.3874 132.12 46.8323 132.12 47.2963C132.12 47.7603 131.934 48.2052 131.603 48.5333C131.272 48.8614 130.823 49.0457 130.356 49.0457Z" fill="#F2F2F2"/>
<path d="M104.998 41.6121H93.3109C92.8431 41.6121 92.3944 41.4278 92.0636 41.0997C91.7327 40.7716 91.5469 40.3267 91.5469 39.8627C91.5469 39.3987 91.7327 38.9538 92.0636 38.6257C92.3944 38.2976 92.8431 38.1133 93.3109 38.1133H104.998C105.465 38.1133 105.914 38.2976 106.245 38.6257C106.576 38.9538 106.762 39.3987 106.762 39.8627C106.762 40.3267 106.576 40.7716 106.245 41.0997C105.914 41.4278 105.465 41.6121 104.998 41.6121Z" fill="#F2F2F2"/>
<path d="M79.1265 65.4492C78.1999 65.4492 77.2823 65.6302 76.4262 65.9819C75.5701 66.3335 74.7923 66.849 74.137 67.4988C73.4818 68.1486 72.962 68.92 72.6074 69.769C72.2528 70.618 72.0703 71.5279 72.0703 72.4469C72.0703 73.3658 72.2528 74.2758 72.6074 75.1248C72.962 75.9738 73.4818 76.7452 74.137 77.395C74.7922 78.0448 75.5701 78.5602 76.4262 78.9119C77.2823 79.2636 78.1998 79.4446 79.1264 79.4446H79.1265C80.9979 79.4446 82.7926 78.7073 84.1159 77.395C85.4392 76.0827 86.1826 74.3028 86.1826 72.4469C86.1826 70.591 85.4392 68.8111 84.1159 67.4988C82.7926 66.1865 80.9979 65.4492 79.1265 65.4492Z" fill="#F2F2F2"/>
<path d="M130.356 78.3504H93.3109C92.8431 78.3504 92.3944 78.1661 92.0636 77.838C91.7327 77.5099 91.5469 77.0649 91.5469 76.601C91.5469 76.137 91.7327 75.692 92.0636 75.364C92.3944 75.0359 92.8431 74.8516 93.3109 74.8516H130.356C130.823 74.8516 131.272 75.0359 131.603 75.364C131.934 75.692 132.12 76.137 132.12 76.601C132.12 77.0649 131.934 77.5099 131.603 77.838C131.272 78.1661 130.823 78.3504 130.356 78.3504Z" fill="#F2F2F2"/>
<path d="M104.998 70.9129H93.3109C92.8431 70.9129 92.3944 70.7286 92.0636 70.4005C91.7327 70.0724 91.5469 69.6275 91.5469 69.1635C91.5469 68.6995 91.7327 68.2545 92.0636 67.9265C92.3944 67.5984 92.8431 67.4141 93.3109 67.4141H104.998C105.465 67.4141 105.914 67.5984 106.245 67.9265C106.576 68.2545 106.762 68.6995 106.762 69.1635C106.762 69.6275 106.576 70.0724 106.245 70.4005C105.914 70.7286 105.465 70.9129 104.998 70.9129Z" fill="#F2F2F2"/>
<path d="M79.1265 124.055C77.2551 124.055 75.4603 124.792 74.137 126.104C72.8137 127.417 72.0703 129.196 72.0703 131.052C72.0703 132.908 72.8137 134.688 74.137 136C75.4603 137.313 77.255 138.05 79.1264 138.05H79.1265C80.9979 138.05 82.7926 137.313 84.1159 136C85.4392 134.688 86.1826 132.908 86.1826 131.052C86.1826 129.196 85.4392 127.417 84.1159 126.104C82.7926 124.792 80.9979 124.055 79.1265 124.055Z" fill="#F2F2F2"/>
<path d="M130.356 136.956H93.3109C92.8431 136.956 92.3944 136.772 92.0636 136.443C91.7327 136.115 91.5469 135.67 91.5469 135.206C91.5469 134.742 91.7327 134.297 92.0636 133.969C92.3944 133.641 92.8431 133.457 93.3109 133.457H130.356C130.823 133.457 131.272 133.641 131.603 133.969C131.934 134.297 132.12 134.742 132.12 135.206C132.12 135.67 131.934 136.115 131.603 136.443C131.272 136.772 130.823 136.956 130.356 136.956Z" fill="#F2F2F2"/>
<path d="M104.998 129.518H93.3109C92.8431 129.518 92.3944 129.334 92.0636 129.006C91.7327 128.678 91.5469 128.233 91.5469 127.769C91.5469 127.305 91.7327 126.86 92.0636 126.532C92.3944 126.204 92.8431 126.02 93.3109 126.02H104.998C105.465 126.02 105.914 126.204 106.245 126.532C106.576 126.86 106.762 127.305 106.762 127.769C106.762 128.233 106.576 128.678 106.245 129.006C105.914 129.334 105.465 129.518 104.998 129.518Z" fill="#F2F2F2"/>
<path d="M79.1265 153.355C78.1999 153.355 77.2823 153.536 76.4262 153.888C75.5701 154.24 74.7923 154.755 74.137 155.405C73.4818 156.055 72.962 156.826 72.6074 157.675C72.2528 158.524 72.0703 159.434 72.0703 160.353C72.0703 161.272 72.2528 162.182 72.6074 163.031C72.962 163.88 73.4818 164.651 74.137 165.301C74.7922 165.951 75.5701 166.466 76.4262 166.818C77.2823 167.17 78.1998 167.351 79.1264 167.351H79.1265C80.9979 167.351 82.7926 166.614 84.1159 165.301C85.4392 163.989 86.1826 162.209 86.1826 160.353C86.1826 158.497 85.4392 156.717 84.1159 155.405C82.7926 154.093 80.9979 153.355 79.1265 153.355Z" fill="#F2F2F2"/>
<path d="M130.356 166.257H93.3109C92.8431 166.257 92.3944 166.072 92.0636 165.744C91.7327 165.416 91.5469 164.971 91.5469 164.507C91.5469 164.043 91.7327 163.598 92.0636 163.27C92.3944 162.942 92.8431 162.758 93.3109 162.758H130.356C130.823 162.758 131.272 162.942 131.603 163.27C131.934 163.598 132.12 164.043 132.12 164.507C132.12 164.971 131.934 165.416 131.603 165.744C131.272 166.072 130.823 166.257 130.356 166.257Z" fill="#F2F2F2"/>
<path d="M104.998 158.823H93.3109C92.8431 158.823 92.3944 158.639 92.0636 158.311C91.7327 157.983 91.5469 157.538 91.5469 157.074C91.5469 156.61 91.7327 156.165 92.0636 155.837C92.3944 155.509 92.8431 155.324 93.3109 155.324H104.998C105.465 155.324 105.914 155.509 106.245 155.837C106.576 156.165 106.762 156.61 106.762 157.074C106.762 157.538 106.576 157.983 106.245 158.311C105.914 158.639 105.465 158.823 104.998 158.823Z" fill="#F2F2F2"/>
<path d="M144.651 118.586H59.5368C58.5721 118.585 57.6474 118.205 56.9653 117.528C56.2832 116.852 55.8995 115.935 55.8984 114.978V87.8621C55.8995 86.9055 56.2832 85.9883 56.9653 85.3119C57.6474 84.6355 58.5721 84.255 59.5368 84.2539H144.651C145.616 84.255 146.541 84.6355 147.223 85.3119C147.905 85.9883 148.289 86.9055 148.29 87.8621V114.978C148.289 115.935 147.905 116.852 147.223 117.528C146.541 118.205 145.616 118.585 144.651 118.586Z" fill="white"/>
<ellipse cx="7.04074" cy="6.99622" rx="7.04074" ry="6.99622" transform="matrix(1.00041 0 -0.00116196 0.999591 72.3672 94.7148)" fill="#FFBE55"/>
<path d="M78.746 105.391C77.6487 105.294 76.5568 104.494 76.5573 104.076C76.5578 103.667 76.8926 103.473 77.2217 103.225C77.5508 102.977 79.0512 104.481 79.9491 104.179C80.8471 103.876 80.3075 103.074 79.5003 102.552C78.5492 101.937 77.8629 101.479 77.2248 100.499C76.8806 100.016 76.331 98.6572 77.4712 98.0539C77.8278 97.8653 77.9633 97.7459 79.0136 97.7778L79.0365 97.0631C79.2796 96.7874 80.293 96.8004 80.5737 97.1098L80.5508 97.8245C81.1953 97.9792 82.7308 98.411 82.8816 98.8749C83.0614 99.066 83.196 99.6213 82.8803 100.002C82.3565 100.634 78.7563 98.5201 79.04 100.002C79.2726 101.217 83.5448 102.471 82.3329 104.327C82.0769 104.952 80.9884 105.489 80.3068 105.438L80.2845 106.135C79.9445 106.533 78.9547 106.473 78.7451 106.157L78.746 105.391Z" fill="white"/>
<path d="M130.356 107.323H93.3109C92.8431 107.323 92.3944 107.139 92.0636 106.811C91.7327 106.483 91.5469 106.038 91.5469 105.574C91.5469 105.11 91.7327 104.665 92.0636 104.337C92.3944 104.009 92.8431 103.824 93.3109 103.824H130.356C130.823 103.824 131.272 104.009 131.603 104.337C131.934 104.665 132.12 105.11 132.12 105.574C132.12 106.038 131.934 106.483 131.603 106.811C131.272 107.139 130.823 107.323 130.356 107.323Z" fill="#5156BE"/>
<path d="M104.998 99.8895H93.3109C92.8431 99.8895 92.3944 99.7051 92.0636 99.3771C91.7327 99.049 91.5469 98.604 91.5469 98.14C91.5469 97.6761 91.7327 97.2311 92.0636 96.903C92.3944 96.5749 92.8431 96.3906 93.3109 96.3906H104.998C105.465 96.3906 105.914 96.5749 106.245 96.903C106.576 97.2311 106.762 97.6761 106.762 98.14C106.762 98.604 106.576 99.049 106.245 99.3771C105.914 99.7051 105.465 99.8895 104.998 99.8895Z" fill="#5156BE"/>
<rect x="56.2125" y="84.2008" width="91.7631" height="34.2727" stroke="#2C3131" stroke-width="0.628217"/>
<ellipse cx="7.04074" cy="6.99622" rx="7.04074" ry="6.99622" transform="matrix(1.00041 0 -0.00116196 0.999591 72.3672 94.0156)" fill="#FFBE55"/>
<path d="M78.746 104.691C77.6487 104.595 76.5568 103.795 76.5573 103.377C76.5578 102.967 76.8926 102.774 77.2217 102.526C77.5508 102.278 79.0512 103.782 79.9491 103.48C80.8471 103.177 80.3075 102.374 79.5003 101.852C78.5492 101.237 77.8629 100.78 77.2248 99.7997C76.8806 99.3164 76.331 97.9579 77.4712 97.3547C77.8278 97.1661 77.9633 97.0467 79.0136 97.0786L79.0365 96.3639C79.2796 96.0882 80.293 96.1012 80.5737 96.4106L80.5508 97.1253C81.1953 97.28 82.7308 97.7118 82.8816 98.1757C83.0614 98.3668 83.196 98.9221 82.8803 99.303C82.3565 99.9351 78.7563 97.8209 79.04 99.303C79.2726 100.518 83.5448 101.772 82.3329 103.628C82.0769 104.253 80.9884 104.79 80.3068 104.739L80.2845 105.436C79.9445 105.834 78.9547 105.774 78.7451 105.458L78.746 104.691Z" fill="white"/>
<path d="M163.186 59.8229L153.555 52.4766L146.188 62.0818L155.82 69.4282L163.186 59.8229Z" fill="#5156BE"/>
</svg>
