<svg width="57" height="20" viewBox="0 0 57 20" fill="none" xmlns="http://www.w3.org/2000/svg">
<path d="M1 0.651157L1.38194 2.06584C1.76389 3.48052 2.52778 6.30989 3.29167 7.54439C4.05556 8.77889 4.81944 8.41852 5.58333 8.64443C6.34722 8.87034 7.11111 9.68253 7.875 8.17488C8.63889 6.66723 9.40278 2.83974 10.1667 2.2231C10.9306 1.60645 11.6944 4.20065 12.4583 6.49283C13.2222 8.785 13.9861 10.7752 14.75 11.1334C15.5139 11.4916 16.2778 10.2179 17.0417 8.40878C17.8056 6.59964 18.5694 4.25505 19.3333 2.75929C20.0972 1.26353 20.8611 0.616587 21.625 0.51459C22.3889 0.412593 23.1528 0.855541 23.9167 1.5257C24.6806 2.19587 25.4444 3.09325 26.2083 5.57997C26.9722 8.06669 27.7361 12.1428 28.5 14.2954C29.2639 16.448 30.0278 16.6772 30.7917 15.3241C31.5556 13.971 32.3194 11.0357 33.0833 9.32096C33.8472 7.60621 34.6111 7.11202 35.375 8.98639C36.1389 10.8608 36.9028 15.1037 37.6667 17.0949C38.4306 19.0861 39.1944 18.8257 39.9583 17.7222C40.7222 16.6188 41.4861 14.6724 42.25 14.1018C43.0139 13.5312 43.7778 14.3363 44.5417 14.8785C45.3056 15.4208 46.0694 15.7002 46.8333 16.2701C47.5972 16.8401 48.3611 17.7005 49.125 18.4755C49.8889 19.2505 50.6528 19.94 51.4167 19.1509C52.1806 18.3619 52.9444 16.0944 53.7083 15.5505C54.4722 15.0065 55.2361 16.1862 55.6181 16.7761L56 17.3659" stroke="#2DC24E"/>
</svg>
