<svg width="18" height="18" viewBox="0 0 18 18" fill="none" xmlns="http://www.w3.org/2000/svg">
<path d="M3.5625 12.9375C3.71168 12.9375 3.85476 12.9968 3.96025 13.1023C4.06574 13.2077 4.125 13.3508 4.125 13.5V15.1875C4.125 15.291 4.209 15.375 4.3125 15.375H13.6875C13.7372 15.375 13.7849 15.3552 13.8201 15.3201C13.8552 15.2849 13.875 15.2372 13.875 15.1875V13.5C13.875 13.3508 13.9343 13.2077 14.0398 13.1023C14.1452 12.9968 14.2883 12.9375 14.4375 12.9375C14.5867 12.9375 14.7298 12.9968 14.8352 13.1023C14.9407 13.2077 15 13.3508 15 13.5V15.1875C15 15.5356 14.8617 15.8694 14.6156 16.1156C14.3694 16.3617 14.0356 16.5 13.6875 16.5H4.3125C3.9644 16.5 3.63056 16.3617 3.38442 16.1156C3.13828 15.8694 3 15.5356 3 15.1875V13.5C3 13.3508 3.05926 13.2077 3.16475 13.1023C3.27024 12.9968 3.41332 12.9375 3.5625 12.9375Z" fill="#3AB67A"/>
<path d="M3.9145 7.4775C4.01997 7.37216 4.16294 7.31299 4.31201 7.31299C4.46107 7.31299 4.60404 7.37216 4.70951 7.4775L8.43701 11.2043V2.0625C8.43701 1.91332 8.49627 1.77024 8.60176 1.66475C8.70725 1.55926 8.85032 1.5 8.99951 1.5C9.14869 1.5 9.29176 1.55926 9.39725 1.66475C9.50274 1.77024 9.56201 1.91332 9.56201 2.0625V11.2043L13.2895 7.4775C13.3949 7.37208 13.5379 7.31285 13.687 7.31285C13.8361 7.31285 13.9791 7.37208 14.0845 7.4775C14.1899 7.58292 14.2492 7.72591 14.2492 7.875C14.2492 8.02409 14.1899 8.16708 14.0845 8.2725L9.39701 12.96C9.29154 13.0653 9.14857 13.1245 8.99951 13.1245C8.85044 13.1245 8.70747 13.0653 8.60201 12.96L3.9145 8.2725C3.80917 8.16703 3.75 8.02406 3.75 7.875C3.75 7.72594 3.80917 7.58297 3.9145 7.4775Z" fill="#3AB67A"/>
</svg>
