<svg width="177" height="240" viewBox="0 0 177 240" fill="none" xmlns="http://www.w3.org/2000/svg">
<rect x="0.218847" y="0.789159" width="175.953" height="238.658" rx="8.54193" fill="white"/>
<rect x="0.218847" y="0.789159" width="175.953" height="238.658" rx="8.54193" stroke="#E9E9EF" stroke-width="0.437694"/>
<path d="M13.9159 27.5156L13.4011 25.8795H11.1216L10.6161 27.5156H9.38443L11.5353 21.0999H13.0427L15.1751 27.5156H13.9159ZM12.2798 22.2029H12.2338L11.4158 24.8409H13.107L12.2798 22.2029ZM17.9406 27.6259C17.5852 27.6259 17.2696 27.5677 16.9939 27.4513C16.7182 27.3349 16.4853 27.1663 16.2953 26.9457C16.1115 26.7252 15.9706 26.4617 15.8725 26.1553C15.7745 25.8428 15.7255 25.4935 15.7255 25.1074C15.7255 24.7214 15.7745 24.3752 15.8725 24.0688C15.9706 23.7624 16.1115 23.502 16.2953 23.2875C16.4853 23.0669 16.7182 22.8984 16.9939 22.782C17.2696 22.6655 17.5852 22.6073 17.9406 22.6073C18.4247 22.6073 18.823 22.7146 19.1355 22.929C19.4542 23.1435 19.684 23.4407 19.8249 23.8206L18.8598 24.2526C18.8046 24.0504 18.7005 23.885 18.5473 23.7563C18.4002 23.6215 18.198 23.5541 17.9406 23.5541C17.6097 23.5541 17.3616 23.6582 17.1961 23.8666C17.0368 24.0749 16.9571 24.3476 16.9571 24.6846V25.5578C16.9571 25.8948 17.0368 26.1675 17.1961 26.3759C17.3616 26.5781 17.6097 26.6792 17.9406 26.6792C18.2225 26.6792 18.44 26.6087 18.5932 26.4678C18.7464 26.3207 18.8659 26.14 18.9517 25.9255L19.8525 26.3575C19.6932 26.7803 19.4511 27.0989 19.1263 27.3134C18.8016 27.5218 18.4063 27.6259 17.9406 27.6259ZM22.6082 27.6259C22.2528 27.6259 21.9372 27.5677 21.6615 27.4513C21.3857 27.3349 21.1529 27.1663 20.9629 26.9457C20.7791 26.7252 20.6382 26.4617 20.5401 26.1553C20.4421 25.8428 20.3931 25.4935 20.3931 25.1074C20.3931 24.7214 20.4421 24.3752 20.5401 24.0688C20.6382 23.7624 20.7791 23.502 20.9629 23.2875C21.1529 23.0669 21.3857 22.8984 21.6615 22.782C21.9372 22.6655 22.2528 22.6073 22.6082 22.6073C23.0923 22.6073 23.4906 22.7146 23.8031 22.929C24.1218 23.1435 24.3516 23.4407 24.4925 23.8206L23.5274 24.2526C23.4722 24.0504 23.3681 23.885 23.2149 23.7563C23.0678 23.6215 22.8656 23.5541 22.6082 23.5541C22.2773 23.5541 22.0292 23.6582 21.8637 23.8666C21.7044 24.0749 21.6247 24.3476 21.6247 24.6846V25.5578C21.6247 25.8948 21.7044 26.1675 21.8637 26.3759C22.0292 26.5781 22.2773 26.6792 22.6082 26.6792C22.8901 26.6792 23.1076 26.6087 23.2608 26.4678C23.414 26.3207 23.5335 26.14 23.6193 25.9255L24.5201 26.3575C24.3607 26.7803 24.1187 27.0989 23.7939 27.3134C23.4692 27.5218 23.0739 27.6259 22.6082 27.6259ZM27.285 27.6259C26.9419 27.6259 26.6324 27.5677 26.3567 27.4513C26.087 27.3349 25.8542 27.1663 25.6581 26.9457C25.4681 26.7252 25.3211 26.4617 25.2169 26.1553C25.1127 25.8428 25.0606 25.4935 25.0606 25.1074C25.0606 24.7214 25.1127 24.3752 25.2169 24.0688C25.3211 23.7624 25.4681 23.502 25.6581 23.2875C25.8542 23.0669 26.087 22.8984 26.3567 22.782C26.6324 22.6655 26.9419 22.6073 27.285 22.6073C27.6282 22.6073 27.9376 22.6655 28.2134 22.782C28.4891 22.8984 28.722 23.0669 28.9119 23.2875C29.108 23.502 29.2581 23.7624 29.3623 24.0688C29.4665 24.3752 29.5186 24.7214 29.5186 25.1074C29.5186 25.4935 29.4665 25.8428 29.3623 26.1553C29.2581 26.4617 29.108 26.7252 28.9119 26.9457C28.722 27.1663 28.4891 27.3349 28.2134 27.4513C27.9376 27.5677 27.6282 27.6259 27.285 27.6259ZM27.285 26.6792C27.5975 26.6792 27.8426 26.5842 28.0203 26.3943C28.198 26.2043 28.2869 25.9255 28.2869 25.5578V24.6662C28.2869 24.3047 28.198 24.029 28.0203 23.839C27.8426 23.649 27.5975 23.5541 27.285 23.5541C26.9786 23.5541 26.7366 23.649 26.5589 23.839C26.3812 24.029 26.2923 24.3047 26.2923 24.6662V25.5578C26.2923 25.9255 26.3812 26.2043 26.5589 26.3943C26.7366 26.5842 26.9786 26.6792 27.285 26.6792ZM33.4294 26.716H33.3834C33.3405 26.8385 33.2823 26.9549 33.2088 27.0652C33.1413 27.1694 33.0525 27.2644 32.9422 27.3502C32.838 27.436 32.7093 27.5034 32.5562 27.5524C32.4091 27.6014 32.2375 27.6259 32.0414 27.6259C31.5451 27.6259 31.1652 27.4635 30.9017 27.1388C30.6382 26.814 30.5064 26.3514 30.5064 25.7508V22.7176H31.683V25.6314C31.683 25.9623 31.7473 26.2166 31.876 26.3943C32.0047 26.5658 32.2099 26.6516 32.4918 26.6516C32.6082 26.6516 32.7216 26.6363 32.8319 26.6057C32.9483 26.575 33.0494 26.5291 33.1352 26.4678C33.221 26.4004 33.2915 26.3207 33.3466 26.2288C33.4018 26.1308 33.4294 26.0174 33.4294 25.8887V22.7176H34.6059V27.5156H33.4294V26.716ZM35.9652 27.5156V22.7176H37.1417V23.5173H37.1877C37.2857 23.2599 37.4389 23.0455 37.6473 22.8739C37.8617 22.6962 38.1559 22.6073 38.5297 22.6073C39.026 22.6073 39.4059 22.7697 39.6694 23.0945C39.9329 23.4192 40.0647 23.8819 40.0647 24.4824V27.5156H38.8881V24.6019C38.8881 24.2587 38.8269 24.0014 38.7043 23.8298C38.5818 23.6582 38.3795 23.5724 38.0977 23.5724C37.9751 23.5724 37.8556 23.5908 37.7392 23.6276C37.6289 23.6582 37.5278 23.7073 37.4359 23.7747C37.3501 23.8359 37.2796 23.9156 37.2245 24.0136C37.1693 24.1056 37.1417 24.2159 37.1417 24.3445V27.5156H35.9652ZM42.8671 27.5156C42.4627 27.5156 42.1532 27.4115 41.9387 27.2031C41.7304 26.9886 41.6262 26.6853 41.6262 26.2931V23.6552H40.9185V22.7176H41.2861C41.4638 22.7176 41.5833 22.6778 41.6446 22.5981C41.712 22.5123 41.7457 22.3867 41.7457 22.2213V21.4032H42.8027V22.7176H43.7862V23.6552H42.8027V26.5781H43.7127V27.5156H42.8671ZM50.9405 24.8041H48.2658V27.5156H47.0525V21.0999H48.2658V23.7287H50.9405V21.0999H52.1538V27.5156H50.9405V24.8041ZM55.488 27.6259C55.1449 27.6259 54.8354 27.5677 54.5597 27.4513C54.2901 27.3349 54.0572 27.1663 53.8611 26.9457C53.6712 26.7252 53.5241 26.4617 53.4199 26.1553C53.3158 25.8428 53.2637 25.4935 53.2637 25.1074C53.2637 24.7214 53.3158 24.3752 53.4199 24.0688C53.5241 23.7624 53.6712 23.502 53.8611 23.2875C54.0572 23.0669 54.2901 22.8984 54.5597 22.782C54.8354 22.6655 55.1449 22.6073 55.488 22.6073C55.8312 22.6073 56.1406 22.6655 56.4164 22.782C56.6921 22.8984 56.925 23.0669 57.1149 23.2875C57.311 23.502 57.4612 23.7624 57.5653 24.0688C57.6695 24.3752 57.7216 24.7214 57.7216 25.1074C57.7216 25.4935 57.6695 25.8428 57.5653 26.1553C57.4612 26.4617 57.311 26.7252 57.1149 26.9457C56.925 27.1663 56.6921 27.3349 56.4164 27.4513C56.1406 27.5677 55.8312 27.6259 55.488 27.6259ZM55.488 26.6792C55.8005 26.6792 56.0457 26.5842 56.2234 26.3943C56.4011 26.2043 56.4899 25.9255 56.4899 25.5578V24.6662C56.4899 24.3047 56.4011 24.029 56.2234 23.839C56.0457 23.649 55.8005 23.5541 55.488 23.5541C55.1816 23.5541 54.9396 23.649 54.7619 23.839C54.5842 24.029 54.4953 24.3047 54.4953 24.6662V25.5578C54.4953 25.9255 54.5842 26.2043 54.7619 26.3943C54.9396 26.5842 55.1816 26.6792 55.488 26.6792ZM59.9411 27.5156C59.5367 27.5156 59.2395 27.4145 59.0496 27.2123C58.8596 27.0101 58.7646 26.7252 58.7646 26.3575V20.7139H59.9411V26.5781H60.5754V27.5156H59.9411ZM64.4445 26.716H64.3985C64.3128 26.9917 64.1504 27.2123 63.9114 27.3778C63.6724 27.5432 63.3936 27.6259 63.075 27.6259C62.4683 27.6259 62.0026 27.4084 61.6778 26.9733C61.3592 26.5383 61.1999 25.9163 61.1999 25.1074C61.1999 24.3047 61.3592 23.6889 61.6778 23.2599C62.0026 22.8249 62.4683 22.6073 63.075 22.6073C63.3936 22.6073 63.6724 22.6901 63.9114 22.8555C64.1504 23.0148 64.3128 23.2324 64.3985 23.5081H64.4445V20.7139H65.621V27.5156H64.4445V26.716ZM63.4518 26.6516C63.7337 26.6516 63.9696 26.5842 64.1596 26.4494C64.3495 26.3146 64.4445 26.1216 64.4445 25.8703V24.3445C64.4445 24.1117 64.3495 23.9248 64.1596 23.7838C63.9696 23.6429 63.7337 23.5724 63.4518 23.5724C63.1454 23.5724 62.8973 23.6766 62.7073 23.885C62.5235 24.0872 62.4315 24.3599 62.4315 24.703V25.5302C62.4315 25.8734 62.5235 26.1461 62.7073 26.3483C62.8973 26.5505 63.1454 26.6516 63.4518 26.6516ZM67.566 22.0191C67.3209 22.0191 67.1432 21.9639 67.0329 21.8536C66.9288 21.7433 66.8767 21.6024 66.8767 21.4308V21.247C66.8767 21.0754 66.9288 20.9345 67.0329 20.8242C67.1432 20.7139 67.3209 20.6587 67.566 20.6587C67.805 20.6587 67.9797 20.7139 68.09 20.8242C68.2003 20.9345 68.2554 21.0754 68.2554 21.247V21.4308C68.2554 21.6024 68.2003 21.7433 68.09 21.8536C67.9797 21.9639 67.805 22.0191 67.566 22.0191ZM66.9778 22.7176H68.1543V27.5156H66.9778V22.7176ZM69.518 27.5156V22.7176H70.6945V23.5173H70.7405C70.8386 23.2599 70.9917 23.0455 71.2001 22.8739C71.4146 22.6962 71.7087 22.6073 72.0825 22.6073C72.5788 22.6073 72.9587 22.7697 73.2222 23.0945C73.4857 23.4192 73.6175 23.8819 73.6175 24.4824V27.5156H72.4409V24.6019C72.4409 24.2587 72.3797 24.0014 72.2571 23.8298C72.1346 23.6582 71.9323 23.5724 71.6505 23.5724C71.5279 23.5724 71.4084 23.5908 71.292 23.6276C71.1817 23.6582 71.0806 23.7073 70.9887 23.7747C70.9029 23.8359 70.8324 23.9156 70.7773 24.0136C70.7221 24.1056 70.6945 24.2159 70.6945 24.3445V27.5156H69.518ZM79.2509 27.9201C79.2509 28.1713 79.2049 28.3919 79.113 28.5818C79.0272 28.7779 78.8832 28.9403 78.681 29.069C78.4788 29.1977 78.2184 29.2957 77.8997 29.3631C77.5811 29.4305 77.192 29.4642 76.7324 29.4642C76.328 29.4642 75.9848 29.4367 75.7029 29.3815C75.4211 29.3325 75.1882 29.259 75.0044 29.1609C74.8267 29.069 74.698 28.9526 74.6183 28.8116C74.5387 28.6707 74.4988 28.5114 74.4988 28.3337C74.4988 28.0641 74.5724 27.8526 74.7194 27.6995C74.8726 27.5524 75.084 27.4574 75.3537 27.4145V27.3134C75.1576 27.2644 75.0044 27.1694 74.8941 27.0285C74.7899 26.8814 74.7378 26.7098 74.7378 26.5137C74.7378 26.3912 74.7623 26.284 74.8114 26.192C74.8604 26.094 74.9247 26.0113 75.0044 25.9439C75.0902 25.8765 75.1852 25.8213 75.2893 25.7784C75.3935 25.7294 75.5038 25.6926 75.6202 25.6681V25.6314C75.3261 25.4965 75.1055 25.3096 74.9584 25.0707C74.8175 24.8317 74.747 24.5529 74.747 24.2342C74.747 23.744 74.9155 23.3518 75.2526 23.0577C75.5896 22.7575 76.0829 22.6073 76.7324 22.6073C76.8795 22.6073 77.0235 22.6165 77.1644 22.6349C77.3115 22.6533 77.4463 22.6839 77.5688 22.7268V22.5706C77.5688 22.1049 77.7956 21.872 78.249 21.872H78.9935V22.7728H77.9733V22.9015C78.2245 23.0424 78.4114 23.2262 78.5339 23.453C78.6565 23.6797 78.7178 23.9401 78.7178 24.2342C78.7178 24.7183 78.5493 25.1074 78.2122 25.4016C77.8813 25.6957 77.3881 25.8428 76.7324 25.8428C76.4505 25.8428 76.2054 25.8152 75.9971 25.76C75.9052 25.8029 75.8255 25.8611 75.7581 25.9347C75.6907 26.0021 75.657 26.0879 75.657 26.192C75.657 26.431 75.8653 26.5505 76.282 26.5505H77.5688C78.1571 26.5505 78.583 26.6731 78.8465 26.9182C79.1161 27.1572 79.2509 27.4911 79.2509 27.9201ZM78.1479 28.0579C78.1479 27.9047 78.0866 27.7852 77.9641 27.6995C77.8415 27.6137 77.6301 27.5708 77.3299 27.5708H75.6938C75.5283 27.6933 75.4456 27.8588 75.4456 28.0671C75.4456 28.251 75.5222 28.395 75.6754 28.4991C75.8286 28.6033 76.089 28.6554 76.4567 28.6554H77.0449C77.431 28.6554 77.7098 28.6064 77.8813 28.5083C78.059 28.4103 78.1479 28.2601 78.1479 28.0579ZM76.7324 25.0431C77.3084 25.0431 77.5964 24.798 77.5964 24.3078V24.1515C77.5964 23.6613 77.3084 23.4162 76.7324 23.4162C76.1564 23.4162 75.8684 23.6613 75.8684 24.1515V24.3078C75.8684 24.798 76.1564 25.0431 76.7324 25.0431ZM81.5021 27.6259C81.0425 27.6259 80.6565 27.5493 80.344 27.3961C80.0315 27.2368 79.7557 27.0193 79.5167 26.7435L80.2337 26.045C80.4114 26.2472 80.6044 26.4065 80.8127 26.5229C81.0272 26.6394 81.2723 26.6976 81.5481 26.6976C81.8299 26.6976 82.0322 26.6486 82.1547 26.5505C82.2834 26.4525 82.3477 26.3177 82.3477 26.1461C82.3477 26.0051 82.3018 25.8948 82.2099 25.8152C82.1241 25.7294 81.9739 25.6712 81.7595 25.6405L81.2815 25.5762C80.7607 25.5088 80.3624 25.3617 80.0866 25.135C79.817 24.9022 79.6822 24.5651 79.6822 24.1239C79.6822 23.8911 79.7251 23.6827 79.8109 23.4989C79.8966 23.309 80.0192 23.1496 80.1785 23.0209C80.3378 22.8861 80.5278 22.785 80.7484 22.7176C80.9751 22.6441 81.2264 22.6073 81.5021 22.6073C81.735 22.6073 81.9402 22.6257 82.1179 22.6625C82.3018 22.6931 82.4672 22.7421 82.6143 22.8095C82.7614 22.8708 82.8962 22.9505 83.0187 23.0485C83.1413 23.1404 83.2608 23.2446 83.3772 23.361L82.6878 24.0504C82.5469 23.9033 82.3784 23.7808 82.1823 23.6827C81.9862 23.5847 81.7717 23.5357 81.5389 23.5357C81.2815 23.5357 81.0946 23.5816 80.9782 23.6736C80.8679 23.7655 80.8127 23.885 80.8127 24.032C80.8127 24.1913 80.8587 24.3139 80.9506 24.3997C81.0487 24.4793 81.211 24.5376 81.4378 24.5743L81.9249 24.6387C82.9605 24.7857 83.4783 25.2576 83.4783 26.0542C83.4783 26.287 83.4293 26.5015 83.3312 26.6976C83.2393 26.8875 83.1076 27.053 82.936 27.1939C82.7644 27.3287 82.5561 27.436 82.311 27.5156C82.072 27.5892 81.8024 27.6259 81.5021 27.6259Z" fill="#495057"/>
<path d="M16.2143 46.3431C15.867 46.3431 15.5709 46.2777 15.3257 46.147C15.0806 46.0122 14.8723 45.8283 14.7007 45.5955L15.0806 45.2768C15.2318 45.477 15.3993 45.6302 15.5831 45.7364C15.7669 45.8385 15.9835 45.8896 16.2327 45.8896C16.539 45.8896 16.7719 45.8161 16.9312 45.669C17.0946 45.522 17.1763 45.3259 17.1763 45.0808C17.1763 44.8765 17.115 44.7192 16.9925 44.6089C16.8699 44.4986 16.6677 44.4108 16.3858 44.3454L16.0366 44.2658C15.6444 44.1759 15.3441 44.0411 15.1358 43.8613C14.9315 43.6775 14.8294 43.4201 14.8294 43.0892C14.8294 42.9013 14.8641 42.7338 14.9336 42.5868C15.003 42.4397 15.099 42.3172 15.2216 42.2191C15.3482 42.1211 15.4973 42.0475 15.6689 41.9985C15.8446 41.9454 16.0366 41.9189 16.2449 41.9189C16.5676 41.9189 16.8434 41.9781 17.0721 42.0966C17.305 42.215 17.5011 42.3886 17.6604 42.6174L17.2744 42.8993C17.1559 42.7359 17.0129 42.6072 16.8454 42.5132C16.6779 42.4193 16.4696 42.3723 16.2204 42.3723C15.9467 42.3723 15.7302 42.4315 15.5709 42.55C15.4156 42.6644 15.338 42.838 15.338 43.0709C15.338 43.2751 15.4034 43.4304 15.5341 43.5366C15.6689 43.6387 15.8711 43.7204 16.1407 43.7817L16.49 43.8613C16.9108 43.9553 17.2151 44.0983 17.403 44.2903C17.591 44.4823 17.6849 44.7376 17.6849 45.0562C17.6849 45.2523 17.6502 45.43 17.5807 45.5894C17.5154 45.7487 17.4194 45.8835 17.2927 45.9938C17.1661 46.1041 17.0109 46.1899 16.827 46.2511C16.6473 46.3124 16.443 46.3431 16.2143 46.3431ZM18.5738 46.2695V41.9924H21.1842V42.4458H19.0885V43.8797H21.0616V44.3332H19.0885V45.8161H21.1842V46.2695H18.5738ZM22.1463 46.2695V41.9924H23.8498C24.2338 41.9924 24.5279 42.1027 24.7322 42.3233C24.9405 42.5398 25.0447 42.838 25.0447 43.2179C25.0447 43.5978 24.9405 43.8981 24.7322 44.1187C24.5279 44.3352 24.2338 44.4435 23.8498 44.4435H22.661V46.2695H22.1463ZM22.661 43.99H23.8498C24.054 43.99 24.2113 43.9369 24.3216 43.8307C24.436 43.7245 24.4932 43.5733 24.4932 43.3773V43.0586C24.4932 42.8625 24.436 42.7114 24.3216 42.6052C24.2113 42.4989 24.054 42.4458 23.8498 42.4458H22.661V43.99ZM27.1083 46.2695V45.8406H27.7088V42.4213H27.1083V41.9924H28.8241V42.4213H28.2236V45.8406H28.8241V46.2695H27.1083ZM30.2788 46.2695H29.764V41.9924H31.4675C31.8434 41.9924 32.1355 42.0966 32.3438 42.3049C32.5562 42.5132 32.6624 42.8135 32.6624 43.2057C32.6624 43.5202 32.5889 43.7796 32.4418 43.9839C32.2989 44.1841 32.0864 44.3168 31.8046 44.3822L32.785 46.2695H32.2029L31.2776 44.4312H30.2788V46.2695ZM31.4675 43.99C31.6718 43.99 31.8291 43.9369 31.9394 43.8307C32.0537 43.7245 32.1109 43.5733 32.1109 43.3773V43.0586C32.1109 42.8625 32.0537 42.7114 31.9394 42.6052C31.8291 42.4989 31.6718 42.4458 31.4675 42.4458H30.2788V43.99H31.4675ZM36.3614 46.2695L35.9325 45.0072H34.2045L33.7755 46.2695H33.2547L34.7498 41.9924H35.4055L36.9007 46.2695H36.3614ZM35.0807 42.4703H35.0501L34.327 44.5538H35.8038L35.0807 42.4703Z" fill="#495057"/>
<path d="M137.5 46.772V46.2695C137.19 46.2491 136.926 46.1735 136.71 46.0428C136.497 45.908 136.315 45.7405 136.164 45.5403L136.526 45.2156C136.657 45.3912 136.8 45.5322 136.955 45.6384C137.114 45.7405 137.298 45.8059 137.506 45.8345V44.2596C137.086 44.1657 136.777 44.0288 136.581 43.8491C136.389 43.6653 136.293 43.414 136.293 43.0954C136.293 42.932 136.322 42.7869 136.379 42.6603C136.44 42.5296 136.524 42.4172 136.63 42.3233C136.736 42.2293 136.863 42.1558 137.01 42.1027C137.157 42.0455 137.32 42.0087 137.5 41.9924V41.4899H137.88V41.9863C138.158 42.0108 138.397 42.0823 138.597 42.2007C138.801 42.3151 138.977 42.4744 139.124 42.6787L138.75 42.9606C138.648 42.8176 138.526 42.7012 138.383 42.6113C138.24 42.5173 138.07 42.4561 137.874 42.4275V43.8613L137.929 43.8736C138.354 43.9676 138.662 44.1064 138.854 44.2903C139.05 44.47 139.149 44.7213 139.149 45.044C139.149 45.3953 139.034 45.6792 138.805 45.8957C138.581 46.1082 138.272 46.2328 137.88 46.2695V46.772H137.5ZM138.664 45.0746C138.664 44.8663 138.603 44.707 138.481 44.5967C138.362 44.4864 138.16 44.3965 137.874 44.327V45.8345C138.119 45.8018 138.311 45.7201 138.45 45.5894C138.593 45.4545 138.664 45.283 138.664 45.0746ZM136.777 43.0586C136.777 43.267 136.836 43.4242 136.955 43.5304C137.077 43.6326 137.261 43.7163 137.506 43.7817V42.4275C137.286 42.4561 137.108 42.5235 136.973 42.6297C136.842 42.7359 136.777 42.8789 136.777 43.0586ZM144.008 42.4458H142.133L142.01 44.0758H142.053C142.155 43.9328 142.269 43.8184 142.396 43.7327C142.527 43.6469 142.705 43.604 142.929 43.604C143.113 43.604 143.283 43.6346 143.438 43.6959C143.593 43.7572 143.728 43.845 143.842 43.9594C143.957 44.0697 144.044 44.2065 144.106 44.3699C144.171 44.5333 144.204 44.7192 144.204 44.9276C144.204 45.1359 144.171 45.3279 144.106 45.5036C144.04 45.6751 143.944 45.8243 143.818 45.9509C143.695 46.0734 143.544 46.1694 143.364 46.2389C143.189 46.3083 142.988 46.3431 142.764 46.3431C142.584 46.3431 142.425 46.3226 142.286 46.2818C142.151 46.2409 142.031 46.1858 141.924 46.1163C141.818 46.0469 141.724 45.9693 141.642 45.8835C141.565 45.7977 141.493 45.7078 141.428 45.6139L141.814 45.3197C141.867 45.4055 141.922 45.4831 141.979 45.5526C142.041 45.622 142.106 45.6813 142.176 45.7303C142.249 45.7793 142.333 45.8181 142.427 45.8467C142.521 45.8712 142.633 45.8835 142.764 45.8835C143.058 45.8835 143.281 45.8059 143.432 45.6506C143.583 45.4954 143.658 45.2768 143.658 44.995V44.9337C143.658 44.6518 143.583 44.4333 143.432 44.278C143.281 44.1228 143.058 44.0452 142.764 44.0452C142.568 44.0452 142.412 44.0819 142.298 44.1555C142.188 44.2249 142.088 44.3087 141.998 44.4067L141.563 44.3454L141.716 41.9924H144.008V42.4458ZM147.682 42.4458H145.807L145.684 44.0758H145.727C145.829 43.9328 145.944 43.8184 146.07 43.7327C146.201 43.6469 146.379 43.604 146.603 43.604C146.787 43.604 146.957 43.6346 147.112 43.6959C147.267 43.7572 147.402 43.845 147.517 43.9594C147.631 44.0697 147.719 44.2065 147.78 44.3699C147.845 44.5333 147.878 44.7192 147.878 44.9276C147.878 45.1359 147.845 45.3279 147.78 45.5036C147.715 45.6751 147.619 45.8243 147.492 45.9509C147.369 46.0734 147.218 46.1694 147.039 46.2389C146.863 46.3083 146.663 46.3431 146.438 46.3431C146.258 46.3431 146.099 46.3226 145.96 46.2818C145.825 46.2409 145.705 46.1858 145.599 46.1163C145.492 46.0469 145.398 45.9693 145.317 45.8835C145.239 45.7977 145.168 45.7078 145.102 45.6139L145.488 45.3197C145.541 45.4055 145.596 45.4831 145.654 45.5526C145.715 45.622 145.78 45.6813 145.85 45.7303C145.923 45.7793 146.007 45.8181 146.101 45.8467C146.195 45.8712 146.307 45.8835 146.438 45.8835C146.732 45.8835 146.955 45.8059 147.106 45.6506C147.257 45.4954 147.333 45.2768 147.333 44.995V44.9337C147.333 44.6518 147.257 44.4333 147.106 44.278C146.955 44.1228 146.732 44.0452 146.438 44.0452C146.242 44.0452 146.087 44.0819 145.972 44.1555C145.862 44.2249 145.762 44.3087 145.672 44.4067L145.237 44.3454L145.39 41.9924H147.682V42.4458ZM148.844 46.2695V45.8161H150.039V42.3723H149.996L148.917 43.3773L148.617 43.0525L149.751 41.9924H150.553V45.8161H151.656V46.2695H148.844ZM152.812 46.3431C152.681 46.3431 152.585 46.3104 152.524 46.245C152.467 46.1797 152.438 46.0939 152.438 45.9877V45.908C152.438 45.8018 152.467 45.716 152.524 45.6506C152.585 45.5853 152.681 45.5526 152.812 45.5526C152.943 45.5526 153.037 45.5853 153.094 45.6506C153.155 45.716 153.186 45.8018 153.186 45.908V45.9877C153.186 46.0939 153.155 46.1797 153.094 46.245C153.037 46.3104 152.943 46.3431 152.812 46.3431ZM156.914 43.5611C156.914 43.8797 156.867 44.18 156.774 44.4619C156.68 44.7396 156.557 44.995 156.406 45.2278C156.259 45.4566 156.095 45.6608 155.916 45.8406C155.736 46.0163 155.56 46.1592 155.389 46.2695H154.727C154.956 46.102 155.16 45.9386 155.34 45.7793C155.519 45.62 155.677 45.4545 155.811 45.283C155.946 45.1073 156.061 44.9214 156.155 44.7253C156.249 44.5252 156.324 44.3005 156.381 44.0513L156.351 44.039C156.249 44.2147 156.116 44.3618 155.952 44.4802C155.793 44.5946 155.583 44.6518 155.321 44.6518C155.137 44.6518 154.968 44.6212 154.813 44.5599C154.657 44.4986 154.525 44.4108 154.414 44.2964C154.304 44.182 154.216 44.0452 154.151 43.8859C154.09 43.7224 154.059 43.5386 154.059 43.3344C154.059 43.126 154.092 42.9361 154.157 42.7645C154.226 42.5888 154.322 42.4397 154.445 42.3172C154.572 42.1905 154.721 42.0925 154.892 42.023C155.068 41.9536 155.264 41.9189 155.481 41.9189C155.701 41.9189 155.899 41.9577 156.075 42.0353C156.255 42.1088 156.406 42.2171 156.528 42.3601C156.655 42.4989 156.751 42.6705 156.816 42.8748C156.882 43.079 156.914 43.3078 156.914 43.5611ZM155.487 44.2167C155.769 44.2167 155.987 44.1391 156.142 43.9839C156.302 43.8287 156.381 43.606 156.381 43.316V43.267C156.381 42.9769 156.302 42.7543 156.142 42.599C155.987 42.4438 155.769 42.3662 155.487 42.3662C155.205 42.3662 154.984 42.4438 154.825 42.599C154.67 42.7543 154.592 42.9769 154.592 43.267V43.316C154.592 43.606 154.67 43.8287 154.825 43.9839C154.984 44.1391 155.205 44.2167 155.487 44.2167ZM160.589 46.2695H157.782V45.7425L159.179 44.4557C159.379 44.2719 159.547 44.0779 159.682 43.8736C159.817 43.6653 159.884 43.4569 159.884 43.2486V43.175C159.884 42.9381 159.819 42.7461 159.688 42.599C159.557 42.452 159.359 42.3784 159.094 42.3784C158.963 42.3784 158.848 42.3968 158.75 42.4336C158.652 42.4703 158.567 42.5214 158.493 42.5868C158.424 42.6521 158.364 42.7298 158.315 42.8196C158.27 42.9054 158.234 42.9994 158.205 43.1015L157.745 42.9238C157.786 42.7972 157.841 42.6746 157.911 42.5561C157.984 42.4336 158.074 42.3253 158.18 42.2314C158.291 42.1374 158.422 42.0618 158.573 42.0046C158.728 41.9475 158.91 41.9189 159.118 41.9189C159.326 41.9189 159.512 41.9495 159.676 42.0108C159.839 42.072 159.976 42.1578 160.086 42.2681C160.197 42.3784 160.28 42.5092 160.337 42.6603C160.399 42.8115 160.429 42.9789 160.429 43.1628C160.429 43.3303 160.405 43.4855 160.356 43.6285C160.311 43.7715 160.248 43.9083 160.166 44.039C160.084 44.1657 159.984 44.2903 159.866 44.4128C159.751 44.5354 159.627 44.6579 159.492 44.7805L158.34 45.8161H160.589V46.2695Z" fill="#495057"/>
<mask id="path-6-inside-1_316_4311" fill="white">
<path d="M9.19141 54.5195H167.081V69.4011H9.19141V54.5195Z"/>
</mask>
<path d="M167.081 68.9634H9.19141V69.8388H167.081V68.9634Z" fill="#E9E9EF" mask="url(#path-6-inside-1_316_4311)"/>
<g clip-path="url(#clip0_316_4311)">
<rect x="14.4434" y="59.7734" width="147.385" height="4.37694" rx="1.75077" fill="#F6F6F6"/>
<rect width="147.385" height="4.37694" transform="translate(14.4434 59.7734)" fill="#5156BE"/>
</g>
<path d="M17.691 83.1808H15.528V85.1172H15.0132V80.84H15.528V82.7274H17.691V80.84H18.2058V85.1172H17.691V83.1808ZM20.5468 85.1907C20.1995 85.1907 19.9033 85.1254 19.6582 84.9946C19.4131 84.8598 19.2048 84.676 19.0332 84.4431L19.4131 84.1245C19.5643 84.3247 19.7318 84.4779 19.9156 84.5841C20.0994 84.6862 20.3159 84.7373 20.5651 84.7373C20.8715 84.7373 21.1044 84.6637 21.2637 84.5167C21.4271 84.3696 21.5088 84.1735 21.5088 83.9284C21.5088 83.7242 21.4475 83.5669 21.325 83.4566C21.2024 83.3463 21.0002 83.2584 20.7183 83.1931L20.369 83.1134C19.9769 83.0236 19.6766 82.8887 19.4683 82.709C19.264 82.5252 19.1619 82.2678 19.1619 81.9369C19.1619 81.749 19.1966 81.5815 19.2661 81.4344C19.3355 81.2874 19.4315 81.1648 19.5541 81.0668C19.6807 80.9687 19.8298 80.8952 20.0014 80.8462C20.177 80.7931 20.369 80.7665 20.5774 80.7665C20.9001 80.7665 21.1759 80.8257 21.4046 80.9442C21.6375 81.0627 21.8336 81.2363 21.9929 81.4651L21.6068 81.7469C21.4884 81.5835 21.3454 81.4549 21.1779 81.3609C21.0104 81.2669 20.8021 81.22 20.5529 81.22C20.2792 81.22 20.0627 81.2792 19.9033 81.3977C19.7481 81.5121 19.6705 81.6857 19.6705 81.9185C19.6705 82.1228 19.7359 82.278 19.8666 82.3842C20.0014 82.4864 20.2036 82.5681 20.4732 82.6293L20.8225 82.709C21.2433 82.803 21.5476 82.9459 21.7355 83.1379C21.9234 83.3299 22.0174 83.5853 22.0174 83.9039C22.0174 84.1 21.9827 84.2777 21.9132 84.437C21.8479 84.5963 21.7519 84.7311 21.6252 84.8414C21.4986 84.9517 21.3434 85.0375 21.1595 85.0988C20.9798 85.1601 20.7755 85.1907 20.5468 85.1907ZM25.5841 85.1172L25.1551 83.8549H23.4271L22.9982 85.1172H22.4773L23.9725 80.84H24.6281L26.1233 85.1172H25.5841ZM24.3034 81.318H24.2727L23.5497 83.4014H25.0264L24.3034 81.318Z" fill="#495057"/>
<path d="M137.5 85.6197V85.1172C137.19 85.0968 136.926 85.0212 136.71 84.8905C136.497 84.7557 136.315 84.5882 136.164 84.388L136.526 84.0632C136.657 84.2389 136.8 84.3798 136.955 84.486C137.114 84.5882 137.298 84.6535 137.506 84.6821V83.1073C137.086 83.0133 136.777 82.8765 136.581 82.6967C136.389 82.5129 136.293 82.2617 136.293 81.943C136.293 81.7796 136.322 81.6346 136.379 81.508C136.44 81.3772 136.524 81.2649 136.63 81.1709C136.736 81.077 136.863 81.0035 137.01 80.9503C137.157 80.8932 137.32 80.8564 137.5 80.84V80.3376H137.88V80.8339C138.158 80.8584 138.397 80.9299 138.597 81.0484C138.801 81.1628 138.977 81.3221 139.124 81.5263L138.75 81.8082C138.648 81.6652 138.526 81.5488 138.383 81.4589C138.24 81.365 138.07 81.3037 137.874 81.2751V82.709L137.929 82.7213C138.354 82.8152 138.662 82.9541 138.854 83.1379C139.05 83.3177 139.149 83.5689 139.149 83.8916C139.149 84.243 139.034 84.5269 138.805 84.7434C138.581 84.9558 138.272 85.0804 137.88 85.1172V85.6197H137.5ZM138.664 83.9223C138.664 83.7139 138.603 83.5546 138.481 83.4443C138.362 83.334 138.16 83.2442 137.874 83.1747V84.6821C138.119 84.6494 138.311 84.5677 138.45 84.437C138.593 84.3022 138.664 84.1306 138.664 83.9223ZM136.777 81.9063C136.777 82.1146 136.836 82.2719 136.955 82.3781C137.077 82.4802 137.261 82.564 137.506 82.6293V81.2751C137.286 81.3037 137.108 81.3711 136.973 81.4773C136.842 81.5835 136.777 81.7265 136.777 81.9063ZM144.008 81.2935H142.133L142.01 82.9235H142.053C142.155 82.7805 142.269 82.6661 142.396 82.5803C142.527 82.4945 142.705 82.4516 142.929 82.4516C143.113 82.4516 143.283 82.4823 143.438 82.5435C143.593 82.6048 143.728 82.6927 143.842 82.807C143.957 82.9173 144.044 83.0542 144.106 83.2176C144.171 83.381 144.204 83.5669 144.204 83.7752C144.204 83.9836 144.171 84.1756 144.106 84.3512C144.04 84.5228 143.944 84.6719 143.818 84.7985C143.695 84.9211 143.544 85.0171 143.364 85.0865C143.189 85.156 142.988 85.1907 142.764 85.1907C142.584 85.1907 142.425 85.1703 142.286 85.1294C142.151 85.0886 142.031 85.0334 141.924 84.964C141.818 84.8945 141.724 84.8169 141.642 84.7311C141.565 84.6454 141.493 84.5555 141.428 84.4615L141.814 84.1674C141.867 84.2532 141.922 84.3308 141.979 84.4002C142.041 84.4697 142.106 84.5289 142.176 84.5779C142.249 84.627 142.333 84.6658 142.427 84.6944C142.521 84.7189 142.633 84.7311 142.764 84.7311C143.058 84.7311 143.281 84.6535 143.432 84.4983C143.583 84.3431 143.658 84.1245 143.658 83.8426V83.7813C143.658 83.4995 143.583 83.2809 143.432 83.1257C143.281 82.9704 143.058 82.8928 142.764 82.8928C142.568 82.8928 142.412 82.9296 142.298 83.0031C142.188 83.0726 142.088 83.1563 141.998 83.2544L141.563 83.1931L141.716 80.84H144.008V81.2935ZM147.682 81.2935H145.807L145.684 82.9235H145.727C145.829 82.7805 145.944 82.6661 146.07 82.5803C146.201 82.4945 146.379 82.4516 146.603 82.4516C146.787 82.4516 146.957 82.4823 147.112 82.5435C147.267 82.6048 147.402 82.6927 147.517 82.807C147.631 82.9173 147.719 83.0542 147.78 83.2176C147.845 83.381 147.878 83.5669 147.878 83.7752C147.878 83.9836 147.845 84.1756 147.78 84.3512C147.715 84.5228 147.619 84.6719 147.492 84.7985C147.369 84.9211 147.218 85.0171 147.039 85.0865C146.863 85.156 146.663 85.1907 146.438 85.1907C146.258 85.1907 146.099 85.1703 145.96 85.1294C145.825 85.0886 145.705 85.0334 145.599 84.964C145.492 84.8945 145.398 84.8169 145.317 84.7311C145.239 84.6454 145.168 84.5555 145.102 84.4615L145.488 84.1674C145.541 84.2532 145.596 84.3308 145.654 84.4002C145.715 84.4697 145.78 84.5289 145.85 84.5779C145.923 84.627 146.007 84.6658 146.101 84.6944C146.195 84.7189 146.307 84.7311 146.438 84.7311C146.732 84.7311 146.955 84.6535 147.106 84.4983C147.257 84.3431 147.333 84.1245 147.333 83.8426V83.7813C147.333 83.4995 147.257 83.2809 147.106 83.1257C146.955 82.9704 146.732 82.8928 146.438 82.8928C146.242 82.8928 146.087 82.9296 145.972 83.0031C145.862 83.0726 145.762 83.1563 145.672 83.2544L145.237 83.1931L145.39 80.84H147.682V81.2935ZM148.844 85.1172V84.6637H150.039V81.22H149.996L148.917 82.2249L148.617 81.9001L149.751 80.84H150.553V84.6637H151.656V85.1172H148.844ZM152.812 85.1907C152.681 85.1907 152.585 85.158 152.524 85.0927C152.467 85.0273 152.438 84.9415 152.438 84.8353V84.7557C152.438 84.6494 152.467 84.5637 152.524 84.4983C152.585 84.4329 152.681 84.4002 152.812 84.4002C152.943 84.4002 153.037 84.4329 153.094 84.4983C153.155 84.5637 153.186 84.6494 153.186 84.7557V84.8353C153.186 84.9415 153.155 85.0273 153.094 85.0927C153.037 85.158 152.943 85.1907 152.812 85.1907ZM156.914 82.4087C156.914 82.7274 156.867 83.0276 156.774 83.3095C156.68 83.5873 156.557 83.8426 156.406 84.0755C156.259 84.3042 156.095 84.5085 155.916 84.6882C155.736 84.8639 155.56 85.0069 155.389 85.1172H154.727C154.956 84.9497 155.16 84.7863 155.34 84.627C155.519 84.4677 155.677 84.3022 155.811 84.1306C155.946 83.955 156.061 83.7691 156.155 83.573C156.249 83.3728 156.324 83.1481 156.381 82.899L156.351 82.8867C156.249 83.0624 156.116 83.2094 155.952 83.3279C155.793 83.4423 155.583 83.4995 155.321 83.4995C155.137 83.4995 154.968 83.4688 154.813 83.4076C154.657 83.3463 154.525 83.2584 154.414 83.1441C154.304 83.0297 154.216 82.8928 154.151 82.7335C154.09 82.5701 154.059 82.3863 154.059 82.182C154.059 81.9737 154.092 81.7837 154.157 81.6121C154.226 81.4365 154.322 81.2874 154.445 81.1648C154.572 81.0382 154.721 80.9401 154.892 80.8707C155.068 80.8012 155.264 80.7665 155.481 80.7665C155.701 80.7665 155.899 80.8053 156.075 80.8829C156.255 80.9565 156.406 81.0647 156.528 81.2077C156.655 81.3466 156.751 81.5182 156.816 81.7224C156.882 81.9267 156.914 82.1555 156.914 82.4087ZM155.487 83.0644C155.769 83.0644 155.987 82.9868 156.142 82.8316C156.302 82.6763 156.381 82.4537 156.381 82.1636V82.1146C156.381 81.8246 156.302 81.6019 156.142 81.4467C155.987 81.2915 155.769 81.2138 155.487 81.2138C155.205 81.2138 154.984 81.2915 154.825 81.4467C154.67 81.6019 154.592 81.8246 154.592 82.1146V82.1636C154.592 82.4537 154.67 82.6763 154.825 82.8316C154.984 82.9868 155.205 83.0644 155.487 83.0644ZM160.589 85.1172H157.782V84.5902L159.179 83.3034C159.379 83.1196 159.547 82.9255 159.682 82.7213C159.817 82.5129 159.884 82.3046 159.884 82.0962V82.0227C159.884 81.7858 159.819 81.5938 159.688 81.4467C159.557 81.2996 159.359 81.2261 159.094 81.2261C158.963 81.2261 158.848 81.2445 158.75 81.2812C158.652 81.318 158.567 81.3691 158.493 81.4344C158.424 81.4998 158.364 81.5774 158.315 81.6673C158.27 81.7531 158.234 81.847 158.205 81.9492L157.745 81.7715C157.786 81.6448 157.841 81.5223 157.911 81.4038C157.984 81.2812 158.074 81.173 158.18 81.079C158.291 80.9851 158.422 80.9095 158.573 80.8523C158.728 80.7951 158.91 80.7665 159.118 80.7665C159.326 80.7665 159.512 80.7972 159.676 80.8584C159.839 80.9197 159.976 81.0055 160.086 81.1158C160.197 81.2261 160.28 81.3568 160.337 81.508C160.399 81.6591 160.429 81.8266 160.429 82.0104C160.429 82.1779 160.405 82.3332 160.356 82.4761C160.311 82.6191 160.248 82.756 160.166 82.8867C160.084 83.0133 159.984 83.1379 159.866 83.2605C159.751 83.383 159.627 83.5056 159.492 83.6282L158.34 84.6637H160.589V85.1172Z" fill="#495057"/>
<mask id="path-11-inside-2_316_4311" fill="white">
<path d="M9.19141 92.5586H167.081V107.44H9.19141V92.5586Z"/>
</mask>
<path d="M167.081 107.002H9.19141V107.878H167.081V107.002Z" fill="#E9E9EF" mask="url(#path-11-inside-2_316_4311)"/>
<g clip-path="url(#clip1_316_4311)">
<rect x="14.4434" y="97.8125" width="147.385" height="4.37694" rx="1.75077" fill="#F6F6F6"/>
<rect width="147.385" height="4.37694" transform="translate(14.4434 97.8125)" fill="#3AB67A"/>
</g>
<path d="M15.528 123.195H15.0132V118.918H16.7167C17.0926 118.918 17.3847 119.022 17.593 119.231C17.8054 119.439 17.9116 119.739 17.9116 120.131C17.9116 120.446 17.8381 120.705 17.691 120.91C17.5481 121.11 17.3356 121.243 17.0538 121.308L18.0342 123.195H17.4521L16.5268 121.357H15.528V123.195ZM16.7167 120.916C16.921 120.916 17.0783 120.863 17.1886 120.756C17.303 120.65 17.3602 120.499 17.3602 120.303V119.984C17.3602 119.788 17.303 119.637 17.1886 119.531C17.0783 119.425 16.921 119.372 16.7167 119.372H15.528V120.916H16.7167ZM19.9889 123.269C19.7765 123.269 19.5825 123.23 19.4068 123.152C19.2311 123.075 19.08 122.965 18.9534 122.822C18.8308 122.674 18.7348 122.501 18.6654 122.301C18.5959 122.096 18.5612 121.868 18.5612 121.614C18.5612 121.365 18.5959 121.138 18.6654 120.934C18.7348 120.73 18.8308 120.556 18.9534 120.413C19.08 120.266 19.2311 120.154 19.4068 120.076C19.5825 119.999 19.7765 119.96 19.9889 119.96C20.2014 119.96 20.3934 119.999 20.5649 120.076C20.7406 120.154 20.8918 120.266 21.0184 120.413C21.145 120.556 21.2431 120.73 21.3125 120.934C21.382 121.138 21.4167 121.365 21.4167 121.614C21.4167 121.868 21.382 122.096 21.3125 122.301C21.2431 122.501 21.145 122.674 21.0184 122.822C20.8918 122.965 20.7406 123.075 20.5649 123.152C20.3934 123.23 20.2014 123.269 19.9889 123.269ZM19.9889 122.834C20.2545 122.834 20.471 122.752 20.6385 122.589C20.806 122.425 20.8897 122.176 20.8897 121.841V121.388C20.8897 121.053 20.806 120.803 20.6385 120.64C20.471 120.477 20.2545 120.395 19.9889 120.395C19.7234 120.395 19.5069 120.477 19.3394 120.64C19.1719 120.803 19.0882 121.053 19.0882 121.388V121.841C19.0882 122.176 19.1719 122.425 19.3394 122.589C19.5069 122.752 19.7234 122.834 19.9889 122.834ZM22.7438 123.195C22.5722 123.195 22.4415 123.148 22.3516 123.054C22.2658 122.956 22.2229 122.834 22.2229 122.687V118.661H22.7131V122.766H23.1788V123.195H22.7438ZM25.0874 123.269C24.875 123.269 24.6809 123.23 24.5053 123.152C24.3296 123.075 24.1784 122.965 24.0518 122.822C23.9292 122.674 23.8332 122.501 23.7638 122.301C23.6944 122.096 23.6596 121.868 23.6596 121.614C23.6596 121.365 23.6944 121.138 23.7638 120.934C23.8332 120.73 23.9292 120.556 24.0518 120.413C24.1784 120.266 24.3296 120.154 24.5053 120.076C24.6809 119.999 24.875 119.96 25.0874 119.96C25.2998 119.96 25.4918 119.999 25.6634 120.076C25.8391 120.154 25.9902 120.266 26.1168 120.413C26.2435 120.556 26.3415 120.73 26.411 120.934C26.4804 121.138 26.5151 121.365 26.5151 121.614C26.5151 121.868 26.4804 122.096 26.411 122.301C26.3415 122.501 26.2435 122.674 26.1168 122.822C25.9902 122.965 25.8391 123.075 25.6634 123.152C25.4918 123.23 25.2998 123.269 25.0874 123.269ZM25.0874 122.834C25.3529 122.834 25.5694 122.752 25.7369 122.589C25.9044 122.425 25.9882 122.176 25.9882 121.841V121.388C25.9882 121.053 25.9044 120.803 25.7369 120.64C25.5694 120.477 25.3529 120.395 25.0874 120.395C24.8219 120.395 24.6053 120.477 24.4378 120.64C24.2704 120.803 24.1866 121.053 24.1866 121.388V121.841C24.1866 122.176 24.2704 122.425 24.4378 122.589C24.6053 122.752 24.8219 122.834 25.0874 122.834ZM27.9721 123.195L26.8629 120.033H27.3532L27.9046 121.602L28.2478 122.681H28.2784L28.6216 121.602L29.1853 120.033H29.6572L28.5419 123.195H27.9721ZM31.4304 123.269C31.2139 123.269 31.0178 123.23 30.8421 123.152C30.6705 123.075 30.5214 122.965 30.3948 122.822C30.2722 122.674 30.1762 122.501 30.1068 122.301C30.0414 122.096 30.0088 121.868 30.0088 121.614C30.0088 121.365 30.0414 121.138 30.1068 120.934C30.1762 120.73 30.2722 120.556 30.3948 120.413C30.5214 120.266 30.6705 120.154 30.8421 120.076C31.0178 119.999 31.2139 119.96 31.4304 119.96C31.6428 119.96 31.8328 119.999 32.0003 120.076C32.1678 120.154 32.3107 120.262 32.4292 120.401C32.5477 120.536 32.6375 120.697 32.6988 120.885C32.7642 121.073 32.7969 121.279 32.7969 121.504V121.737H30.5235V121.884C30.5235 122.019 30.5439 122.145 30.5848 122.264C30.6297 122.378 30.691 122.478 30.7686 122.564C30.8503 122.65 30.9483 122.717 31.0627 122.766C31.1812 122.815 31.314 122.84 31.461 122.84C31.6612 122.84 31.8348 122.793 31.9819 122.699C32.133 122.605 32.2495 122.47 32.3312 122.295L32.6804 122.546C32.5783 122.762 32.419 122.938 32.2025 123.073C31.986 123.203 31.7286 123.269 31.4304 123.269ZM31.4304 120.37C31.2956 120.37 31.173 120.395 31.0627 120.444C30.9524 120.489 30.8564 120.554 30.7747 120.64C30.6971 120.726 30.6358 120.828 30.5909 120.946C30.5459 121.061 30.5235 121.187 30.5235 121.326V121.369H32.2699V121.302C32.2699 121.02 32.1923 120.795 32.037 120.628C31.8859 120.456 31.6837 120.37 31.4304 120.37ZM33.6047 123.195V120.033H34.0949V120.616H34.1255C34.1827 120.464 34.2848 120.33 34.4319 120.211C34.579 120.093 34.7812 120.033 35.0386 120.033H35.2285V120.524H34.9405C34.675 120.524 34.4666 120.575 34.3155 120.677C34.1684 120.775 34.0949 120.899 34.0949 121.051V123.195H33.6047ZM37.1496 123.195V122.766H37.7502V119.347H37.1496V118.918H38.8654V119.347H38.2649V122.766H38.8654V123.195H37.1496ZM40.3201 123.195H39.8053V118.918H41.5088C41.8847 118.918 42.1768 119.022 42.3851 119.231C42.5975 119.439 42.7037 119.739 42.7037 120.131C42.7037 120.446 42.6302 120.705 42.4831 120.91C42.3402 121.11 42.1277 121.243 41.8459 121.308L42.8263 123.195H42.2442L41.3189 121.357H40.3201V123.195ZM41.5088 120.916C41.7131 120.916 41.8704 120.863 41.9807 120.756C42.0951 120.65 42.1522 120.499 42.1522 120.303V119.984C42.1522 119.788 42.0951 119.637 41.9807 119.531C41.8704 119.425 41.7131 119.372 41.5088 119.372H40.3201V120.916H41.5088ZM46.4027 123.195L45.9738 121.933H44.2458L43.8168 123.195H43.296L44.7911 118.918H45.4468L46.942 123.195H46.4027ZM45.122 119.396H45.0914L44.3683 121.48H45.8451L45.122 119.396Z" fill="#495057"/>
<path d="M137.5 123.698V123.195C137.19 123.175 136.926 123.099 136.71 122.969C136.497 122.834 136.315 122.666 136.164 122.466L136.526 122.141C136.657 122.317 136.8 122.458 136.955 122.564C137.114 122.666 137.298 122.732 137.506 122.76V121.185C137.086 121.091 136.777 120.955 136.581 120.775C136.389 120.591 136.293 120.34 136.293 120.021C136.293 119.858 136.322 119.713 136.379 119.586C136.44 119.455 136.524 119.343 136.63 119.249C136.736 119.155 136.863 119.082 137.01 119.028C137.157 118.971 137.32 118.935 137.5 118.918V118.416H137.88V118.912C138.158 118.937 138.397 119.008 138.597 119.127C138.801 119.241 138.977 119.4 139.124 119.604L138.75 119.886C138.648 119.743 138.526 119.627 138.383 119.537C138.24 119.443 138.07 119.382 137.874 119.353V120.787L137.929 120.799C138.354 120.893 138.662 121.032 138.854 121.216C139.05 121.396 139.149 121.647 139.149 121.97C139.149 122.321 139.034 122.605 138.805 122.822C138.581 123.034 138.272 123.159 137.88 123.195V123.698H137.5ZM138.664 122C138.664 121.792 138.603 121.633 138.481 121.522C138.362 121.412 138.16 121.322 137.874 121.253V122.76C138.119 122.728 138.311 122.646 138.45 122.515C138.593 122.38 138.664 122.209 138.664 122ZM136.777 119.984C136.777 120.193 136.836 120.35 136.955 120.456C137.077 120.558 137.261 120.642 137.506 120.707V119.353C137.286 119.382 137.108 119.449 136.973 119.555C136.842 119.662 136.777 119.805 136.777 119.984ZM144.008 119.372H142.133L142.01 121.002H142.053C142.155 120.859 142.269 120.744 142.396 120.658C142.527 120.573 142.705 120.53 142.929 120.53C143.113 120.53 143.283 120.56 143.438 120.622C143.593 120.683 143.728 120.771 143.842 120.885C143.957 120.995 144.044 121.132 144.106 121.296C144.171 121.459 144.204 121.645 144.204 121.853C144.204 122.062 144.171 122.254 144.106 122.429C144.04 122.601 143.944 122.75 143.818 122.877C143.695 122.999 143.544 123.095 143.364 123.165C143.189 123.234 142.988 123.269 142.764 123.269C142.584 123.269 142.425 123.248 142.286 123.208C142.151 123.167 142.031 123.112 141.924 123.042C141.818 122.973 141.724 122.895 141.642 122.809C141.565 122.723 141.493 122.634 141.428 122.54L141.814 122.246C141.867 122.331 141.922 122.409 141.979 122.478C142.041 122.548 142.106 122.607 142.176 122.656C142.249 122.705 142.333 122.744 142.427 122.773C142.521 122.797 142.633 122.809 142.764 122.809C143.058 122.809 143.281 122.732 143.432 122.576C143.583 122.421 143.658 122.203 143.658 121.921V121.859C143.658 121.578 143.583 121.359 143.432 121.204C143.281 121.049 143.058 120.971 142.764 120.971C142.568 120.971 142.412 121.008 142.298 121.081C142.188 121.151 142.088 121.234 141.998 121.332L141.563 121.271L141.716 118.918H144.008V119.372ZM147.682 119.372H145.807L145.684 121.002H145.727C145.829 120.859 145.944 120.744 146.07 120.658C146.201 120.573 146.379 120.53 146.603 120.53C146.787 120.53 146.957 120.56 147.112 120.622C147.267 120.683 147.402 120.771 147.517 120.885C147.631 120.995 147.719 121.132 147.78 121.296C147.845 121.459 147.878 121.645 147.878 121.853C147.878 122.062 147.845 122.254 147.78 122.429C147.715 122.601 147.619 122.75 147.492 122.877C147.369 122.999 147.218 123.095 147.039 123.165C146.863 123.234 146.663 123.269 146.438 123.269C146.258 123.269 146.099 123.248 145.96 123.208C145.825 123.167 145.705 123.112 145.599 123.042C145.492 122.973 145.398 122.895 145.317 122.809C145.239 122.723 145.168 122.634 145.102 122.54L145.488 122.246C145.541 122.331 145.596 122.409 145.654 122.478C145.715 122.548 145.78 122.607 145.85 122.656C145.923 122.705 146.007 122.744 146.101 122.773C146.195 122.797 146.307 122.809 146.438 122.809C146.732 122.809 146.955 122.732 147.106 122.576C147.257 122.421 147.333 122.203 147.333 121.921V121.859C147.333 121.578 147.257 121.359 147.106 121.204C146.955 121.049 146.732 120.971 146.438 120.971C146.242 120.971 146.087 121.008 145.972 121.081C145.862 121.151 145.762 121.234 145.672 121.332L145.237 121.271L145.39 118.918H147.682V119.372ZM148.844 123.195V122.742H150.039V119.298H149.996L148.917 120.303L148.617 119.978L149.751 118.918H150.553V122.742H151.656V123.195H148.844ZM152.812 123.269C152.681 123.269 152.585 123.236 152.524 123.171C152.467 123.105 152.438 123.02 152.438 122.913V122.834C152.438 122.728 152.467 122.642 152.524 122.576C152.585 122.511 152.681 122.478 152.812 122.478C152.943 122.478 153.037 122.511 153.094 122.576C153.155 122.642 153.186 122.728 153.186 122.834V122.913C153.186 123.02 153.155 123.105 153.094 123.171C153.037 123.236 152.943 123.269 152.812 123.269ZM156.914 120.487C156.914 120.806 156.867 121.106 156.774 121.388C156.68 121.665 156.557 121.921 156.406 122.154C156.259 122.382 156.095 122.587 155.916 122.766C155.736 122.942 155.56 123.085 155.389 123.195H154.727C154.956 123.028 155.16 122.864 155.34 122.705C155.519 122.546 155.677 122.38 155.811 122.209C155.946 122.033 156.061 121.847 156.155 121.651C156.249 121.451 156.324 121.226 156.381 120.977L156.351 120.965C156.249 121.14 156.116 121.288 155.952 121.406C155.793 121.52 155.583 121.578 155.321 121.578C155.137 121.578 154.968 121.547 154.813 121.486C154.657 121.424 154.525 121.337 154.414 121.222C154.304 121.108 154.216 120.971 154.151 120.812C154.09 120.648 154.059 120.464 154.059 120.26C154.059 120.052 154.092 119.862 154.157 119.69C154.226 119.515 154.322 119.365 154.445 119.243C154.572 119.116 154.721 119.018 154.892 118.949C155.068 118.879 155.264 118.845 155.481 118.845C155.701 118.845 155.899 118.883 156.075 118.961C156.255 119.035 156.406 119.143 156.528 119.286C156.655 119.425 156.751 119.596 156.816 119.801C156.882 120.005 156.914 120.234 156.914 120.487ZM155.487 121.143C155.769 121.143 155.987 121.065 156.142 120.91C156.302 120.754 156.381 120.532 156.381 120.242V120.193C156.381 119.903 156.302 119.68 156.142 119.525C155.987 119.37 155.769 119.292 155.487 119.292C155.205 119.292 154.984 119.37 154.825 119.525C154.67 119.68 154.592 119.903 154.592 120.193V120.242C154.592 120.532 154.67 120.754 154.825 120.91C154.984 121.065 155.205 121.143 155.487 121.143ZM160.589 123.195H157.782V122.668L159.179 121.382C159.379 121.198 159.547 121.004 159.682 120.799C159.817 120.591 159.884 120.383 159.884 120.174V120.101C159.884 119.864 159.819 119.672 159.688 119.525C159.557 119.378 159.359 119.304 159.094 119.304C158.963 119.304 158.848 119.323 158.75 119.359C158.652 119.396 158.567 119.447 158.493 119.513C158.424 119.578 158.364 119.656 158.315 119.745C158.27 119.831 158.234 119.925 158.205 120.027L157.745 119.85C157.786 119.723 157.841 119.6 157.911 119.482C157.984 119.359 158.074 119.251 158.18 119.157C158.291 119.063 158.422 118.988 158.573 118.93C158.728 118.873 158.91 118.845 159.118 118.845C159.326 118.845 159.512 118.875 159.676 118.937C159.839 118.998 159.976 119.084 160.086 119.194C160.197 119.304 160.28 119.435 160.337 119.586C160.399 119.737 160.429 119.905 160.429 120.089C160.429 120.256 160.405 120.411 160.356 120.554C160.311 120.697 160.248 120.834 160.166 120.965C160.084 121.091 159.984 121.216 159.866 121.339C159.751 121.461 159.627 121.584 159.492 121.706L158.34 122.742H160.589V123.195Z" fill="#495057"/>
<mask id="path-16-inside-3_316_4311" fill="white">
<path d="M9.19141 130.637H167.081V145.518H9.19141V130.637Z"/>
</mask>
<path d="M167.081 145.081H9.19141V145.956H167.081V145.081Z" fill="#E9E9EF" mask="url(#path-16-inside-3_316_4311)"/>
<g clip-path="url(#clip2_316_4311)">
<rect x="14.4434" y="135.891" width="147.385" height="4.37694" rx="1.75077" fill="#F6F6F6"/>
<rect width="147.385" height="4.37694" transform="translate(14.4434 135.891)" fill="#F1CF24"/>
</g>
<path d="M17.691 159.337H15.528V161.273H15.0132V156.996H15.528V158.884H17.691V156.996H18.2058V161.273H17.691V159.337ZM20.5468 161.347C20.1995 161.347 19.9033 161.282 19.6582 161.151C19.4131 161.016 19.2048 160.832 19.0332 160.599L19.4131 160.281C19.5643 160.481 19.7318 160.634 19.9156 160.74C20.0994 160.842 20.3159 160.894 20.5651 160.894C20.8715 160.894 21.1044 160.82 21.2637 160.673C21.4271 160.526 21.5088 160.33 21.5088 160.085C21.5088 159.88 21.4475 159.723 21.325 159.613C21.2024 159.503 21.0002 159.415 20.7183 159.349L20.369 159.27C19.9769 159.18 19.6766 159.045 19.4683 158.865C19.264 158.681 19.1619 158.424 19.1619 158.093C19.1619 157.905 19.1966 157.738 19.2661 157.591C19.3355 157.444 19.4315 157.321 19.5541 157.223C19.6807 157.125 19.8298 157.051 20.0014 157.002C20.177 156.949 20.369 156.923 20.5774 156.923C20.9001 156.923 21.1759 156.982 21.4046 157.1C21.6375 157.219 21.8336 157.393 21.9929 157.621L21.6068 157.903C21.4884 157.74 21.3454 157.611 21.1779 157.517C21.0104 157.423 20.8021 157.376 20.5529 157.376C20.2792 157.376 20.0627 157.435 19.9033 157.554C19.7481 157.668 19.6705 157.842 19.6705 158.075C19.6705 158.279 19.7359 158.434 19.8666 158.54C20.0014 158.643 20.2036 158.724 20.4732 158.786L20.8225 158.865C21.2433 158.959 21.5476 159.102 21.7355 159.294C21.9234 159.486 22.0174 159.742 22.0174 160.06C22.0174 160.256 21.9827 160.434 21.9132 160.593C21.8479 160.753 21.7519 160.887 21.6252 160.998C21.4986 161.108 21.3434 161.194 21.1595 161.255C20.9798 161.316 20.7755 161.347 20.5468 161.347ZM25.5841 161.273L25.1551 160.011H23.4271L22.9982 161.273H22.4773L23.9725 156.996H24.6281L26.1233 161.273H25.5841ZM24.3034 157.474H24.2727L23.5497 159.558H25.0264L24.3034 157.474Z" fill="#495057"/>
<path d="M137.5 161.776V161.273C137.19 161.253 136.926 161.177 136.71 161.047C136.497 160.912 136.315 160.744 136.164 160.544L136.526 160.219C136.657 160.395 136.8 160.536 136.955 160.642C137.114 160.744 137.298 160.81 137.506 160.838V159.264C137.086 159.17 136.777 159.033 136.581 158.853C136.389 158.669 136.293 158.418 136.293 158.099C136.293 157.936 136.322 157.791 136.379 157.664C136.44 157.533 136.524 157.421 136.63 157.327C136.736 157.233 136.863 157.16 137.01 157.107C137.157 157.049 137.32 157.013 137.5 156.996V156.494H137.88V156.99C138.158 157.015 138.397 157.086 138.597 157.205C138.801 157.319 138.977 157.478 139.124 157.683L138.75 157.964C138.648 157.821 138.526 157.705 138.383 157.615C138.24 157.521 138.07 157.46 137.874 157.431V158.865L137.929 158.878C138.354 158.971 138.662 159.11 138.854 159.294C139.05 159.474 139.149 159.725 139.149 160.048C139.149 160.399 139.034 160.683 138.805 160.9C138.581 161.112 138.272 161.237 137.88 161.273V161.776H137.5ZM138.664 160.079C138.664 159.87 138.603 159.711 138.481 159.601C138.362 159.49 138.16 159.4 137.874 159.331V160.838C138.119 160.806 138.311 160.724 138.45 160.593C138.593 160.458 138.664 160.287 138.664 160.079ZM136.777 158.063C136.777 158.271 136.836 158.428 136.955 158.534C137.077 158.636 137.261 158.72 137.506 158.786V157.431C137.286 157.46 137.108 157.527 136.973 157.634C136.842 157.74 136.777 157.883 136.777 158.063ZM144.008 157.45H142.133L142.01 159.08H142.053C142.155 158.937 142.269 158.822 142.396 158.737C142.527 158.651 142.705 158.608 142.929 158.608C143.113 158.608 143.283 158.639 143.438 158.7C143.593 158.761 143.728 158.849 143.842 158.963C143.957 159.074 144.044 159.21 144.106 159.374C144.171 159.537 144.204 159.723 144.204 159.931C144.204 160.14 144.171 160.332 144.106 160.507C144.04 160.679 143.944 160.828 143.818 160.955C143.695 161.077 143.544 161.173 143.364 161.243C143.189 161.312 142.988 161.347 142.764 161.347C142.584 161.347 142.425 161.327 142.286 161.286C142.151 161.245 142.031 161.19 141.924 161.12C141.818 161.051 141.724 160.973 141.642 160.887C141.565 160.802 141.493 160.712 141.428 160.618L141.814 160.324C141.867 160.409 141.922 160.487 141.979 160.556C142.041 160.626 142.106 160.685 142.176 160.734C142.249 160.783 142.333 160.822 142.427 160.851C142.521 160.875 142.633 160.887 142.764 160.887C143.058 160.887 143.281 160.81 143.432 160.655C143.583 160.499 143.658 160.281 143.658 159.999V159.938C143.658 159.656 143.583 159.437 143.432 159.282C143.281 159.127 143.058 159.049 142.764 159.049C142.568 159.049 142.412 159.086 142.298 159.159C142.188 159.229 142.088 159.313 141.998 159.411L141.563 159.349L141.716 156.996H144.008V157.45ZM147.682 157.45H145.807L145.684 159.08H145.727C145.829 158.937 145.944 158.822 146.07 158.737C146.201 158.651 146.379 158.608 146.603 158.608C146.787 158.608 146.957 158.639 147.112 158.7C147.267 158.761 147.402 158.849 147.517 158.963C147.631 159.074 147.719 159.21 147.78 159.374C147.845 159.537 147.878 159.723 147.878 159.931C147.878 160.14 147.845 160.332 147.78 160.507C147.715 160.679 147.619 160.828 147.492 160.955C147.369 161.077 147.218 161.173 147.039 161.243C146.863 161.312 146.663 161.347 146.438 161.347C146.258 161.347 146.099 161.327 145.96 161.286C145.825 161.245 145.705 161.19 145.599 161.12C145.492 161.051 145.398 160.973 145.317 160.887C145.239 160.802 145.168 160.712 145.102 160.618L145.488 160.324C145.541 160.409 145.596 160.487 145.654 160.556C145.715 160.626 145.78 160.685 145.85 160.734C145.923 160.783 146.007 160.822 146.101 160.851C146.195 160.875 146.307 160.887 146.438 160.887C146.732 160.887 146.955 160.81 147.106 160.655C147.257 160.499 147.333 160.281 147.333 159.999V159.938C147.333 159.656 147.257 159.437 147.106 159.282C146.955 159.127 146.732 159.049 146.438 159.049C146.242 159.049 146.087 159.086 145.972 159.159C145.862 159.229 145.762 159.313 145.672 159.411L145.237 159.349L145.39 156.996H147.682V157.45ZM148.844 161.273V160.82H150.039V157.376H149.996L148.917 158.381L148.617 158.056L149.751 156.996H150.553V160.82H151.656V161.273H148.844ZM152.812 161.347C152.681 161.347 152.585 161.314 152.524 161.249C152.467 161.184 152.438 161.098 152.438 160.992V160.912C152.438 160.806 152.467 160.72 152.524 160.655C152.585 160.589 152.681 160.556 152.812 160.556C152.943 160.556 153.037 160.589 153.094 160.655C153.155 160.72 153.186 160.806 153.186 160.912V160.992C153.186 161.098 153.155 161.184 153.094 161.249C153.037 161.314 152.943 161.347 152.812 161.347ZM156.914 158.565C156.914 158.884 156.867 159.184 156.774 159.466C156.68 159.744 156.557 159.999 156.406 160.232C156.259 160.46 156.095 160.665 155.916 160.844C155.736 161.02 155.56 161.163 155.389 161.273H154.727C154.956 161.106 155.16 160.943 155.34 160.783C155.519 160.624 155.677 160.458 155.811 160.287C155.946 160.111 156.061 159.925 156.155 159.729C156.249 159.529 156.324 159.304 156.381 159.055L156.351 159.043C156.249 159.219 156.116 159.366 155.952 159.484C155.793 159.599 155.583 159.656 155.321 159.656C155.137 159.656 154.968 159.625 154.813 159.564C154.657 159.503 154.525 159.415 154.414 159.3C154.304 159.186 154.216 159.049 154.151 158.89C154.09 158.726 154.059 158.543 154.059 158.338C154.059 158.13 154.092 157.94 154.157 157.768C154.226 157.593 154.322 157.444 154.445 157.321C154.572 157.194 154.721 157.096 154.892 157.027C155.068 156.957 155.264 156.923 155.481 156.923C155.701 156.923 155.899 156.962 156.075 157.039C156.255 157.113 156.406 157.221 156.528 157.364C156.655 157.503 156.751 157.674 156.816 157.879C156.882 158.083 156.914 158.312 156.914 158.565ZM155.487 159.221C155.769 159.221 155.987 159.143 156.142 158.988C156.302 158.833 156.381 158.61 156.381 158.32V158.271C156.381 157.981 156.302 157.758 156.142 157.603C155.987 157.448 155.769 157.37 155.487 157.37C155.205 157.37 154.984 157.448 154.825 157.603C154.67 157.758 154.592 157.981 154.592 158.271V158.32C154.592 158.61 154.67 158.833 154.825 158.988C154.984 159.143 155.205 159.221 155.487 159.221ZM160.589 161.273H157.782V160.746L159.179 159.46C159.379 159.276 159.547 159.082 159.682 158.878C159.817 158.669 159.884 158.461 159.884 158.252V158.179C159.884 157.942 159.819 157.75 159.688 157.603C159.557 157.456 159.359 157.382 159.094 157.382C158.963 157.382 158.848 157.401 158.75 157.437C158.652 157.474 158.567 157.525 158.493 157.591C158.424 157.656 158.364 157.734 158.315 157.824C158.27 157.909 158.234 158.003 158.205 158.105L157.745 157.928C157.786 157.801 157.841 157.679 157.911 157.56C157.984 157.437 158.074 157.329 158.18 157.235C158.291 157.141 158.422 157.066 158.573 157.009C158.728 156.951 158.91 156.923 159.118 156.923C159.326 156.923 159.512 156.953 159.676 157.015C159.839 157.076 159.976 157.162 160.086 157.272C160.197 157.382 160.28 157.513 160.337 157.664C160.399 157.815 160.429 157.983 160.429 158.167C160.429 158.334 160.405 158.489 160.356 158.632C160.311 158.775 160.248 158.912 160.166 159.043C160.084 159.17 159.984 159.294 159.866 159.417C159.751 159.539 159.627 159.662 159.492 159.784L158.34 160.82H160.589V161.273Z" fill="#495057"/>
<mask id="path-21-inside-4_316_4311" fill="white">
<path d="M9.19141 168.715H167.081V183.596H9.19141V168.715Z"/>
</mask>
<path d="M167.081 183.159H9.19141V184.034H167.081V183.159Z" fill="#E9E9EF" mask="url(#path-21-inside-4_316_4311)"/>
<g clip-path="url(#clip3_316_4311)">
<rect x="14.4434" y="173.969" width="147.385" height="4.37694" rx="1.75077" fill="#F6F6F6"/>
<rect width="147.385" height="4.37694" transform="translate(14.4434 173.969)" fill="#F7931A"/>
</g>
<path d="M16.4532 195.532V199.355H15.9385V195.532H14.5782V195.078H17.8136V195.532H16.4532ZM18.1956 199.355V196.194H18.6858V196.776H18.7165C18.7737 196.625 18.8758 196.49 19.0229 196.371C19.1699 196.253 19.3721 196.194 19.6295 196.194H19.8195V196.684H19.5315C19.2659 196.684 19.0576 196.735 18.9064 196.837C18.7594 196.935 18.6858 197.06 18.6858 197.211V199.355H18.1956ZM22.7196 199.355C22.5358 199.355 22.403 199.306 22.3213 199.208C22.2437 199.11 22.1947 198.988 22.1742 198.841H22.1436C22.0741 199.037 21.9598 199.184 21.8004 199.282C21.6411 199.38 21.4512 199.429 21.2306 199.429C20.8956 199.429 20.6341 199.343 20.4462 199.172C20.2624 199 20.1705 198.767 20.1705 198.473C20.1705 198.175 20.2787 197.946 20.4952 197.787C20.7158 197.627 21.0569 197.548 21.5186 197.548H22.1436V197.235C22.1436 197.011 22.0823 196.839 21.9598 196.721C21.8372 196.602 21.6493 196.543 21.396 196.543C21.204 196.543 21.0426 196.586 20.9119 196.672C20.7853 196.757 20.6791 196.872 20.5933 197.015L20.2992 196.739C20.3849 196.567 20.5218 196.422 20.7097 196.304C20.8976 196.181 21.1346 196.12 21.4205 196.12C21.8045 196.12 22.1027 196.214 22.3152 196.402C22.5276 196.59 22.6338 196.851 22.6338 197.186V198.927H22.9953V199.355H22.7196ZM21.3102 199.012C21.4328 199.012 21.5451 198.998 21.6473 198.969C21.7494 198.941 21.8372 198.9 21.9107 198.847C21.9843 198.794 22.0415 198.732 22.0823 198.663C22.1232 198.594 22.1436 198.518 22.1436 198.436V197.915H21.4941C21.2122 197.915 21.0059 197.956 20.8752 198.038C20.7485 198.12 20.6852 198.238 20.6852 198.393V198.522C20.6852 198.677 20.7403 198.798 20.8506 198.884C20.965 198.969 21.1182 199.012 21.3102 199.012ZM25.7172 198.841H25.6926C25.5006 199.233 25.1922 199.429 24.7674 199.429C24.5713 199.429 24.3936 199.39 24.2342 199.313C24.0749 199.235 23.9381 199.125 23.8237 198.982C23.7134 198.839 23.6276 198.665 23.5663 198.461C23.5091 198.257 23.4805 198.028 23.4805 197.775C23.4805 197.521 23.5091 197.292 23.5663 197.088C23.6276 196.884 23.7134 196.71 23.8237 196.567C23.9381 196.424 24.0749 196.314 24.2342 196.236C24.3936 196.159 24.5713 196.12 24.7674 196.12C24.988 196.12 25.1759 196.169 25.3311 196.267C25.4904 196.361 25.6109 196.508 25.6926 196.708H25.7172V194.821H26.2074V199.355H25.7172V198.841ZM24.9022 198.988C25.0125 198.988 25.1166 198.974 25.2147 198.945C25.3168 198.916 25.4046 198.875 25.4782 198.822C25.5517 198.765 25.6089 198.698 25.6497 198.62C25.6947 198.538 25.7172 198.447 25.7172 198.344V197.168C25.7172 197.082 25.6947 197.002 25.6497 196.929C25.6089 196.851 25.5517 196.786 25.4782 196.733C25.4046 196.68 25.3168 196.639 25.2147 196.61C25.1166 196.578 25.0125 196.561 24.9022 196.561C24.6244 196.561 24.4058 196.649 24.2465 196.825C24.0872 196.996 24.0075 197.223 24.0075 197.505V198.044C24.0075 198.326 24.0872 198.555 24.2465 198.73C24.4058 198.902 24.6244 198.988 24.9022 198.988ZM27.4947 195.452C27.3885 195.452 27.3108 195.428 27.2618 195.379C27.2169 195.325 27.1944 195.258 27.1944 195.176V195.097C27.1944 195.015 27.2169 194.95 27.2618 194.901C27.3108 194.848 27.3885 194.821 27.4947 194.821C27.6009 194.821 27.6765 194.848 27.7214 194.901C27.7704 194.95 27.7949 195.015 27.7949 195.097V195.176C27.7949 195.258 27.7704 195.325 27.7214 195.379C27.6765 195.428 27.6009 195.452 27.4947 195.452ZM27.2496 196.194H27.7398V199.355H27.2496V196.194ZM29.48 199.355C29.3085 199.355 29.1777 199.308 29.0879 199.215C29.0021 199.116 28.9592 198.99 28.9592 198.835V196.623H28.4383V196.194H28.7325C28.8387 196.194 28.9102 196.173 28.9469 196.132C28.9878 196.087 29.0082 196.012 29.0082 195.906V195.317H29.4494V196.194H30.1418V196.623H29.4494V198.927H30.0928V199.355H29.48ZM31.1749 195.452C31.0687 195.452 30.9911 195.428 30.942 195.379C30.8971 195.325 30.8746 195.258 30.8746 195.176V195.097C30.8746 195.015 30.8971 194.95 30.942 194.901C30.9911 194.848 31.0687 194.821 31.1749 194.821C31.2811 194.821 31.3567 194.848 31.4016 194.901C31.4506 194.95 31.4751 195.015 31.4751 195.097V195.176C31.4751 195.258 31.4506 195.325 31.4016 195.379C31.3567 195.428 31.2811 195.452 31.1749 195.452ZM30.9298 196.194H31.42V199.355H30.9298V196.194ZM33.6566 199.429C33.4442 199.429 33.2501 199.39 33.0745 199.313C32.8988 199.235 32.7477 199.125 32.621 198.982C32.4985 198.835 32.4025 198.661 32.333 198.461C32.2636 198.257 32.2289 198.028 32.2289 197.775C32.2289 197.525 32.2636 197.299 32.333 197.094C32.4025 196.89 32.4985 196.716 32.621 196.573C32.7477 196.426 32.8988 196.314 33.0745 196.236C33.2501 196.159 33.4442 196.12 33.6566 196.12C33.869 196.12 34.061 196.159 34.2326 196.236C34.4083 196.314 34.5594 196.426 34.6861 196.573C34.8127 196.716 34.9107 196.89 34.9802 197.094C35.0496 197.299 35.0844 197.525 35.0844 197.775C35.0844 198.028 35.0496 198.257 34.9802 198.461C34.9107 198.661 34.8127 198.835 34.6861 198.982C34.5594 199.125 34.4083 199.235 34.2326 199.313C34.061 199.39 33.869 199.429 33.6566 199.429ZM33.6566 198.994C33.9221 198.994 34.1387 198.912 34.3061 198.749C34.4736 198.585 34.5574 198.336 34.5574 198.001V197.548C34.5574 197.213 34.4736 196.964 34.3061 196.8C34.1387 196.637 33.9221 196.555 33.6566 196.555C33.3911 196.555 33.1746 196.637 33.0071 196.8C32.8396 196.964 32.7558 197.213 32.7558 197.548V198.001C32.7558 198.336 32.8396 198.585 33.0071 198.749C33.1746 198.912 33.3911 198.994 33.6566 198.994ZM35.8906 199.355V196.194H36.3808V196.708H36.4053C36.4829 196.529 36.5912 196.386 36.7301 196.279C36.8731 196.173 37.063 196.12 37.3 196.12C37.6268 196.12 37.8841 196.226 38.0721 196.439C38.2641 196.647 38.3601 196.943 38.3601 197.327V199.355H37.8698V197.413C37.8698 196.845 37.6309 196.561 37.1529 196.561C37.0549 196.561 36.9589 196.573 36.8649 196.598C36.775 196.623 36.6933 196.659 36.6198 196.708C36.5463 196.757 36.487 196.821 36.4421 196.898C36.4012 196.972 36.3808 197.06 36.3808 197.162V199.355H35.8906ZM41.6712 199.355C41.4874 199.355 41.3546 199.306 41.2729 199.208C41.1953 199.11 41.1463 198.988 41.1259 198.841H41.0952C41.0258 199.037 40.9114 199.184 40.7521 199.282C40.5927 199.38 40.4028 199.429 40.1822 199.429C39.8472 199.429 39.5858 199.343 39.3978 199.172C39.214 199 39.1221 198.767 39.1221 198.473C39.1221 198.175 39.2304 197.946 39.4469 197.787C39.6675 197.627 40.0086 197.548 40.4702 197.548H41.0952V197.235C41.0952 197.011 41.0339 196.839 40.9114 196.721C40.7888 196.602 40.6009 196.543 40.3476 196.543C40.1556 196.543 39.9943 196.586 39.8636 196.672C39.7369 196.757 39.6307 196.872 39.5449 197.015L39.2508 196.739C39.3366 196.567 39.4734 196.422 39.6613 196.304C39.8493 196.181 40.0862 196.12 40.3722 196.12C40.7562 196.12 41.0544 196.214 41.2668 196.402C41.4792 196.59 41.5854 196.851 41.5854 197.186V198.927H41.947V199.355H41.6712ZM40.2619 199.012C40.3844 199.012 40.4967 198.998 40.5989 198.969C40.701 198.941 40.7888 198.9 40.8624 198.847C40.9359 198.794 40.9931 198.732 41.0339 198.663C41.0748 198.594 41.0952 198.518 41.0952 198.436V197.915H40.4457C40.1638 197.915 39.9575 197.956 39.8268 198.038C39.7001 198.12 39.6368 198.238 39.6368 198.393V198.522C39.6368 198.677 39.692 198.798 39.8023 198.884C39.9167 198.969 40.0699 199.012 40.2619 199.012ZM43.1675 199.355C42.9959 199.355 42.8652 199.308 42.7753 199.215C42.6895 199.116 42.6466 198.994 42.6466 198.847V194.821H43.1368V198.927H43.6026V199.355H43.1675ZM45.6112 199.355V198.927H46.2117V195.507H45.6112V195.078H47.3269V195.507H46.7264V198.927H47.3269V199.355H45.6112ZM48.7816 199.355H48.2668V195.078H49.9703C50.3462 195.078 50.6383 195.182 50.8466 195.391C51.059 195.599 51.1653 195.899 51.1653 196.292C51.1653 196.606 51.0917 196.866 50.9447 197.07C50.8017 197.27 50.5892 197.403 50.3074 197.468L51.2878 199.355H50.7057L49.7804 197.517H48.7816V199.355ZM49.9703 197.076C50.1746 197.076 50.3319 197.023 50.4422 196.917C50.5566 196.81 50.6138 196.659 50.6138 196.463V196.145C50.6138 195.948 50.5566 195.797 50.4422 195.691C50.3319 195.585 50.1746 195.532 49.9703 195.532H48.7816V197.076H49.9703ZM54.8642 199.355L54.4353 198.093H52.7073L52.2783 199.355H51.7575L53.2526 195.078H53.9083L55.4035 199.355H54.8642ZM53.5835 195.556H53.5529L52.8298 197.64H54.3066L53.5835 195.556Z" fill="#495057"/>
<g clip-path="url(#clip4_316_4311)">
<path d="M64.1662 196.525C64.2933 196.525 64.4046 196.573 64.5 196.668C64.5954 196.764 64.643 196.875 64.643 197.002V199.386C64.643 199.514 64.5954 199.625 64.5 199.72C64.4046 199.816 64.2933 199.863 64.1662 199.863H61.305C61.1778 199.863 61.0666 199.816 60.9712 199.72C60.8758 199.625 60.8281 199.514 60.8281 199.386V197.002C60.8281 196.875 60.8758 196.764 60.9712 196.668C61.0666 196.573 61.1778 196.525 61.305 196.525H61.5434V196.048C61.5434 195.723 61.6607 195.442 61.8951 195.208C62.1296 194.973 62.4097 194.856 62.7356 194.856C63.0614 194.856 63.3416 194.973 63.5761 195.208C63.8105 195.442 63.9277 195.723 63.9277 196.048V196.525H64.1662ZM62.4018 198.552C62.4018 198.552 62.4256 198.576 62.4733 198.623C62.521 198.671 62.6084 198.695 62.7356 198.695C62.8627 198.695 62.974 198.647 63.0694 198.552C63.1648 198.457 63.2124 198.345 63.2124 198.218C63.2124 198.091 63.1648 197.98 63.0694 197.884C62.974 197.789 62.8627 197.741 62.7356 197.741C62.6084 197.741 62.4972 197.789 62.4018 197.884C62.3064 197.98 62.2587 198.091 62.2587 198.218C62.2587 198.345 62.3064 198.457 62.4018 198.552ZM63.4747 196.525V196.048C63.4747 195.842 63.4032 195.667 63.2601 195.524C63.1171 195.381 62.9422 195.309 62.7356 195.309C62.5289 195.309 62.3541 195.381 62.211 195.524C62.068 195.667 61.9964 195.842 61.9964 196.048V196.525H63.4747Z" fill="#495057"/>
</g>
<path d="M137.5 199.858V199.355C137.19 199.335 136.926 199.259 136.71 199.129C136.497 198.994 136.315 198.826 136.164 198.626L136.526 198.302C136.657 198.477 136.8 198.618 136.955 198.724C137.114 198.826 137.298 198.892 137.506 198.92V197.346C137.086 197.252 136.777 197.115 136.581 196.935C136.389 196.751 136.293 196.5 136.293 196.181C136.293 196.018 136.322 195.873 136.379 195.746C136.44 195.616 136.524 195.503 136.63 195.409C136.736 195.315 136.863 195.242 137.01 195.189C137.157 195.131 137.32 195.095 137.5 195.078V194.576H137.88V195.072C138.158 195.097 138.397 195.168 138.597 195.287C138.801 195.401 138.977 195.56 139.124 195.765L138.75 196.047C138.648 195.904 138.526 195.787 138.383 195.697C138.24 195.603 138.07 195.542 137.874 195.513V196.947L137.929 196.96C138.354 197.053 138.662 197.192 138.854 197.376C139.05 197.556 139.149 197.807 139.149 198.13C139.149 198.481 139.034 198.765 138.805 198.982C138.581 199.194 138.272 199.319 137.88 199.355V199.858H137.5ZM138.664 198.161C138.664 197.952 138.603 197.793 138.481 197.683C138.362 197.572 138.16 197.482 137.874 197.413V198.92C138.119 198.888 138.311 198.806 138.45 198.675C138.593 198.54 138.664 198.369 138.664 198.161ZM136.777 196.145C136.777 196.353 136.836 196.51 136.955 196.616C137.077 196.719 137.261 196.802 137.506 196.868V195.513C137.286 195.542 137.108 195.609 136.973 195.716C136.842 195.822 136.777 195.965 136.777 196.145ZM144.008 195.532H142.133L142.01 197.162H142.053C142.155 197.019 142.269 196.904 142.396 196.819C142.527 196.733 142.705 196.69 142.929 196.69C143.113 196.69 143.283 196.721 143.438 196.782C143.593 196.843 143.728 196.931 143.842 197.045C143.957 197.156 144.044 197.292 144.106 197.456C144.171 197.619 144.204 197.805 144.204 198.013C144.204 198.222 144.171 198.414 144.106 198.59C144.04 198.761 143.944 198.91 143.818 199.037C143.695 199.159 143.544 199.255 143.364 199.325C143.189 199.394 142.988 199.429 142.764 199.429C142.584 199.429 142.425 199.409 142.286 199.368C142.151 199.327 142.031 199.272 141.924 199.202C141.818 199.133 141.724 199.055 141.642 198.969C141.565 198.884 141.493 198.794 141.428 198.7L141.814 198.406C141.867 198.491 141.922 198.569 141.979 198.639C142.041 198.708 142.106 198.767 142.176 198.816C142.249 198.865 142.333 198.904 142.427 198.933C142.521 198.957 142.633 198.969 142.764 198.969C143.058 198.969 143.281 198.892 143.432 198.737C143.583 198.581 143.658 198.363 143.658 198.081V198.02C143.658 197.738 143.583 197.519 143.432 197.364C143.281 197.209 143.058 197.131 142.764 197.131C142.568 197.131 142.412 197.168 142.298 197.241C142.188 197.311 142.088 197.395 141.998 197.493L141.563 197.431L141.716 195.078H144.008V195.532ZM147.682 195.532H145.807L145.684 197.162H145.727C145.829 197.019 145.944 196.904 146.07 196.819C146.201 196.733 146.379 196.69 146.603 196.69C146.787 196.69 146.957 196.721 147.112 196.782C147.267 196.843 147.402 196.931 147.517 197.045C147.631 197.156 147.719 197.292 147.78 197.456C147.845 197.619 147.878 197.805 147.878 198.013C147.878 198.222 147.845 198.414 147.78 198.59C147.715 198.761 147.619 198.91 147.492 199.037C147.369 199.159 147.218 199.255 147.039 199.325C146.863 199.394 146.663 199.429 146.438 199.429C146.258 199.429 146.099 199.409 145.96 199.368C145.825 199.327 145.705 199.272 145.599 199.202C145.492 199.133 145.398 199.055 145.317 198.969C145.239 198.884 145.168 198.794 145.102 198.7L145.488 198.406C145.541 198.491 145.596 198.569 145.654 198.639C145.715 198.708 145.78 198.767 145.85 198.816C145.923 198.865 146.007 198.904 146.101 198.933C146.195 198.957 146.307 198.969 146.438 198.969C146.732 198.969 146.955 198.892 147.106 198.737C147.257 198.581 147.333 198.363 147.333 198.081V198.02C147.333 197.738 147.257 197.519 147.106 197.364C146.955 197.209 146.732 197.131 146.438 197.131C146.242 197.131 146.087 197.168 145.972 197.241C145.862 197.311 145.762 197.395 145.672 197.493L145.237 197.431L145.39 195.078H147.682V195.532ZM148.844 199.355V198.902H150.039V195.458H149.996L148.917 196.463L148.617 196.138L149.751 195.078H150.553V198.902H151.656V199.355H148.844ZM152.812 199.429C152.681 199.429 152.585 199.396 152.524 199.331C152.467 199.266 152.438 199.18 152.438 199.074V198.994C152.438 198.888 152.467 198.802 152.524 198.737C152.585 198.671 152.681 198.639 152.812 198.639C152.943 198.639 153.037 198.671 153.094 198.737C153.155 198.802 153.186 198.888 153.186 198.994V199.074C153.186 199.18 153.155 199.266 153.094 199.331C153.037 199.396 152.943 199.429 152.812 199.429ZM156.914 196.647C156.914 196.966 156.867 197.266 156.774 197.548C156.68 197.826 156.557 198.081 156.406 198.314C156.259 198.543 156.095 198.747 155.916 198.927C155.736 199.102 155.56 199.245 155.389 199.355H154.727C154.956 199.188 155.16 199.025 155.34 198.865C155.519 198.706 155.677 198.54 155.811 198.369C155.946 198.193 156.061 198.007 156.155 197.811C156.249 197.611 156.324 197.386 156.381 197.137L156.351 197.125C156.249 197.301 156.116 197.448 155.952 197.566C155.793 197.681 155.583 197.738 155.321 197.738C155.137 197.738 154.968 197.707 154.813 197.646C154.657 197.585 154.525 197.497 154.414 197.382C154.304 197.268 154.216 197.131 154.151 196.972C154.09 196.808 154.059 196.625 154.059 196.42C154.059 196.212 154.092 196.022 154.157 195.85C154.226 195.675 154.322 195.526 154.445 195.403C154.572 195.276 154.721 195.178 154.892 195.109C155.068 195.04 155.264 195.005 155.481 195.005C155.701 195.005 155.899 195.044 156.075 195.121C156.255 195.195 156.406 195.303 156.528 195.446C156.655 195.585 156.751 195.756 156.816 195.961C156.882 196.165 156.914 196.394 156.914 196.647ZM155.487 197.303C155.769 197.303 155.987 197.225 156.142 197.07C156.302 196.915 156.381 196.692 156.381 196.402V196.353C156.381 196.063 156.302 195.84 156.142 195.685C155.987 195.53 155.769 195.452 155.487 195.452C155.205 195.452 154.984 195.53 154.825 195.685C154.67 195.84 154.592 196.063 154.592 196.353V196.402C154.592 196.692 154.67 196.915 154.825 197.07C154.984 197.225 155.205 197.303 155.487 197.303ZM160.589 199.355H157.782V198.828L159.179 197.542C159.379 197.358 159.547 197.164 159.682 196.96C159.817 196.751 159.884 196.543 159.884 196.335V196.261C159.884 196.024 159.819 195.832 159.688 195.685C159.557 195.538 159.359 195.464 159.094 195.464C158.963 195.464 158.848 195.483 158.75 195.52C158.652 195.556 158.567 195.607 158.493 195.673C158.424 195.738 158.364 195.816 158.315 195.906C158.27 195.991 158.234 196.085 158.205 196.187L157.745 196.01C157.786 195.883 157.841 195.761 157.911 195.642C157.984 195.52 158.074 195.411 158.18 195.317C158.291 195.223 158.422 195.148 158.573 195.091C158.728 195.033 158.91 195.005 159.118 195.005C159.326 195.005 159.512 195.035 159.676 195.097C159.839 195.158 159.976 195.244 160.086 195.354C160.197 195.464 160.28 195.595 160.337 195.746C160.399 195.897 160.429 196.065 160.429 196.249C160.429 196.416 160.405 196.571 160.356 196.714C160.311 196.857 160.248 196.994 160.166 197.125C160.084 197.252 159.984 197.376 159.866 197.499C159.751 197.621 159.627 197.744 159.492 197.866L158.34 198.902H160.589V199.355Z" fill="#495057"/>
<mask id="path-27-inside-5_316_4311" fill="white">
<path d="M9.19141 206.797H167.081V221.678H9.19141V206.797Z"/>
</mask>
<path d="M167.081 221.241H9.19141V222.116H167.081V221.241Z" fill="#E9E9EF" mask="url(#path-27-inside-5_316_4311)"/>
<g clip-path="url(#clip5_316_4311)">
<rect x="14.4434" y="212.051" width="147.385" height="4.37694" rx="1.75077" fill="#F6F6F6"/>
<rect width="147.385" height="4.37694" transform="translate(14.4434 212.051)" fill="#627EEA"/>
</g>
<defs>
<clipPath id="clip0_316_4311">
<rect x="14.4434" y="59.7734" width="147.385" height="4.37694" rx="1.75077" fill="white"/>
</clipPath>
<clipPath id="clip1_316_4311">
<rect x="14.4434" y="97.8125" width="147.385" height="4.37694" rx="1.75077" fill="white"/>
</clipPath>
<clipPath id="clip2_316_4311">
<rect x="14.4434" y="135.891" width="147.385" height="4.37694" rx="1.75077" fill="white"/>
</clipPath>
<clipPath id="clip3_316_4311">
<rect x="14.4434" y="173.969" width="147.385" height="4.37694" rx="1.75077" fill="white"/>
</clipPath>
<clipPath id="clip4_316_4311">
<rect width="3.82982" height="6.12771" fill="white" transform="matrix(1 0 0 -1 60.8203 200.422)"/>
</clipPath>
<clipPath id="clip5_316_4311">
<rect x="14.4434" y="212.051" width="147.385" height="4.37694" rx="1.75077" fill="white"/>
</clipPath>
</defs>
</svg>
