<svg width="1200" height="329" viewBox="0 0 1200 329" fill="none" xmlns="http://www.w3.org/2000/svg">
<circle cx="1098.5" cy="415.07" r="460.5" fill="url(#paint0_linear_0_1)"/>
<circle cx="10.5" cy="-2.42969" r="116.5" fill="url(#paint1_linear_0_1)"/>
<circle cx="600" cy="357.57" r="214.5" stroke="#D0DBFF"/>
<circle cx="1126" cy="4.57031" r="137.5" stroke="#D0DBFF"/>
<rect x="860" y="142.57" width="5.46269" height="5.46269" rx="2.58729" fill="#7D97F1"/>
<rect x="881.852" y="142.57" width="5.46269" height="5.46269" rx="2.58729" fill="#7D97F1"/>
<rect x="903.703" y="142.57" width="5.46269" height="5.46269" rx="2.58729" fill="#7D97F1"/>
<rect x="925.555" y="142.57" width="5.46269" height="5.46269" rx="2.58729" fill="#7D97F1"/>
<rect x="947.406" y="142.57" width="5.46269" height="5.46269" rx="2.58729" fill="#7D97F1"/>
<rect x="969.25" y="142.57" width="5.46269" height="5.46269" rx="2.58729" fill="#7D97F1"/>
<rect x="991.109" y="142.57" width="5.46269" height="5.46269" rx="2.58729" fill="#7D97F1"/>
<rect x="1012.95" y="142.57" width="5.46269" height="5.46269" rx="2.58729" fill="#7D97F1"/>
<rect x="1034.8" y="142.57" width="5.46269" height="5.46269" rx="2.58729" fill="#7D97F1"/>
<rect x="1056.66" y="142.57" width="5.46269" height="5.46269" rx="2.58729" fill="#7D97F1"/>
<rect x="860" y="164.422" width="5.46269" height="5.46269" rx="2.58729" fill="#7D97F1"/>
<rect x="881.852" y="164.422" width="5.46269" height="5.46269" rx="2.58729" fill="#7D97F1"/>
<rect x="903.703" y="164.422" width="5.46269" height="5.46269" rx="2.58729" fill="#7D97F1"/>
<rect x="925.555" y="164.422" width="5.46269" height="5.46269" rx="2.58729" fill="#7D97F1"/>
<rect x="947.406" y="164.422" width="5.46269" height="5.46269" rx="2.58729" fill="#7D97F1"/>
<rect x="969.25" y="164.422" width="5.46269" height="5.46269" rx="2.58729" fill="#7D97F1"/>
<rect x="991.109" y="164.422" width="5.46269" height="5.46269" rx="2.58729" fill="#7D97F1"/>
<rect x="1012.95" y="164.422" width="5.46269" height="5.46269" rx="2.58729" fill="#7D97F1"/>
<rect x="1034.8" y="164.422" width="5.46269" height="5.46269" rx="2.58729" fill="#7D97F1"/>
<rect x="1056.66" y="164.422" width="5.46269" height="5.46269" rx="2.58729" fill="#7D97F1"/>
<rect x="860" y="186.273" width="5.46269" height="5.46269" rx="2.58729" fill="#7D97F1"/>
<rect x="881.852" y="186.273" width="5.46269" height="5.46269" rx="2.58729" fill="#7D97F1"/>
<rect x="903.703" y="186.273" width="5.46269" height="5.46269" rx="2.58729" fill="#7D97F1"/>
<rect x="925.555" y="186.273" width="5.46269" height="5.46269" rx="2.58729" fill="#7D97F1"/>
<rect x="947.406" y="186.273" width="5.46269" height="5.46269" rx="2.58729" fill="#7D97F1"/>
<rect x="969.25" y="186.273" width="5.46269" height="5.46269" rx="2.58729" fill="#7D97F1"/>
<rect x="991.109" y="186.273" width="5.46269" height="5.46269" rx="2.58729" fill="#7D97F1"/>
<rect x="1012.95" y="186.273" width="5.46269" height="5.46269" rx="2.58729" fill="#7D97F1"/>
<rect x="1034.8" y="186.273" width="5.46269" height="5.46269" rx="2.58729" fill="#7D97F1"/>
<rect x="1056.66" y="186.273" width="5.46269" height="5.46269" rx="2.58729" fill="#7D97F1"/>
<rect x="860" y="208.125" width="5.46269" height="5.46269" rx="2.58729" fill="#7D97F1"/>
<rect x="881.852" y="208.125" width="5.46269" height="5.46269" rx="2.58729" fill="#7D97F1"/>
<rect x="903.703" y="208.125" width="5.46269" height="5.46269" rx="2.58729" fill="#7D97F1"/>
<rect x="925.555" y="208.125" width="5.46269" height="5.46269" rx="2.58729" fill="#7D97F1"/>
<rect x="947.406" y="208.125" width="5.46269" height="5.46269" rx="2.58729" fill="#7D97F1"/>
<rect x="969.25" y="208.125" width="5.46269" height="5.46269" rx="2.58729" fill="#7D97F1"/>
<rect x="991.109" y="208.125" width="5.46269" height="5.46269" rx="2.58729" fill="#7D97F1"/>
<rect x="1012.95" y="208.125" width="5.46269" height="5.46269" rx="2.58729" fill="#7D97F1"/>
<rect x="1034.8" y="208.125" width="5.46269" height="5.46269" rx="2.58729" fill="#7D97F1"/>
<rect x="1056.66" y="208.125" width="5.46269" height="5.46269" rx="2.58729" fill="#7D97F1"/>
<rect x="860" y="229.973" width="5.46269" height="5.46269" rx="2.58729" fill="#7D97F1"/>
<rect x="881.852" y="229.973" width="5.46269" height="5.46269" rx="2.58729" fill="#7D97F1"/>
<rect x="903.703" y="229.973" width="5.46269" height="5.46269" rx="2.58729" fill="#7D97F1"/>
<rect x="925.555" y="229.973" width="5.46269" height="5.46269" rx="2.58729" fill="#7D97F1"/>
<rect x="947.406" y="229.973" width="5.46269" height="5.46269" rx="2.58729" fill="#7D97F1"/>
<rect x="969.25" y="229.973" width="5.46269" height="5.46269" rx="2.58729" fill="#7D97F1"/>
<rect x="991.109" y="229.973" width="5.46269" height="5.46269" rx="2.58729" fill="#7D97F1"/>
<rect x="1012.95" y="229.973" width="5.46269" height="5.46269" rx="2.58729" fill="#7D97F1"/>
<rect x="1034.8" y="229.973" width="5.46269" height="5.46269" rx="2.58729" fill="#7D97F1"/>
<rect x="1056.66" y="229.973" width="5.46269" height="5.46269" rx="2.58729" fill="#7D97F1"/>
<rect x="860" y="251.824" width="5.46269" height="5.46269" rx="2.58729" fill="#7D97F1"/>
<rect x="881.852" y="251.824" width="5.46269" height="5.46269" rx="2.58729" fill="#7D97F1"/>
<rect x="903.703" y="251.824" width="5.46269" height="5.46269" rx="2.58729" fill="#7D97F1"/>
<rect x="925.555" y="251.824" width="5.46269" height="5.46269" rx="2.58729" fill="#7D97F1"/>
<rect x="947.406" y="251.824" width="5.46269" height="5.46269" rx="2.58729" fill="#7D97F1"/>
<rect x="969.25" y="251.824" width="5.46269" height="5.46269" rx="2.58729" fill="#7D97F1"/>
<rect x="991.109" y="251.824" width="5.46269" height="5.46269" rx="2.58729" fill="#7D97F1"/>
<rect x="1012.95" y="251.824" width="5.46269" height="5.46269" rx="2.58729" fill="#7D97F1"/>
<rect x="1034.8" y="251.824" width="5.46269" height="5.46269" rx="2.58729" fill="#7D97F1"/>
<rect x="1056.66" y="251.824" width="5.46269" height="5.46269" rx="2.58729" fill="#7D97F1"/>
<rect x="860" y="273.676" width="5.46269" height="5.46269" rx="2.58729" fill="#7D97F1"/>
<rect x="860" y="294.75" width="5.46269" height="5.46269" rx="2.58729" fill="#7D97F1"/>
<rect x="860" y="315.824" width="5.46269" height="5.46269" rx="2.58729" fill="#7D97F1"/>
<rect x="881.852" y="273.676" width="5.46269" height="5.46269" rx="2.58729" fill="#7D97F1"/>
<rect x="881.852" y="294.75" width="5.46269" height="5.46269" rx="2.58729" fill="#7D97F1"/>
<rect x="881.852" y="315.824" width="5.46269" height="5.46269" rx="2.58729" fill="#7D97F1"/>
<rect x="903.703" y="273.676" width="5.46269" height="5.46269" rx="2.58729" fill="#7D97F1"/>
<rect x="903.703" y="294.75" width="5.46269" height="5.46269" rx="2.58729" fill="#7D97F1"/>
<rect x="903.703" y="315.824" width="5.46269" height="5.46269" rx="2.58729" fill="#7D97F1"/>
<rect x="925.555" y="273.676" width="5.46269" height="5.46269" rx="2.58729" fill="#7D97F1"/>
<rect x="925.555" y="294.75" width="5.46269" height="5.46269" rx="2.58729" fill="#7D97F1"/>
<rect x="925.555" y="315.824" width="5.46269" height="5.46269" rx="2.58729" fill="#7D97F1"/>
<rect x="947.406" y="273.676" width="5.46269" height="5.46269" rx="2.58729" fill="#7D97F1"/>
<rect x="947.406" y="294.75" width="5.46269" height="5.46269" rx="2.58729" fill="#7D97F1"/>
<rect x="947.406" y="315.824" width="5.46269" height="5.46269" rx="2.58729" fill="#7D97F1"/>
<rect x="969.25" y="273.676" width="5.46269" height="5.46269" rx="2.58729" fill="#7D97F1"/>
<rect x="969.25" y="294.75" width="5.46269" height="5.46269" rx="2.58729" fill="#7D97F1"/>
<rect x="969.25" y="315.824" width="5.46269" height="5.46269" rx="2.58729" fill="#7D97F1"/>
<rect x="991.109" y="273.676" width="5.46269" height="5.46269" rx="2.58729" fill="#7D97F1"/>
<rect x="991.109" y="294.75" width="5.46269" height="5.46269" rx="2.58729" fill="#7D97F1"/>
<rect x="991.109" y="315.824" width="5.46269" height="5.46269" rx="2.58729" fill="#7D97F1"/>
<rect x="1012.95" y="273.676" width="5.46269" height="5.46269" rx="2.58729" fill="#7D97F1"/>
<rect x="1012.95" y="294.75" width="5.46269" height="5.46269" rx="2.58729" fill="#7D97F1"/>
<rect x="1012.95" y="315.824" width="5.46269" height="5.46269" rx="2.58729" fill="#7D97F1"/>
<rect x="1034.8" y="273.676" width="5.46269" height="5.46269" rx="2.58729" fill="#7D97F1"/>
<rect x="1034.8" y="294.75" width="5.46269" height="5.46269" rx="2.58729" fill="#7D97F1"/>
<rect x="1034.8" y="315.824" width="5.46269" height="5.46269" rx="2.58729" fill="#7D97F1"/>
<rect x="1056.66" y="273.676" width="5.46269" height="5.46269" rx="2.58729" fill="#7D97F1"/>
<rect x="1056.66" y="294.75" width="5.46269" height="5.46269" rx="2.58729" fill="#7D97F1"/>
<rect x="1056.66" y="315.824" width="5.46269" height="5.46269" rx="2.58729" fill="#7D97F1"/>
<defs>
<linearGradient id="paint0_linear_0_1" x1="1098.5" y1="-45.4297" x2="1098.5" y2="875.57" gradientUnits="userSpaceOnUse">
<stop offset="0.295" stop-color="#262858"/>
<stop offset="0.9999" stop-color="#5156BE"/>
</linearGradient>
<linearGradient id="paint1_linear_0_1" x1="10.5" y1="-118.93" x2="10.5" y2="114.07" gradientUnits="userSpaceOnUse">
<stop offset="0.295" stop-color="#262858"/>
<stop offset="0.9999" stop-color="#5156BE"/>
</linearGradient>
</defs>
</svg>
