<svg width="18" height="18" viewBox="0 0 18 18" fill="none" xmlns="http://www.w3.org/2000/svg">
<path d="M4.82281 1.81047C4.91736 1.69762 4.9639 1.55219 4.95244 1.40541C4.94097 1.25862 4.87241 1.12218 4.76147 1.02538C4.65053 0.928585 4.50606 0.879139 4.35908 0.887663C4.2121 0.896187 4.07431 0.962 3.97531 1.07097L3.00631 2.18097C2.45684 2.81065 2.14624 3.61345 2.12881 4.44897L2.08606 6.48822C2.08453 6.56209 2.09757 6.63554 2.12443 6.70437C2.15128 6.7732 2.19144 6.83606 2.24259 6.88938C2.29374 6.94269 2.3549 6.9854 2.42256 7.01508C2.49022 7.04476 2.56306 7.06082 2.63693 7.06235C2.7108 7.06388 2.78425 7.05084 2.85308 7.02398C2.92191 6.99712 2.98477 6.95697 3.03809 6.90582C3.0914 6.85466 3.13411 6.79351 3.16379 6.72585C3.19347 6.65819 3.20953 6.58534 3.21106 6.51147L3.25306 4.47297C3.26509 3.90127 3.47774 3.35199 3.85381 2.92122L4.82281 1.81047Z" fill="#212325" fill-opacity="0.8"/>
<path fill-rule="evenodd" clip-rule="evenodd" d="M4.676 5.775C4.72637 4.9726 5.08064 4.21956 5.6667 3.66918C6.25275 3.11879 7.02653 2.81245 7.8305 2.8125H8.24825V2.25C8.24825 2.05109 8.32727 1.86032 8.46792 1.71967C8.60858 1.57902 8.79934 1.5 8.99825 1.5C9.19717 1.5 9.38793 1.57902 9.52858 1.71967C9.66924 1.86032 9.74825 2.05109 9.74825 2.25V2.8125H10.166C10.97 2.81245 11.7438 3.11879 12.3298 3.66918C12.9159 4.21956 13.2701 4.9726 13.3205 5.775L13.4863 8.4255C13.5494 9.43609 13.8887 10.41 14.4673 11.241C14.5868 11.4128 14.6598 11.6126 14.6792 11.821C14.6987 12.0294 14.6639 12.2392 14.5782 12.4302C14.4925 12.6211 14.3588 12.7866 14.1902 12.9106C14.0216 13.0346 13.8238 13.1129 13.616 13.1378L11.0608 13.4437V14.25C11.0608 14.797 10.8435 15.3216 10.4567 15.7084C10.0699 16.0952 9.54526 16.3125 8.99825 16.3125C8.45124 16.3125 7.92664 16.0952 7.53985 15.7084C7.15305 15.3216 6.93575 14.797 6.93575 14.25V13.4437L4.3805 13.137C4.17282 13.112 3.97513 13.0338 3.80664 12.9098C3.63814 12.7859 3.50457 12.6205 3.41889 12.4296C3.33322 12.2388 3.29836 12.0291 3.31769 11.8208C3.33703 11.6125 3.40991 11.4128 3.52925 11.241C4.10773 10.4099 4.44705 9.43609 4.51025 8.4255L4.676 5.775ZM7.8305 3.9375C7.31268 3.93744 6.81431 4.13473 6.43684 4.48921C6.05937 4.84368 5.83119 5.3287 5.79875 5.8455L5.63375 8.496C5.55751 9.71173 5.14919 10.8833 4.45325 11.883C4.4446 11.8954 4.43932 11.9099 4.43791 11.9249C4.43649 11.94 4.439 11.9552 4.44519 11.969C4.45138 11.9828 4.46104 11.9948 4.47323 12.0038C4.48542 12.0128 4.49972 12.0184 4.51475 12.0203L7.3175 12.357C8.43425 12.4905 9.56225 12.4905 10.679 12.357L13.4818 12.0203C13.4968 12.0184 13.5111 12.0128 13.5233 12.0038C13.5355 11.9948 13.5451 11.9828 13.5513 11.969C13.5575 11.9552 13.56 11.94 13.5586 11.9249C13.5572 11.9099 13.5519 11.8954 13.5433 11.883C12.8475 10.8832 12.4395 9.71167 12.3635 8.496L12.1978 5.8455C12.1653 5.3287 11.9371 4.84368 11.5597 4.48921C11.1822 4.13473 10.6838 3.93744 10.166 3.9375H7.8305ZM8.99825 15.1875C8.48075 15.1875 8.06075 14.7675 8.06075 14.25V13.6875H9.93575V14.25C9.93575 14.7675 9.51575 15.1875 8.99825 15.1875Z" fill="#212325" fill-opacity="0.8"/>
<path d="M13.2317 1.0175C13.1193 1.11558 13.0505 1.25427 13.0404 1.40307C13.0302 1.55187 13.0796 1.6986 13.1777 1.811L14.1467 2.921C14.5226 3.35207 14.735 3.90163 14.7467 4.4735L14.7894 6.51125C14.7925 6.66043 14.8547 6.80228 14.9624 6.90559C15.07 7.0089 15.2143 7.06521 15.3635 7.06212C15.5127 7.05904 15.6546 6.99682 15.7579 6.88915C15.8612 6.78148 15.9175 6.63718 15.9144 6.488L15.8717 4.4495C15.8542 3.61398 15.5436 2.81117 14.9942 2.1815L14.0252 1.0715C13.9271 0.959139 13.7884 0.890332 13.6396 0.880205C13.4908 0.870079 13.3441 0.919463 13.2317 1.0175Z" fill="#212325" fill-opacity="0.8"/>
</svg>
