<svg width="18" height="18" viewBox="0 0 18 18" fill="none" xmlns="http://www.w3.org/2000/svg">
<path d="M10.6406 2.06641V4.76341C10.6406 5.12866 10.7861 5.47966 11.0456 5.73841C11.3058 5.99743 11.658 6.1428 12.0251 6.14266H15.1189" stroke="#212325" stroke-opacity="0.8" stroke-width="1.5" stroke-linecap="round" stroke-linejoin="round"/>
<path d="M5.73525 5.73597H8.184M5.73525 9.00072H12.2648M5.73525 12.2655H12.2648M15.1875 6.42672V12.8527C15.1726 13.273 15.0746 13.6862 14.8993 14.0685C14.724 14.4508 14.4748 14.7947 14.166 15.0802C13.5417 15.6593 12.713 15.9669 11.862 15.9352H6.1695C5.74553 15.9548 5.32186 15.8905 4.92285 15.7458C4.52385 15.6011 4.15737 15.379 3.8445 15.0922C3.53287 14.8058 3.28118 14.4603 3.10403 14.0759C2.92688 13.6915 2.82779 13.2757 2.8125 12.8527V5.14722C2.82739 4.7269 2.92532 4.31369 3.10063 3.93138C3.27595 3.54908 3.5252 3.20526 3.834 2.91972C4.45831 2.3406 5.28703 2.03306 6.138 2.06472H10.4235C11.0777 2.06263 11.7091 2.30466 12.1943 2.74347L14.4142 4.78497C14.6511 4.98906 14.8424 5.24071 14.9756 5.52356C15.1088 5.80641 15.181 6.11414 15.1875 6.42672Z" stroke="#212325" stroke-opacity="0.8" stroke-width="1.5" stroke-linecap="round" stroke-linejoin="round"/>
</svg>
