<svg width="257" height="269" viewBox="0 0 257 269" fill="none" xmlns="http://www.w3.org/2000/svg">
<g clip-path="url(#clip0_0_1)">
<path d="M29.0264 268.053C45.0572 268.053 58.0527 255.057 58.0527 239.026C58.0527 222.996 45.0572 210 29.0264 210C12.9955 210 0 222.996 0 239.026C0 255.057 12.9955 268.053 29.0264 268.053Z" fill="#172852"/>
<path d="M23.381 222.97C26.78 221.698 30.6056 221.696 34.0685 222.741C38.5763 224.14 42.3816 227.541 44.3699 231.811C44.9185 233.027 45.4439 234.296 45.4962 235.649C42.9622 234.18 40.1843 233.228 37.4007 232.36C32.9481 230.755 28.2864 229.64 24.0718 227.434C23.0907 226.848 21.8397 226.247 21.5726 225.025C21.4652 223.968 22.5827 223.379 23.381 222.97Z" fill="#FFD83D"/>
<path d="M13.1204 233.244C14.1044 230.574 15.7183 228.095 17.9098 226.258C18.4671 230.841 20.4176 235.27 23.6396 238.603C27.503 242.617 33.0064 245.081 38.6056 244.989C40.829 245.058 43.003 244.544 45.1713 244.129C43.0379 251.839 34.5883 256.956 26.7599 255.725C22.0344 255.122 17.6717 252.323 15.039 248.373C12.0697 244.007 11.3208 238.211 13.1204 233.244Z" fill="#FFD83D"/>
<path d="M37.4004 232.363C40.184 233.231 42.9618 234.183 45.4958 235.652L45.6671 235.742C45.9022 237.51 46.0735 239.312 45.76 241.083C44.4857 240.543 43.4524 239.594 42.3726 238.755C40.2943 237.025 38.1725 235.045 37.4004 232.363Z" fill="#FF6F03"/>
</g>
<g clip-path="url(#clip1_0_1)">
<path d="M257 101.473C257 121.35 251.106 140.78 240.063 157.307C229.02 173.835 213.324 186.716 194.96 194.323C176.596 201.929 156.389 203.919 136.893 200.042C117.398 196.164 99.491 186.592 85.4358 172.537C71.3806 158.482 61.8089 140.574 57.9311 121.079C54.0533 101.584 56.0435 81.377 63.6502 63.013C71.2568 44.649 84.1381 28.953 100.665 17.91C117.192 6.86688 136.623 0.972656 156.5 0.972656C183.154 0.972656 208.717 11.561 227.564 30.4084C246.412 49.2558 257 74.8184 257 101.473Z" fill="#F7931A"/>
<path fill-rule="evenodd" clip-rule="evenodd" d="M127.429 46.8645L150.525 53.0498L155.687 33.8086L167.236 36.9424L162.275 55.3887L171.694 57.9195L176.664 39.2721L188.414 42.4151L183.352 61.1629C183.352 61.1629 202.539 65.4113 207.052 81.0162C211.565 96.6211 197.13 104.816 192.671 105.127C192.671 105.127 209.482 114.346 203.708 132.481C197.934 150.617 180.209 153.86 161.562 149.703L156.5 169.146L144.751 166.003L149.913 146.862L140.594 144.322L135.432 163.6L123.774 160.466L128.945 141.28L105.236 134.884L111.212 121.618C111.212 121.618 117.899 123.445 120.43 124.048C122.961 124.651 124.587 122.02 125.3 119.389C126.012 116.758 136.748 73.1498 137.762 69.5592C138.776 65.9686 138.365 63.1637 134.107 62.0582C129.85 60.9527 124.057 59.226 124.057 59.226L127.429 46.8645ZM150.726 104.615L144.331 130.042C144.331 130.042 176.043 141.49 180.1 125.382C184.156 109.275 150.726 104.615 150.726 104.615ZM153.668 92.5554L159.945 69.2577C159.945 69.2577 187.098 74.1182 183.754 87.0827C180.41 100.047 164.403 95.0771 153.668 92.5554Z" fill="white"/>
</g>
<defs>
<clipPath id="clip0_0_1">
<rect width="58.0527" height="58.0527" fill="white" transform="translate(0 210)"/>
</clipPath>
<clipPath id="clip1_0_1">
<rect width="201" height="201" fill="white" transform="translate(56 0.972656)"/>
</clipPath>
</defs>
</svg>
