<svg width="56" height="20" viewBox="0 0 56 20" fill="none" xmlns="http://www.w3.org/2000/svg">
<path d="M6 16L0.803847 7L11.1962 7L6 16Z" fill="#F92C2C"/>
<path d="M16.3984 12.0625V10.6875H20.9141V12.0625H16.3984ZM21.5312 15.5V14.3828L25.625 10.2969C26.2344 9.6875 26.6719 9.17448 26.9375 8.75781C27.2083 8.34115 27.3438 7.92188 27.3438 7.5C27.3438 6.95833 27.151 6.51042 26.7656 6.15625C26.3854 5.80208 25.8984 5.625 25.3047 5.625C24.6172 5.625 24.0677 5.83333 23.6562 6.25C23.2448 6.66146 23.0286 7.22656 23.0078 7.94531L21.5 7.86719C21.5052 7.14844 21.6771 6.50521 22.0156 5.9375C22.3594 5.36458 22.8203 4.92188 23.3984 4.60938C23.9766 4.29688 24.6172 4.14062 25.3203 4.14062C26.3516 4.14062 27.2083 4.45573 27.8906 5.08594C28.5781 5.71094 28.9219 6.50521 28.9219 7.46875C28.9219 8.08854 28.7344 8.70573 28.3594 9.32031C27.9896 9.92969 27.4479 10.5755 26.7344 11.2578L23.9766 14.0156H29.0391V15.5H21.5312ZM36.6719 14.7109C35.9688 15.3307 35.0703 15.6406 33.9766 15.6406C32.8828 15.6406 31.9818 15.3307 31.2734 14.7109C30.5703 14.0911 30.2188 13.3047 30.2188 12.3516C30.2188 11.6953 30.4141 11.1042 30.8047 10.5781C31.1953 10.0469 31.7083 9.67708 32.3438 9.46875C31.8438 9.27604 31.4349 8.95833 31.1172 8.51562C30.8047 8.07292 30.6484 7.59635 30.6484 7.08594C30.6484 6.23698 30.9609 5.53906 31.5859 4.99219C32.2109 4.44531 33.0078 4.17188 33.9766 4.17188C34.9453 4.17188 35.7422 4.44531 36.3672 4.99219C36.9922 5.53906 37.3047 6.23698 37.3047 7.08594C37.3047 7.59635 37.1458 8.07292 36.8281 8.51562C36.5156 8.95833 36.1094 9.27604 35.6094 9.46875C36.2448 9.67708 36.7578 10.0469 37.1484 10.5781C37.5391 11.1042 37.7344 11.6953 37.7344 12.3516C37.7344 13.3047 37.3802 14.0911 36.6719 14.7109ZM32.6562 8.30469C33 8.60156 33.4401 8.75 33.9766 8.75C34.513 8.75 34.9531 8.60156 35.2969 8.30469C35.6406 8.0026 35.8125 7.61719 35.8125 7.14844C35.8125 6.6849 35.6406 6.30469 35.2969 6.00781C34.9531 5.71094 34.513 5.5625 33.9766 5.5625C33.4401 5.5625 33 5.71094 32.6562 6.00781C32.3177 6.30469 32.1484 6.6849 32.1484 7.14844C32.1484 7.6224 32.3177 8.00781 32.6562 8.30469ZM33.9766 14.2031C34.6328 14.2031 35.1719 14.0182 35.5938 13.6484C36.0208 13.2734 36.2344 12.8021 36.2344 12.2344C36.2344 11.6771 36.0208 11.2161 35.5938 10.8516C35.1719 10.4818 34.6328 10.2969 33.9766 10.2969C33.3307 10.2969 32.7943 10.4818 32.3672 10.8516C31.9453 11.2161 31.7344 11.6771 31.7344 12.2344C31.7344 12.8021 31.9453 13.2734 32.3672 13.6484C32.7943 14.0182 33.3307 14.2031 33.9766 14.2031ZM43.0781 4.79688C43.4948 5.23438 43.7031 5.78906 43.7031 6.46094C43.7031 7.13281 43.4948 7.6901 43.0781 8.13281C42.6667 8.57552 42.1406 8.79688 41.5 8.79688C40.8594 8.79688 40.3281 8.57552 39.9062 8.13281C39.4844 7.6901 39.2734 7.13281 39.2734 6.46094C39.2734 5.78906 39.4844 5.23438 39.9062 4.79688C40.3281 4.35938 40.8594 4.14062 41.5 4.14062C42.1406 4.14062 42.6667 4.35938 43.0781 4.79688ZM47.1953 4.29688H48.4062L40.9688 15.5H39.7578L47.1953 4.29688ZM42.3594 7.45312C42.5833 7.19271 42.6953 6.86198 42.6953 6.46094C42.6953 6.0599 42.5859 5.73438 42.3672 5.48438C42.1484 5.22917 41.8594 5.10156 41.5 5.10156C41.1354 5.10156 40.8411 5.22917 40.6172 5.48438C40.3932 5.73438 40.2812 6.0599 40.2812 6.46094C40.2812 6.86198 40.3932 7.19271 40.6172 7.45312C40.8411 7.70833 41.1354 7.83594 41.5 7.83594C41.8542 7.83594 42.1406 7.70833 42.3594 7.45312ZM48.25 11.6641C48.6667 12.0964 48.875 12.6484 48.875 13.3203C48.875 13.9922 48.6667 14.5495 48.25 14.9922C47.8333 15.4349 47.3047 15.6562 46.6641 15.6562C46.0234 15.6562 45.4948 15.4349 45.0781 14.9922C44.6667 14.5495 44.4609 13.9922 44.4609 13.3203C44.4609 12.6484 44.6667 12.0964 45.0781 11.6641C45.4948 11.2266 46.0234 11.0078 46.6641 11.0078C47.3047 11.0078 47.8333 11.2266 48.25 11.6641ZM47.8672 13.3203C47.8672 12.9193 47.7578 12.5911 47.5391 12.3359C47.3203 12.0755 47.0286 11.9453 46.6641 11.9453C46.2995 11.9453 46.0078 12.0729 45.7891 12.3281C45.5755 12.5833 45.4688 12.9141 45.4688 13.3203C45.4688 13.7266 45.5781 14.0599 45.7969 14.3203C46.0156 14.5755 46.3047 14.7031 46.6641 14.7031C47.0286 14.7031 47.3203 14.5755 47.5391 14.3203C47.7578 14.0599 47.8672 13.7266 47.8672 13.3203Z" fill="#F92C2C"/>
</svg>
