<svg width="18" height="18" viewBox="0 0 18 18" fill="none" xmlns="http://www.w3.org/2000/svg">
<path d="M3.375 15.1875C3.22642 15.1856 3.08447 15.1257 2.9794 15.0206C2.87433 14.9155 2.81444 14.7736 2.8125 14.625V3.375C2.8125 3.22582 2.87176 3.08274 2.97725 2.97725C3.08274 2.87176 3.22582 2.8125 3.375 2.8125C3.52418 2.8125 3.66726 2.87176 3.77275 2.97725C3.87824 3.08274 3.9375 3.22582 3.9375 3.375V14.625C3.93556 14.7736 3.87567 14.9155 3.7706 15.0206C3.66553 15.1257 3.52358 15.1856 3.375 15.1875Z" fill="#212325"/>
<path d="M14.625 15.1891H3.375C3.22582 15.1891 3.08274 15.1298 2.97725 15.0243C2.87176 14.9189 2.8125 14.7758 2.8125 14.6266C2.8125 14.4774 2.87176 14.3343 2.97725 14.2288C3.08274 14.1234 3.22582 14.0641 3.375 14.0641H14.625C14.7742 14.0641 14.9173 14.1234 15.0227 14.2288C15.1282 14.3343 15.1875 14.4774 15.1875 14.6266C15.1875 14.7758 15.1282 14.9189 15.0227 15.0243C14.9173 15.1298 14.7742 15.1891 14.625 15.1891ZM10.5 11.0641C10.4261 11.0644 10.3529 11.05 10.2846 11.0217C10.2163 10.9934 10.1544 10.9517 10.1025 10.8991L8.25 9.04659L6.3975 10.8991C6.29087 10.9985 6.14983 11.0525 6.00411 11.05C5.85838 11.0474 5.71934 10.9884 5.61628 10.8853C5.51322 10.7823 5.45419 10.6432 5.45162 10.4975C5.44905 10.3518 5.50314 10.2107 5.6025 10.1041L7.8525 7.85409C7.95797 7.74876 8.10094 7.68959 8.25 7.68959C8.39906 7.68959 8.54203 7.74876 8.6475 7.85409L10.5 9.70659L13.1025 7.10409C13.2091 7.00473 13.3502 6.95064 13.4959 6.95321C13.6416 6.95578 13.7807 7.01482 13.8837 7.11788C13.9868 7.22094 14.0458 7.35998 14.0484 7.5057C14.051 7.65143 13.9969 7.79246 13.8975 7.89909L10.8975 10.8991C10.8456 10.9517 10.7837 10.9934 10.7154 11.0217C10.6471 11.05 10.5739 11.0644 10.5 11.0641Z" fill="#212325"/>
<path d="M13.875 10.38C13.7264 10.3781 13.5845 10.3182 13.4794 10.2131C13.3743 10.108 13.3144 9.96608 13.3125 9.8175V7.6875H11.25C11.1008 7.6875 10.9577 7.62824 10.8523 7.52275C10.7468 7.41726 10.6875 7.27418 10.6875 7.125C10.6875 6.97582 10.7468 6.83274 10.8523 6.72725C10.9577 6.62176 11.1008 6.5625 11.25 6.5625H13.875C14.0236 6.56444 14.1655 6.62433 14.2706 6.7294C14.3757 6.83447 14.4356 6.97642 14.4375 7.125V9.8175C14.4356 9.96608 14.3757 10.108 14.2706 10.2131C14.1655 10.3182 14.0236 10.3781 13.875 10.38Z" fill="#212325"/>
</svg>
