<svg width="145" height="144" viewBox="0 0 145 144" fill="none" xmlns="http://www.w3.org/2000/svg">
<path d="M61.3289 39.8079C62.4924 39.807 63.6399 40.0778 64.6796 40.5986C65.7192 41.1195 66.6222 41.8759 67.316 42.8073L71.6158 37.2004L58.7145 27.3594L48.8472 40.2263L54.4076 44.4678C54.9641 43.0914 55.9203 41.9123 57.1536 41.082C58.3869 40.2517 59.8409 39.808 61.3289 39.8079Z" fill="#5156BE"/>
<path d="M121.804 87.6659H142.96C143.844 91.0186 143.946 94.529 143.257 97.9269C142.567 101.325 141.106 104.52 138.984 107.266C136.863 110.012 134.138 112.236 131.019 113.768C127.9 115.299 124.471 116.096 120.995 116.098C120.374 116.098 119.76 116.073 119.153 116.023V103.584C119.153 102.987 119.007 102.4 118.726 101.873C118.445 101.347 118.038 100.897 117.542 100.564C117.046 100.232 116.475 100.026 115.88 99.9649C115.285 99.9041 114.684 99.9903 114.131 100.216V95.3208C114.13 94.3157 114.329 93.3203 114.714 92.3916C115.1 91.4629 115.665 90.619 116.377 89.9081C117.09 89.1973 117.936 88.6334 118.867 88.2486C119.798 87.8639 120.796 87.6659 121.804 87.6659Z" fill="#5156BE"/>
<path d="M14.2142 94.8864L6.85059 89.2695L1.21866 96.6135L8.58231 102.23L14.2142 94.8864Z" fill="#5156BE"/>
<path d="M18.736 109.507L12.1273 60.0953L109.07 44.9697L115.679 94.3812L18.736 109.507Z" fill="#F1F1F1" stroke="#111111" stroke-width="0.563637"/>
<path d="M107.099 49.3724L15.1758 63.7148L20.7519 105.406L112.676 91.064L107.099 49.3724Z" fill="white"/>
<path d="M12.2237 61.1315L11.7001 57.2164L108.643 42.0908L109.166 46.0059L12.2237 61.1315Z" fill="#E5E5E5" stroke="#111111" stroke-width="0.563637"/>
<path d="M14.8149 59.9686C15.2433 59.9686 15.5906 59.5935 15.5906 59.1308C15.5906 58.6681 15.2433 58.293 14.8149 58.293C14.3864 58.293 14.0391 58.6681 14.0391 59.1308C14.0391 59.5935 14.3864 59.9686 14.8149 59.9686Z" fill="white"/>
<path d="M17.7289 59.5155C18.1574 59.5155 18.5047 59.1404 18.5047 58.6776C18.5047 58.2149 18.1574 57.8398 17.7289 57.8398C17.3005 57.8398 16.9531 58.2149 16.9531 58.6776C16.9531 59.1404 17.3005 59.5155 17.7289 59.5155Z" fill="white"/>
<path d="M20.643 59.0623C21.0714 59.0623 21.4188 58.6872 21.4188 58.2245C21.4188 57.7618 21.0714 57.3867 20.643 57.3867C20.2145 57.3867 19.8672 57.7618 19.8672 58.2245C19.8672 58.6872 20.2145 59.0623 20.643 59.0623Z" fill="white"/>
<path d="M33.4801 116.355V66.4303H131.428V116.355H33.4801Z" fill="#E6E6E6" stroke="#111111" stroke-width="0.563637"/>
<path d="M33.4611 67.4521V63.5368H131.368V67.4521H33.4611Z" fill="#E5E5E5" stroke="#111111" stroke-width="0.604864"/>
<path d="M36.2689 66.7303C36.6974 66.7303 37.0447 66.3552 37.0447 65.8925C37.0447 65.4298 36.6974 65.0547 36.2689 65.0547C35.8405 65.0547 35.4932 65.4298 35.4932 65.8925C35.4932 66.3552 35.8405 66.7303 36.2689 66.7303Z" fill="white"/>
<path d="M39.2108 66.7303C39.6393 66.7303 39.9866 66.3552 39.9866 65.8925C39.9866 65.4298 39.6393 65.0547 39.2108 65.0547C38.7824 65.0547 38.4351 65.4298 38.4351 65.8925C38.4351 66.3552 38.7824 66.7303 39.2108 66.7303Z" fill="white"/>
<path d="M42.1586 66.7303C42.5871 66.7303 42.9344 66.3552 42.9344 65.8925C42.9344 65.4298 42.5871 65.0547 42.1586 65.0547C41.7301 65.0547 41.3828 65.4298 41.3828 65.8925C41.3828 66.3552 41.7301 66.7303 42.1586 66.7303Z" fill="white"/>
<path d="M36.2979 112.323V70.7623H128.612V112.323H36.2979Z" fill="white" stroke="#111111" stroke-width="0.563637"/>
<ellipse cx="108.893" cy="87.5574" rx="5.08399" ry="5.10036" fill="#5156BE"/>
<path d="M116.942 100.653C116.942 99.6971 116.735 98.7507 116.333 97.8677C115.93 96.9847 115.34 96.1824 114.597 95.5066C113.853 94.8308 112.971 94.2947 111.999 93.929C111.028 93.5632 109.987 93.375 108.935 93.375C107.884 93.375 106.843 93.5632 105.871 93.929C104.9 94.2947 104.017 94.8308 103.274 95.5066C102.53 96.1824 101.941 96.9847 101.538 97.8677C101.136 98.7507 100.929 99.6971 100.929 100.653L108.935 100.653H116.942Z" fill="#5156BE"/>
<path d="M61.236 100.941H48.1553V102.003H61.236V100.941Z" fill="#E6E6E6"/>
<path d="M62.8674 103.703H46.4053V104.765H62.8674V103.703Z" fill="#E6E6E6"/>
<path d="M60.7932 84.8125H47.8457V94.8678H60.7932V84.8125Z" fill="#5156BE"/>
<path d="M62.0871 94.0752H49.6575C49.5202 94.075 49.3886 94.0144 49.2915 93.9067C49.1944 93.799 49.1398 93.6529 49.1396 93.5006V84.0199C49.1398 83.8676 49.1944 83.7215 49.2915 83.6138C49.3886 83.5061 49.5202 83.4455 49.6575 83.4453H62.0871C62.2245 83.4455 62.3561 83.5061 62.4532 83.6138C62.5503 83.7215 62.6049 83.8676 62.605 84.0199V93.5006C62.6049 93.6529 62.5503 93.799 62.4532 93.9067C62.3561 94.0144 62.2245 94.075 62.0871 94.0752ZM49.6575 84.0199V93.5006H62.0875L62.0871 84.0199H49.6575Z" fill="#3F3D56"/>
<path d="M60.6612 83.6626H60.1433C60.1433 82.4054 59.6932 81.1996 58.8919 80.3107C58.0906 79.4217 57.0038 78.9222 55.8707 78.9222C54.7375 78.9222 53.6507 79.4217 52.8494 80.3107C52.0481 81.1996 51.598 82.4054 51.598 83.6626H51.0801C51.0801 82.253 51.5848 80.9011 52.4832 79.9044C53.3816 78.9076 54.6001 78.3477 55.8707 78.3477C57.1412 78.3477 58.3597 78.9076 59.2581 79.9044C60.1565 80.9011 60.6612 82.253 60.6612 83.6626Z" fill="#3F3D56"/>
<path d="M57.169 87.6139C57.1693 87.3638 57.1106 87.1179 56.9989 86.9006C56.8872 86.6833 56.7263 86.5022 56.5321 86.3751C56.3379 86.248 56.1171 86.1793 55.8916 86.1759C55.6661 86.1725 55.4438 86.2345 55.2465 86.3557C55.0493 86.4769 54.884 86.6532 54.767 86.867C54.65 87.0809 54.5854 87.3249 54.5795 87.5749C54.5737 87.825 54.6268 88.0724 54.7336 88.2927C54.8404 88.513 54.9972 88.6986 55.1885 88.831V90.3728C55.1885 90.4727 55.2063 90.5715 55.2407 90.6638C55.2752 90.7561 55.3257 90.8399 55.3893 90.9105C55.453 90.9811 55.5286 91.0372 55.6117 91.0754C55.6949 91.1136 55.7841 91.1333 55.8741 91.1333C56.0559 91.1333 56.2303 91.0531 56.3588 90.9105C56.4874 90.7679 56.5596 90.5745 56.5596 90.3728V88.831C56.746 88.7022 56.8998 88.5229 57.0064 88.31C57.113 88.0971 57.169 87.8575 57.169 87.6139Z" fill="#3F3D56"/>
</svg>
