<svg width="348" height="294" viewBox="0 0 348 294" fill="none" xmlns="http://www.w3.org/2000/svg">
<path d="M88.709 76.1992V135.745" stroke="#3AB67A" stroke-width="1.50477" stroke-miterlimit="10" stroke-linecap="round"/>
<path fill-rule="evenodd" clip-rule="evenodd" d="M90.534 123.315H86.9456C86.5119 123.315 86.1602 122.623 86.1602 121.769V89.3308C86.1602 88.4773 86.5119 87.7852 86.9456 87.7852H90.534C90.9676 87.7852 91.3194 88.4773 91.3194 89.3308V121.769C91.3194 122.623 90.9676 123.315 90.534 123.315Z" fill="#3AB67A"/>
<path d="M100.316 97.4023V156.948" stroke="#FD5353" stroke-width="1.50477" stroke-miterlimit="10" stroke-linecap="round"/>
<path fill-rule="evenodd" clip-rule="evenodd" d="M102.138 144.518H98.551C98.1174 144.518 97.7656 143.826 97.7656 142.972V110.534C97.7656 109.68 98.1174 108.988 98.551 108.988H102.139C102.573 108.988 102.925 109.68 102.925 110.534V142.972C102.924 143.826 102.572 144.518 102.138 144.518Z" fill="#FD5353"/>
<path fill-rule="evenodd" clip-rule="evenodd" d="M110.181 88.829H113.75C114.181 88.829 114.531 89.1514 114.531 89.549V104.659C114.531 105.056 114.181 105.379 113.75 105.379H110.179C109.748 105.379 109.398 105.056 109.398 104.659V89.549C109.399 89.1514 109.749 88.829 110.181 88.829Z" fill="#3AB67A"/>
<path d="M111.984 141.27L111.984 81.7329" stroke="#3AB67A" stroke-width="1.50454" stroke-miterlimit="10" stroke-linecap="round"/>
<path fill-rule="evenodd" clip-rule="evenodd" d="M125.331 149.847H121.762C121.33 149.847 120.98 149.524 120.98 149.127V134.017C120.98 133.619 121.33 133.297 121.762 133.297H125.332C125.764 133.297 126.114 133.619 126.114 134.017V149.127C126.113 149.524 125.763 149.847 125.331 149.847Z" fill="#3AB67A"/>
<path d="M123.529 97.4023V156.939" stroke="#3AB67A" stroke-width="1.50454" stroke-miterlimit="10" stroke-linecap="round"/>
<path fill-rule="evenodd" clip-rule="evenodd" d="M136.937 113.96H133.367C132.936 113.96 132.586 113.638 132.586 113.24V98.1301C132.586 97.7326 132.936 97.4102 133.367 97.4102H136.938C137.369 97.4102 137.719 97.7326 137.719 98.1301V113.24C137.718 113.638 137.368 113.96 136.937 113.96Z" fill="#FD5353"/>
<path d="M135.133 61.5195V121.056" stroke="#FD5353" stroke-width="1.50454" stroke-miterlimit="10" stroke-linecap="round"/>
<path d="M146.74 97.4023L146.826 169.835" stroke="#FD5353" stroke-width="1.50454" stroke-miterlimit="10" stroke-linecap="round"/>
<path fill-rule="evenodd" clip-rule="evenodd" d="M148.565 135.696H144.979C144.545 135.696 144.193 135.004 144.193 134.151V101.717C144.193 100.864 144.545 100.172 144.979 100.172H148.566C149 100.172 149.352 100.864 149.352 101.717V134.151C149.351 135.004 148.999 135.696 148.565 135.696Z" fill="#FD5353"/>
<path d="M158.348 90.8789V150.416" stroke="#FD5353" stroke-width="1.50454" stroke-miterlimit="10" stroke-linecap="round"/>
<path fill-rule="evenodd" clip-rule="evenodd" d="M160.173 133.259H156.586C156.152 133.259 155.801 132.567 155.801 131.713V99.2797C155.801 98.4265 156.152 97.7344 156.586 97.7344H160.174C160.608 97.7344 160.959 98.4265 160.959 99.2797V131.713C160.958 132.567 160.606 133.259 160.173 133.259Z" fill="#FD5353"/>
<path d="M170.027 71.1914L169.954 121.056" stroke="#3AB67A" stroke-width="1.50454" stroke-miterlimit="10" stroke-linecap="round"/>
<path fill-rule="evenodd" clip-rule="evenodd" d="M171.778 112.923H168.192C167.758 112.923 167.406 112.231 167.406 111.377V78.9438C167.406 78.0905 167.758 77.3984 168.192 77.3984H171.779C172.213 77.3984 172.565 78.0905 172.565 78.9438V111.377C172.564 112.231 172.212 112.923 171.778 112.923Z" fill="#3AB67A"/>
<path d="M181.635 107.074L181.562 156.939" stroke="#FD5353" stroke-width="1.50454" stroke-miterlimit="10" stroke-linecap="round"/>
<path fill-rule="evenodd" clip-rule="evenodd" d="M183.384 148.806H179.797C179.363 148.806 179.012 148.113 179.012 147.26V114.827C179.012 113.973 179.363 113.281 179.797 113.281H183.385C183.818 113.281 184.17 113.973 184.17 114.827V147.26C184.169 148.113 183.817 148.806 183.384 148.806Z" fill="#FD5353"/>
<path d="M193.242 107.074L193.169 156.939" stroke="#3AB67A" stroke-width="1.50454" stroke-miterlimit="10" stroke-linecap="round"/>
<path fill-rule="evenodd" clip-rule="evenodd" d="M194.991 148.806H191.404C190.971 148.806 190.619 148.113 190.619 147.26V114.827C190.619 113.973 190.971 113.281 191.404 113.281H194.992C195.426 113.281 195.778 113.973 195.778 114.827V147.26C195.776 148.113 195.425 148.806 194.991 148.806Z" fill="#3AB67A"/>
<path d="M204.771 61.5195L204.857 133.952" stroke="#3AB67A" stroke-width="1.50454" stroke-miterlimit="10" stroke-linecap="round"/>
<path fill-rule="evenodd" clip-rule="evenodd" d="M206.597 99.8133H203.01C202.576 99.8133 202.225 99.1212 202.225 98.2679V65.8344C202.225 64.9811 202.576 64.2891 203.01 64.2891H206.598C207.031 64.2891 207.383 64.9811 207.383 65.8344V98.2679C207.382 99.1212 207.03 99.8133 206.597 99.8133Z" fill="#3AB67A"/>
<path fill-rule="evenodd" clip-rule="evenodd" d="M214.639 104.493H218.209C218.64 104.493 218.99 104.815 218.99 105.213V120.323C218.99 120.721 218.64 121.043 218.209 121.043H214.638C214.207 121.043 213.857 120.721 213.857 120.323V105.213C213.858 104.815 214.208 104.493 214.639 104.493Z" fill="#3AB67A"/>
<path d="M216.443 156.938V97.4008" stroke="#3AB67A" stroke-width="1.50454" stroke-miterlimit="10" stroke-linecap="round"/>
<path fill-rule="evenodd" clip-rule="evenodd" d="M226.245 125.29H229.814C230.246 125.29 230.596 125.612 230.596 126.01V141.12C230.596 141.517 230.246 141.84 229.814 141.84H226.244C225.812 141.84 225.462 141.517 225.462 141.12V126.01C225.463 125.612 225.813 125.29 226.245 125.29Z" fill="#FD5353"/>
<path d="M228.049 177.738V118.202" stroke="#FD5353" stroke-width="1.50454" stroke-miterlimit="10" stroke-linecap="round"/>
<path d="M216.104 97.4023V156.948" stroke="#3AB67A" stroke-width="1.50477" stroke-miterlimit="10" stroke-linecap="round"/>
<path fill-rule="evenodd" clip-rule="evenodd" d="M217.928 144.518H214.34C213.906 144.518 213.555 143.826 213.555 142.972V110.534C213.555 109.68 213.906 108.988 214.34 108.988H217.928C218.362 108.988 218.714 109.68 218.714 110.534V142.972C218.714 143.826 218.362 144.518 217.928 144.518Z" fill="#3AB67A"/>
<path d="M227.715 118.199V177.745" stroke="#FD5353" stroke-width="1.50477" stroke-miterlimit="10" stroke-linecap="round"/>
<path fill-rule="evenodd" clip-rule="evenodd" d="M229.537 165.315H225.949C225.516 165.315 225.164 164.623 225.164 163.769V131.331C225.164 130.477 225.516 129.785 225.949 129.785H229.538C229.972 129.785 230.323 130.477 230.323 131.331V163.769C230.322 164.623 229.97 165.315 229.537 165.315Z" fill="#FD5353"/>
<path fill-rule="evenodd" clip-rule="evenodd" d="M237.575 87.7743H241.144C241.576 87.7743 241.926 88.0967 241.926 88.4943V103.604C241.926 104.002 241.576 104.324 241.144 104.324H237.574C237.142 104.324 236.792 104.002 236.792 103.604V88.4943C236.794 88.0967 237.144 87.7743 237.575 87.7743Z" fill="#3AB67A"/>
<path d="M239.379 140.219V80.6821" stroke="#3AB67A" stroke-width="1.50454" stroke-miterlimit="10" stroke-linecap="round"/>
<path fill-rule="evenodd" clip-rule="evenodd" d="M252.726 149.847H249.156C248.725 149.847 248.375 149.524 248.375 149.127V134.017C248.375 133.619 248.725 133.297 249.156 133.297H252.727C253.158 133.297 253.508 133.619 253.508 134.017V149.127C253.507 149.524 253.157 149.847 252.726 149.847Z" fill="#3AB67A"/>
<path d="M250.924 97.4023V156.939" stroke="#3AB67A" stroke-width="1.50454" stroke-miterlimit="10" stroke-linecap="round"/>
<path fill-rule="evenodd" clip-rule="evenodd" d="M264.331 149.847H260.762C260.33 149.847 259.98 149.524 259.98 149.127V134.017C259.98 133.619 260.33 133.297 260.762 133.297H264.332C264.764 133.297 265.114 133.619 265.114 134.017V149.127C265.113 149.524 264.763 149.847 264.331 149.847Z" fill="#FD5353"/>
<path d="M262.529 97.4023V156.939" stroke="#FD5353" stroke-width="1.50454" stroke-miterlimit="10" stroke-linecap="round"/>
<path d="M274.135 112.469L274.221 184.902" stroke="#FD5353" stroke-width="1.50454" stroke-miterlimit="10" stroke-linecap="round"/>
<path fill-rule="evenodd" clip-rule="evenodd" d="M275.96 150.763H272.373C271.94 150.763 271.588 150.07 271.588 149.217V116.784C271.588 115.93 271.94 115.238 272.373 115.238H275.961C276.395 115.238 276.746 115.93 276.746 116.784V149.217C276.745 150.07 276.394 150.763 275.96 150.763Z" fill="#FD5353"/>
<path d="M285.74 97.4023V156.939" stroke="#FD5353" stroke-width="1.50454" stroke-miterlimit="10" stroke-linecap="round"/>
<path fill-rule="evenodd" clip-rule="evenodd" d="M287.565 139.778H283.979C283.545 139.778 283.193 139.086 283.193 138.233V105.799C283.193 104.946 283.545 104.254 283.979 104.254H287.566C288 104.254 288.352 104.946 288.352 105.799V138.233C288.351 139.086 287.999 139.778 287.565 139.778Z" fill="#FD5353"/>
<g clip-path="url(#clip0_0_1)">
<path d="M2.54883 49.6797V109.225" stroke="#3AB67A" stroke-width="1.50477" stroke-miterlimit="10" stroke-linecap="round"/>
<path fill-rule="evenodd" clip-rule="evenodd" d="M4.3738 96.7953H0.785404C0.351739 96.7953 0 96.1031 0 95.2497V62.8112C0 61.9578 0.351739 61.2656 0.785404 61.2656H4.3738C4.80747 61.2656 5.1592 61.9578 5.1592 62.8112V95.2497C5.1592 96.1031 4.80747 96.7953 4.3738 96.7953Z" fill="#3AB67A"/>
<path d="M14.1562 70.8867V130.433" stroke="#FD5353" stroke-width="1.50477" stroke-miterlimit="10" stroke-linecap="round"/>
<path fill-rule="evenodd" clip-rule="evenodd" d="M15.9782 118.002H12.3909C11.9572 118.002 11.6055 117.31 11.6055 116.457V84.0183C11.6055 83.1648 11.9572 82.4727 12.3909 82.4727H15.9793C16.4129 82.4727 16.7647 83.1648 16.7647 84.0183V116.457C16.7636 117.31 16.4118 118.002 15.9782 118.002Z" fill="#FD5353"/>
<path fill-rule="evenodd" clip-rule="evenodd" d="M24.0203 62.3134H27.5896C28.0211 62.3134 28.3711 62.6358 28.3711 63.0333L28.3711 78.1433C28.3711 78.5409 28.0211 78.8633 27.5896 78.8633H24.0193C23.5878 78.8633 23.2378 78.5409 23.2378 78.1433V63.0333C23.2389 62.6358 23.5889 62.3134 24.0203 62.3134Z" fill="#3AB67A"/>
<path d="M25.8242 114.758L25.8242 55.2212" stroke="#3AB67A" stroke-width="1.50454" stroke-miterlimit="10" stroke-linecap="round"/>
<path fill-rule="evenodd" clip-rule="evenodd" d="M39.1711 123.331H35.6018C35.1703 123.331 34.8203 123.009 34.8203 122.611V107.501C34.8203 107.104 35.1703 106.781 35.6018 106.781H39.1721C39.6036 106.781 39.9536 107.104 39.9536 107.501V122.611C39.9525 123.009 39.6025 123.331 39.1711 123.331Z" fill="#3AB67A"/>
<path d="M37.3691 70.8867V130.423" stroke="#3AB67A" stroke-width="1.50454" stroke-miterlimit="10" stroke-linecap="round"/>
<path fill-rule="evenodd" clip-rule="evenodd" d="M50.7765 87.4483H47.2072C46.7758 87.4483 46.4258 87.1259 46.4258 86.7284V71.6184C46.4258 71.2209 46.7758 70.8984 47.2072 70.8984H50.7776C51.2091 70.8984 51.5591 71.2209 51.5591 71.6184V86.7284C51.558 87.1259 51.208 87.4483 50.7765 87.4483Z" fill="#FD5353"/>
<path d="M48.9727 35.0039V94.5406" stroke="#FD5353" stroke-width="1.50454" stroke-miterlimit="10" stroke-linecap="round"/>
<path d="M60.5801 70.8867L60.666 143.32" stroke="#FD5353" stroke-width="1.50454" stroke-miterlimit="10" stroke-linecap="round"/>
<path fill-rule="evenodd" clip-rule="evenodd" d="M62.4052 109.181H58.8185C58.3849 109.181 58.0332 108.488 58.0332 107.635V75.2016C58.0332 74.3483 58.3849 73.6562 58.8185 73.6562H62.4063C62.8399 73.6562 63.1916 74.3483 63.1916 75.2016V107.635C63.1905 108.488 62.8388 109.181 62.4052 109.181Z" fill="#FD5353"/>
<path d="M72.1875 64.3633V123.9" stroke="#FD5353" stroke-width="1.50454" stroke-miterlimit="10" stroke-linecap="round"/>
<path fill-rule="evenodd" clip-rule="evenodd" d="M74.0127 106.743H70.4259C69.9923 106.743 69.6406 106.051 69.6406 105.198V72.7641C69.6406 71.9108 69.9923 71.2188 70.4259 71.2188H74.0138C74.4474 71.2188 74.799 71.9108 74.799 72.7641V105.198C74.7979 106.051 74.4463 106.743 74.0127 106.743Z" fill="#FD5353"/>
</g>
<path d="M326.746 288V279.833H329.708C330.387 279.833 330.964 280.04 331.439 280.454C331.918 280.867 332.157 281.365 332.157 281.946C332.157 282.348 332.037 282.715 331.798 283.045C331.562 283.375 331.27 283.588 330.921 283.683C331.392 283.759 331.781 283.987 332.088 284.366C332.4 284.746 332.555 285.192 332.555 285.705C332.555 286.346 332.312 286.889 331.826 287.334C331.344 287.778 330.759 288 330.072 288H326.746ZM328.113 283.216H329.674C329.985 283.216 330.247 283.113 330.459 282.908C330.676 282.703 330.784 282.453 330.784 282.157C330.784 281.876 330.674 281.636 330.454 281.439C330.237 281.241 329.977 281.143 329.674 281.143H328.113V283.216ZM328.113 286.696H329.975C330.313 286.696 330.596 286.582 330.824 286.354C331.052 286.126 331.166 285.847 331.166 285.517C331.166 285.183 331.05 284.902 330.818 284.674C330.59 284.442 330.313 284.326 329.987 284.326H328.113V286.696ZM338.991 279.833V281.143H336.485V288H335.124V281.143H332.612V279.833H338.991ZM346.976 285.91C346.763 286.563 346.331 287.094 345.678 287.505C345.024 287.911 344.28 288.114 343.445 288.114C342.864 288.114 342.319 288.006 341.81 287.789C341.302 287.573 340.867 287.279 340.506 286.906C340.145 286.531 339.861 286.084 339.652 285.568C339.443 285.048 339.339 284.494 339.339 283.905C339.339 283.32 339.443 282.77 339.652 282.253C339.861 281.737 340.145 281.293 340.506 280.921C340.867 280.549 341.302 280.256 341.81 280.044C342.319 279.827 342.864 279.719 343.445 279.719C344.25 279.719 344.969 279.907 345.604 280.283C346.241 280.659 346.672 281.147 346.896 281.746L345.672 282.344C345.497 281.95 345.209 281.634 344.806 281.399C344.407 281.164 343.954 281.046 343.445 281.046C342.655 281.046 342.008 281.316 341.503 281.855C341.002 282.394 340.751 283.077 340.751 283.905C340.751 284.733 341.002 285.42 341.503 285.967C342.008 286.514 342.655 286.787 343.445 286.787C343.992 286.787 344.472 286.658 344.886 286.4C345.3 286.141 345.585 285.792 345.74 285.352L346.976 285.91Z" fill="#717579"/>
<path d="M3.98828 287.848C3.19727 287.848 2.57715 287.527 2.12793 286.886C1.68197 286.244 1.45898 285.366 1.45898 284.249C1.45898 283.132 1.68197 282.254 2.12793 281.612C2.57715 280.971 3.19727 280.65 3.98828 280.65C4.77604 280.65 5.3929 280.971 5.83887 281.612C6.28483 282.254 6.50781 283.132 6.50781 284.249C6.50781 285.366 6.28483 286.244 5.83887 286.886C5.3929 287.527 4.77604 287.848 3.98828 287.848ZM3.98828 287.12C4.54167 287.12 4.97135 286.871 5.27734 286.373C5.58659 285.875 5.74121 285.167 5.74121 284.249C5.74121 283.331 5.58659 282.623 5.27734 282.125C4.97135 281.627 4.54167 281.378 3.98828 281.378C3.43164 281.378 3.00033 281.627 2.69434 282.125C2.3916 282.62 2.24023 283.328 2.24023 284.249C2.24023 285.17 2.3916 285.88 2.69434 286.378C3.00033 286.873 3.43164 287.12 3.98828 287.12ZM9.5791 287.848C8.99642 287.848 8.47721 287.682 8.02148 287.35C7.56901 287.014 7.29069 286.594 7.18652 286.09L7.875 285.87C7.97917 286.238 8.1875 286.539 8.5 286.773C8.81576 287.005 9.17546 287.12 9.5791 287.12C10.0218 287.12 10.3929 286.972 10.6924 286.676C10.9951 286.376 11.1465 286.012 11.1465 285.582C11.1465 285.133 10.9951 284.754 10.6924 284.444C10.3929 284.135 10.0218 283.98 9.5791 283.98C9.31868 283.98 9.06966 284.024 8.83203 284.112C8.59766 284.197 8.41211 284.316 8.27539 284.469L7.62598 284.308L7.93848 280.748H11.4883V281.461H8.61719L8.3877 283.712C8.53092 283.588 8.7181 283.491 8.94922 283.419C9.18034 283.347 9.4196 283.312 9.66699 283.312C10.3115 283.312 10.8486 283.526 11.2783 283.956C11.7113 284.386 11.9277 284.931 11.9277 285.592C11.9277 286.22 11.6999 286.754 11.2441 287.193C10.7884 287.63 10.2334 287.848 9.5791 287.848ZM15.502 280.748H19.4131V281.471H16.249V283.731H19.0713V284.449H16.249V287.75H15.502V280.748ZM24.6572 285.099C24.6572 285.17 24.6507 285.271 24.6377 285.401H20.5752C20.6045 285.938 20.7835 286.371 21.1123 286.7C21.4443 287.026 21.8626 287.188 22.3672 287.188C22.7188 287.188 23.0345 287.117 23.3145 286.974C23.5977 286.83 23.8092 286.635 23.9492 286.388L24.5254 286.759C24.3398 287.094 24.0534 287.359 23.666 287.555C23.2786 287.75 22.8392 287.848 22.3477 287.848C22.0091 287.848 21.6868 287.783 21.3809 287.652C21.0781 287.522 20.8145 287.345 20.5898 287.12C20.3685 286.896 20.1927 286.625 20.0625 286.31C19.9323 285.991 19.8672 285.65 19.8672 285.289C19.8672 284.589 20.1064 283.998 20.585 283.517C21.0635 283.032 21.6478 282.789 22.3379 282.789C22.9922 282.789 23.5423 283.012 23.9883 283.458C24.4342 283.901 24.6572 284.448 24.6572 285.099ZM20.6191 284.83H23.9053C23.876 284.413 23.71 284.072 23.4072 283.805C23.1077 283.535 22.7415 283.399 22.3086 283.399C21.8822 283.399 21.5143 283.531 21.2051 283.795C20.8991 284.055 20.7038 284.4 20.6191 284.83ZM28.4707 282.789C28.9102 282.789 29.3138 282.9 29.6816 283.121C30.0527 283.342 30.3457 283.647 30.5605 284.034C30.7754 284.422 30.8828 284.846 30.8828 285.309C30.8828 285.771 30.7754 286.197 30.5605 286.588C30.3457 286.979 30.0527 287.286 29.6816 287.511C29.3138 287.735 28.9102 287.848 28.4707 287.848C28.0117 287.848 27.6113 287.742 27.2695 287.53C26.931 287.315 26.6722 287.013 26.4932 286.622V287.75H25.7607V280.748H26.4932V284.01C26.6689 283.622 26.9277 283.323 27.2695 283.111C27.6113 282.896 28.0117 282.789 28.4707 282.789ZM28.334 287.159C28.8516 287.159 29.2894 286.98 29.6475 286.622C30.0055 286.264 30.1846 285.826 30.1846 285.309C30.1846 284.798 30.0039 284.363 29.6426 284.005C29.2845 283.647 28.8483 283.468 28.334 283.468C27.8034 283.468 27.3639 283.642 27.0156 283.99C26.6673 284.339 26.4932 284.778 26.4932 285.309C26.4932 285.842 26.6673 286.285 27.0156 286.637C27.3639 286.985 27.8034 287.159 28.334 287.159Z" fill="#717579"/>
<path d="M49.9883 287.848C49.1973 287.848 48.5771 287.527 48.1279 286.886C47.682 286.244 47.459 285.366 47.459 284.249C47.459 283.132 47.682 282.254 48.1279 281.612C48.5771 280.971 49.1973 280.65 49.9883 280.65C50.776 280.65 51.3929 280.971 51.8389 281.612C52.2848 282.254 52.5078 283.132 52.5078 284.249C52.5078 285.366 52.2848 286.244 51.8389 286.886C51.3929 287.527 50.776 287.848 49.9883 287.848ZM49.9883 287.12C50.5417 287.12 50.9714 286.871 51.2773 286.373C51.5866 285.875 51.7412 285.167 51.7412 284.249C51.7412 283.331 51.5866 282.623 51.2773 282.125C50.9714 281.627 50.5417 281.378 49.9883 281.378C49.4316 281.378 49.0003 281.627 48.6943 282.125C48.3916 282.62 48.2402 283.328 48.2402 284.249C48.2402 285.17 48.3916 285.88 48.6943 286.378C49.0003 286.873 49.4316 287.12 49.9883 287.12ZM55.7549 283.238C56.3896 283.238 56.9235 283.458 57.3564 283.897C57.7894 284.337 58.0059 284.881 58.0059 285.528C58.0059 285.948 57.9001 286.337 57.6885 286.695C57.4769 287.05 57.1904 287.332 56.8291 287.54C56.4678 287.745 56.0739 287.848 55.6475 287.848C55.221 287.848 54.8271 287.745 54.4658 287.54C54.1077 287.332 53.8229 287.05 53.6113 286.695C53.403 286.337 53.2988 285.948 53.2988 285.528C53.2988 285.278 53.3477 284.998 53.4453 284.688C53.5462 284.379 53.6895 284.076 53.875 283.78L55.7646 280.748H56.6289L54.8955 283.468C55.1657 283.315 55.4521 283.238 55.7549 283.238ZM55.6475 287.13C56.1064 287.13 56.4922 286.975 56.8047 286.666C57.1204 286.354 57.2783 285.971 57.2783 285.519C57.2783 285.063 57.1188 284.677 56.7998 284.361C56.484 284.046 56.0967 283.888 55.6377 283.888C55.1885 283.888 54.8076 284.046 54.4951 284.361C54.1826 284.677 54.0264 285.063 54.0264 285.519C54.0264 285.971 54.1826 286.354 54.4951 286.666C54.8076 286.975 55.1917 287.13 55.6475 287.13ZM61.4922 280.748H65.4033V281.471H62.2393V283.731H65.0615V284.449H62.2393V287.75H61.4922V280.748ZM70.6475 285.099C70.6475 285.17 70.641 285.271 70.6279 285.401H66.5654C66.5947 285.938 66.7738 286.371 67.1025 286.7C67.4346 287.026 67.8529 287.188 68.3574 287.188C68.709 287.188 69.0247 287.117 69.3047 286.974C69.5879 286.83 69.7995 286.635 69.9395 286.388L70.5156 286.759C70.3301 287.094 70.0436 287.359 69.6562 287.555C69.2689 287.75 68.8294 287.848 68.3379 287.848C67.9993 287.848 67.6771 287.783 67.3711 287.652C67.0684 287.522 66.8047 287.345 66.5801 287.12C66.3587 286.896 66.1829 286.625 66.0527 286.31C65.9225 285.991 65.8574 285.65 65.8574 285.289C65.8574 284.589 66.0967 283.998 66.5752 283.517C67.0537 283.032 67.638 282.789 68.3281 282.789C68.9824 282.789 69.5326 283.012 69.9785 283.458C70.4245 283.901 70.6475 284.448 70.6475 285.099ZM66.6094 284.83H69.8955C69.8662 284.413 69.7002 284.072 69.3975 283.805C69.098 283.535 68.7318 283.399 68.2988 283.399C67.8724 283.399 67.5046 283.531 67.1953 283.795C66.8893 284.055 66.694 284.4 66.6094 284.83ZM74.4609 282.789C74.9004 282.789 75.304 282.9 75.6719 283.121C76.043 283.342 76.3359 283.647 76.5508 284.034C76.7656 284.422 76.873 284.846 76.873 285.309C76.873 285.771 76.7656 286.197 76.5508 286.588C76.3359 286.979 76.043 287.286 75.6719 287.511C75.304 287.735 74.9004 287.848 74.4609 287.848C74.002 287.848 73.6016 287.742 73.2598 287.53C72.9212 287.315 72.6624 287.013 72.4834 286.622V287.75H71.751V280.748H72.4834V284.01C72.6592 283.622 72.918 283.323 73.2598 283.111C73.6016 282.896 74.002 282.789 74.4609 282.789ZM74.3242 287.159C74.8418 287.159 75.2796 286.98 75.6377 286.622C75.9958 286.264 76.1748 285.826 76.1748 285.309C76.1748 284.798 75.9941 284.363 75.6328 284.005C75.2747 283.647 74.8385 283.468 74.3242 283.468C73.7936 283.468 73.3542 283.642 73.0059 283.99C72.6576 284.339 72.4834 284.778 72.4834 285.309C72.4834 285.842 72.6576 286.285 73.0059 286.637C73.3542 286.985 73.7936 287.159 74.3242 287.159Z" fill="#717579"/>
<path d="M95.9883 287.848C95.1973 287.848 94.5771 287.527 94.1279 286.886C93.682 286.244 93.459 285.366 93.459 284.249C93.459 283.132 93.682 282.254 94.1279 281.612C94.5771 280.971 95.1973 280.65 95.9883 280.65C96.776 280.65 97.3929 280.971 97.8389 281.612C98.2848 282.254 98.5078 283.132 98.5078 284.249C98.5078 285.366 98.2848 286.244 97.8389 286.886C97.3929 287.527 96.776 287.848 95.9883 287.848ZM95.9883 287.12C96.5417 287.12 96.9714 286.871 97.2773 286.373C97.5866 285.875 97.7412 285.167 97.7412 284.249C97.7412 283.331 97.5866 282.623 97.2773 282.125C96.9714 281.627 96.5417 281.378 95.9883 281.378C95.4316 281.378 95.0003 281.627 94.6943 282.125C94.3916 282.62 94.2402 283.328 94.2402 284.249C94.2402 285.17 94.3916 285.88 94.6943 286.378C95.0003 286.873 95.4316 287.12 95.9883 287.12ZM98.8936 280.748H103.483V281.29L100.412 287.75H99.5723L102.58 281.471H98.8936V280.748ZM106.926 280.748H110.837V281.471H107.673V283.731H110.495V284.449H107.673V287.75H106.926V280.748ZM116.081 285.099C116.081 285.17 116.075 285.271 116.062 285.401H111.999C112.028 285.938 112.207 286.371 112.536 286.7C112.868 287.026 113.286 287.188 113.791 287.188C114.143 287.188 114.458 287.117 114.738 286.974C115.021 286.83 115.233 286.635 115.373 286.388L115.949 286.759C115.764 287.094 115.477 287.359 115.09 287.555C114.702 287.75 114.263 287.848 113.771 287.848C113.433 287.848 113.111 287.783 112.805 287.652C112.502 287.522 112.238 287.345 112.014 287.12C111.792 286.896 111.617 286.625 111.486 286.31C111.356 285.991 111.291 285.65 111.291 285.289C111.291 284.589 111.53 283.998 112.009 283.517C112.487 283.032 113.072 282.789 113.762 282.789C114.416 282.789 114.966 283.012 115.412 283.458C115.858 283.901 116.081 284.448 116.081 285.099ZM112.043 284.83H115.329C115.3 284.413 115.134 284.072 114.831 283.805C114.532 283.535 114.165 283.399 113.732 283.399C113.306 283.399 112.938 283.531 112.629 283.795C112.323 284.055 112.128 284.4 112.043 284.83ZM119.895 282.789C120.334 282.789 120.738 282.9 121.105 283.121C121.477 283.342 121.77 283.647 121.984 284.034C122.199 284.422 122.307 284.846 122.307 285.309C122.307 285.771 122.199 286.197 121.984 286.588C121.77 286.979 121.477 287.286 121.105 287.511C120.738 287.735 120.334 287.848 119.895 287.848C119.436 287.848 119.035 287.742 118.693 287.53C118.355 287.315 118.096 287.013 117.917 286.622V287.75H117.185V280.748H117.917V284.01C118.093 283.622 118.352 283.323 118.693 283.111C119.035 282.896 119.436 282.789 119.895 282.789ZM119.758 287.159C120.275 287.159 120.713 286.98 121.071 286.622C121.429 286.264 121.608 285.826 121.608 285.309C121.608 284.798 121.428 284.363 121.066 284.005C120.708 283.647 120.272 283.468 119.758 283.468C119.227 283.468 118.788 283.642 118.439 283.99C118.091 284.339 117.917 284.778 117.917 285.309C117.917 285.842 118.091 286.285 118.439 286.637C118.788 286.985 119.227 287.159 119.758 287.159Z" fill="#717579"/>
<path d="M140.988 287.848C140.197 287.848 139.577 287.527 139.128 286.886C138.682 286.244 138.459 285.366 138.459 284.249C138.459 283.132 138.682 282.254 139.128 281.612C139.577 280.971 140.197 280.65 140.988 280.65C141.776 280.65 142.393 280.971 142.839 281.612C143.285 282.254 143.508 283.132 143.508 284.249C143.508 285.366 143.285 286.244 142.839 286.886C142.393 287.527 141.776 287.848 140.988 287.848ZM140.988 287.12C141.542 287.12 141.971 286.871 142.277 286.373C142.587 285.875 142.741 285.167 142.741 284.249C142.741 283.331 142.587 282.623 142.277 282.125C141.971 281.627 141.542 281.378 140.988 281.378C140.432 281.378 140 281.627 139.694 282.125C139.392 282.62 139.24 283.328 139.24 284.249C139.24 285.17 139.392 285.88 139.694 286.378C140 286.873 140.432 287.12 140.988 287.12ZM148.283 287.262C147.85 287.646 147.299 287.838 146.628 287.838C145.957 287.838 145.404 287.646 144.968 287.262C144.535 286.878 144.318 286.391 144.318 285.802C144.318 285.382 144.449 285.004 144.709 284.669C144.969 284.33 145.308 284.101 145.725 283.98C145.396 283.87 145.126 283.673 144.914 283.39C144.702 283.106 144.597 282.797 144.597 282.462C144.597 281.941 144.787 281.513 145.168 281.178C145.552 280.839 146.039 280.67 146.628 280.67C147.217 280.67 147.702 280.839 148.083 281.178C148.467 281.513 148.659 281.941 148.659 282.462C148.659 282.797 148.552 283.106 148.337 283.39C148.125 283.673 147.855 283.87 147.526 283.98C147.943 284.101 148.282 284.33 148.542 284.669C148.806 285.004 148.938 285.382 148.938 285.802C148.938 286.391 148.719 286.878 148.283 287.262ZM145.69 283.312C145.935 283.523 146.247 283.629 146.628 283.629C147.009 283.629 147.32 283.523 147.561 283.312C147.805 283.1 147.927 282.826 147.927 282.491C147.927 282.159 147.805 281.886 147.561 281.671C147.32 281.456 147.009 281.349 146.628 281.349C146.247 281.349 145.935 281.456 145.69 281.671C145.45 281.886 145.329 282.159 145.329 282.491C145.329 282.826 145.45 283.1 145.69 283.312ZM145.5 286.744C145.799 287.008 146.175 287.14 146.628 287.14C147.08 287.14 147.455 287.008 147.751 286.744C148.047 286.48 148.195 286.148 148.195 285.748C148.195 285.351 148.047 285.024 147.751 284.767C147.455 284.509 147.08 284.381 146.628 284.381C146.172 284.381 145.796 284.511 145.5 284.771C145.204 285.029 145.056 285.354 145.056 285.748C145.056 286.148 145.204 286.48 145.5 286.744ZM152.492 280.748H156.403V281.471H153.239V283.731H156.062V284.449H153.239V287.75H152.492V280.748ZM161.647 285.099C161.647 285.17 161.641 285.271 161.628 285.401H157.565C157.595 285.938 157.774 286.371 158.103 286.7C158.435 287.026 158.853 287.188 159.357 287.188C159.709 287.188 160.025 287.117 160.305 286.974C160.588 286.83 160.799 286.635 160.939 286.388L161.516 286.759C161.33 287.094 161.044 287.359 160.656 287.555C160.269 287.75 159.829 287.848 159.338 287.848C158.999 287.848 158.677 287.783 158.371 287.652C158.068 287.522 157.805 287.345 157.58 287.12C157.359 286.896 157.183 286.625 157.053 286.31C156.923 285.991 156.857 285.65 156.857 285.289C156.857 284.589 157.097 283.998 157.575 283.517C158.054 283.032 158.638 282.789 159.328 282.789C159.982 282.789 160.533 283.012 160.979 283.458C161.424 283.901 161.647 284.448 161.647 285.099ZM157.609 284.83H160.896C160.866 284.413 160.7 284.072 160.397 283.805C160.098 283.535 159.732 283.399 159.299 283.399C158.872 283.399 158.505 283.531 158.195 283.795C157.889 284.055 157.694 284.4 157.609 284.83ZM165.461 282.789C165.9 282.789 166.304 282.9 166.672 283.121C167.043 283.342 167.336 283.647 167.551 284.034C167.766 284.422 167.873 284.846 167.873 285.309C167.873 285.771 167.766 286.197 167.551 286.588C167.336 286.979 167.043 287.286 166.672 287.511C166.304 287.735 165.9 287.848 165.461 287.848C165.002 287.848 164.602 287.742 164.26 287.53C163.921 287.315 163.662 287.013 163.483 286.622V287.75H162.751V280.748H163.483V284.01C163.659 283.622 163.918 283.323 164.26 283.111C164.602 282.896 165.002 282.789 165.461 282.789ZM165.324 287.159C165.842 287.159 166.28 286.98 166.638 286.622C166.996 286.264 167.175 285.826 167.175 285.309C167.175 284.798 166.994 284.363 166.633 284.005C166.275 283.647 165.839 283.468 165.324 283.468C164.794 283.468 164.354 283.642 164.006 283.99C163.658 284.339 163.483 284.778 163.483 285.309C163.483 285.842 163.658 286.285 164.006 286.637C164.354 286.985 164.794 287.159 165.324 287.159Z" fill="#717579"/>
<path d="M186.988 287.848C186.197 287.848 185.577 287.527 185.128 286.886C184.682 286.244 184.459 285.366 184.459 284.249C184.459 283.132 184.682 282.254 185.128 281.612C185.577 280.971 186.197 280.65 186.988 280.65C187.776 280.65 188.393 280.971 188.839 281.612C189.285 282.254 189.508 283.132 189.508 284.249C189.508 285.366 189.285 286.244 188.839 286.886C188.393 287.527 187.776 287.848 186.988 287.848ZM186.988 287.12C187.542 287.12 187.971 286.871 188.277 286.373C188.587 285.875 188.741 285.167 188.741 284.249C188.741 283.331 188.587 282.623 188.277 282.125C187.971 281.627 187.542 281.378 186.988 281.378C186.432 281.378 186 281.627 185.694 282.125C185.392 282.62 185.24 283.328 185.24 284.249C185.24 285.17 185.392 285.88 185.694 286.378C186 286.873 186.432 287.12 186.988 287.12ZM191.422 280.963C191.786 280.755 192.182 280.65 192.608 280.65C193.035 280.65 193.429 280.755 193.79 280.963C194.151 281.168 194.438 281.45 194.649 281.808C194.861 282.162 194.967 282.55 194.967 282.97C194.967 283.217 194.915 283.495 194.811 283.805C194.71 284.111 194.565 284.415 194.376 284.718L192.486 287.75H191.627L193.375 285.011C193.108 285.177 192.815 285.26 192.496 285.26C191.861 285.26 191.327 285.04 190.895 284.601C190.462 284.161 190.245 283.618 190.245 282.97C190.245 282.55 190.351 282.162 190.562 281.808C190.774 281.45 191.061 281.168 191.422 280.963ZM192.618 284.61C193.067 284.61 193.447 284.452 193.756 284.137C194.068 283.821 194.225 283.435 194.225 282.979C194.225 282.527 194.068 282.146 193.756 281.837C193.447 281.524 193.064 281.368 192.608 281.368C192.149 281.368 191.762 281.524 191.446 281.837C191.134 282.146 190.978 282.527 190.978 282.979C190.978 283.435 191.135 283.821 191.451 284.137C191.77 284.452 192.159 284.61 192.618 284.61ZM198.492 280.748H202.403V281.471H199.239V283.731H202.062V284.449H199.239V287.75H198.492V280.748ZM207.647 285.099C207.647 285.17 207.641 285.271 207.628 285.401H203.565C203.595 285.938 203.774 286.371 204.103 286.7C204.435 287.026 204.853 287.188 205.357 287.188C205.709 287.188 206.025 287.117 206.305 286.974C206.588 286.83 206.799 286.635 206.939 286.388L207.516 286.759C207.33 287.094 207.044 287.359 206.656 287.555C206.269 287.75 205.829 287.848 205.338 287.848C204.999 287.848 204.677 287.783 204.371 287.652C204.068 287.522 203.805 287.345 203.58 287.12C203.359 286.896 203.183 286.625 203.053 286.31C202.923 285.991 202.857 285.65 202.857 285.289C202.857 284.589 203.097 283.998 203.575 283.517C204.054 283.032 204.638 282.789 205.328 282.789C205.982 282.789 206.533 283.012 206.979 283.458C207.424 283.901 207.647 284.448 207.647 285.099ZM203.609 284.83H206.896C206.866 284.413 206.7 284.072 206.397 283.805C206.098 283.535 205.732 283.399 205.299 283.399C204.872 283.399 204.505 283.531 204.195 283.795C203.889 284.055 203.694 284.4 203.609 284.83ZM211.461 282.789C211.9 282.789 212.304 282.9 212.672 283.121C213.043 283.342 213.336 283.647 213.551 284.034C213.766 284.422 213.873 284.846 213.873 285.309C213.873 285.771 213.766 286.197 213.551 286.588C213.336 286.979 213.043 287.286 212.672 287.511C212.304 287.735 211.9 287.848 211.461 287.848C211.002 287.848 210.602 287.742 210.26 287.53C209.921 287.315 209.662 287.013 209.483 286.622V287.75H208.751V280.748H209.483V284.01C209.659 283.622 209.918 283.323 210.26 283.111C210.602 282.896 211.002 282.789 211.461 282.789ZM211.324 287.159C211.842 287.159 212.28 286.98 212.638 286.622C212.996 286.264 213.175 285.826 213.175 285.309C213.175 284.798 212.994 284.363 212.633 284.005C212.275 283.647 211.839 283.468 211.324 283.468C210.794 283.468 210.354 283.642 210.006 283.99C209.658 284.339 209.483 284.778 209.483 285.309C209.483 285.842 209.658 286.285 210.006 286.637C210.354 286.985 210.794 287.159 211.324 287.159Z" fill="#717579"/>
<path d="M232.842 280.748V287.75H232.08V281.788L230.469 283.17V282.242L232.29 280.748H232.842ZM236.611 287.848C235.82 287.848 235.2 287.527 234.751 286.886C234.305 286.244 234.082 285.366 234.082 284.249C234.082 283.132 234.305 282.254 234.751 281.612C235.2 280.971 235.82 280.65 236.611 280.65C237.399 280.65 238.016 280.971 238.462 281.612C238.908 282.254 239.131 283.132 239.131 284.249C239.131 285.366 238.908 286.244 238.462 286.886C238.016 287.527 237.399 287.848 236.611 287.848ZM236.611 287.12C237.165 287.12 237.594 286.871 237.9 286.373C238.21 285.875 238.364 285.167 238.364 284.249C238.364 283.331 238.21 282.623 237.9 282.125C237.594 281.627 237.165 281.378 236.611 281.378C236.055 281.378 235.623 281.627 235.317 282.125C235.015 282.62 234.863 283.328 234.863 284.249C234.863 285.17 235.015 285.88 235.317 286.378C235.623 286.873 236.055 287.12 236.611 287.12ZM242.793 280.748H246.704V281.471H243.54V283.731H246.362V284.449H243.54V287.75H242.793V280.748ZM251.948 285.099C251.948 285.17 251.942 285.271 251.929 285.401H247.866C247.896 285.938 248.075 286.371 248.403 286.7C248.735 287.026 249.154 287.188 249.658 287.188C250.01 287.188 250.326 287.117 250.605 286.974C250.889 286.83 251.1 286.635 251.24 286.388L251.816 286.759C251.631 287.094 251.344 287.359 250.957 287.555C250.57 287.75 250.13 287.848 249.639 287.848C249.3 287.848 248.978 287.783 248.672 287.652C248.369 287.522 248.105 287.345 247.881 287.12C247.66 286.896 247.484 286.625 247.354 286.31C247.223 285.991 247.158 285.65 247.158 285.289C247.158 284.589 247.397 283.998 247.876 283.517C248.354 283.032 248.939 282.789 249.629 282.789C250.283 282.789 250.833 283.012 251.279 283.458C251.725 283.901 251.948 284.448 251.948 285.099ZM247.91 284.83H251.196C251.167 284.413 251.001 284.072 250.698 283.805C250.399 283.535 250.033 283.399 249.6 283.399C249.173 283.399 248.805 283.531 248.496 283.795C248.19 284.055 247.995 284.4 247.91 284.83ZM255.762 282.789C256.201 282.789 256.605 282.9 256.973 283.121C257.344 283.342 257.637 283.647 257.852 284.034C258.066 284.422 258.174 284.846 258.174 285.309C258.174 285.771 258.066 286.197 257.852 286.588C257.637 286.979 257.344 287.286 256.973 287.511C256.605 287.735 256.201 287.848 255.762 287.848C255.303 287.848 254.902 287.742 254.561 287.53C254.222 287.315 253.963 287.013 253.784 286.622V287.75H253.052V280.748H253.784V284.01C253.96 283.622 254.219 283.323 254.561 283.111C254.902 282.896 255.303 282.789 255.762 282.789ZM255.625 287.159C256.143 287.159 256.58 286.98 256.938 286.622C257.297 286.264 257.476 285.826 257.476 285.309C257.476 284.798 257.295 284.363 256.934 284.005C256.576 283.647 256.139 283.468 255.625 283.468C255.094 283.468 254.655 283.642 254.307 283.99C253.958 284.339 253.784 284.778 253.784 285.309C253.784 285.842 253.958 286.285 254.307 286.637C254.655 286.985 255.094 287.159 255.625 287.159Z" fill="#717579"/>
<path d="M277.315 278.833V287H276.426V280.046L274.547 281.658V280.576L276.671 278.833H277.315ZM281.541 278.833V287H280.652V280.046L278.773 281.658V280.576L280.897 278.833H281.541ZM286.188 278.833H290.75V279.676H287.06V282.313H290.351V283.15H287.06V287H286.188V278.833ZM296.867 283.907C296.867 283.991 296.859 284.109 296.844 284.261H292.106C292.14 284.887 292.349 285.392 292.732 285.775C293.119 286.155 293.607 286.345 294.196 286.345C294.606 286.345 294.974 286.261 295.301 286.094C295.631 285.927 295.878 285.7 296.041 285.411L296.713 285.844C296.497 286.235 296.163 286.544 295.711 286.772C295.259 287 294.746 287.114 294.173 287.114C293.778 287.114 293.402 287.038 293.045 286.886C292.692 286.734 292.385 286.527 292.123 286.265C291.865 286.003 291.66 285.688 291.508 285.32C291.356 284.948 291.28 284.551 291.28 284.13C291.28 283.313 291.559 282.624 292.117 282.062C292.675 281.496 293.357 281.213 294.162 281.213C294.925 281.213 295.567 281.474 296.087 281.994C296.607 282.51 296.867 283.148 296.867 283.907ZM292.157 283.594H295.99C295.956 283.108 295.762 282.709 295.409 282.398C295.06 282.083 294.632 281.925 294.128 281.925C293.63 281.925 293.201 282.079 292.84 282.387C292.483 282.69 292.256 283.093 292.157 283.594ZM301.315 281.213C301.828 281.213 302.298 281.343 302.728 281.601C303.16 281.859 303.502 282.214 303.753 282.666C304.003 283.118 304.129 283.613 304.129 284.152C304.129 284.691 304.003 285.189 303.753 285.644C303.502 286.1 303.16 286.459 302.728 286.721C302.298 286.983 301.828 287.114 301.315 287.114C300.78 287.114 300.313 286.991 299.914 286.744C299.519 286.493 299.217 286.14 299.008 285.684V287H298.154V278.833H299.008V282.637C299.213 282.185 299.515 281.836 299.914 281.589C300.313 281.339 300.78 281.213 301.315 281.213ZM301.156 286.311C301.759 286.311 302.27 286.102 302.688 285.684C303.105 285.267 303.314 284.756 303.314 284.152C303.314 283.556 303.103 283.049 302.682 282.632C302.264 282.214 301.756 282.005 301.156 282.005C300.537 282.005 300.024 282.208 299.618 282.615C299.212 283.021 299.008 283.533 299.008 284.152C299.008 284.775 299.212 285.291 299.618 285.701C300.024 286.108 300.537 286.311 301.156 286.311Z" fill="#717579"/>
<path d="M315.052 6.34687L317.444 3.67573H313.548V2.83281H318.691V3.45361L316.174 6.1817C316.261 6.16651 316.389 6.15892 316.556 6.15892C317.201 6.15892 317.744 6.37724 318.184 6.81389C318.625 7.24674 318.845 7.79539 318.845 8.45986C318.845 9.23443 318.583 9.87041 318.059 10.3678C317.539 10.8652 316.875 11.1139 316.066 11.1139C315.382 11.1139 314.781 10.9222 314.26 10.5387C313.744 10.1552 313.421 9.66348 313.292 9.06357L314.072 8.78449C314.179 9.21734 314.418 9.57236 314.79 9.84953C315.162 10.1267 315.587 10.2653 316.066 10.2653C316.609 10.2653 317.055 10.0944 317.404 9.75271C317.757 9.40719 317.934 8.96675 317.934 8.43138C317.934 7.93778 317.765 7.5429 317.427 7.24674C317.093 6.95058 316.671 6.8025 316.163 6.8025C315.87 6.8025 315.597 6.84426 315.342 6.9278L315.052 6.34687ZM324.358 10.4305C323.853 10.8785 323.21 11.1025 322.428 11.1025C321.645 11.1025 321 10.8785 320.491 10.4305C319.986 9.98242 319.734 9.41478 319.734 8.72754C319.734 8.23774 319.885 7.79729 320.189 7.40621C320.493 7.01133 320.888 6.74365 321.374 6.60316C320.99 6.47406 320.675 6.24435 320.428 5.91402C320.182 5.58368 320.058 5.22298 320.058 4.83189C320.058 4.22438 320.28 3.72509 320.725 3.33401C321.173 2.93913 321.74 2.74169 322.428 2.74169C323.115 2.74169 323.681 2.93913 324.125 3.33401C324.573 3.72509 324.797 4.22438 324.797 4.83189C324.797 5.22298 324.672 5.58368 324.421 5.91402C324.174 6.24435 323.859 6.47406 323.475 6.60316C323.961 6.74365 324.356 7.01133 324.66 7.40621C324.968 7.79729 325.121 8.23774 325.121 8.72754C325.121 9.41478 324.867 9.98242 324.358 10.4305ZM321.334 5.82289C321.619 6.06969 321.983 6.19309 322.428 6.19309C322.872 6.19309 323.234 6.06969 323.515 5.82289C323.8 5.57609 323.943 5.25715 323.943 4.86607C323.943 4.47878 323.8 4.15984 323.515 3.90924C323.234 3.65864 322.872 3.53334 322.428 3.53334C321.983 3.53334 321.619 3.65864 321.334 3.90924C321.053 4.15984 320.913 4.47878 320.913 4.86607C320.913 5.25715 321.053 5.57609 321.334 5.82289ZM321.112 9.82675C321.461 10.1343 321.9 10.2881 322.428 10.2881C322.955 10.2881 323.392 10.1343 323.737 9.82675C324.083 9.5192 324.256 9.13191 324.256 8.66489C324.256 8.20167 324.083 7.82007 323.737 7.52012C323.392 7.22016 322.955 7.07018 322.428 7.07018C321.896 7.07018 321.457 7.22206 321.112 7.52581C320.766 7.82577 320.594 8.20546 320.594 8.66489C320.594 9.13191 320.766 9.5192 321.112 9.82675ZM326.887 11.1139C326.693 11.1139 326.532 11.0513 326.403 10.926C326.274 10.7969 326.209 10.6355 326.209 10.4419C326.209 10.252 326.274 10.0925 326.403 9.96344C326.532 9.83055 326.693 9.7641 326.887 9.7641C327.084 9.7641 327.248 9.83055 327.377 9.96344C327.506 10.0925 327.57 10.252 327.57 10.4419C327.57 10.6355 327.506 10.7969 327.377 10.926C327.248 11.0513 327.084 11.1139 326.887 11.1139ZM328.123 2.83281H333.477V3.465L329.894 11H328.915L332.423 3.67573H328.123V2.83281ZM336.956 11.1139C336.034 11.1139 335.311 10.7399 334.787 9.99192C334.266 9.24392 334.006 8.21875 334.006 6.91641C334.006 5.61406 334.266 4.58889 334.787 3.8409C335.311 3.0929 336.034 2.7189 336.956 2.7189C337.875 2.7189 338.595 3.0929 339.115 3.8409C339.635 4.58889 339.895 5.61406 339.895 6.91641C339.895 8.21875 339.635 9.24392 339.115 9.99192C338.595 10.7399 337.875 11.1139 336.956 11.1139ZM336.956 10.2653C337.602 10.2653 338.103 9.97483 338.46 9.3939C338.821 8.81297 339.001 7.98714 339.001 6.91641C339.001 5.84567 338.821 5.01984 338.46 4.43891C338.103 3.85798 337.602 3.56752 336.956 3.56752C336.307 3.56752 335.804 3.85798 335.447 4.43891C335.094 5.01604 334.918 5.84188 334.918 6.91641C334.918 7.99094 335.094 8.81867 335.447 9.3996C335.804 9.97673 336.307 10.2653 336.956 10.2653ZM347.333 11H346.16L342.225 6.90501V11H341.353V2.83281H342.225V6.54621L345.841 2.83281H346.986L343.159 6.71707L347.333 11Z" fill="#717579"/>
<path d="M314.062 46.843L316.454 44.1718H312.558V43.3289H317.701V43.9497L315.184 46.6778C315.271 46.6626 315.398 46.655 315.565 46.655C316.211 46.655 316.754 46.8733 317.194 47.31C317.635 47.7428 317.855 48.2915 317.855 48.9559C317.855 49.7305 317.593 50.3665 317.069 50.8639C316.549 51.3613 315.884 51.61 315.075 51.61C314.392 51.61 313.79 51.4183 313.27 51.0348C312.754 50.6513 312.431 50.1596 312.302 49.5597L313.082 49.2806C313.188 49.7134 313.428 50.0684 313.8 50.3456C314.172 50.6228 314.597 50.7614 315.075 50.7614C315.618 50.7614 316.065 50.5905 316.414 50.2488C316.767 49.9033 316.944 49.4628 316.944 48.9275C316.944 48.4339 316.775 48.039 316.437 47.7428C316.102 47.4467 315.681 47.2986 315.172 47.2986C314.88 47.2986 314.607 47.3404 314.352 47.4239L314.062 46.843ZM323.368 50.9266C322.863 51.3746 322.219 51.5986 321.437 51.5986C320.655 51.5986 320.01 51.3746 319.501 50.9266C318.996 50.4785 318.743 49.9109 318.743 49.2236C318.743 48.7338 318.895 48.2934 319.199 47.9023C319.503 47.5074 319.898 47.2397 320.384 47.0993C320 46.9702 319.685 46.7404 319.438 46.4101C319.191 46.0798 319.068 45.7191 319.068 45.328C319.068 44.7205 319.29 44.2212 319.734 43.8301C320.182 43.4352 320.75 43.2378 321.437 43.2378C322.124 43.2378 322.69 43.4352 323.134 43.8301C323.582 44.2212 323.806 44.7205 323.806 45.328C323.806 45.7191 323.681 46.0798 323.431 46.4101C323.184 46.7404 322.869 46.9702 322.485 47.0993C322.971 47.2397 323.366 47.5074 323.67 47.9023C323.977 48.2934 324.131 48.7338 324.131 49.2236C324.131 49.9109 323.877 50.4785 323.368 50.9266ZM320.344 46.319C320.628 46.5658 320.993 46.6892 321.437 46.6892C321.881 46.6892 322.244 46.5658 322.525 46.319C322.81 46.0722 322.952 45.7532 322.952 45.3622C322.952 44.9749 322.81 44.6559 322.525 44.4053C322.244 44.1547 321.881 44.0294 321.437 44.0294C320.993 44.0294 320.628 44.1547 320.344 44.4053C320.063 44.6559 319.922 44.9749 319.922 45.3622C319.922 45.7532 320.063 46.0722 320.344 46.319ZM320.122 50.3228C320.471 50.6304 320.909 50.7842 321.437 50.7842C321.965 50.7842 322.402 50.6304 322.747 50.3228C323.093 50.0153 323.265 49.628 323.265 49.161C323.265 48.6978 323.093 48.3162 322.747 48.0162C322.402 47.7163 321.965 47.5663 321.437 47.5663C320.906 47.5663 320.467 47.7182 320.122 48.0219C319.776 48.3219 319.603 48.7016 319.603 49.161C319.603 49.628 319.776 50.0153 320.122 50.3228ZM325.897 51.61C325.703 51.61 325.542 51.5474 325.413 51.4221C325.283 51.293 325.219 51.1316 325.219 50.9379C325.219 50.7481 325.283 50.5886 325.413 50.4595C325.542 50.3266 325.703 50.2602 325.897 50.2602C326.094 50.2602 326.257 50.3266 326.386 50.4595C326.516 50.5886 326.58 50.7481 326.58 50.9379C326.58 51.1316 326.516 51.293 326.386 51.4221C326.257 51.5474 326.094 51.61 325.897 51.61ZM330.516 46.2336C331.256 46.2336 331.879 46.4898 332.384 47.0024C332.889 47.515 333.141 48.1491 333.141 48.9047C333.141 49.3945 333.018 49.8482 332.771 50.2659C332.524 50.6798 332.19 51.0082 331.769 51.2512C331.347 51.4904 330.888 51.61 330.39 51.61C329.893 51.61 329.434 51.4904 329.012 51.2512C328.594 51.0082 328.262 50.6798 328.015 50.2659C327.772 49.8482 327.651 49.3945 327.651 48.9047C327.651 48.6123 327.708 48.2858 327.822 47.9251C327.939 47.5644 328.106 47.2113 328.323 46.8657L330.527 43.3289H331.535L329.513 46.5012C329.828 46.3228 330.163 46.2336 330.516 46.2336ZM330.39 50.7728C330.926 50.7728 331.376 50.5924 331.74 50.2317C332.108 49.8672 332.293 49.4211 332.293 48.8933C332.293 48.3617 332.107 47.9118 331.734 47.5435C331.366 47.1752 330.914 46.991 330.379 46.991C329.855 46.991 329.411 47.1752 329.046 47.5435C328.682 47.9118 328.499 48.3617 328.499 48.8933C328.499 49.4211 328.682 49.8672 329.046 50.2317C329.411 50.5924 329.859 50.7728 330.39 50.7728ZM336.957 51.61C336.034 51.61 335.311 51.236 334.787 50.488C334.267 49.74 334.007 48.7148 334.007 47.4125C334.007 46.1102 334.267 45.085 334.787 44.337C335.311 43.589 336.034 43.215 336.957 43.215C337.876 43.215 338.595 43.589 339.116 44.337C339.636 45.085 339.896 46.1102 339.896 47.4125C339.896 48.7148 339.636 49.74 339.116 50.488C338.595 51.236 337.876 51.61 336.957 51.61ZM336.957 50.7614C337.603 50.7614 338.104 50.4709 338.461 49.89C338.821 49.3091 339.002 48.4832 339.002 47.4125C339.002 46.3418 338.821 45.5159 338.461 44.935C338.104 44.3541 337.603 44.0636 336.957 44.0636C336.308 44.0636 335.805 44.3541 335.448 44.935C335.095 45.5121 334.918 46.338 334.918 47.4125C334.918 48.487 335.095 49.3148 335.448 49.8957C335.805 50.4728 336.308 50.7614 336.957 50.7614ZM347.334 51.4961H346.161L342.225 47.4011V51.4961H341.354V43.3289H342.225V47.0423L345.842 43.3289H346.987L343.159 47.2132L347.334 51.4961Z" fill="#717579"/>
<path d="M314.05 87.3391L316.442 84.6679H312.546V83.825H317.689V84.4458L315.172 87.1739C315.259 87.1587 315.386 87.1511 315.553 87.1511C316.199 87.1511 316.742 87.3694 317.182 87.8061C317.623 88.2389 317.843 88.7876 317.843 89.452C317.843 90.2266 317.581 90.8626 317.057 91.36C316.537 91.8574 315.872 92.1061 315.063 92.1061C314.38 92.1061 313.778 91.9144 313.258 91.5309C312.742 91.1474 312.419 90.6557 312.29 90.0558L313.07 89.7767C313.176 90.2095 313.416 90.5645 313.788 90.8417C314.16 91.1189 314.585 91.2575 315.063 91.2575C315.606 91.2575 316.052 91.0866 316.402 90.7449C316.755 90.3994 316.931 89.9589 316.931 89.4236C316.931 88.93 316.763 88.5351 316.425 88.2389C316.09 87.9428 315.669 87.7947 315.16 87.7947C314.868 87.7947 314.594 87.8365 314.34 87.92L314.05 87.3391ZM323.356 91.4226C322.851 91.8707 322.207 92.0947 321.425 92.0947C320.643 92.0947 319.998 91.8707 319.489 91.4226C318.984 90.9746 318.731 90.407 318.731 89.7197C318.731 89.2299 318.883 88.7895 319.187 88.3984C319.491 88.0035 319.885 87.7358 320.371 87.5953C319.988 87.4663 319.673 87.2365 319.426 86.9062C319.179 86.5759 319.056 86.2152 319.056 85.8241C319.056 85.2166 319.278 84.7173 319.722 84.3262C320.17 83.9313 320.738 83.7339 321.425 83.7339C322.112 83.7339 322.678 83.9313 323.122 84.3262C323.57 84.7173 323.794 85.2166 323.794 85.8241C323.794 86.2152 323.669 86.5759 323.419 86.9062C323.172 87.2365 322.857 87.4663 322.473 87.5953C322.959 87.7358 323.354 88.0035 323.658 88.3984C323.965 88.7895 324.119 89.2299 324.119 89.7197C324.119 90.407 323.865 90.9746 323.356 91.4226ZM320.332 86.8151C320.616 87.0619 320.981 87.1853 321.425 87.1853C321.869 87.1853 322.232 87.0619 322.513 86.8151C322.798 86.5683 322.94 86.2493 322.94 85.8583C322.94 85.471 322.798 85.152 322.513 84.9014C322.232 84.6508 321.869 84.5255 321.425 84.5255C320.981 84.5255 320.616 84.6508 320.332 84.9014C320.051 85.152 319.91 85.471 319.91 85.8583C319.91 86.2493 320.051 86.5683 320.332 86.8151ZM320.11 90.8189C320.459 91.1265 320.897 91.2803 321.425 91.2803C321.953 91.2803 322.39 91.1265 322.735 90.8189C323.081 90.5114 323.253 90.1241 323.253 89.6571C323.253 89.1939 323.081 88.8123 322.735 88.5123C322.39 88.2123 321.953 88.0624 321.425 88.0624C320.894 88.0624 320.455 88.2142 320.11 88.518C319.764 88.818 319.591 89.1976 319.591 89.6571C319.591 90.1241 319.764 90.5114 320.11 90.8189ZM325.885 92.1061C325.691 92.1061 325.53 92.0434 325.401 91.9181C325.271 91.7891 325.207 91.6277 325.207 91.434C325.207 91.2442 325.271 91.0847 325.401 90.9556C325.53 90.8227 325.691 90.7563 325.885 90.7563C326.082 90.7563 326.245 90.8227 326.374 90.9556C326.504 91.0847 326.568 91.2442 326.568 91.434C326.568 91.6277 326.504 91.7891 326.374 91.9181C326.245 92.0434 326.082 92.1061 325.885 92.1061ZM330.299 92.1061C329.619 92.1061 329.013 91.9125 328.482 91.5252C327.954 91.1341 327.629 90.6443 327.508 90.0558L328.311 89.7995C328.432 90.2285 328.675 90.5797 329.04 90.8531C329.408 91.1227 329.828 91.2575 330.299 91.2575C330.815 91.2575 331.248 91.0847 331.597 90.7392C331.95 90.3899 332.127 89.9646 332.127 89.4634C332.127 88.9395 331.95 88.4971 331.597 88.1364C331.248 87.7757 330.815 87.5953 330.299 87.5953C329.995 87.5953 329.704 87.6466 329.427 87.7491C329.154 87.8478 328.937 87.9864 328.778 88.1649L328.02 87.9769L328.385 83.825H332.525V84.6565H329.177L328.909 87.2821C329.076 87.1378 329.294 87.0239 329.564 86.9404C329.833 86.8568 330.113 86.8151 330.401 86.8151C331.153 86.8151 331.779 87.0657 332.281 87.5669C332.786 88.0681 333.038 88.704 333.038 89.4748C333.038 90.2076 332.772 90.8303 332.241 91.3429C331.709 91.8517 331.062 92.1061 330.299 92.1061ZM336.956 92.1061C336.034 92.1061 335.311 91.7321 334.787 90.9841C334.266 90.2361 334.006 89.2109 334.006 87.9086C334.006 86.6062 334.266 85.5811 334.787 84.8331C335.311 84.0851 336.034 83.7111 336.956 83.7111C337.875 83.7111 338.595 84.0851 339.115 84.8331C339.635 85.5811 339.895 86.6062 339.895 87.9086C339.895 89.2109 339.635 90.2361 339.115 90.9841C338.595 91.7321 337.875 92.1061 336.956 92.1061ZM336.956 91.2575C337.602 91.2575 338.103 90.967 338.46 90.3861C338.821 89.8052 339.001 88.9793 339.001 87.9086C339.001 86.8379 338.821 86.012 338.46 85.4311C338.103 84.8502 337.602 84.5597 336.956 84.5597C336.307 84.5597 335.804 84.8502 335.447 85.4311C335.094 86.0082 334.918 86.8341 334.918 87.9086C334.918 88.9831 335.094 89.8109 335.447 90.3918C335.804 90.9689 336.307 91.2575 336.956 91.2575ZM347.333 91.9922H346.16L342.225 87.8972V91.9922H341.353V83.825H342.225V87.5384L345.841 83.825H346.986L343.159 87.7093L347.333 91.9922Z" fill="#717579"/>
<path d="M313.822 127.835L316.214 125.164H312.318V124.321H317.461V124.942L314.944 127.67C315.031 127.655 315.158 127.647 315.325 127.647C315.971 127.647 316.514 127.866 316.954 128.302C317.395 128.735 317.615 129.284 317.615 129.948C317.615 130.723 317.353 131.359 316.829 131.856C316.309 132.353 315.644 132.602 314.836 132.602C314.152 132.602 313.55 132.41 313.03 132.027C312.514 131.643 312.191 131.152 312.062 130.552L312.842 130.273C312.949 130.706 313.188 131.061 313.56 131.338C313.932 131.615 314.357 131.754 314.836 131.754C315.379 131.754 315.825 131.583 316.174 131.241C316.527 130.895 316.704 130.455 316.704 129.92C316.704 129.426 316.535 129.031 316.197 128.735C315.863 128.439 315.441 128.291 314.932 128.291C314.64 128.291 314.367 128.333 314.112 128.416L313.822 127.835ZM323.128 131.919C322.623 132.367 321.979 132.591 321.197 132.591C320.415 132.591 319.77 132.367 319.261 131.919C318.756 131.471 318.503 130.903 318.503 130.216C318.503 129.726 318.655 129.286 318.959 128.894C319.263 128.5 319.658 128.232 320.144 128.091C319.76 127.962 319.445 127.733 319.198 127.402C318.951 127.072 318.828 126.711 318.828 126.32C318.828 125.713 319.05 125.213 319.494 124.822C319.942 124.427 320.51 124.23 321.197 124.23C321.885 124.23 322.45 124.427 322.895 124.822C323.343 125.213 323.567 125.713 323.567 126.32C323.567 126.711 323.441 127.072 323.191 127.402C322.944 127.733 322.629 127.962 322.245 128.091C322.731 128.232 323.126 128.5 323.43 128.894C323.737 129.286 323.891 129.726 323.891 130.216C323.891 130.903 323.637 131.471 323.128 131.919ZM320.104 127.311C320.389 127.558 320.753 127.681 321.197 127.681C321.642 127.681 322.004 127.558 322.285 127.311C322.57 127.064 322.712 126.745 322.712 126.354C322.712 125.967 322.57 125.648 322.285 125.398C322.004 125.147 321.642 125.022 321.197 125.022C320.753 125.022 320.389 125.147 320.104 125.398C319.823 125.648 319.682 125.967 319.682 126.354C319.682 126.745 319.823 127.064 320.104 127.311ZM319.882 131.315C320.231 131.623 320.67 131.776 321.197 131.776C321.725 131.776 322.162 131.623 322.507 131.315C322.853 131.007 323.026 130.62 323.026 130.153C323.026 129.69 322.853 129.308 322.507 129.008C322.162 128.708 321.725 128.558 321.197 128.558C320.666 128.558 320.227 128.71 319.882 129.014C319.536 129.314 319.363 129.694 319.363 130.153C319.363 130.62 319.536 131.007 319.882 131.315ZM325.657 132.602C325.463 132.602 325.302 132.54 325.173 132.414C325.044 132.285 324.979 132.124 324.979 131.93C324.979 131.74 325.044 131.581 325.173 131.452C325.302 131.319 325.463 131.252 325.657 131.252C325.854 131.252 326.018 131.319 326.147 131.452C326.276 131.581 326.34 131.74 326.34 131.93C326.34 132.124 326.276 132.285 326.147 132.414C326.018 132.54 325.854 132.602 325.657 132.602ZM333.141 129.817V130.654H332.036V132.488H331.159V130.654H327.018V130.039L330.025 124.321H331.016L328.1 129.817H331.159V127.055H332.036V129.817H333.141ZM336.956 132.602C336.034 132.602 335.311 132.228 334.787 131.48C334.266 130.732 334.006 129.707 334.006 128.405C334.006 127.102 334.266 126.077 334.787 125.329C335.311 124.581 336.034 124.207 336.956 124.207C337.875 124.207 338.595 124.581 339.115 125.329C339.635 126.077 339.895 127.102 339.895 128.405C339.895 129.707 339.635 130.732 339.115 131.48C338.595 132.228 337.875 132.602 336.956 132.602ZM336.956 131.754C337.602 131.754 338.103 131.463 338.46 130.882C338.821 130.301 339.001 129.475 339.001 128.405C339.001 127.334 338.821 126.508 338.46 125.927C338.103 125.346 337.602 125.056 336.956 125.056C336.307 125.056 335.804 125.346 335.447 125.927C335.094 126.504 334.918 127.33 334.918 128.405C334.918 129.479 335.094 130.307 335.447 130.888C335.804 131.465 336.307 131.754 336.956 131.754ZM347.333 132.488H346.16L342.225 128.393V132.488H341.353V124.321H342.225V128.034L345.841 124.321H346.986L343.159 128.205L347.333 132.488Z" fill="#717579"/>
<path d="M314.016 168.331L316.408 165.66H312.513V164.817H317.655V165.438L315.138 168.166C315.225 168.151 315.353 168.143 315.52 168.143C316.165 168.143 316.708 168.362 317.149 168.798C317.589 169.231 317.809 169.78 317.809 170.444C317.809 171.219 317.547 171.855 317.023 172.352C316.503 172.85 315.839 173.098 315.03 173.098C314.346 173.098 313.745 172.907 313.224 172.523C312.708 172.14 312.385 171.648 312.256 171.048L313.036 170.769C313.143 171.202 313.382 171.557 313.754 171.834C314.126 172.111 314.551 172.25 315.03 172.25C315.573 172.25 316.019 172.079 316.368 171.737C316.721 171.392 316.898 170.951 316.898 170.416C316.898 169.922 316.729 169.527 316.391 169.231C316.057 168.935 315.635 168.787 315.127 168.787C314.834 168.787 314.561 168.829 314.307 168.912L314.016 168.331ZM323.322 172.415C322.817 172.863 322.174 173.087 321.392 173.087C320.609 173.087 319.964 172.863 319.455 172.415C318.95 171.967 318.698 171.399 318.698 170.712C318.698 170.222 318.85 169.782 319.153 169.391C319.457 168.996 319.852 168.728 320.338 168.588C319.954 168.458 319.639 168.229 319.393 167.898C319.146 167.568 319.022 167.207 319.022 166.816C319.022 166.209 319.244 165.709 319.689 165.318C320.137 164.924 320.704 164.726 321.392 164.726C322.079 164.726 322.645 164.924 323.089 165.318C323.537 165.709 323.761 166.209 323.761 166.816C323.761 167.207 323.636 167.568 323.385 167.898C323.138 168.229 322.823 168.458 322.44 168.588C322.926 168.728 323.32 168.996 323.624 169.391C323.932 169.782 324.086 170.222 324.086 170.712C324.086 171.399 323.831 171.967 323.322 172.415ZM320.298 167.807C320.583 168.054 320.947 168.177 321.392 168.177C321.836 168.177 322.198 168.054 322.479 167.807C322.764 167.56 322.907 167.242 322.907 166.85C322.907 166.463 322.764 166.144 322.479 165.894C322.198 165.643 321.836 165.518 321.392 165.518C320.947 165.518 320.583 165.643 320.298 165.894C320.017 166.144 319.877 166.463 319.877 166.85C319.877 167.242 320.017 167.56 320.298 167.807ZM320.076 171.811C320.425 172.119 320.864 172.272 321.392 172.272C321.919 172.272 322.356 172.119 322.702 171.811C323.047 171.504 323.22 171.116 323.22 170.649C323.22 170.186 323.047 169.804 322.702 169.504C322.356 169.205 321.919 169.055 321.392 169.055C320.86 169.055 320.422 169.206 320.076 169.51C319.73 169.81 319.558 170.19 319.558 170.649C319.558 171.116 319.73 171.504 320.076 171.811ZM325.851 173.098C325.657 173.098 325.496 173.036 325.367 172.91C325.238 172.781 325.173 172.62 325.173 172.426C325.173 172.236 325.238 172.077 325.367 171.948C325.496 171.815 325.657 171.748 325.851 171.748C326.049 171.748 326.212 171.815 326.341 171.948C326.47 172.077 326.535 172.236 326.535 172.426C326.535 172.62 326.47 172.781 326.341 172.91C326.212 173.036 326.049 173.098 325.851 173.098ZM329.2 168.331L331.592 165.66H327.696V164.817H332.839V165.438L330.322 168.166C330.409 168.151 330.537 168.143 330.704 168.143C331.349 168.143 331.892 168.362 332.332 168.798C332.773 169.231 332.993 169.78 332.993 170.444C332.993 171.219 332.731 171.855 332.207 172.352C331.687 172.85 331.023 173.098 330.214 173.098C329.53 173.098 328.929 172.907 328.408 172.523C327.892 172.14 327.569 171.648 327.44 171.048L328.22 170.769C328.327 171.202 328.566 171.557 328.938 171.834C329.31 172.111 329.735 172.25 330.214 172.25C330.757 172.25 331.203 172.079 331.552 171.737C331.905 171.392 332.082 170.951 332.082 170.416C332.082 169.922 331.913 169.527 331.575 169.231C331.241 168.935 330.819 168.787 330.311 168.787C330.018 168.787 329.745 168.829 329.49 168.912L329.2 168.331ZM336.957 173.098C336.034 173.098 335.311 172.724 334.787 171.976C334.267 171.228 334.007 170.203 334.007 168.901C334.007 167.598 334.267 166.573 334.787 165.825C335.311 165.077 336.034 164.703 336.957 164.703C337.876 164.703 338.595 165.077 339.116 165.825C339.636 166.573 339.896 167.598 339.896 168.901C339.896 170.203 339.636 171.228 339.116 171.976C338.595 172.724 337.876 173.098 336.957 173.098ZM336.957 172.25C337.603 172.25 338.104 171.959 338.461 171.378C338.821 170.797 339.002 169.972 339.002 168.901C339.002 167.83 338.821 167.004 338.461 166.423C338.104 165.842 337.603 165.552 336.957 165.552C336.308 165.552 335.805 165.842 335.448 166.423C335.095 167 334.918 167.826 334.918 168.901C334.918 169.975 335.095 170.803 335.448 171.384C335.805 171.961 336.308 172.25 336.957 172.25ZM347.334 172.984H346.161L342.225 168.889V172.984H341.354V164.817H342.225V168.531L345.842 164.817H346.987L343.159 168.701L347.334 172.984Z" fill="#717579"/>
<path d="M313.982 205.331L316.374 202.66H312.478V201.817H317.621V202.438L315.104 205.166C315.191 205.151 315.318 205.143 315.485 205.143C316.131 205.143 316.674 205.362 317.114 205.798C317.555 206.231 317.775 206.78 317.775 207.444C317.775 208.219 317.513 208.855 316.989 209.352C316.469 209.85 315.804 210.098 314.996 210.098C314.312 210.098 313.71 209.907 313.19 209.523C312.674 209.14 312.351 208.648 312.222 208.048L313.002 207.769C313.109 208.202 313.348 208.557 313.72 208.834C314.092 209.111 314.517 209.25 314.996 209.25C315.539 209.25 315.985 209.079 316.334 208.737C316.687 208.392 316.864 207.951 316.864 207.416C316.864 206.922 316.695 206.527 316.357 206.231C316.023 205.935 315.601 205.787 315.093 205.787C314.8 205.787 314.527 205.829 314.272 205.912L313.982 205.331ZM323.288 209.415C322.783 209.863 322.14 210.087 321.357 210.087C320.575 210.087 319.93 209.863 319.421 209.415C318.916 208.967 318.664 208.399 318.664 207.712C318.664 207.222 318.815 206.782 319.119 206.391C319.423 205.996 319.818 205.728 320.304 205.588C319.92 205.458 319.605 205.229 319.358 204.898C319.112 204.568 318.988 204.207 318.988 203.816C318.988 203.209 319.21 202.709 319.655 202.318C320.103 201.924 320.67 201.726 321.357 201.726C322.045 201.726 322.61 201.924 323.055 202.318C323.503 202.709 323.727 203.209 323.727 203.816C323.727 204.207 323.601 204.568 323.351 204.898C323.104 205.229 322.789 205.458 322.405 205.588C322.891 205.728 323.286 205.996 323.59 206.391C323.898 206.782 324.051 207.222 324.051 207.712C324.051 208.399 323.797 208.967 323.288 209.415ZM320.264 204.807C320.549 205.054 320.913 205.177 321.357 205.177C321.802 205.177 322.164 205.054 322.445 204.807C322.73 204.56 322.872 204.242 322.872 203.85C322.872 203.463 322.73 203.144 322.445 202.894C322.164 202.643 321.802 202.518 321.357 202.518C320.913 202.518 320.549 202.643 320.264 202.894C319.983 203.144 319.842 203.463 319.842 203.85C319.842 204.242 319.983 204.56 320.264 204.807ZM320.042 208.811C320.391 209.119 320.83 209.272 321.357 209.272C321.885 209.272 322.322 209.119 322.667 208.811C323.013 208.504 323.186 208.116 323.186 207.649C323.186 207.186 323.013 206.804 322.667 206.504C322.322 206.205 321.885 206.055 321.357 206.055C320.826 206.055 320.387 206.206 320.042 206.51C319.696 206.81 319.524 207.19 319.524 207.649C319.524 208.116 319.696 208.504 320.042 208.811ZM325.817 210.098C325.623 210.098 325.462 210.036 325.333 209.91C325.204 209.781 325.139 209.62 325.139 209.426C325.139 209.236 325.204 209.077 325.333 208.948C325.462 208.815 325.623 208.748 325.817 208.748C326.014 208.748 326.178 208.815 326.307 208.948C326.436 209.077 326.5 209.236 326.5 209.426C326.5 209.62 326.436 209.781 326.307 209.91C326.178 210.036 326.014 210.098 325.817 210.098ZM327.696 209.984V209.329L330.835 206.191C331.256 205.762 331.567 205.383 331.769 205.052C331.97 204.718 332.07 204.395 332.07 204.084C332.07 203.64 331.915 203.273 331.603 202.985C331.296 202.696 330.903 202.552 330.425 202.552C329.889 202.552 329.454 202.713 329.12 203.036C328.786 203.359 328.608 203.793 328.585 204.34L327.719 204.283C327.734 203.528 328 202.909 328.517 202.427C329.033 201.944 329.673 201.703 330.436 201.703C331.165 201.703 331.769 201.925 332.247 202.37C332.729 202.81 332.97 203.374 332.97 204.061C332.97 204.878 332.469 205.768 331.467 206.732L329.075 209.13H333.073V209.984H327.696ZM336.957 210.098C336.034 210.098 335.311 209.724 334.787 208.976C334.267 208.228 334.007 207.203 334.007 205.901C334.007 204.598 334.267 203.573 334.787 202.825C335.311 202.077 336.034 201.703 336.957 201.703C337.876 201.703 338.595 202.077 339.116 202.825C339.636 203.573 339.896 204.598 339.896 205.901C339.896 207.203 339.636 208.228 339.116 208.976C338.595 209.724 337.876 210.098 336.957 210.098ZM336.957 209.25C337.603 209.25 338.104 208.959 338.461 208.378C338.821 207.797 339.002 206.972 339.002 205.901C339.002 204.83 338.821 204.004 338.461 203.423C338.104 202.842 337.603 202.552 336.957 202.552C336.308 202.552 335.805 202.842 335.448 203.423C335.095 204 334.918 204.826 334.918 205.901C334.918 206.975 335.095 207.803 335.448 208.384C335.805 208.961 336.308 209.25 336.957 209.25ZM347.334 209.984H346.161L342.225 205.889V209.984H341.354V201.817H342.225V205.531L345.842 201.817H346.987L343.159 205.701L347.334 209.984Z" fill="#717579"/>
<path d="M316.773 245.827L319.165 243.156H315.269V242.313H320.412V242.934L317.895 245.662C317.982 245.647 318.109 245.639 318.276 245.639C318.922 245.639 319.465 245.858 319.905 246.294C320.346 246.727 320.566 247.276 320.566 247.94C320.566 248.715 320.304 249.351 319.78 249.848C319.26 250.346 318.595 250.594 317.786 250.594C317.103 250.594 316.501 250.403 315.981 250.019C315.465 249.636 315.142 249.144 315.013 248.544L315.793 248.265C315.899 248.698 316.139 249.053 316.511 249.33C316.883 249.607 317.308 249.746 317.786 249.746C318.329 249.746 318.776 249.575 319.125 249.233C319.478 248.888 319.655 248.447 319.655 247.912C319.655 247.418 319.486 247.023 319.148 246.727C318.814 246.431 318.392 246.283 317.883 246.283C317.591 246.283 317.318 246.325 317.063 246.408L316.773 245.827ZM326.079 249.911C325.574 250.359 324.93 250.583 324.148 250.583C323.366 250.583 322.721 250.359 322.212 249.911C321.707 249.463 321.454 248.895 321.454 248.208C321.454 247.718 321.606 247.278 321.91 246.887C322.214 246.492 322.609 246.224 323.095 246.084C322.711 245.955 322.396 245.725 322.149 245.394C321.902 245.064 321.779 244.703 321.779 244.312C321.779 243.705 322.001 243.206 322.445 242.814C322.893 242.42 323.461 242.222 324.148 242.222C324.835 242.222 325.401 242.42 325.845 242.814C326.293 243.206 326.517 243.705 326.517 244.312C326.517 244.703 326.392 245.064 326.142 245.394C325.895 245.725 325.58 245.955 325.196 246.084C325.682 246.224 326.077 246.492 326.381 246.887C326.688 247.278 326.842 247.718 326.842 248.208C326.842 248.895 326.588 249.463 326.079 249.911ZM323.055 245.303C323.339 245.55 323.704 245.674 324.148 245.674C324.592 245.674 324.955 245.55 325.236 245.303C325.521 245.057 325.663 244.738 325.663 244.347C325.663 243.959 325.521 243.64 325.236 243.39C324.955 243.139 324.592 243.014 324.148 243.014C323.704 243.014 323.339 243.139 323.055 243.39C322.774 243.64 322.633 243.959 322.633 244.347C322.633 244.738 322.774 245.057 323.055 245.303ZM322.833 249.307C323.182 249.615 323.62 249.769 324.148 249.769C324.676 249.769 325.113 249.615 325.458 249.307C325.804 249 325.976 248.612 325.976 248.145C325.976 247.682 325.804 247.301 325.458 247.001C325.113 246.701 324.676 246.551 324.148 246.551C323.617 246.551 323.178 246.703 322.833 247.006C322.487 247.306 322.314 247.686 322.314 248.145C322.314 248.612 322.487 249 322.833 249.307ZM328.608 250.594C328.414 250.594 328.253 250.532 328.124 250.406C327.994 250.277 327.93 250.116 327.93 249.922C327.93 249.732 327.994 249.573 328.124 249.444C328.253 249.311 328.414 249.245 328.608 249.245C328.805 249.245 328.968 249.311 329.097 249.444C329.227 249.573 329.291 249.732 329.291 249.922C329.291 250.116 329.227 250.277 329.097 250.406C328.968 250.532 328.805 250.594 328.608 250.594ZM332.56 242.313V250.48H331.672V243.526L329.792 245.138V244.056L331.917 242.313H332.56ZM336.957 250.594C336.034 250.594 335.311 250.22 334.787 249.472C334.267 248.724 334.007 247.699 334.007 246.397C334.007 245.095 334.267 244.069 334.787 243.321C335.311 242.573 336.034 242.199 336.957 242.199C337.876 242.199 338.595 242.573 339.116 243.321C339.636 244.069 339.896 245.095 339.896 246.397C339.896 247.699 339.636 248.724 339.116 249.472C338.595 250.22 337.876 250.594 336.957 250.594ZM336.957 249.746C337.603 249.746 338.104 249.455 338.461 248.874C338.821 248.293 339.002 247.468 339.002 246.397C339.002 245.326 338.821 244.5 338.461 243.919C338.104 243.338 337.603 243.048 336.957 243.048C336.308 243.048 335.805 243.338 335.448 243.919C335.095 244.497 334.918 245.322 334.918 246.397C334.918 247.471 335.095 248.299 335.448 248.88C335.805 249.457 336.308 249.746 336.957 249.746ZM347.334 250.48H346.161L342.225 246.385V250.48H341.354V242.313H342.225V246.027L345.842 242.313H346.987L343.159 246.198L347.334 250.48Z" fill="#717579"/>
<defs>
<clipPath id="clip0_0_1">
<rect width="78.1454" height="116.216" fill="white" transform="translate(0 35)"/>
</clipPath>
</defs>
</svg>
