<svg width="145" height="144" viewBox="0 0 145 144" fill="none" xmlns="http://www.w3.org/2000/svg">
<path d="M110.682 117.723C107.876 120.719 104.662 123.305 101.133 125.406C101.052 125.456 100.97 125.502 100.887 125.55L95.1738 120.508C95.2338 120.452 95.3003 120.39 95.3719 120.321C99.6288 116.29 120.762 88.1056 122.17 81.2422C122.073 81.814 123.441 104.237 110.682 117.723Z" fill="#5156BE"/>
<path d="M102.235 126.381C102.127 126.406 102.017 126.431 101.907 126.452L97.6206 122.669C97.7044 122.64 97.8023 122.605 97.9142 122.567C99.7532 121.918 105.23 119.957 110.681 117.724C116.538 115.324 122.367 112.612 123.621 110.875C123.352 111.279 115.068 123.519 102.235 126.381Z" fill="#5156BE"/>
<path d="M48.9471 36.6865V56.5563C45.7812 57.3869 42.4664 57.4822 39.2578 56.8349C36.0492 56.1875 33.0323 54.8147 30.4391 52.8222C27.8459 50.8296 25.7457 48.2703 24.2999 45.3413C22.8541 42.4123 22.1014 39.1915 22.0996 35.9269C22.0996 35.3441 22.1231 34.7675 22.17 34.1969H33.9164C34.4796 34.1974 35.0343 34.0597 35.5315 33.7959C36.0287 33.5321 36.4531 33.1503 36.7674 32.6842C37.0816 32.2181 37.276 31.6821 37.3334 31.1234C37.3908 30.5646 37.3094 30.0004 37.0964 29.4805H41.7187C42.6679 29.4801 43.6078 29.6663 44.4847 30.0282C45.3617 30.3902 46.1586 30.921 46.8298 31.5901C47.5011 32.2593 48.0336 33.0538 48.3968 33.9283C48.7601 34.8027 48.9471 35.7399 48.9471 36.6865Z" fill="#5156BE"/>
<path d="M102.815 41.6325H102.18V24.3848C102.18 23.0739 101.92 21.7758 101.414 20.5647C100.908 19.3536 100.167 18.2531 99.232 17.3261C98.2973 16.3992 97.1876 15.6639 95.9664 15.1622C94.7452 14.6606 93.4362 14.4023 92.1144 14.4023H55.2676C52.5979 14.4023 50.0376 15.4541 48.1499 17.3261C46.2622 19.1982 45.2017 21.7373 45.2017 24.3848V119.007C45.2017 121.654 46.2622 124.193 48.1499 126.065C50.0376 127.937 52.5979 128.989 55.2675 128.989H92.1143C94.7839 128.989 97.3442 127.937 99.232 126.065C101.12 124.193 102.18 121.654 102.18 119.007V53.9096H102.815L102.815 41.6325Z" fill="#111111"/>
<path d="M100.039 24.4551V118.938C100.039 120.915 99.2468 122.811 97.837 124.209C96.4272 125.607 94.5152 126.393 92.5214 126.393H55.4979C53.5042 126.393 51.5921 125.607 50.1823 124.209C48.7725 122.811 47.9805 120.915 47.9805 118.938V24.4551C47.9805 22.4779 48.7725 20.5817 50.1823 19.1836C51.5921 17.7855 53.5042 17 55.4979 17H59.9893C59.7686 17.5378 59.6846 18.1212 59.7446 18.6988C59.8046 19.2764 60.0068 19.8306 60.3334 20.3125C60.66 20.7944 61.1011 21.1893 61.6177 21.4625C62.1344 21.7358 62.7108 21.8789 63.2963 21.8793H84.4055C84.991 21.8789 85.5674 21.7357 86.0841 21.4625C86.6007 21.1893 87.0418 20.7944 87.3684 20.3125C87.695 19.8306 87.8972 19.2764 87.9572 18.6988C88.0172 18.1212 87.9332 17.5378 87.7125 17H92.5214C94.5152 17 96.4272 17.7855 97.837 19.1836C99.2468 20.5817 100.039 22.4779 100.039 24.4551Z" fill="white"/>
<path d="M57.4706 25.7617C56.8034 25.7617 56.1428 25.892 55.5264 26.1452C54.91 26.3984 54.3499 26.7695 53.8782 27.2374C53.4064 27.7052 53.0322 28.2607 52.7769 28.8719C52.5216 29.4832 52.3901 30.1384 52.3901 30.8C52.3901 31.4617 52.5215 32.1168 52.7769 32.7281C53.0322 33.3394 53.4064 33.8948 53.8781 34.3627C54.3499 34.8305 54.91 35.2016 55.5263 35.4548C56.1427 35.708 56.8034 35.8384 57.4705 35.8384H57.4706C58.818 35.8384 60.1102 35.3075 61.063 34.3627C62.0157 33.4178 62.551 32.1363 62.551 30.8C62.551 29.4638 62.0157 28.1823 61.063 27.2374C60.1102 26.2925 58.818 25.7617 57.4706 25.7617Z" fill="#F2F2F2"/>
<path d="M94.3554 35.0504H67.6832C67.3463 35.0504 67.0233 34.9177 66.7851 34.6815C66.5469 34.4453 66.4131 34.1249 66.4131 33.7908C66.4131 33.4568 66.5469 33.1364 66.7851 32.9002C67.0233 32.664 67.3463 32.5312 67.6832 32.5312H94.3554C94.6922 32.5312 95.0153 32.664 95.2535 32.9002C95.4917 33.1364 95.6255 33.4568 95.6255 33.7908C95.6255 34.1249 95.4917 34.4453 95.2535 34.6815C95.0153 34.9177 94.6922 35.0504 94.3554 35.0504Z" fill="#F2F2F2"/>
<path d="M76.0981 29.6988H67.6837C67.3468 29.6988 67.0238 29.5661 66.7856 29.3299C66.5474 29.0937 66.4136 28.7733 66.4136 28.4393C66.4136 28.1052 66.5474 27.7848 66.7856 27.5486C67.0238 27.3124 67.3468 27.1797 67.6837 27.1797H76.0981C76.435 27.1797 76.758 27.3124 76.9962 27.5486C77.2344 27.7848 77.3682 28.1052 77.3682 28.4393C77.3682 28.7733 77.2344 29.0937 76.9962 29.3299C76.758 29.5661 76.435 29.6988 76.0981 29.6988Z" fill="#F2F2F2"/>
<path d="M57.4706 46.8633C56.8034 46.8633 56.1428 46.9936 55.5264 47.2468C54.91 47.5 54.3499 47.8711 53.8782 48.339C53.4064 48.8068 53.0322 49.3622 52.7769 49.9735C52.5216 50.5848 52.3901 51.2399 52.3901 51.9016C52.3901 52.5632 52.5215 53.2184 52.7769 53.8297C53.0322 54.4409 53.4064 54.9964 53.8781 55.4642C54.3499 55.9321 54.91 56.3032 55.5263 56.5564C56.1427 56.8096 56.8034 56.9399 57.4705 56.9399H57.4706C58.818 56.9399 60.1102 56.4091 61.063 55.4642C62.0157 54.5194 62.551 53.2378 62.551 51.9016C62.551 50.5654 62.0157 49.2838 61.063 48.339C60.1102 47.3941 58.818 46.8633 57.4706 46.8633Z" fill="#F2F2F2"/>
<path d="M94.3554 56.152H67.6832C67.3463 56.152 67.0233 56.0193 66.7851 55.783C66.5469 55.5468 66.4131 55.2265 66.4131 54.8924C66.4131 54.5583 66.5469 54.2379 66.7851 54.0017C67.0233 53.7655 67.3463 53.6328 67.6832 53.6328H94.3554C94.6922 53.6328 95.0153 53.7655 95.2535 54.0017C95.4917 54.2379 95.6255 54.5583 95.6255 54.8924C95.6255 55.2265 95.4917 55.5468 95.2535 55.783C95.0153 56.0193 94.6922 56.152 94.3554 56.152Z" fill="#F2F2F2"/>
<path d="M76.0976 50.7965H67.6832C67.3463 50.7965 67.0233 50.6638 66.7851 50.4276C66.5469 50.1914 66.4131 49.871 66.4131 49.5369C66.4131 49.2029 66.5469 48.8825 66.7851 48.6463C67.0233 48.41 67.3463 48.2773 67.6832 48.2773H76.0976C76.4345 48.2773 76.7575 48.41 76.9957 48.6463C77.2339 48.8825 77.3677 49.2029 77.3677 49.5369C77.3677 49.871 77.2339 50.1914 76.9957 50.4276C76.7575 50.6638 76.4345 50.7965 76.0976 50.7965Z" fill="#F2F2F2"/>
<path d="M57.4706 89.0586C56.1232 89.0586 54.8309 89.5894 53.8782 90.5343C52.9254 91.4791 52.3901 92.7607 52.3901 94.0969C52.3901 95.4332 52.9254 96.7147 53.8781 97.6595C54.8309 98.6044 56.1231 99.1352 57.4705 99.1353H57.4706C58.818 99.1353 60.1102 98.6044 61.063 97.6596C62.0157 96.7147 62.551 95.4332 62.551 94.0969C62.551 92.7607 62.0157 91.4792 61.063 90.5343C60.1102 89.5894 58.818 89.0586 57.4706 89.0586Z" fill="#F2F2F2"/>
<path d="M94.3554 98.3473H67.6832C67.3463 98.3473 67.0233 98.2146 66.7851 97.9784C66.5469 97.7421 66.4131 97.4218 66.4131 97.0877C66.4131 96.7536 66.5469 96.4333 66.7851 96.197C67.0233 95.9608 67.3463 95.8281 67.6832 95.8281H94.3554C94.6922 95.8281 95.0153 95.9608 95.2535 96.197C95.4917 96.4333 95.6255 96.7536 95.6255 97.0877C95.6255 97.4218 95.4917 97.7421 95.2535 97.9784C95.0153 98.2146 94.6922 98.3473 94.3554 98.3473Z" fill="#F2F2F2"/>
<path d="M76.0976 92.9918H67.6832C67.3463 92.9918 67.0233 92.8591 66.7851 92.6229C66.5469 92.3867 66.4131 92.0663 66.4131 91.7322C66.4131 91.3982 66.5469 91.0778 66.7851 90.8416C67.0233 90.6054 67.3463 90.4727 67.6832 90.4727H76.0976C76.4345 90.4727 76.7575 90.6054 76.9957 90.8416C77.2339 91.0778 77.3677 91.3982 77.3677 91.7322C77.3677 92.0663 77.2339 92.3867 76.9957 92.6229C76.7575 92.8591 76.4345 92.9918 76.0976 92.9918Z" fill="#F2F2F2"/>
<path d="M57.4706 110.152C56.8034 110.152 56.1428 110.283 55.5264 110.536C54.91 110.789 54.3499 111.16 53.8782 111.628C53.4064 112.096 53.0322 112.651 52.7769 113.263C52.5216 113.874 52.3901 114.529 52.3901 115.191C52.3901 115.852 52.5215 116.507 52.7769 117.119C53.0322 117.73 53.4064 118.285 53.8781 118.753C54.3499 119.221 54.91 119.592 55.5263 119.845C56.1427 120.099 56.8034 120.229 57.4705 120.229H57.4706C58.818 120.229 60.1102 119.698 61.063 118.753C62.0157 117.808 62.551 116.527 62.551 115.191C62.551 113.854 62.0157 112.573 61.063 111.628C60.1102 110.683 58.818 110.152 57.4706 110.152Z" fill="#F2F2F2"/>
<path d="M94.3554 119.441H67.6832C67.3463 119.441 67.0233 119.308 66.7851 119.072C66.5469 118.836 66.4131 118.516 66.4131 118.181C66.4131 117.847 66.5469 117.527 66.7851 117.291C67.0233 117.055 67.3463 116.922 67.6832 116.922H94.3554C94.6922 116.922 95.0153 117.055 95.2535 117.291C95.4917 117.527 95.6255 117.847 95.6255 118.181C95.6255 118.516 95.4917 118.836 95.2535 119.072C95.0153 119.308 94.6922 119.441 94.3554 119.441Z" fill="#F2F2F2"/>
<path d="M76.0976 114.089H67.6832C67.3463 114.089 67.0233 113.957 66.7851 113.721C66.5469 113.484 66.4131 113.164 66.4131 112.83C66.4131 112.496 66.5469 112.175 66.7851 111.939C67.0233 111.703 67.3463 111.57 67.6832 111.57H76.0976C76.4345 111.57 76.7575 111.703 76.9957 111.939C77.2339 112.175 77.3677 112.496 77.3677 112.83C77.3677 113.164 77.2339 113.484 76.9957 113.721C76.7575 113.957 76.4345 114.089 76.0976 114.089Z" fill="#F2F2F2"/>
<path d="M104.649 85.1216H43.3662C42.6717 85.1208 42.0058 84.8469 41.5147 84.3598C41.0236 83.8728 40.7474 83.2125 40.7466 82.5237V63.0002C40.7474 62.3115 41.0236 61.6511 41.5147 61.1641C42.0058 60.6771 42.6717 60.4031 43.3662 60.4023H104.649C105.343 60.4031 106.009 60.6771 106.5 61.1641C106.991 61.6511 107.268 62.3115 107.268 63.0002V82.5237C107.268 83.2125 106.991 83.8728 106.5 84.3598C106.009 84.8469 105.343 85.1208 104.649 85.1216Z" fill="white"/>
<ellipse cx="5.06933" cy="5.03728" rx="5.06933" ry="5.03728" transform="matrix(1.00041 0 -0.00116196 0.999591 52.604 67.9336)" fill="#FFBE55"/>
<path d="M57.1969 75.6185C56.4068 75.5489 55.6207 74.9732 55.621 74.6719C55.6214 74.3772 55.8625 74.2378 56.0994 74.0594C56.3363 73.881 57.4166 74.9639 58.0631 74.7461C58.7097 74.5283 58.3212 73.9504 57.74 73.5745C57.0552 73.1317 56.561 72.8022 56.1016 72.0966C55.8538 71.7486 55.4581 70.7705 56.2791 70.3362C56.5358 70.2003 56.6333 70.1144 57.3896 70.1374L57.4061 69.6228C57.5811 69.4243 58.3107 69.4337 58.5128 69.6564L58.4963 70.171C58.9604 70.2824 60.066 70.5933 60.1745 70.9272C60.304 71.0649 60.4009 71.4647 60.1736 71.739C59.7965 72.194 57.2043 70.6718 57.4086 71.739C57.576 72.6136 60.652 73.5165 59.7795 74.8529C59.5951 75.303 58.8114 75.6893 58.3207 75.6526L58.3046 76.1548C58.0598 76.4411 57.3472 76.3981 57.1963 76.1704L57.1969 75.6185Z" fill="white"/>
<path d="M94.3559 77.0113H67.6837C67.3468 77.0113 67.0238 76.8786 66.7856 76.6424C66.5474 76.4062 66.4136 76.0858 66.4136 75.7518C66.4136 75.4177 66.5474 75.0973 66.7856 74.8611C67.0238 74.6249 67.3468 74.4922 67.6837 74.4922H94.3559C94.6927 74.4922 95.0158 74.6249 95.254 74.8611C95.4922 75.0973 95.626 75.4177 95.626 75.7518C95.626 76.0858 95.4922 76.4062 95.254 76.6424C95.0158 76.8786 94.6927 77.0113 94.3559 77.0113Z" fill="#5156BE"/>
<path d="M76.0981 71.6598H67.6837C67.3468 71.6598 67.0238 71.5271 66.7856 71.2909C66.5474 71.0546 66.4136 70.7343 66.4136 70.4002C66.4136 70.0661 66.5474 69.7458 66.7856 69.5096C67.0238 69.2733 67.3468 69.1406 67.6837 69.1406H76.0981C76.435 69.1406 76.758 69.2733 76.9962 69.5096C77.2344 69.7458 77.3682 70.0661 77.3682 70.4002C77.3682 70.7343 77.2344 71.0546 76.9962 71.2909C76.758 71.5271 76.435 71.6598 76.0981 71.6598Z" fill="#5156BE"/>
<rect x="40.9727" y="60.3629" width="66.0694" height="24.6764" stroke="#2C3131" stroke-width="0.452316"/>
<ellipse cx="5.06933" cy="5.03728" rx="5.06933" ry="5.03728" transform="matrix(1.00041 0 -0.00116196 0.999591 52.604 67.4336)" fill="#FFBE55"/>
<path d="M57.1969 75.1185C56.4068 75.0489 55.6207 74.4732 55.621 74.1719C55.6214 73.8772 55.8625 73.7378 56.0994 73.5594C56.3363 73.381 57.4166 74.4639 58.0631 74.2461C58.7097 74.0283 58.3212 73.4504 57.74 73.0745C57.0552 72.6317 56.561 72.3022 56.1016 71.5966C55.8538 71.2486 55.4581 70.2705 56.2791 69.8362C56.5358 69.7003 56.6333 69.6144 57.3896 69.6374L57.4061 69.1228C57.5811 68.9243 58.3107 68.9337 58.5128 69.1564L58.4963 69.671C58.9604 69.7824 60.066 70.0933 60.1745 70.4272C60.304 70.5649 60.4009 70.9647 60.1736 71.239C59.7965 71.694 57.2043 70.1718 57.4086 71.239C57.576 72.1136 60.652 73.0165 59.7795 74.3529C59.5951 74.803 58.8114 75.1893 58.3207 75.1526L58.3046 75.6548C58.0598 75.9411 57.3472 75.8981 57.1963 75.6704L57.1969 75.1185Z" fill="white"/>
<path d="M117.994 42.8089L111.059 37.5195L105.755 44.4353L112.69 49.7247L117.994 42.8089Z" fill="#5156BE"/>
</svg>
