<svg width="350" height="347" viewBox="0 0 350 347" fill="none" xmlns="http://www.w3.org/2000/svg">
<path d="M3.44963 13.3713C4.33365 13.3713 4.94877 13.6015 5.29501 14.0619C5.64494 14.5187 5.8199 14.9902 5.8199 15.4764H4.83643C4.7775 15.1633 4.68357 14.9183 4.55465 14.7415C4.31523 14.41 3.95241 14.2443 3.46621 14.2443C2.91001 14.2443 2.468 14.5021 2.14018 15.0178C1.81236 15.5298 1.63003 16.2646 1.5932 17.2223C1.82157 16.8871 2.10887 16.6366 2.45511 16.4709C2.77188 16.3236 3.12549 16.2499 3.51593 16.2499C4.17894 16.2499 4.75724 16.4617 5.25081 16.8853C5.74439 17.3089 5.99118 17.9406 5.99118 18.7804C5.99118 19.4986 5.75728 20.1359 5.28949 20.6921C4.8217 21.2446 4.155 21.5208 3.2894 21.5208C2.54904 21.5208 1.90997 21.2409 1.37219 20.681C0.834414 20.1175 0.565526 19.1708 0.565526 17.8411C0.565526 16.8576 0.685236 16.0234 0.924658 15.3382C1.38508 14.027 2.22674 13.3713 3.44963 13.3713ZM3.3778 20.6368C3.90085 20.6368 4.29129 20.4619 4.54913 20.1119C4.81065 19.7583 4.94141 19.3421 4.94141 18.8633C4.94141 18.4581 4.82538 18.0732 4.59333 17.7085C4.36127 17.3402 3.93952 17.156 3.32808 17.156C2.9008 17.156 2.5251 17.2978 2.20096 17.5814C1.8805 17.8651 1.72027 18.2923 1.72027 18.8633C1.72027 19.3642 1.86577 19.786 2.15676 20.1285C2.45143 20.4674 2.85844 20.6368 3.3778 20.6368ZM9.49962 13.4045C10.5236 13.4045 11.264 13.8262 11.7207 14.6697C12.0743 15.3217 12.2511 16.2149 12.2511 17.3494C12.2511 18.4249 12.0909 19.3145 11.7704 20.018C11.3063 21.0273 10.5475 21.5319 9.49409 21.5319C8.54378 21.5319 7.83656 21.1193 7.37245 20.2943C6.9857 19.6055 6.79232 18.6809 6.79232 17.5207C6.79232 16.6219 6.90834 15.8502 7.1404 15.2056C7.57504 14.0049 8.36145 13.4045 9.49962 13.4045ZM9.48857 20.6258C10.0042 20.6258 10.4149 20.3974 10.7207 19.9407C11.0264 19.4839 11.1792 18.633 11.1792 17.3881C11.1792 16.4893 11.0687 15.7508 10.8477 15.1725C10.6267 14.5905 10.1976 14.2995 9.56039 14.2995C8.97473 14.2995 8.54562 14.5758 8.27304 15.1283C8.00416 15.6771 7.86971 16.4875 7.86971 17.5593C7.86971 18.366 7.95627 19.0143 8.12939 19.5042C8.3946 20.2519 8.84766 20.6258 9.48857 20.6258ZM13.4445 13.2H14.4004V17.9129L16.953 15.399H18.2238L15.9585 17.6146L18.3508 21.3164H17.0801L15.2347 18.3329L14.4004 19.0953V21.3164H13.4445V13.2Z" fill="#ADB5BD"/>
<path d="M1.53794 63.5536C1.60425 64.1209 1.86761 64.5132 2.32803 64.7305C2.56377 64.841 2.83634 64.8962 3.14575 64.8962C3.73509 64.8962 4.17158 64.7084 4.4552 64.3327C4.73882 63.957 4.88063 63.5408 4.88063 63.084C4.88063 62.5315 4.7112 62.1042 4.37232 61.8022C4.03713 61.5002 3.6338 61.3491 3.16232 61.3491C2.81977 61.3491 2.5251 61.4154 2.27831 61.548C2.0352 61.6806 1.82709 61.8648 1.65397 62.1005L0.792055 62.0508L1.39429 57.791H5.50497V58.7523H2.14018L1.80315 60.9513C1.98732 60.8114 2.16228 60.7064 2.32803 60.6364C2.62271 60.5148 2.96342 60.4541 3.35018 60.4541C4.07581 60.4541 4.69094 60.688 5.19556 61.1558C5.70019 61.6235 5.9525 62.2166 5.9525 62.9348C5.9525 63.6826 5.72045 64.3419 5.25634 64.9128C4.79591 65.4838 4.05923 65.7692 3.0463 65.7692C2.4017 65.7692 1.83077 65.5887 1.33352 65.2278C0.839939 64.8631 0.563684 64.3051 0.50475 63.5536H1.53794ZM9.49962 57.6584C10.5236 57.6584 11.264 58.0801 11.7207 58.9236C12.0743 59.5756 12.2511 60.4688 12.2511 61.6033C12.2511 62.6788 12.0909 63.5684 11.7704 64.2719C11.3063 65.2812 10.5475 65.7858 9.49409 65.7858C8.54378 65.7858 7.83656 65.3733 7.37245 64.5482C6.9857 63.8594 6.79232 62.9348 6.79232 61.7746C6.79232 60.8758 6.90834 60.1041 7.1404 59.4595C7.57504 58.2588 8.36145 57.6584 9.49962 57.6584ZM9.48857 64.8797C10.0042 64.8797 10.4149 64.6513 10.7207 64.1946C11.0264 63.7378 11.1792 62.887 11.1792 61.642C11.1792 60.7432 11.0687 60.0047 10.8477 59.4264C10.6267 58.8444 10.1976 58.5534 9.56039 58.5534C8.97473 58.5534 8.54562 58.8297 8.27304 59.3822C8.00416 59.931 7.86971 60.7414 7.86971 61.8132C7.86971 62.6199 7.95627 63.2682 8.12939 63.7581C8.3946 64.5058 8.84766 64.8797 9.48857 64.8797ZM13.4445 57.4539H14.4004V62.1668L16.953 59.6529H18.2238L15.9585 61.8685L18.3508 65.5703H17.0801L15.2347 62.5868L14.4004 63.3492V65.5703H13.4445V57.4539Z" fill="#ADB5BD"/>
<path d="M3.88059 107.023V103.437L1.34457 107.023H3.88059ZM3.89716 109.824V107.89H0.427398V106.918L4.05187 101.89H4.89168V107.023H6.05748V107.89H4.89168V109.824H3.89716ZM9.49962 101.912C10.5236 101.912 11.264 102.334 11.7207 103.178C12.0743 103.829 12.2511 104.723 12.2511 105.857C12.2511 106.933 12.0909 107.822 11.7704 108.526C11.3063 109.535 10.5475 110.04 9.49409 110.04C8.54378 110.04 7.83656 109.627 7.37245 108.802C6.9857 108.113 6.79232 107.189 6.79232 106.028C6.79232 105.13 6.90834 104.358 7.1404 103.713C7.57504 102.513 8.36145 101.912 9.49962 101.912ZM9.48857 109.134C10.0042 109.134 10.4149 108.905 10.7207 108.448C11.0264 107.992 11.1792 107.141 11.1792 105.896C11.1792 104.997 11.0687 104.259 10.8477 103.68C10.6267 103.098 10.1976 102.807 9.56039 102.807C8.97473 102.807 8.54562 103.084 8.27304 103.636C8.00416 104.185 7.86971 104.995 7.86971 106.067C7.86971 106.874 7.95627 107.522 8.12939 108.012C8.3946 108.76 8.84766 109.134 9.48857 109.134ZM13.4445 101.708H14.4004V106.421L16.953 103.907H18.2238L15.9585 106.122L18.3508 109.824H17.0801L15.2347 106.841L14.4004 107.603V109.824H13.4445V101.708Z" fill="#ADB5BD"/>
<path d="M3.07945 154.286C2.14386 154.286 1.46428 154.03 1.04068 153.518C0.620777 153.002 0.410823 152.376 0.410823 151.639H1.44954C1.49374 152.151 1.58951 152.523 1.73685 152.755C1.99469 153.172 2.46064 153.38 3.1347 153.38C3.65774 153.38 4.07765 153.24 4.39442 152.96C4.7112 152.68 4.86958 152.319 4.86958 151.877C4.86958 151.332 4.70199 150.95 4.3668 150.733C4.03529 150.516 3.57302 150.407 2.98 150.407C2.91369 150.407 2.84555 150.409 2.77557 150.413C2.70927 150.413 2.64112 150.415 2.57114 150.418V149.54C2.67427 149.551 2.76083 149.558 2.83082 149.562C2.9008 149.566 2.97631 149.567 3.05735 149.567C3.42937 149.567 3.73509 149.508 3.97451 149.391C4.39442 149.184 4.60438 148.816 4.60438 148.286C4.60438 147.891 4.46441 147.588 4.18447 147.374C3.90453 147.16 3.57855 147.053 3.20653 147.053C2.54351 147.053 2.08493 147.274 1.83077 147.716C1.69081 147.96 1.61161 148.306 1.5932 148.755H0.609727C0.609727 148.166 0.727596 147.665 0.963333 147.252C1.36851 146.516 2.08125 146.147 3.10155 146.147C3.90821 146.147 4.53255 146.328 4.97456 146.689C5.41657 147.046 5.63757 147.565 5.63757 148.247C5.63757 148.733 5.50681 149.127 5.24529 149.429C5.08322 149.617 4.87326 149.764 4.61543 149.871C5.03165 149.985 5.35579 150.206 5.58784 150.534C5.82358 150.858 5.94145 151.256 5.94145 151.728C5.94145 152.483 5.69282 153.098 5.19556 153.573C4.6983 154.048 3.99293 154.286 3.07945 154.286ZM9.49962 146.158C10.5236 146.158 11.264 146.58 11.7207 147.424C12.0743 148.076 12.2511 148.969 12.2511 150.103C12.2511 151.179 12.0909 152.068 11.7704 152.772C11.3063 153.781 10.5475 154.286 9.49409 154.286C8.54378 154.286 7.83656 153.873 7.37245 153.048C6.9857 152.359 6.79232 151.435 6.79232 150.275C6.79232 149.376 6.90834 148.604 7.1404 147.96C7.57504 146.759 8.36145 146.158 9.49962 146.158ZM9.48857 153.38C10.0042 153.38 10.4149 153.151 10.7207 152.695C11.0264 152.238 11.1792 151.387 11.1792 150.142C11.1792 149.243 11.0687 148.505 10.8477 147.926C10.6267 147.344 10.1976 147.053 9.56039 147.053C8.97473 147.053 8.54562 147.33 8.27304 147.882C8.00416 148.431 7.86971 149.241 7.86971 150.313C7.86971 151.12 7.95627 151.768 8.12939 152.258C8.3946 153.006 8.84766 153.38 9.48857 153.38ZM13.4445 145.954H14.4004V150.667L16.953 148.153H18.2238L15.9585 150.368L18.3508 154.07H17.0801L15.2347 151.087L14.4004 151.849V154.07H13.4445V145.954Z" fill="#ADB5BD"/>
<path d="M0.4937 198.324C0.530534 197.643 0.670503 197.05 0.913607 196.545C1.1604 196.041 1.63924 195.582 2.35013 195.169L3.41095 194.556C3.88611 194.28 4.21946 194.044 4.411 193.849C4.71304 193.543 4.86406 193.193 4.86406 192.799C4.86406 192.339 4.72593 191.974 4.44967 191.705C4.17342 191.433 3.80508 191.296 3.34465 191.296C2.66322 191.296 2.19175 191.554 1.93023 192.07C1.79026 192.346 1.71291 192.729 1.69817 193.219H0.687078C0.698128 192.53 0.825206 191.969 1.06831 191.534C1.49927 190.768 2.25989 190.385 3.35018 190.385C4.25629 190.385 4.91747 190.63 5.33369 191.119C5.7536 191.609 5.96355 192.155 5.96355 192.755C5.96355 193.388 5.74071 193.93 5.29501 194.379C5.03718 194.641 4.57491 194.958 3.90821 195.33L3.15127 195.75C2.7903 195.948 2.50668 196.138 2.30041 196.319C1.93207 196.639 1.70001 196.995 1.60425 197.385H5.92488V198.324H0.4937ZM9.49962 190.412C10.5236 190.412 11.264 190.834 11.7207 191.678C12.0743 192.329 12.2511 193.223 12.2511 194.357C12.2511 195.433 12.0909 196.322 11.7704 197.026C11.3063 198.035 10.5475 198.54 9.49409 198.54C8.54378 198.54 7.83656 198.127 7.37245 197.302C6.9857 196.613 6.79232 195.689 6.79232 194.528C6.79232 193.63 6.90834 192.858 7.1404 192.213C7.57504 191.013 8.36145 190.412 9.49962 190.412ZM9.48857 197.634C10.0042 197.634 10.4149 197.405 10.7207 196.948C11.0264 196.492 11.1792 195.641 11.1792 194.396C11.1792 193.497 11.0687 192.759 10.8477 192.18C10.6267 191.598 10.1976 191.307 9.56039 191.307C8.97473 191.307 8.54562 191.584 8.27304 192.136C8.00416 192.685 7.86971 193.495 7.86971 194.567C7.86971 195.374 7.95627 196.022 8.12939 196.512C8.3946 197.26 8.84766 197.634 9.48857 197.634ZM13.4445 190.208H14.4004V194.921L16.953 192.407H18.2238L15.9585 194.622L18.3508 198.324H17.0801L15.2347 195.341L14.4004 196.103V198.324H13.4445V190.208Z" fill="#ADB5BD"/>
<path d="M1.22301 236.976V236.213C1.94128 236.143 2.44222 236.027 2.72584 235.865C3.00946 235.699 3.22126 235.311 3.36123 234.699H4.14579V242.578H3.08497V236.976H1.22301ZM9.49962 234.666C10.5236 234.666 11.264 235.088 11.7207 235.931C12.0743 236.583 12.2511 237.477 12.2511 238.611C12.2511 239.687 12.0909 240.576 11.7704 241.28C11.3063 242.289 10.5475 242.794 9.49409 242.794C8.54378 242.794 7.83656 242.381 7.37245 241.556C6.9857 240.867 6.79232 239.943 6.79232 238.782C6.79232 237.884 6.90834 237.112 7.1404 236.467C7.57504 235.267 8.36145 234.666 9.49962 234.666ZM9.48857 241.887C10.0042 241.887 10.4149 241.659 10.7207 241.202C11.0264 240.746 11.1792 239.895 11.1792 238.65C11.1792 237.751 11.0687 237.013 10.8477 236.434C10.6267 235.852 10.1976 235.561 9.56039 235.561C8.97473 235.561 8.54562 235.837 8.27304 236.39C8.00416 236.939 7.86971 237.749 7.86971 238.821C7.86971 239.628 7.95627 240.276 8.12939 240.766C8.3946 241.514 8.84766 241.887 9.48857 241.887ZM13.4445 234.462H14.4004V239.175L16.953 236.661H18.2238L15.9585 238.876L18.3508 242.578H17.0801L15.2347 239.595L14.4004 240.357V242.578H13.4445V234.462Z" fill="#ADB5BD"/>
<path d="M15.1583 278.92C16.1823 278.92 16.9227 279.342 17.3794 280.185C17.733 280.837 17.9098 281.731 17.9098 282.865C17.9098 283.941 17.7496 284.83 17.4291 285.534C16.965 286.543 16.2062 287.048 15.1528 287.048C14.2025 287.048 13.4953 286.635 13.0312 285.81C12.6444 285.121 12.451 284.197 12.451 283.036C12.451 282.138 12.567 281.366 12.7991 280.721C13.2337 279.52 14.0201 278.92 15.1583 278.92ZM15.1473 286.141C15.6629 286.141 16.0736 285.913 16.3794 285.456C16.6851 285 16.8379 284.149 16.8379 282.904C16.8379 282.005 16.7274 281.266 16.5064 280.688C16.2854 280.106 15.8563 279.815 15.2191 279.815C14.6334 279.815 14.2043 280.091 13.9317 280.644C13.6629 281.193 13.5284 282.003 13.5284 283.075C13.5284 283.882 13.615 284.53 13.7881 285.02C14.0533 285.768 14.5064 286.141 15.1473 286.141Z" fill="#ADB5BD"/>
<path d="M30.1406 283.371V289.543" stroke="#E0E0E0" stroke-width="1.02867"/>
<path d="M41.1172 283.371V289.543" stroke="#E0E0E0" stroke-width="1.02867"/>
<path d="M52.0938 283.371V289.543" stroke="#E0E0E0" stroke-width="1.02867"/>
<path d="M63.0742 283.371V289.543" stroke="#E0E0E0" stroke-width="1.02867"/>
<path d="M74.0547 283.371V289.543" stroke="#E0E0E0" stroke-width="1.02867"/>
<path d="M85.0352 283.371V289.543" stroke="#E0E0E0" stroke-width="1.02867"/>
<path d="M96.0117 283.371V289.543" stroke="#E0E0E0" stroke-width="1.02867"/>
<path d="M106.992 283.371V289.543" stroke="#E0E0E0" stroke-width="1.02867"/>
<path d="M117.969 283.371V289.543" stroke="#E0E0E0" stroke-width="1.02867"/>
<path d="M128.949 283.371V289.543" stroke="#E0E0E0" stroke-width="1.02867"/>
<path d="M139.926 283.371V289.543" stroke="#E0E0E0" stroke-width="1.02867"/>
<path d="M150.906 283.371V289.543" stroke="#E0E0E0" stroke-width="1.02867"/>
<path d="M161.887 283.371V289.543" stroke="#E0E0E0" stroke-width="1.02867"/>
<path d="M172.867 283.371V289.543" stroke="#E0E0E0" stroke-width="1.02867"/>
<path d="M183.844 283.371V289.543" stroke="#E0E0E0" stroke-width="1.02867"/>
<path d="M194.82 283.371V289.543" stroke="#E0E0E0" stroke-width="1.02867"/>
<path d="M205.801 283.371V289.543" stroke="#E0E0E0" stroke-width="1.02867"/>
<path d="M216.781 283.371V289.543" stroke="#E0E0E0" stroke-width="1.02867"/>
<path d="M227.758 283.371V289.543" stroke="#E0E0E0" stroke-width="1.02867"/>
<path d="M238.734 283.371V289.543" stroke="#E0E0E0" stroke-width="1.02867"/>
<path d="M249.711 283.371V289.543" stroke="#E0E0E0" stroke-width="1.02867"/>
<path d="M260.691 283.371V289.543" stroke="#E0E0E0" stroke-width="1.02867"/>
<path d="M271.668 283.371V289.543" stroke="#E0E0E0" stroke-width="1.02867"/>
<path d="M282.648 283.371V289.543" stroke="#E0E0E0" stroke-width="1.02867"/>
<path d="M293.629 283.371V289.543" stroke="#E0E0E0" stroke-width="1.02867"/>
<path d="M304.609 283.371V289.543" stroke="#E0E0E0" stroke-width="1.02867"/>
<path d="M315.586 283.371V289.543" stroke="#E0E0E0" stroke-width="1.02867"/>
<path d="M326.566 283.371V289.543" stroke="#E0E0E0" stroke-width="1.02867"/>
<path d="M337.543 283.371V289.543" stroke="#E0E0E0" stroke-width="1.02867"/>
<path d="M348.523 283.371V289.543" stroke="#E0E0E0" stroke-width="1.02867"/>
<path d="M30.1367 62.1133H348.522" stroke="#F8F9FA" stroke-width="1.02867"/>
<path d="M30.1367 106.367H348.522" stroke="#F8F9FA" stroke-width="1.02867"/>
<path d="M30.1367 150.621H348.522" stroke="#F8F9FA" stroke-width="1.02867"/>
<path d="M30.1367 194.867H348.522" stroke="#F8F9FA" stroke-width="1.02867"/>
<path d="M30.1367 239.121H348.522" stroke="#F8F9FA" stroke-width="1.02867"/>
<path d="M30.1367 17.8594H348.522" stroke="#F8F9FA" stroke-width="1.02867"/>
<path d="M30.1367 283.375H348.522" stroke="#F8F9FA" stroke-width="1.02867"/>
<path d="M30.1367 283.375H348.522" stroke="#E0E0E0" stroke-width="1.02867"/>
<mask id="mask0_292_10064" style="mask-type:luminance" maskUnits="userSpaceOnUse" x="28" y="14" width="323" height="273">
<path d="M350.082 14.2539H28.5586V286.968H350.082V14.2539Z" fill="white"/>
</mask>
<g mask="url(#mask0_292_10064)">
<path d="M30.1289 283.369C33.9715 283.369 37.2651 283.369 41.1077 283.369C44.9503 283.369 48.2439 283.369 52.0865 283.369C55.9291 283.369 59.2227 283.369 63.0653 283.369C66.9078 283.369 70.2015 283.369 74.0441 283.369C77.8866 283.369 81.1803 283.369 85.0229 283.369C88.8654 283.369 92.1591 283.369 96.0016 283.369C99.8442 283.369 103.138 283.369 106.98 283.369C110.823 283.369 114.117 283.369 117.959 283.369C121.802 283.369 125.095 283.369 128.938 283.369C132.781 283.369 136.074 283.369 139.917 283.369C143.759 283.369 147.053 283.369 150.896 283.369C154.738 283.369 158.032 283.369 161.874 283.369C165.717 283.369 169.011 283.369 172.853 283.369C176.696 283.369 179.989 283.369 183.832 283.369C187.675 283.369 190.968 283.369 194.811 283.369C198.653 283.369 201.947 283.369 205.79 283.369C209.632 283.369 212.926 283.369 216.768 283.369C220.611 283.369 223.905 283.369 227.747 283.369C231.59 283.369 234.883 283.369 238.726 283.369C242.568 283.369 245.862 283.369 249.705 283.369C253.547 283.369 256.841 283.369 260.683 283.369C264.526 283.369 267.82 283.369 271.662 283.369C275.505 283.369 278.798 283.369 282.641 283.369C286.484 283.369 289.777 283.369 293.62 283.369C297.462 283.369 300.756 67.6666 304.599 67.6666C308.441 67.6666 311.735 51.0057 315.577 51.0057C319.42 51.0057 322.714 44.8502 326.556 44.8502C330.399 44.8502 333.692 39.1328 337.535 39.1328C341.378 39.1328 344.671 39.1328 348.514 39.1328C348.514 39.1328 348.514 39.1328 348.514 283.369H30.1289Z" fill="url(#paint0_linear_292_10064)"/>
</g>
<mask id="mask1_292_10064" style="mask-type:luminance" maskUnits="userSpaceOnUse" x="28" y="14" width="323" height="273">
<path d="M350.082 14.2539H28.5586V286.968H350.082V14.2539Z" fill="white"/>
</mask>
<g mask="url(#mask1_292_10064)">
<path d="M30.1289 283.369C33.9715 283.369 37.2651 283.369 41.1077 283.369C44.9503 283.369 48.2439 283.369 52.0865 283.369C55.9291 283.369 59.2227 283.369 63.0653 283.369C66.9078 283.369 70.2015 283.369 74.0441 283.369C77.8866 283.369 81.1803 283.369 85.0229 283.369C88.8654 283.369 92.1591 283.369 96.0016 283.369C99.8442 283.369 103.138 283.369 106.98 283.369C110.823 283.369 114.117 283.369 117.959 283.369C121.802 283.369 125.095 283.369 128.938 283.369C132.781 283.369 136.074 283.369 139.917 283.369C143.759 283.369 147.053 283.369 150.896 283.369C154.738 283.369 158.032 283.369 161.874 283.369C165.717 283.369 169.011 283.369 172.853 283.369C176.696 283.369 179.989 283.369 183.832 283.369C187.675 283.369 190.968 283.369 194.811 283.369C198.653 283.369 201.947 283.369 205.79 283.369C209.632 283.369 212.926 283.369 216.768 283.369C220.611 283.369 223.905 283.369 227.747 283.369C231.59 283.369 234.883 283.369 238.726 283.369C242.568 283.369 245.862 283.369 249.705 283.369C253.547 283.369 256.841 283.369 260.683 283.369C264.526 283.369 267.82 283.369 271.662 283.369C275.505 283.369 278.798 283.369 282.641 283.369C286.484 283.369 289.777 283.369 293.62 283.369C297.462 283.369 300.756 67.6666 304.599 67.6666C308.441 67.6666 311.735 51.0057 315.577 51.0057C319.42 51.0057 322.714 44.8502 326.556 44.8502C330.399 44.8502 333.692 39.1328 337.535 39.1328C341.378 39.1328 344.671 39.1328 348.514 39.1328" stroke="#098738" stroke-width="3.08602"/>
</g>
<mask id="mask2_292_10064" style="mask-type:luminance" maskUnits="userSpaceOnUse" x="28" y="14" width="323" height="273">
<path d="M350.082 14.2539H28.5586V286.968H350.082V14.2539Z" fill="white"/>
</mask>
<g mask="url(#mask2_292_10064)">
<path d="M30.1289 283.371C33.9715 283.371 37.2651 283.371 41.1077 283.371C44.9503 283.371 48.2439 283.371 52.0865 283.371C55.9291 283.371 59.2227 283.371 63.0653 283.371C66.9078 283.371 70.2015 283.371 74.0441 283.371C77.8866 283.371 81.1803 283.371 85.0229 283.371C88.8654 283.371 92.1591 283.371 96.0016 283.371C99.8442 283.371 103.138 283.371 106.98 283.371C110.823 283.371 114.117 283.371 117.959 283.371C121.802 283.371 125.095 283.371 128.938 283.371C132.781 283.371 136.074 283.371 139.917 283.371C143.759 283.371 147.053 283.371 150.896 283.371C154.738 283.371 158.032 283.371 161.874 283.371C165.717 283.371 169.011 283.371 172.853 283.371C176.696 283.371 179.989 283.371 183.832 283.371C187.675 283.371 190.968 283.371 194.811 283.371C198.653 283.371 201.947 283.371 205.79 283.371C209.632 283.371 212.926 283.371 216.768 283.371C220.611 283.371 223.905 283.371 227.747 283.371C231.59 283.371 234.883 283.371 238.726 283.371C242.568 283.371 245.862 283.371 249.705 283.371C253.547 283.371 256.841 283.371 260.683 283.371C264.526 283.371 267.82 283.371 271.662 283.371C275.505 283.371 278.798 283.371 282.641 283.371C286.484 283.371 289.777 283.371 293.62 283.371C297.462 283.371 300.756 283.371 304.599 283.371C308.441 283.371 311.735 283.371 315.577 283.371C319.42 283.371 322.714 283.371 326.556 283.371C330.399 283.371 333.692 283.371 337.535 283.371C341.378 283.371 344.671 283.371 348.514 283.371" stroke="#5156BE" stroke-width="3.08602"/>
</g>
<path d="M24.4491 317.607V316.775C25.2327 316.699 25.7792 316.572 26.0886 316.395C26.398 316.215 26.629 315.791 26.7817 315.124H27.6376V323.719H26.4803V317.607H24.4491ZM33.4962 318.704C33.9744 318.704 34.3481 318.571 34.6173 318.306C34.8865 318.037 35.0212 317.717 35.0212 317.348C35.0212 317.026 34.8926 316.731 34.6354 316.462C34.3782 316.193 33.9865 316.058 33.4601 316.058C32.9377 316.058 32.56 316.193 32.3269 316.462C32.0939 316.731 31.9773 317.046 31.9773 317.408C31.9773 317.814 32.128 318.131 32.4294 318.36C32.7307 318.589 33.0864 318.704 33.4962 318.704ZM33.5625 322.977C34.0648 322.977 34.4807 322.843 34.8102 322.574C35.1437 322.3 35.3105 321.894 35.3105 321.356C35.3105 320.797 35.1397 320.374 34.7981 320.084C34.4566 319.795 34.0186 319.65 33.4842 319.65C32.9658 319.65 32.5419 319.799 32.2124 320.096C31.8869 320.39 31.7242 320.797 31.7242 321.32C31.7242 321.77 31.8728 322.16 32.1702 322.489C32.4716 322.815 32.9357 322.977 33.5625 322.977ZM32.0195 319.12C31.7181 318.991 31.4831 318.841 31.3143 318.668C30.9969 318.346 30.8381 317.928 30.8381 317.414C30.8381 316.771 31.0712 316.219 31.5373 315.757C32.0034 315.294 32.6644 315.063 33.5203 315.063C34.3481 315.063 34.997 315.282 35.4672 315.72C35.9373 316.154 36.1724 316.663 36.1724 317.245C36.1724 317.784 36.0358 318.22 35.7625 318.553C35.6098 318.742 35.3728 318.927 35.0513 319.108C35.4089 319.273 35.6902 319.461 35.8951 319.674C36.2769 320.076 36.4677 320.599 36.4677 321.241C36.4677 322.001 36.2126 322.646 35.7022 323.176C35.1919 323.703 34.4707 323.966 33.5384 323.966C32.6986 323.966 31.9874 323.739 31.4047 323.285C30.8261 322.827 30.5368 322.164 30.5368 321.296C30.5368 320.785 30.6613 320.345 30.9105 319.976C31.1596 319.602 31.5293 319.317 32.0195 319.12Z" fill="#ADB5BD"/>
<path d="M42.8515 317.607V316.775C43.635 316.699 44.1815 316.572 44.4909 316.395C44.8003 316.215 45.0314 315.791 45.1841 315.124H46.0399V323.719H44.8827V317.607H42.8515ZM50.1808 321.633C50.2129 322.232 50.444 322.646 50.8739 322.875C51.0949 322.995 51.344 323.056 51.6213 323.056C52.1397 323.056 52.5817 322.841 52.9473 322.411C53.313 321.977 53.5722 321.099 53.7249 319.777C53.4838 320.159 53.1844 320.428 52.8268 320.585C52.4732 320.737 52.0914 320.814 51.6816 320.814C50.8498 320.814 50.1908 320.554 49.7046 320.036C49.2224 319.518 48.9813 318.851 48.9813 318.035C48.9813 317.251 49.2204 316.562 49.6986 315.968C50.1767 315.373 50.8819 315.075 51.8142 315.075C53.0719 315.075 53.9398 315.642 54.418 316.775C54.6832 317.398 54.8158 318.178 54.8158 319.114C54.8158 320.171 54.6571 321.107 54.3397 321.923C53.8133 323.281 52.9212 323.96 51.6635 323.96C50.8197 323.96 50.1788 323.739 49.7408 323.297C49.3028 322.855 49.0838 322.3 49.0838 321.633H50.1808ZM51.8262 319.861C52.2562 319.861 52.648 319.721 53.0016 319.439C53.3592 319.154 53.538 318.658 53.538 317.951C53.538 317.316 53.3773 316.844 53.0558 316.534C52.7384 316.221 52.3325 316.064 51.8383 316.064C51.3079 316.064 50.886 316.243 50.5725 316.6C50.2631 316.954 50.1084 317.428 50.1084 318.023C50.1084 318.585 50.2451 319.033 50.5183 319.367C50.7915 319.696 51.2275 319.861 51.8262 319.861Z" fill="#ADB5BD"/>
<path d="M60.4582 323.719C60.4984 322.975 60.6511 322.328 60.9163 321.778C61.1855 321.227 61.7079 320.727 62.4834 320.277L63.6407 319.608C64.159 319.307 64.5227 319.05 64.7316 318.837C65.0611 318.503 65.2259 318.121 65.2259 317.691C65.2259 317.189 65.0752 316.791 64.7738 316.498C64.4724 316.201 64.0706 316.052 63.5683 316.052C62.8249 316.052 62.3106 316.333 62.0253 316.896C61.8726 317.197 61.7882 317.615 61.7722 318.149H60.6691C60.6812 317.398 60.8198 316.785 61.085 316.311C61.5552 315.475 62.3849 315.057 63.5743 315.057C64.5628 315.057 65.2841 315.325 65.7382 315.859C66.1963 316.393 66.4253 316.988 66.4253 317.643C66.4253 318.334 66.1822 318.925 65.696 319.415C65.4147 319.7 64.9104 320.046 64.1831 320.452L63.3574 320.91C62.9636 321.127 62.6542 321.334 62.4291 321.531C62.0273 321.88 61.7742 322.268 61.6697 322.694H66.3831V323.719H60.4582ZM70.2828 315.088C71.3999 315.088 72.2076 315.548 72.7058 316.468C73.0916 317.179 73.2845 318.153 73.2845 319.391C73.2845 320.564 73.1097 321.535 72.7601 322.302C72.2538 323.403 71.426 323.954 70.2768 323.954C69.2401 323.954 68.4686 323.504 67.9623 322.604C67.5404 321.852 67.3294 320.844 67.3294 319.578C67.3294 318.597 67.456 317.756 67.7091 317.052C68.1833 315.743 69.0412 315.088 70.2828 315.088ZM70.2708 322.965C70.8333 322.965 71.2814 322.716 71.6149 322.218C71.9484 321.72 72.1152 320.791 72.1152 319.433C72.1152 318.453 71.9946 317.647 71.7535 317.016C71.5124 316.381 71.0443 316.064 70.3491 316.064C69.7102 316.064 69.2421 316.365 68.9448 316.968C68.6514 317.567 68.5048 318.451 68.5048 319.62C68.5048 320.5 68.5992 321.207 68.788 321.742C69.0774 322.557 69.5716 322.965 70.2708 322.965Z" fill="#ADB5BD"/>
<path d="M78.8644 323.719C78.9046 322.975 79.0573 322.328 79.3225 321.778C79.5917 321.227 80.1141 320.727 80.8896 320.277L82.0469 319.608C82.5653 319.307 82.9289 319.05 83.1379 318.837C83.4674 318.503 83.6321 318.121 83.6321 317.691C83.6321 317.189 83.4814 316.791 83.18 316.498C82.8787 316.201 82.4769 316.052 81.9746 316.052C81.2312 316.052 80.7169 316.333 80.4316 316.896C80.2789 317.197 80.1945 317.615 80.1784 318.149H79.0754C79.0875 317.398 79.2261 316.785 79.4913 316.311C79.9614 315.475 80.7912 315.057 81.9806 315.057C82.9691 315.057 83.6904 315.325 84.1444 315.859C84.6025 316.393 84.8316 316.988 84.8316 317.643C84.8316 318.334 84.5884 318.925 84.1022 319.415C83.821 319.7 83.3167 320.046 82.5894 320.452L81.7636 320.91C81.3698 321.127 81.0604 321.334 80.8354 321.531C80.4336 321.88 80.1804 322.268 80.0759 322.694H84.7894V323.719H78.8644ZM86.5313 317.607V316.775C87.3148 316.699 87.8613 316.572 88.1707 316.395C88.4801 316.215 88.7112 315.791 88.8639 315.124H89.7198V323.719H88.5625V317.607H86.5313Z" fill="#ADB5BD"/>
<path d="M97.2668 323.719C97.307 322.975 97.4597 322.328 97.7249 321.778C97.9941 321.227 98.5165 320.727 99.292 320.277L100.449 319.608C100.968 319.307 101.331 319.05 101.54 318.837C101.87 318.503 102.034 318.121 102.034 317.691C102.034 317.189 101.884 316.791 101.582 316.498C101.281 316.201 100.879 316.052 100.377 316.052C99.6335 316.052 99.1192 316.333 98.8339 316.896C98.6812 317.197 98.5968 317.615 98.5808 318.149H97.4777C97.4898 317.398 97.6284 316.785 97.8936 316.311C98.3638 315.475 99.1935 315.057 100.383 315.057C101.371 315.057 102.093 315.325 102.547 315.859C103.005 316.393 103.234 316.988 103.234 317.643C103.234 318.334 102.991 318.925 102.505 319.415C102.223 319.7 101.719 320.046 100.992 320.452L100.166 320.91C99.7722 321.127 99.4628 321.334 99.2377 321.531C98.8359 321.88 98.5828 322.268 98.4783 322.694H103.192V323.719H97.2668ZM104.138 323.719C104.178 322.975 104.331 322.328 104.596 321.778C104.865 321.227 105.388 320.727 106.163 320.277L107.32 319.608C107.839 319.307 108.202 319.05 108.411 318.837C108.741 318.503 108.906 318.121 108.906 317.691C108.906 317.189 108.755 316.791 108.454 316.498C108.152 316.201 107.75 316.052 107.248 316.052C106.505 316.052 105.99 316.333 105.705 316.896C105.552 317.197 105.468 317.615 105.452 318.149H104.349C104.361 317.398 104.5 316.785 104.765 316.311C105.235 315.475 106.065 315.057 107.254 315.057C108.243 315.057 108.964 315.325 109.418 315.859C109.876 316.393 110.105 316.988 110.105 317.643C110.105 318.334 109.862 318.925 109.376 319.415C109.095 319.7 108.59 320.046 107.863 320.452L107.037 320.91C106.643 321.127 106.334 321.334 106.109 321.531C105.707 321.88 105.454 322.268 105.35 322.694H110.063V323.719H104.138Z" fill="#ADB5BD"/>
<path d="M115.669 323.719C115.709 322.975 115.862 322.328 116.127 321.778C116.396 321.227 116.919 320.727 117.694 320.277L118.852 319.608C119.37 319.307 119.734 319.05 119.943 318.837C120.272 318.503 120.437 318.121 120.437 317.691C120.437 317.189 120.286 316.791 119.985 316.498C119.683 316.201 119.282 316.052 118.779 316.052C118.036 316.052 117.522 316.333 117.236 316.896C117.084 317.197 116.999 317.615 116.983 318.149H115.88C115.892 317.398 116.031 316.785 116.296 316.311C116.766 315.475 117.596 315.057 118.785 315.057C119.774 315.057 120.495 315.325 120.949 315.859C121.407 316.393 121.636 316.988 121.636 317.643C121.636 318.334 121.393 318.925 120.907 319.415C120.626 319.7 120.121 320.046 119.394 320.452L118.568 320.91C118.175 321.127 117.865 321.334 117.64 321.531C117.238 321.88 116.985 322.268 116.881 322.694H121.594V323.719H115.669ZM125.361 323.954C124.341 323.954 123.599 323.675 123.137 323.116C122.679 322.553 122.45 321.87 122.45 321.067H123.583C123.631 321.625 123.736 322.031 123.897 322.284C124.178 322.738 124.686 322.965 125.421 322.965C125.992 322.965 126.45 322.813 126.796 322.507C127.141 322.202 127.314 321.808 127.314 321.326C127.314 320.731 127.131 320.315 126.766 320.078C126.404 319.841 125.9 319.723 125.253 319.723C125.18 319.723 125.106 319.725 125.03 319.729C124.957 319.729 124.883 319.731 124.807 319.735V318.776C124.919 318.788 125.014 318.796 125.09 318.8C125.166 318.804 125.249 318.806 125.337 318.806C125.743 318.806 126.076 318.742 126.338 318.614C126.796 318.389 127.025 317.987 127.025 317.408C127.025 316.978 126.872 316.647 126.567 316.414C126.261 316.18 125.906 316.064 125.5 316.064C124.777 316.064 124.276 316.305 123.999 316.787C123.846 317.052 123.76 317.43 123.74 317.92H122.667C122.667 317.277 122.796 316.731 123.053 316.281C123.495 315.477 124.272 315.075 125.385 315.075C126.265 315.075 126.946 315.272 127.429 315.666C127.911 316.056 128.152 316.623 128.152 317.366C128.152 317.896 128.009 318.326 127.724 318.656C127.547 318.861 127.318 319.021 127.037 319.138C127.491 319.263 127.844 319.504 128.098 319.861C128.355 320.215 128.483 320.649 128.483 321.163C128.483 321.987 128.212 322.658 127.67 323.176C127.127 323.695 126.358 323.954 125.361 323.954Z" fill="#ADB5BD"/>
<path d="M134.071 323.719C134.112 322.975 134.264 322.328 134.53 321.778C134.799 321.227 135.321 320.727 136.097 320.277L137.254 319.608C137.772 319.307 138.136 319.05 138.345 318.837C138.674 318.503 138.839 318.121 138.839 317.691C138.839 317.189 138.688 316.791 138.387 316.498C138.086 316.201 137.684 316.052 137.182 316.052C136.438 316.052 135.924 316.333 135.639 316.896C135.486 317.197 135.402 317.615 135.385 318.149H134.282C134.294 317.398 134.433 316.785 134.698 316.311C135.168 315.475 135.998 315.057 137.188 315.057C138.176 315.057 138.897 315.325 139.351 315.859C139.81 316.393 140.039 316.988 140.039 317.643C140.039 318.334 139.795 318.925 139.309 319.415C139.028 319.7 138.524 320.046 137.796 320.452L136.971 320.91C136.577 321.127 136.267 321.334 136.042 321.531C135.641 321.88 135.387 322.268 135.283 322.694H139.996V323.719H134.071ZM144.637 320.663V316.751L141.871 320.663H144.637ZM144.656 323.719V321.609H140.87V320.548L144.824 315.063H145.74V320.663H147.012V321.609H145.74V323.719H144.656Z" fill="#ADB5BD"/>
<path d="M152.474 323.719C152.514 322.975 152.667 322.328 152.932 321.778C153.201 321.227 153.723 320.727 154.499 320.277L155.656 319.608C156.175 319.307 156.538 319.05 156.747 318.837C157.077 318.503 157.241 318.121 157.241 317.691C157.241 317.189 157.091 316.791 156.789 316.498C156.488 316.201 156.086 316.052 155.584 316.052C154.841 316.052 154.326 316.333 154.041 316.896C153.888 317.197 153.804 317.615 153.788 318.149H152.685C152.697 317.398 152.835 316.785 153.101 316.311C153.571 315.475 154.401 315.057 155.59 315.057C156.578 315.057 157.3 315.325 157.754 315.859C158.212 316.393 158.441 316.988 158.441 317.643C158.441 318.334 158.198 318.925 157.712 319.415C157.43 319.7 156.926 320.046 156.199 320.452L155.373 320.91C154.979 321.127 154.67 321.334 154.445 321.531C154.043 321.88 153.79 322.268 153.685 322.694H158.399V323.719H152.474ZM160.484 321.519C160.557 322.138 160.844 322.566 161.346 322.803C161.603 322.923 161.901 322.983 162.238 322.983C162.881 322.983 163.357 322.778 163.667 322.369C163.976 321.959 164.131 321.505 164.131 321.006C164.131 320.404 163.946 319.938 163.576 319.608C163.211 319.279 162.771 319.114 162.256 319.114C161.883 319.114 161.561 319.186 161.292 319.331C161.027 319.475 160.8 319.676 160.611 319.934L159.671 319.879L160.327 315.232H164.812V316.281H161.141L160.774 318.68C160.974 318.527 161.165 318.413 161.346 318.336C161.668 318.204 162.039 318.137 162.461 318.137C163.253 318.137 163.924 318.393 164.474 318.903C165.025 319.413 165.3 320.06 165.3 320.844C165.3 321.659 165.047 322.379 164.541 323.001C164.038 323.624 163.235 323.936 162.13 323.936C161.426 323.936 160.804 323.739 160.261 323.345C159.723 322.947 159.421 322.338 159.357 321.519H160.484Z" fill="#ADB5BD"/>
<path d="M170.876 323.719C170.916 322.975 171.069 322.328 171.334 321.778C171.603 321.227 172.126 320.727 172.901 320.277L174.059 319.608C174.577 319.307 174.941 319.05 175.15 318.837C175.479 318.503 175.644 318.121 175.644 317.691C175.644 317.189 175.493 316.791 175.192 316.498C174.89 316.201 174.489 316.052 173.986 316.052C173.243 316.052 172.729 316.333 172.443 316.896C172.291 317.197 172.206 317.615 172.19 318.149H171.087C171.099 317.398 171.238 316.785 171.503 316.311C171.973 315.475 172.803 315.057 173.992 315.057C174.981 315.057 175.702 315.325 176.156 315.859C176.614 316.393 176.843 316.988 176.843 317.643C176.843 318.334 176.6 318.925 176.114 319.415C175.833 319.7 175.328 320.046 174.601 320.452L173.775 320.91C173.382 321.127 173.072 321.334 172.847 321.531C172.445 321.88 172.192 322.268 172.088 322.694H176.801V323.719H170.876ZM180.972 315.051C181.936 315.051 182.607 315.303 182.985 315.805C183.367 316.303 183.558 316.817 183.558 317.348H182.485C182.421 317.006 182.318 316.739 182.178 316.546C181.916 316.185 181.521 316.004 180.99 316.004C180.383 316.004 179.901 316.285 179.544 316.848C179.186 317.406 178.987 318.208 178.947 319.252C179.196 318.887 179.509 318.614 179.887 318.433C180.233 318.272 180.618 318.192 181.044 318.192C181.768 318.192 182.399 318.423 182.937 318.885C183.475 319.347 183.745 320.036 183.745 320.952C183.745 321.736 183.489 322.431 182.979 323.038C182.469 323.64 181.742 323.942 180.797 323.942C179.99 323.942 179.292 323.636 178.706 323.026C178.119 322.411 177.826 321.378 177.826 319.928C177.826 318.855 177.956 317.945 178.218 317.197C178.72 315.767 179.638 315.051 180.972 315.051ZM180.894 322.977C181.464 322.977 181.89 322.787 182.171 322.405C182.457 322.019 182.599 321.565 182.599 321.043C182.599 320.601 182.473 320.181 182.22 319.783C181.967 319.381 181.506 319.18 180.839 319.18C180.373 319.18 179.963 319.335 179.61 319.644C179.26 319.954 179.085 320.42 179.085 321.043C179.085 321.589 179.244 322.049 179.562 322.423C179.883 322.793 180.327 322.977 180.894 322.977Z" fill="#ADB5BD"/>
<path d="M189.282 323.719C189.323 322.975 189.475 322.328 189.74 321.778C190.01 321.227 190.532 320.727 191.308 320.277L192.465 319.608C192.983 319.307 193.347 319.05 193.556 318.837C193.885 318.503 194.05 318.121 194.05 317.691C194.05 317.189 193.899 316.791 193.598 316.498C193.297 316.201 192.895 316.052 192.393 316.052C191.649 316.052 191.135 316.333 190.85 316.896C190.697 317.197 190.612 317.615 190.596 318.149H189.493C189.505 317.398 189.644 316.785 189.909 316.311C190.379 315.475 191.209 315.057 192.399 315.057C193.387 315.057 194.108 315.325 194.562 315.859C195.02 316.393 195.25 316.988 195.25 317.643C195.25 318.334 195.006 318.925 194.52 319.415C194.239 319.7 193.735 320.046 193.007 320.452L192.182 320.91C191.788 321.127 191.478 321.334 191.253 321.531C190.852 321.88 190.598 322.268 190.494 322.694H195.207V323.719H189.282ZM202.223 315.232V316.178C201.946 316.448 201.576 316.916 201.114 317.583C200.656 318.25 200.25 318.969 199.897 319.741C199.547 320.492 199.282 321.177 199.101 321.796C198.984 322.194 198.834 322.835 198.649 323.719H197.45C197.723 322.071 198.325 320.432 199.258 318.8C199.808 317.844 200.387 317.018 200.994 316.323H196.22V315.232H202.223Z" fill="#ADB5BD"/>
<path d="M207.685 323.719C207.725 322.975 207.878 322.328 208.143 321.778C208.412 321.227 208.934 320.727 209.71 320.277L210.867 319.608C211.386 319.307 211.749 319.05 211.958 318.837C212.288 318.503 212.452 318.121 212.452 317.691C212.452 317.189 212.302 316.791 212 316.498C211.699 316.201 211.297 316.052 210.795 316.052C210.052 316.052 209.537 316.333 209.252 316.896C209.099 317.197 209.015 317.615 208.999 318.149H207.896C207.908 317.398 208.046 316.785 208.312 316.311C208.782 315.475 209.612 315.057 210.801 315.057C211.789 315.057 212.511 315.325 212.965 315.859C213.423 316.393 213.652 316.988 213.652 317.643C213.652 318.334 213.409 318.925 212.923 319.415C212.641 319.7 212.137 320.046 211.41 320.452L210.584 320.91C210.19 321.127 209.881 321.334 209.656 321.531C209.254 321.88 209.001 322.268 208.896 322.694H213.61V323.719H207.685ZM217.527 318.704C218.006 318.704 218.379 318.571 218.649 318.306C218.918 318.037 219.052 317.717 219.052 317.348C219.052 317.026 218.924 316.731 218.667 316.462C218.409 316.193 218.018 316.058 217.491 316.058C216.969 316.058 216.591 316.193 216.358 316.462C216.125 316.731 216.009 317.046 216.009 317.408C216.009 317.814 216.159 318.131 216.461 318.36C216.762 318.589 217.118 318.704 217.527 318.704ZM217.594 322.977C218.096 322.977 218.512 322.843 218.841 322.574C219.175 322.3 219.342 321.894 219.342 321.356C219.342 320.797 219.171 320.374 218.829 320.084C218.488 319.795 218.05 319.65 217.515 319.65C216.997 319.65 216.573 319.799 216.244 320.096C215.918 320.39 215.755 320.797 215.755 321.32C215.755 321.77 215.904 322.16 216.201 322.489C216.503 322.815 216.967 322.977 217.594 322.977ZM216.051 319.12C215.749 318.991 215.514 318.841 215.346 318.668C215.028 318.346 214.869 317.928 214.869 317.414C214.869 316.771 215.102 316.219 215.569 315.757C216.035 315.294 216.696 315.063 217.552 315.063C218.379 315.063 219.028 315.282 219.498 315.72C219.969 316.154 220.204 316.663 220.204 317.245C220.204 317.784 220.067 318.22 219.794 318.553C219.641 318.742 219.404 318.927 219.083 319.108C219.44 319.273 219.721 319.461 219.926 319.674C220.308 320.076 220.499 320.599 220.499 321.241C220.499 322.001 220.244 322.646 219.733 323.176C219.223 323.703 218.502 323.966 217.57 323.966C216.73 323.966 216.019 323.739 215.436 323.285C214.857 322.827 214.568 322.164 214.568 321.296C214.568 320.785 214.693 320.345 214.942 319.976C215.191 319.602 215.561 319.317 216.051 319.12Z" fill="#ADB5BD"/>
<path d="M226.087 323.719C226.127 322.975 226.28 322.328 226.545 321.778C226.814 321.227 227.337 320.727 228.112 320.277L229.27 319.608C229.788 319.307 230.152 319.05 230.361 318.837C230.69 318.503 230.855 318.121 230.855 317.691C230.855 317.189 230.704 316.791 230.403 316.498C230.101 316.201 229.7 316.052 229.197 316.052C228.454 316.052 227.94 316.333 227.654 316.896C227.502 317.197 227.417 317.615 227.401 318.149H226.298C226.31 317.398 226.449 316.785 226.714 316.311C227.184 315.475 228.014 315.057 229.203 315.057C230.192 315.057 230.913 315.325 231.367 315.859C231.825 316.393 232.054 316.988 232.054 317.643C232.054 318.334 231.811 318.925 231.325 319.415C231.044 319.7 230.539 320.046 229.812 320.452L228.986 320.91C228.592 321.127 228.283 321.334 228.058 321.531C227.656 321.88 227.403 322.268 227.299 322.694H232.012V323.719H226.087ZM234.212 321.633C234.244 322.232 234.475 322.646 234.905 322.875C235.126 322.995 235.375 323.056 235.653 323.056C236.171 323.056 236.613 322.841 236.979 322.411C237.344 321.977 237.603 321.099 237.756 319.777C237.515 320.159 237.216 320.428 236.858 320.585C236.504 320.737 236.123 320.814 235.713 320.814C234.881 320.814 234.222 320.554 233.736 320.036C233.254 319.518 233.013 318.851 233.013 318.035C233.013 317.251 233.252 316.562 233.73 315.968C234.208 315.373 234.913 315.075 235.845 315.075C237.103 315.075 237.971 315.642 238.449 316.775C238.714 317.398 238.847 318.178 238.847 319.114C238.847 320.171 238.688 321.107 238.371 321.923C237.845 323.281 236.952 323.96 235.695 323.96C234.851 323.96 234.21 323.739 233.772 323.297C233.334 322.855 233.115 322.3 233.115 321.633H234.212ZM235.857 319.861C236.287 319.861 236.679 319.721 237.033 319.439C237.39 319.154 237.569 318.658 237.569 317.951C237.569 317.316 237.409 316.844 237.087 316.534C236.77 316.221 236.364 316.064 235.87 316.064C235.339 316.064 234.917 316.243 234.604 316.6C234.294 316.954 234.14 317.428 234.14 318.023C234.14 318.585 234.276 319.033 234.55 319.367C234.823 319.696 235.259 319.861 235.857 319.861Z" fill="#ADB5BD"/>
<path d="M247.31 323.954C246.29 323.954 245.548 323.675 245.086 323.116C244.628 322.553 244.399 321.87 244.399 321.067H245.532C245.58 321.625 245.685 322.031 245.846 322.284C246.127 322.738 246.635 322.965 247.371 322.965C247.941 322.965 248.399 322.813 248.745 322.507C249.09 322.202 249.263 321.808 249.263 321.326C249.263 320.731 249.08 320.315 248.715 320.078C248.353 319.841 247.849 319.723 247.202 319.723C247.129 319.723 247.055 319.725 246.979 319.729C246.906 319.729 246.832 319.731 246.756 319.735V318.776C246.868 318.788 246.963 318.796 247.039 318.8C247.115 318.804 247.198 318.806 247.286 318.806C247.692 318.806 248.026 318.742 248.287 318.614C248.745 318.389 248.974 317.987 248.974 317.408C248.974 316.978 248.821 316.647 248.516 316.414C248.21 316.18 247.855 316.064 247.449 316.064C246.726 316.064 246.225 316.305 245.948 316.787C245.795 317.052 245.709 317.43 245.689 317.92H244.616C244.616 317.277 244.745 316.731 245.002 316.281C245.444 315.477 246.221 315.075 247.334 315.075C248.214 315.075 248.895 315.272 249.378 315.666C249.86 316.056 250.101 316.623 250.101 317.366C250.101 317.896 249.958 318.326 249.673 318.656C249.496 318.861 249.267 319.021 248.986 319.138C249.44 319.263 249.794 319.504 250.047 319.861C250.304 320.215 250.432 320.649 250.432 321.163C250.432 321.987 250.161 322.658 249.619 323.176C249.076 323.695 248.307 323.954 247.31 323.954ZM254.314 315.088C255.431 315.088 256.239 315.548 256.737 316.468C257.123 317.179 257.316 318.153 257.316 319.391C257.316 320.564 257.141 321.535 256.791 322.302C256.285 323.403 255.457 323.954 254.308 323.954C253.271 323.954 252.5 323.504 251.994 322.604C251.572 321.852 251.361 320.844 251.361 319.578C251.361 318.597 251.487 317.756 251.74 317.052C252.215 315.743 253.072 315.088 254.314 315.088ZM254.302 322.965C254.865 322.965 255.313 322.716 255.646 322.218C255.98 321.72 256.146 320.791 256.146 319.433C256.146 318.453 256.026 317.647 255.785 317.016C255.544 316.381 255.076 316.064 254.38 316.064C253.741 316.064 253.273 316.365 252.976 316.968C252.683 317.567 252.536 318.451 252.536 319.62C252.536 320.5 252.63 321.207 252.819 321.742C253.109 322.557 253.603 322.965 254.302 322.965Z" fill="#ADB5BD"/>
<path d="M265.713 323.954C264.692 323.954 263.951 323.675 263.488 323.116C263.03 322.553 262.801 321.87 262.801 321.067H263.935C263.983 321.625 264.087 322.031 264.248 322.284C264.529 322.738 265.038 322.965 265.773 322.965C266.343 322.965 266.802 322.813 267.147 322.507C267.493 322.202 267.665 321.808 267.665 321.326C267.665 320.731 267.483 320.315 267.117 320.078C266.755 319.841 266.251 319.723 265.604 319.723C265.532 319.723 265.457 319.725 265.381 319.729C265.309 319.729 265.234 319.731 265.158 319.735V318.776C265.271 318.788 265.365 318.796 265.441 318.8C265.518 318.804 265.6 318.806 265.688 318.806C266.094 318.806 266.428 318.742 266.689 318.614C267.147 318.389 267.376 317.987 267.376 317.408C267.376 316.978 267.223 316.647 266.918 316.414C266.613 316.18 266.257 316.064 265.851 316.064C265.128 316.064 264.628 316.305 264.35 316.787C264.198 317.052 264.111 317.43 264.091 317.92H263.018C263.018 317.277 263.147 316.731 263.404 316.281C263.846 315.477 264.624 315.075 265.737 315.075C266.617 315.075 267.298 315.272 267.78 315.666C268.262 316.056 268.503 316.623 268.503 317.366C268.503 317.896 268.361 318.326 268.075 318.656C267.899 318.861 267.669 319.021 267.388 319.138C267.842 319.263 268.196 319.504 268.449 319.861C268.706 320.215 268.835 320.649 268.835 321.163C268.835 321.987 268.564 322.658 268.021 323.176C267.479 323.695 266.709 323.954 265.713 323.954ZM270.559 317.607V316.775C271.342 316.699 271.889 316.572 272.198 316.395C272.507 316.215 272.739 315.791 272.891 315.124H273.747V323.719H272.59V317.607H270.559Z" fill="#ADB5BD"/>
<path d="M284.251 315.088C285.369 315.088 286.176 315.548 286.674 316.468C287.06 317.179 287.253 318.153 287.253 319.391C287.253 320.564 287.078 321.535 286.729 322.302C286.222 323.403 285.395 323.954 284.245 323.954C283.209 323.954 282.437 323.504 281.931 322.604C281.509 321.852 281.298 320.844 281.298 319.578C281.298 318.597 281.425 317.756 281.678 317.052C282.152 315.743 283.01 315.088 284.251 315.088ZM284.239 322.965C284.802 322.965 285.25 322.716 285.584 322.218C285.917 321.72 286.084 320.791 286.084 319.433C286.084 318.453 285.963 317.647 285.722 317.016C285.481 316.381 285.013 316.064 284.318 316.064C283.679 316.064 283.211 316.365 282.913 316.968C282.62 317.567 282.473 318.451 282.473 319.62C282.473 320.5 282.568 321.207 282.757 321.742C283.046 322.557 283.54 322.965 284.239 322.965ZM288.965 317.607V316.775C289.748 316.699 290.295 316.572 290.604 316.395C290.914 316.215 291.145 315.791 291.297 315.124H292.153V323.719H290.996V317.607H288.965Z" fill="#ADB5BD"/>
<path d="M302.654 315.088C303.771 315.088 304.579 315.548 305.077 316.468C305.463 317.179 305.655 318.153 305.655 319.391C305.655 320.564 305.481 321.535 305.131 322.302C304.625 323.403 303.797 323.954 302.648 323.954C301.611 323.954 300.84 323.504 300.333 322.604C299.911 321.852 299.7 320.844 299.7 319.578C299.7 318.597 299.827 317.756 300.08 317.052C300.554 315.743 301.412 315.088 302.654 315.088ZM302.642 322.965C303.204 322.965 303.652 322.716 303.986 322.218C304.319 321.72 304.486 320.791 304.486 319.433C304.486 318.453 304.366 317.647 304.124 317.016C303.883 316.381 303.415 316.064 302.72 316.064C302.081 316.064 301.613 316.365 301.316 316.968C301.022 317.567 300.876 318.451 300.876 319.62C300.876 320.5 300.97 321.207 301.159 321.742C301.448 322.557 301.943 322.965 302.642 322.965ZM306.572 323.719C306.612 322.975 306.764 322.328 307.03 321.778C307.299 321.227 307.821 320.727 308.597 320.277L309.754 319.608C310.272 319.307 310.636 319.05 310.845 318.837C311.175 318.503 311.339 318.121 311.339 317.691C311.339 317.189 311.189 316.791 310.887 316.498C310.586 316.201 310.184 316.052 309.682 316.052C308.938 316.052 308.424 316.333 308.139 316.896C307.986 317.197 307.902 317.615 307.886 318.149H306.783C306.795 317.398 306.933 316.785 307.198 316.311C307.669 315.475 308.498 315.057 309.688 315.057C310.676 315.057 311.398 315.325 311.852 315.859C312.31 316.393 312.539 316.988 312.539 317.643C312.539 318.334 312.296 318.925 311.809 319.415C311.528 319.7 311.024 320.046 310.297 320.452L309.471 320.91C309.077 321.127 308.768 321.334 308.543 321.531C308.141 321.88 307.888 322.268 307.783 322.694H312.497V323.719H306.572Z" fill="#ADB5BD"/>
<path d="M321.056 315.088C322.173 315.088 322.981 315.548 323.479 316.468C323.865 317.179 324.058 318.153 324.058 319.391C324.058 320.564 323.883 321.535 323.533 322.302C323.027 323.403 322.199 323.954 321.05 323.954C320.013 323.954 319.242 323.504 318.736 322.604C318.314 321.852 318.103 320.844 318.103 319.578C318.103 318.597 318.229 317.756 318.482 317.052C318.957 315.743 319.815 315.088 321.056 315.088ZM321.044 322.965C321.607 322.965 322.055 322.716 322.388 322.218C322.722 321.72 322.888 320.791 322.888 319.433C322.888 318.453 322.768 317.647 322.527 317.016C322.286 316.381 321.818 316.064 321.122 316.064C320.484 316.064 320.015 316.365 319.718 316.968C319.425 317.567 319.278 318.451 319.278 319.62C319.278 320.5 319.372 321.207 319.561 321.742C319.851 322.557 320.345 322.965 321.044 322.965ZM327.795 323.954C326.774 323.954 326.033 323.675 325.571 323.116C325.113 322.553 324.884 321.87 324.884 321.067H326.017C326.065 321.625 326.169 322.031 326.33 322.284C326.611 322.738 327.12 322.965 327.855 322.965C328.426 322.965 328.884 322.813 329.229 322.507C329.575 322.202 329.748 321.808 329.748 321.326C329.748 320.731 329.565 320.315 329.199 320.078C328.837 319.841 328.333 319.723 327.686 319.723C327.614 319.723 327.54 319.725 327.463 319.729C327.391 319.729 327.317 319.731 327.24 319.735V318.776C327.353 318.788 327.447 318.796 327.524 318.8C327.6 318.804 327.682 318.806 327.771 318.806C328.176 318.806 328.51 318.742 328.771 318.614C329.229 318.389 329.458 317.987 329.458 317.408C329.458 316.978 329.306 316.647 329 316.414C328.695 316.18 328.339 316.064 327.933 316.064C327.21 316.064 326.71 316.305 326.433 316.787C326.28 317.052 326.193 317.43 326.173 317.92H325.101C325.101 317.277 325.229 316.731 325.486 316.281C325.928 315.477 326.706 315.075 327.819 315.075C328.699 315.075 329.38 315.272 329.862 315.666C330.344 316.056 330.585 316.623 330.585 317.366C330.585 317.896 330.443 318.326 330.157 318.656C329.981 318.861 329.752 319.021 329.47 319.138C329.924 319.263 330.278 319.504 330.531 319.861C330.788 320.215 330.917 320.649 330.917 321.163C330.917 321.987 330.646 322.658 330.103 323.176C329.561 323.695 328.791 323.954 327.795 323.954Z" fill="#ADB5BD"/>
<path d="M339.458 315.088C340.576 315.088 341.383 315.548 341.881 316.468C342.267 317.179 342.46 318.153 342.46 319.391C342.46 320.564 342.285 321.535 341.936 322.302C341.429 323.403 340.602 323.954 339.452 323.954C338.416 323.954 337.644 323.504 337.138 322.604C336.716 321.852 336.505 320.844 336.505 319.578C336.505 318.597 336.632 317.756 336.885 317.052C337.359 315.743 338.217 315.088 339.458 315.088ZM339.446 322.965C340.009 322.965 340.457 322.716 340.791 322.218C341.124 321.72 341.291 320.791 341.291 319.433C341.291 318.453 341.17 317.647 340.929 317.016C340.688 316.381 340.22 316.064 339.525 316.064C338.886 316.064 338.418 316.365 338.12 316.968C337.827 317.567 337.68 318.451 337.68 319.62C337.68 320.5 337.775 321.207 337.964 321.742C338.253 322.557 338.747 322.965 339.446 322.965ZM347.071 320.663V316.751L344.305 320.663H347.071ZM347.089 323.719V321.609H343.304V320.548L347.258 315.063H348.174V320.663H349.446V321.609H348.174V323.719H347.089Z" fill="#ADB5BD"/>
<defs>
<linearGradient id="paint0_linear_292_10064" x1="30.1289" y1="39.1328" x2="30.1289" y2="283.369" gradientUnits="userSpaceOnUse">
<stop stop-color="#098738" stop-opacity="0.4225"/>
<stop offset="1" stop-color="#84C39C" stop-opacity="0.25"/>
</linearGradient>
</defs>
</svg>
