<svg width="145" height="144" viewBox="0 0 145 144" fill="none" xmlns="http://www.w3.org/2000/svg">
<path d="M111.357 55.4141H33.3447V122.169H111.357V55.4141Z" fill="white"/>
<path d="M111.579 122.398H33.1138V55.1875H111.579V122.398ZM33.5673 121.942H111.126V55.6432H33.5673V121.942Z" fill="#2C3131"/>
<path d="M82.0977 68.4023H62.5947V122.171H82.0977V68.4023Z" fill="#5156BE"/>
<path d="M82.0977 68.4023H62.5947V122.171H82.0977V68.4023Z" fill="#5156BE"/>
<path d="M115.888 49.2656H28.8052V68.4035H115.888V49.2656Z" fill="white"/>
<path d="M116.117 68.6287H28.5801V49.0352H116.117V68.6287ZM29.0336 68.173H115.663V49.4908H29.0336V68.173Z" fill="#2C3131"/>
<path d="M82.0977 47.4414H62.5947V68.1741H82.0977V47.4414Z" fill="#5156BE"/>
<path d="M70.2587 29.364C75.4069 37.0309 70.5563 49.362 70.5563 49.362C70.5563 49.362 57.3589 49.2626 52.2107 41.5957C47.0625 33.9288 51.913 21.5977 51.913 21.5977C51.913 21.5977 65.1105 21.6971 70.2587 29.364Z" fill="#5156BE"/>
<path d="M72.6238 29.364C67.4755 37.0309 72.3261 49.362 72.3261 49.362C72.3261 49.362 85.5236 49.2626 90.6718 41.5957C95.82 33.9288 90.9695 21.5977 90.9695 21.5977C90.9695 21.5977 77.772 21.6971 72.6238 29.364Z" fill="#5156BE"/>
<ellipse cx="15.7471" cy="15.8515" rx="15.7471" ry="15.8515" transform="matrix(1.00041 0 -0.0011555 0.999591 56.8457 74.3477)" fill="#FFBE55"/>
<path d="M71.1066 98.5286C68.6523 98.3096 66.2104 96.498 66.2114 95.5498C66.2125 94.6225 66.9614 94.1836 67.6974 93.6223C68.4334 93.0611 71.7891 96.4685 73.7975 95.7831C75.8058 95.0977 74.599 93.2793 72.7936 92.0965C70.6664 90.703 69.1314 89.6662 67.7042 87.4457C66.9344 86.3505 65.7053 83.2727 68.2555 81.9059C69.0531 81.4785 69.3561 81.2081 71.7052 81.2803L71.7564 79.661C72.3001 79.0364 74.5666 79.0658 75.1943 79.7667L75.1431 81.3861C76.5846 81.7367 80.019 82.715 80.3561 83.7659C80.7583 84.199 81.0594 85.4571 80.3533 86.3202C79.1818 87.7523 71.1296 82.9621 71.7642 86.3202C72.2843 89.0725 81.8394 91.9139 79.1289 96.1193C78.5564 97.5358 76.1218 98.7515 74.5975 98.636L74.5475 100.216C73.7871 101.117 71.5735 100.982 71.1047 100.265L71.1066 98.5286Z" fill="white"/>
</svg>
