<svg width="22" height="23" viewBox="0 0 22 23" fill="none" xmlns="http://www.w3.org/2000/svg">
<path d="M18.4411 7.3349C18.4411 7.09631 18.3463 6.8675 18.1776 6.69879C18.0089 6.53009 17.7801 6.43531 17.5415 6.43531H4.04779C3.8092 6.43531 3.58039 6.53009 3.41168 6.69879C3.24298 6.8675 3.1482 7.09631 3.1482 7.3349V13.632C3.1482 13.8706 3.24298 14.0994 3.41168 14.2681C3.58039 14.4368 3.8092 14.5316 4.04779 14.5316H17.5415C17.7801 14.5316 18.0089 14.4368 18.1776 14.2681C18.3463 14.0994 18.4411 13.8706 18.4411 13.632V7.3349ZM2.69841 5.08594H18.8909C19.1295 5.08594 19.3583 5.18071 19.527 5.34942C19.6957 5.51812 19.7905 5.74694 19.7905 5.98552V14.9814C19.7905 15.2199 19.6957 15.4488 19.527 15.6175C19.3583 15.7862 19.1295 15.8809 18.8909 15.8809H2.69841C2.45983 15.8809 2.23101 15.7862 2.06231 15.6175C1.89361 15.4488 1.79883 15.2199 1.79883 14.9814V5.98552C1.79883 5.74694 1.89361 5.51812 2.06231 5.34942C2.23101 5.18071 2.45983 5.08594 2.69841 5.08594ZM17.9913 17.6801C17.9913 17.859 17.9202 18.0307 17.7937 18.1572C17.6672 18.2837 17.4956 18.3548 17.3166 18.3548H4.27268C4.09374 18.3548 3.92213 18.2837 3.79561 18.1572C3.66908 18.0307 3.59799 17.859 3.59799 17.6801C3.59799 17.5012 3.66908 17.3296 3.79561 17.203C3.92213 17.0765 4.09374 17.0054 4.27268 17.0054H17.3166C17.4956 17.0054 17.6672 17.0765 17.7937 17.203C17.9202 17.3296 17.9913 17.5012 17.9913 17.6801ZM10.7947 11.8328C10.9719 11.8328 11.1473 11.7979 11.311 11.7301C11.4748 11.6623 11.6235 11.5629 11.7488 11.4376C11.8741 11.3123 11.9735 11.1635 12.0413 10.9998C12.1091 10.8361 12.144 10.6606 12.144 10.4834C12.144 10.3062 12.1091 10.1308 12.0413 9.96705C11.9735 9.80334 11.8741 9.65459 11.7488 9.52928C11.6235 9.40398 11.4748 9.30459 11.311 9.23678C11.1473 9.16896 10.9719 9.13406 10.7947 9.13406C10.4368 9.13406 10.0936 9.27623 9.84051 9.52928C9.58745 9.78234 9.44529 10.1256 9.44529 10.4834C9.44529 10.8413 9.58745 11.1845 9.84051 11.4376C10.0936 11.6906 10.4368 11.8328 10.7947 11.8328ZM10.7947 13.1822C10.4403 13.1822 10.0893 13.1124 9.76189 12.9768C9.43447 12.8411 9.13696 12.6423 8.88636 12.3917C8.63575 12.1411 8.43697 11.8436 8.30134 11.5162C8.16572 11.1888 8.09591 10.8378 8.09591 10.4834C8.09591 10.129 8.16572 9.7781 8.30134 9.45067C8.43697 9.12324 8.63575 8.82573 8.88636 8.57513C9.13696 8.32453 9.43447 8.12574 9.76189 7.99012C10.0893 7.85449 10.4403 7.78469 10.7947 7.78469C11.5104 7.78469 12.1969 8.06902 12.703 8.57513C13.2091 9.08125 13.4934 9.76768 13.4934 10.4834C13.4934 11.1992 13.2091 11.8856 12.703 12.3917C12.1969 12.8979 11.5104 13.1822 10.7947 13.1822ZM6.29674 10.2585C6.29674 10.3471 6.27929 10.4349 6.24539 10.5167C6.21148 10.5986 6.16178 10.673 6.09913 10.7356C6.03648 10.7983 5.96211 10.848 5.88025 10.8819C5.79839 10.9158 5.71066 10.9332 5.62206 10.9332C5.53346 10.9332 5.44572 10.9158 5.36387 10.8819C5.28201 10.848 5.20763 10.7983 5.14498 10.7356C5.08233 10.673 5.03263 10.5986 4.99873 10.5167C4.96482 10.4349 4.94737 10.3471 4.94737 10.2585C4.94737 10.0796 5.01845 9.90799 5.14498 9.78147C5.27151 9.65494 5.44312 9.58385 5.62206 9.58385C5.801 9.58385 5.97261 9.65494 6.09913 9.78147C6.22566 9.90799 6.29674 10.0796 6.29674 10.2585ZM16.642 10.2585C16.642 10.4375 16.5709 10.6091 16.4443 10.7356C16.3178 10.8621 16.1462 10.9332 15.9673 10.9332C15.7883 10.9332 15.6167 10.8621 15.4902 10.7356C15.3637 10.6091 15.2926 10.4375 15.2926 10.2585C15.2926 10.0796 15.3637 9.90799 15.4902 9.78147C15.6167 9.65494 15.7883 9.58385 15.9673 9.58385C16.1462 9.58385 16.3178 9.65494 16.4443 9.78147C16.5709 9.90799 16.642 10.0796 16.642 10.2585Z" fill="#60697B"/>
</svg>
