<svg width="24" height="24" viewBox="0 0 24 24" fill="none" xmlns="http://www.w3.org/2000/svg">
<path d="M13.919 1.5625L13.9094 6.1829L13.8998 10.8033L13.4588 9.73071V9.72796L12.8867 20.0139C13.4492 21.378 13.7496 22.1068 13.7528 22.1095C13.756 22.1123 14.0756 22.1288 14.4623 22.1453C15.6321 22.1948 17.083 22.3021 18.1856 22.4203C18.4413 22.4478 18.6586 22.4616 18.6746 22.4506C18.6906 22.4396 18.6938 17.7367 18.6906 11.9969L18.681 1.5625H13.919Z" fill="#D55353"/>
<path d="M5.30469 1.54963V11.9951C5.30469 17.7403 5.31108 22.446 5.32067 22.4542C5.33026 22.4625 5.74253 22.4267 6.24111 22.38C6.73968 22.3332 7.42681 22.2727 7.76878 22.248C8.29292 22.2095 9.86534 22.1242 10.0443 22.1215C10.0986 22.1215 10.1018 21.8877 10.1082 17.6963L10.1178 13.2712L10.4981 14.1953C10.5557 14.3383 10.5748 14.3823 10.6324 14.5225L11.2044 4.23937C11.083 3.94509 11.1469 4.0991 11.0095 3.76357C10.5429 2.62772 10.1466 1.66789 10.1306 1.62388L10.0986 1.54688H5.30469V1.54963Z" fill="#D55353"/>
<path d="M5.30469 1.54963L10.1146 13.2794V13.2739L10.495 14.1979C12.6075 19.3436 13.7421 22.1048 13.7485 22.1103C13.7517 22.1131 14.0713 22.1296 14.458 22.1461C15.6277 22.1956 17.0787 22.3029 18.1813 22.4211C18.4338 22.4486 18.6543 22.4624 18.6671 22.4514L13.8987 10.8014V10.8041L13.4577 9.73156C13.0262 8.68372 12.7386 7.98241 11.0031 3.76356C10.5365 2.62772 10.1402 1.66788 10.1242 1.62388L10.0923 1.54688H7.69848L5.30469 1.54963Z" fill="#FE5050"/>
</svg>
