<svg width="50" height="50" viewBox="0 0 50 50" fill="none" xmlns="http://www.w3.org/2000/svg">
<rect x="0.5" y="0.5" width="49" height="49" rx="24.5" stroke="#505050" stroke-opacity="0.5"/>
<path d="M25 19.9023V22.9548" stroke="#505050" stroke-width="1.5" stroke-miterlimit="10" stroke-linecap="round"/>
<path d="M25.018 15.832C21.6447 15.832 18.913 18.5637 18.913 21.937V23.862C18.913 24.4854 18.6563 25.4204 18.3355 25.952L17.1713 27.8954C16.4563 29.0962 16.9513 30.4345 18.2713 30.8745C22.653 32.332 27.3922 32.332 31.7738 30.8745C33.0113 30.462 33.543 29.0137 32.8738 27.8954L31.7097 25.952C31.3888 25.4204 31.1322 24.4762 31.1322 23.862V21.937C31.123 18.582 28.373 15.832 25.018 15.832Z" stroke="#505050" stroke-width="1.5" stroke-miterlimit="10" stroke-linecap="round"/>
<path d="M28.0562 31.25C28.0562 32.9275 26.6812 34.3025 25.0037 34.3025C24.1695 34.3025 23.3995 33.9542 22.8495 33.4042C22.2995 32.8542 21.9512 32.0842 21.9512 31.25" stroke="#505050" stroke-width="1.5" stroke-miterlimit="10"/>
<circle cx="30" cy="17" r="4" transform="rotate(180 30 17)" fill="#EA2D2D"/>
</svg>
