<svg width="18" height="18" viewBox="0 0 18 18" fill="none" xmlns="http://www.w3.org/2000/svg">
<path d="M11.7329 10.6077C11.605 10.6077 11.4824 10.6585 11.392 10.7489C11.3016 10.8393 11.2508 10.962 11.2508 11.0898C11.2508 11.2177 11.3016 11.3404 11.392 11.4308C11.4824 11.5212 11.605 11.572 11.7329 11.572H13.9829C14.1108 11.572 14.2334 11.5212 14.3238 11.4308C14.4143 11.3404 14.4651 11.2177 14.4651 11.0898C14.4651 10.962 14.4143 10.8393 14.3238 10.7489C14.2334 10.6585 14.1108 10.6077 13.9829 10.6077H11.7329ZM1.28906 5.62556C1.28906 4.9862 1.54305 4.37302 1.99514 3.92093C2.44724 3.46883 3.06042 3.21484 3.69978 3.21484H14.3043C14.9437 3.21484 15.5569 3.46883 16.009 3.92093C16.4611 4.37302 16.7151 4.9862 16.7151 5.62556V12.3756C16.7151 13.0149 16.4611 13.6281 16.009 14.0802C15.5569 14.5323 14.9437 14.7863 14.3043 14.7863H3.70042C3.06106 14.7863 2.44788 14.5323 1.99579 14.0802C1.54369 13.6281 1.28971 13.0149 1.28971 12.3756L1.28906 5.62556ZM3.69978 4.17913C3.31616 4.17913 2.94826 4.33152 2.677 4.60278C2.40574 4.87404 2.25335 5.24194 2.25335 5.62556V6.1077H15.7508V5.62556C15.7508 5.24194 15.5984 4.87404 15.3271 4.60278C15.0559 4.33152 14.688 4.17913 14.3043 4.17913H3.69978ZM2.25335 12.3756C2.25335 12.7592 2.40574 13.1271 2.677 13.3983C2.94826 13.6696 3.31616 13.822 3.69978 13.822H14.3043C14.688 13.822 15.0559 13.6696 15.3271 13.3983C15.5984 13.1271 15.7508 12.7592 15.7508 12.3756V7.07199H2.25399L2.25335 12.3756Z" fill="#122A44"/>
</svg>
