<svg width="24" height="24" viewBox="0 0 24 24" fill="none" xmlns="http://www.w3.org/2000/svg">
<path d="M11.8125 2.85794L11.8125 11.9995C11.8125 12.1487 11.7532 12.2918 11.6477 12.3973C11.5423 12.5027 11.3992 12.562 11.25 12.562C11.1008 12.562 10.9577 12.5027 10.8523 12.3973C10.7468 12.2918 10.6875 12.1487 10.6875 11.9995L10.6875 2.85794L8.6475 4.897C8.54087 4.99637 8.39983 5.05046 8.25411 5.04789C8.10838 5.04531 7.96934 4.98628 7.86628 4.88322C7.76322 4.78016 7.70419 4.64112 7.70162 4.4954C7.69905 4.34967 7.75314 4.20864 7.8525 4.102L10.8525 1.10201C10.958 0.996667 11.1009 0.9375 11.25 0.9375C11.3991 0.9375 11.542 0.996667 11.6475 1.10201L14.6475 4.102C14.7028 4.1535 14.7471 4.2156 14.7778 4.2846C14.8086 4.3536 14.8251 4.42809 14.8264 4.50361C14.8278 4.57914 14.8139 4.65416 14.7856 4.7242C14.7573 4.79424 14.7152 4.85787 14.6618 4.91128C14.6084 4.9647 14.5447 5.00681 14.4747 5.0351C14.4047 5.06339 14.3296 5.07728 14.2541 5.07595C14.1786 5.07462 14.1041 5.05808 14.0351 5.02734C13.9661 4.9966 13.904 4.95227 13.8525 4.897L11.8125 2.85794ZM17.8125 11.6892V8.9995C17.8125 8.65141 17.6742 8.31757 17.4281 8.07143C17.1819 7.82528 16.8481 7.687 16.5 7.687L15 7.687C14.8508 7.687 14.7077 7.74627 14.6023 7.85176C14.4968 7.95725 14.4375 8.10032 14.4375 8.2495C14.4375 8.39869 14.4968 8.54176 14.6023 8.64725C14.7077 8.75274 14.8508 8.812 15 8.812L16.5 8.812C16.5497 8.812 16.5974 8.83176 16.6326 8.86692C16.6677 8.90208 16.6875 8.94978 16.6875 8.9995V17.0751C16.3461 16.5375 15.8079 16.1548 15.188 16.009C14.568 15.8631 13.9156 15.9657 13.3704 16.2947C12.8251 16.6238 12.4303 17.1532 12.2703 17.7696C12.1104 18.3861 12.1981 19.0406 12.5147 19.5933C12.5147 19.6026 12.525 19.6111 12.5306 19.6204L14.6175 22.8079C14.7039 22.9211 14.83 22.9973 14.9703 23.0212C15.1107 23.0451 15.2549 23.0148 15.3738 22.9366C15.4928 22.8583 15.5776 22.7378 15.6112 22.5995C15.6448 22.4611 15.6248 22.3152 15.555 22.1911L13.4813 19.0186C13.3088 18.7161 13.2636 18.3575 13.3556 18.0217C13.4475 17.6859 13.6691 17.4004 13.9716 17.2279C14.274 17.0555 14.6326 17.0103 14.9684 17.1022C15.3042 17.1942 15.5898 17.4158 15.7622 17.7183C15.767 17.7276 15.7723 17.7367 15.7781 17.7454L16.7812 19.2736C16.8479 19.374 16.945 19.4504 17.0584 19.4915C17.1717 19.5326 17.2952 19.5361 17.4107 19.5017C17.5263 19.4672 17.6277 19.3966 17.7 19.3002C17.7723 19.2037 17.8118 19.0866 17.8125 18.9661V13.0842C18.6305 13.7575 19.2898 14.603 19.7435 15.5604C20.1973 16.5178 20.4342 17.5635 20.4375 18.6229V22.4995C20.4375 22.6487 20.4968 22.7918 20.6023 22.8973C20.7077 23.0027 20.8508 23.062 21 23.062C21.1492 23.062 21.2923 23.0027 21.3977 22.8973C21.5032 22.7918 21.5625 22.6487 21.5625 22.4995V18.6229C21.5583 17.2475 21.2136 15.8944 20.5593 14.6846C19.905 13.4747 18.9613 12.4456 17.8125 11.6892ZM7.5 7.687H6C5.6519 7.687 5.31806 7.82528 5.07192 8.07143C4.82578 8.31757 4.6875 8.65141 4.6875 8.9995L4.6875 18.7495C4.6875 18.8987 4.74676 19.0418 4.85225 19.1473C4.95774 19.2527 5.10082 19.312 5.25 19.312C5.39918 19.312 5.54226 19.2527 5.64775 19.1473C5.75324 19.0418 5.8125 18.8987 5.8125 18.7495L5.8125 8.9995C5.8125 8.94978 5.83225 8.90208 5.86742 8.86692C5.90258 8.83176 5.95027 8.812 6 8.812H7.5C7.64918 8.812 7.79226 8.75274 7.89775 8.64725C8.00324 8.54176 8.0625 8.39869 8.0625 8.2495C8.0625 8.10032 8.00324 7.95725 7.89775 7.85176C7.79226 7.74627 7.64918 7.687 7.5 7.687Z" fill="#F02626"/>
</svg>
