<svg width="21" height="21" viewBox="0 0 21 21" fill="none" xmlns="http://www.w3.org/2000/svg">
<path d="M15.2715 10.1055C15.2454 10.0534 15.2161 10.0046 15.1836 9.95898C15.151 9.91341 15.1217 9.87109 15.0957 9.83203L10.916 5.65234C10.8379 5.58724 10.75 5.5319 10.6523 5.48633C10.5547 5.44075 10.4473 5.41797 10.3301 5.41797C10.0957 5.41797 9.89714 5.49935 9.73438 5.66211C9.57161 5.82487 9.49023 6.02344 9.49023 6.25781C9.49023 6.375 9.51302 6.48242 9.55859 6.58008C9.60417 6.67773 9.66602 6.76562 9.74414 6.84375L12.498 9.57812H6.16992C5.93555 9.57812 5.73698 9.65951 5.57422 9.82227C5.41146 9.98503 5.33008 10.1836 5.33008 10.418C5.33008 10.6523 5.41146 10.8509 5.57422 11.0137C5.73698 11.1764 5.93555 11.2578 6.16992 11.2578H12.498L9.74414 13.9922C9.66602 14.0703 9.60417 14.1582 9.55859 14.2559C9.51302 14.3535 9.49023 14.4609 9.49023 14.5781C9.49023 14.6953 9.51302 14.806 9.55859 14.9102C9.60417 15.0143 9.66602 15.1055 9.74414 15.1836C9.82227 15.2487 9.91016 15.304 10.0078 15.3496C10.1055 15.3952 10.2129 15.418 10.3301 15.418C10.4473 15.418 10.5547 15.3952 10.6523 15.3496C10.75 15.304 10.8379 15.2487 10.916 15.1836L15.0957 11.0039C15.1217 10.9648 15.151 10.9225 15.1836 10.877C15.2161 10.8314 15.2389 10.7891 15.252 10.75L15.2715 10.7305C15.2845 10.6914 15.2975 10.6426 15.3105 10.584C15.3236 10.5254 15.3301 10.4701 15.3301 10.418C15.3301 10.3659 15.3236 10.3105 15.3105 10.252C15.2975 10.1934 15.278 10.1445 15.252 10.1055H15.2715Z" fill="#747ED1"/>
</svg>
