<svg width="48" height="48" viewBox="0 0 48 48" fill="none" xmlns="http://www.w3.org/2000/svg">
<g clip-path="url(#clip0_287_60343)">
<path d="M42.4315 28.5962C39.8936 38.7749 29.5831 44.9694 19.4021 42.4312C9.22533 39.8936 3.0301 29.5836 5.56909 19.4057C8.10584 9.22596 18.4163 3.03096 28.5942 5.56854C38.7745 8.10613 44.9694 18.4172 42.4312 28.5964L42.4314 28.5962H42.4315Z" fill="#F7931A"/>
<path d="M32.3792 21.2947C32.7574 18.7663 30.8322 17.4071 28.1996 16.5004L29.0536 13.0753L26.9684 12.5558L26.1371 15.8907C25.5889 15.754 25.0259 15.6252 24.4664 15.4975L25.3038 12.1406L23.2199 11.6211L22.3654 15.045C21.9118 14.9418 21.4663 14.8397 21.034 14.7322L21.0364 14.7214L18.1609 14.0034L17.6062 16.2302C17.6062 16.2302 19.1533 16.5848 19.1207 16.6066C19.965 16.8174 20.1177 17.3763 20.0924 17.8193L19.1195 21.7212C19.1777 21.736 19.2531 21.7573 19.3363 21.7908C19.2668 21.7735 19.1927 21.7546 19.1159 21.7362L17.7523 27.2023C17.6491 27.4588 17.3872 27.8438 16.7969 27.6976C16.8178 27.7279 15.2813 27.3194 15.2813 27.3194L14.2461 29.706L16.9596 30.3824C17.4644 30.509 17.9591 30.6414 18.4463 30.7659L17.5834 34.2303L19.6661 34.7498L20.5206 31.3222C21.0896 31.4767 21.6418 31.6191 22.1824 31.7534L21.3308 35.1648L23.416 35.6843L24.2788 32.2265C27.8344 32.8993 30.508 32.6281 31.6334 29.4123C32.5402 26.8233 31.5882 25.33 29.7176 24.3561C31.0801 24.0419 32.1063 23.1459 32.3799 21.295L32.3793 21.2946L32.3792 21.2947ZM27.6151 27.9745C26.9707 30.5636 22.611 29.164 21.1976 28.813L22.3426 24.2234C23.756 24.5762 28.2885 25.2744 27.6152 27.9745H27.6151ZM28.2599 21.2572C27.6721 23.6122 24.0435 22.4158 22.8664 22.1224L23.9046 17.9599C25.0816 18.2532 28.8723 18.8008 28.2601 21.2572H28.2599Z" fill="white"/>
</g>
<defs>
<clipPath id="clip0_287_60343">
<rect width="38" height="38" fill="white" transform="translate(5 5)"/>
</clipPath>
</defs>
</svg>
