<svg width="1440" height="875" viewBox="0 0 1440 875" fill="none" xmlns="http://www.w3.org/2000/svg">
<rect width="1440" height="875" fill="url(#paint0_linear_0_1)"/>
<rect x="1304" y="16" width="5.46269" height="5.46269" rx="2.58729" fill="#7D97F1"/>
<rect x="1325.85" y="16" width="5.46269" height="5.46269" rx="2.58729" fill="#7D97F1"/>
<rect x="1347.7" y="16" width="5.46269" height="5.46269" rx="2.58729" fill="#7D97F1"/>
<rect x="1369.55" y="16" width="5.46269" height="5.46269" rx="2.58729" fill="#7D97F1"/>
<rect x="1391.41" y="16" width="5.46269" height="5.46269" rx="2.58729" fill="#7D97F1"/>
<rect x="1413.25" y="16" width="5.46269" height="5.46269" rx="2.58729" fill="#7D97F1"/>
<rect x="1435.11" y="16" width="5.46269" height="5.46269" rx="2.58729" fill="#7D97F1"/>
<rect x="1304" y="37.8516" width="5.46269" height="5.46269" rx="2.58729" fill="#7D97F1"/>
<rect x="1325.85" y="37.8516" width="5.46269" height="5.46269" rx="2.58729" fill="#7D97F1"/>
<rect x="1347.7" y="37.8516" width="5.46269" height="5.46269" rx="2.58729" fill="#7D97F1"/>
<rect x="1369.55" y="37.8516" width="5.46269" height="5.46269" rx="2.58729" fill="#7D97F1"/>
<rect x="1391.41" y="37.8516" width="5.46269" height="5.46269" rx="2.58729" fill="#7D97F1"/>
<rect x="1413.25" y="37.8516" width="5.46269" height="5.46269" rx="2.58729" fill="#7D97F1"/>
<rect x="1435.11" y="37.8516" width="5.46269" height="5.46269" rx="2.58729" fill="#7D97F1"/>
<rect x="1304" y="59.7031" width="5.46269" height="5.46269" rx="2.58729" fill="#7D97F1"/>
<rect x="1325.85" y="59.7031" width="5.46269" height="5.46269" rx="2.58729" fill="#7D97F1"/>
<rect x="1347.7" y="59.7031" width="5.46269" height="5.46269" rx="2.58729" fill="#7D97F1"/>
<rect x="1369.55" y="59.7031" width="5.46269" height="5.46269" rx="2.58729" fill="#7D97F1"/>
<rect x="1391.41" y="59.7031" width="5.46269" height="5.46269" rx="2.58729" fill="#7D97F1"/>
<rect x="1413.25" y="59.7031" width="5.46269" height="5.46269" rx="2.58729" fill="#7D97F1"/>
<rect x="1435.11" y="59.7031" width="5.46269" height="5.46269" rx="2.58729" fill="#7D97F1"/>
<rect x="1304" y="81.5547" width="5.46269" height="5.46269" rx="2.58729" fill="#7D97F1"/>
<rect x="1325.85" y="81.5547" width="5.46269" height="5.46269" rx="2.58729" fill="#7D97F1"/>
<rect x="1347.7" y="81.5547" width="5.46269" height="5.46269" rx="2.58729" fill="#7D97F1"/>
<rect x="1369.55" y="81.5547" width="5.46269" height="5.46269" rx="2.58729" fill="#7D97F1"/>
<rect x="1391.41" y="81.5547" width="5.46269" height="5.46269" rx="2.58729" fill="#7D97F1"/>
<rect x="1413.25" y="81.5547" width="5.46269" height="5.46269" rx="2.58729" fill="#7D97F1"/>
<rect x="1435.11" y="81.5547" width="5.46269" height="5.46269" rx="2.58729" fill="#7D97F1"/>
<rect x="1304" y="103.402" width="5.46269" height="5.46269" rx="2.58729" fill="#7D97F1"/>
<rect x="1325.85" y="103.402" width="5.46269" height="5.46269" rx="2.58729" fill="#7D97F1"/>
<rect x="1347.7" y="103.402" width="5.46269" height="5.46269" rx="2.58729" fill="#7D97F1"/>
<rect x="1369.55" y="103.402" width="5.46269" height="5.46269" rx="2.58729" fill="#7D97F1"/>
<rect x="1391.41" y="103.402" width="5.46269" height="5.46269" rx="2.58729" fill="#7D97F1"/>
<rect x="1413.25" y="103.402" width="5.46269" height="5.46269" rx="2.58729" fill="#7D97F1"/>
<rect x="1435.11" y="103.402" width="5.46269" height="5.46269" rx="2.58729" fill="#7D97F1"/>
<rect x="1304" y="125.254" width="5.46269" height="5.46269" rx="2.58729" fill="#7D97F1"/>
<rect x="1325.85" y="125.254" width="5.46269" height="5.46269" rx="2.58729" fill="#7D97F1"/>
<rect x="1347.7" y="125.254" width="5.46269" height="5.46269" rx="2.58729" fill="#7D97F1"/>
<rect x="1369.55" y="125.254" width="5.46269" height="5.46269" rx="2.58729" fill="#7D97F1"/>
<rect x="1391.41" y="125.254" width="5.46269" height="5.46269" rx="2.58729" fill="#7D97F1"/>
<rect x="1413.25" y="125.254" width="5.46269" height="5.46269" rx="2.58729" fill="#7D97F1"/>
<rect x="1435.11" y="125.254" width="5.46269" height="5.46269" rx="2.58729" fill="#7D97F1"/>
<rect x="1304" y="147.105" width="5.46269" height="5.46269" rx="2.58729" fill="#7D97F1"/>
<rect x="1304" y="168.18" width="5.46269" height="5.46269" rx="2.58729" fill="#7D97F1"/>
<rect x="1304" y="189.25" width="5.46269" height="5.46269" rx="2.58729" fill="#7D97F1"/>
<rect x="1304" y="210.328" width="5.46269" height="5.46269" rx="2.58729" fill="#7D97F1"/>
<rect x="1325.85" y="147.102" width="5.46269" height="5.46269" rx="2.58729" fill="#7D97F1"/>
<rect x="1325.85" y="168.18" width="5.46269" height="5.46269" rx="2.58729" fill="#7D97F1"/>
<rect x="1325.85" y="189.25" width="5.46269" height="5.46269" rx="2.58729" fill="#7D97F1"/>
<rect x="1325.85" y="210.328" width="5.46269" height="5.46269" rx="2.58729" fill="#7D97F1"/>
<rect x="1347.7" y="147.102" width="5.46269" height="5.46269" rx="2.58729" fill="#7D97F1"/>
<rect x="1347.7" y="168.18" width="5.46269" height="5.46269" rx="2.58729" fill="#7D97F1"/>
<rect x="1347.7" y="189.25" width="5.46269" height="5.46269" rx="2.58729" fill="#7D97F1"/>
<rect x="1347.7" y="210.328" width="5.46269" height="5.46269" rx="2.58729" fill="#7D97F1"/>
<rect x="1369.55" y="147.102" width="5.46269" height="5.46269" rx="2.58729" fill="#7D97F1"/>
<rect x="1369.55" y="168.18" width="5.46269" height="5.46269" rx="2.58729" fill="#7D97F1"/>
<rect x="1369.55" y="189.25" width="5.46269" height="5.46269" rx="2.58729" fill="#7D97F1"/>
<rect x="1369.55" y="210.328" width="5.46269" height="5.46269" rx="2.58729" fill="#7D97F1"/>
<rect x="1391.41" y="147.102" width="5.46269" height="5.46269" rx="2.58729" fill="#7D97F1"/>
<rect x="1391.41" y="168.18" width="5.46269" height="5.46269" rx="2.58729" fill="#7D97F1"/>
<rect x="1391.41" y="189.25" width="5.46269" height="5.46269" rx="2.58729" fill="#7D97F1"/>
<rect x="1391.41" y="210.328" width="5.46269" height="5.46269" rx="2.58729" fill="#7D97F1"/>
<rect x="1413.25" y="147.105" width="5.46269" height="5.46269" rx="2.58729" fill="#7D97F1"/>
<rect x="1413.25" y="168.18" width="5.46269" height="5.46269" rx="2.58729" fill="#7D97F1"/>
<rect x="1413.25" y="189.25" width="5.46269" height="5.46269" rx="2.58729" fill="#7D97F1"/>
<rect x="1413.25" y="210.328" width="5.46269" height="5.46269" rx="2.58729" fill="#7D97F1"/>
<rect x="1435.11" y="147.102" width="5.46269" height="5.46269" rx="2.58729" fill="#7D97F1"/>
<rect x="1435.11" y="168.18" width="5.46269" height="5.46269" rx="2.58729" fill="#7D97F1"/>
<rect x="1435.11" y="189.25" width="5.46269" height="5.46269" rx="2.58729" fill="#7D97F1"/>
<rect x="1435.11" y="210.328" width="5.46269" height="5.46269" rx="2.58729" fill="#7D97F1"/>
<rect x="0.554688" y="320" width="5.46269" height="5.46269" rx="2.58729" fill="#7D97F1"/>
<rect x="22.4062" y="320" width="5.46269" height="5.46269" rx="2.58729" fill="#7D97F1"/>
<rect x="44.25" y="320" width="5.46269" height="5.46269" rx="2.58729" fill="#7D97F1"/>
<rect x="66.1094" y="320" width="5.46269" height="5.46269" rx="2.58729" fill="#7D97F1"/>
<rect x="87.9531" y="320" width="5.46269" height="5.46269" rx="2.58729" fill="#7D97F1"/>
<rect x="109.805" y="320" width="5.46269" height="5.46269" rx="2.58729" fill="#7D97F1"/>
<rect x="131.656" y="320" width="5.46269" height="5.46269" rx="2.58729" fill="#7D97F1"/>
<rect x="0.554688" y="341.852" width="5.46269" height="5.46269" rx="2.58729" fill="#7D97F1"/>
<rect x="22.4062" y="341.852" width="5.46269" height="5.46269" rx="2.58729" fill="#7D97F1"/>
<rect x="44.25" y="341.852" width="5.46269" height="5.46269" rx="2.58729" fill="#7D97F1"/>
<rect x="66.1094" y="341.852" width="5.46269" height="5.46269" rx="2.58729" fill="#7D97F1"/>
<rect x="87.9531" y="341.852" width="5.46269" height="5.46269" rx="2.58729" fill="#7D97F1"/>
<rect x="109.805" y="341.852" width="5.46269" height="5.46269" rx="2.58729" fill="#7D97F1"/>
<rect x="131.656" y="341.852" width="5.46269" height="5.46269" rx="2.58729" fill="#7D97F1"/>
<rect x="0.554688" y="363.703" width="5.46269" height="5.46269" rx="2.58729" fill="#7D97F1"/>
<rect x="22.4062" y="363.703" width="5.46269" height="5.46269" rx="2.58729" fill="#7D97F1"/>
<rect x="44.25" y="363.703" width="5.46269" height="5.46269" rx="2.58729" fill="#7D97F1"/>
<rect x="66.1094" y="363.703" width="5.46269" height="5.46269" rx="2.58729" fill="#7D97F1"/>
<rect x="87.9531" y="363.703" width="5.46269" height="5.46269" rx="2.58729" fill="#7D97F1"/>
<rect x="109.805" y="363.703" width="5.46269" height="5.46269" rx="2.58729" fill="#7D97F1"/>
<rect x="131.656" y="363.703" width="5.46269" height="5.46269" rx="2.58729" fill="#7D97F1"/>
<rect x="0.554688" y="385.555" width="5.46269" height="5.46269" rx="2.58729" fill="#7D97F1"/>
<rect x="22.4062" y="385.555" width="5.46269" height="5.46269" rx="2.58729" fill="#7D97F1"/>
<rect x="44.25" y="385.555" width="5.46269" height="5.46269" rx="2.58729" fill="#7D97F1"/>
<rect x="66.1094" y="385.555" width="5.46269" height="5.46269" rx="2.58729" fill="#7D97F1"/>
<rect x="87.9531" y="385.555" width="5.46269" height="5.46269" rx="2.58729" fill="#7D97F1"/>
<rect x="109.805" y="385.555" width="5.46269" height="5.46269" rx="2.58729" fill="#7D97F1"/>
<rect x="131.656" y="385.555" width="5.46269" height="5.46269" rx="2.58729" fill="#7D97F1"/>
<rect x="0.554688" y="407.402" width="5.46269" height="5.46269" rx="2.58729" fill="#7D97F1"/>
<rect x="22.4062" y="407.402" width="5.46269" height="5.46269" rx="2.58729" fill="#7D97F1"/>
<rect x="44.25" y="407.402" width="5.46269" height="5.46269" rx="2.58729" fill="#7D97F1"/>
<rect x="66.1094" y="407.402" width="5.46269" height="5.46269" rx="2.58729" fill="#7D97F1"/>
<rect x="87.9531" y="407.402" width="5.46269" height="5.46269" rx="2.58729" fill="#7D97F1"/>
<rect x="109.805" y="407.402" width="5.46269" height="5.46269" rx="2.58729" fill="#7D97F1"/>
<rect x="131.656" y="407.402" width="5.46269" height="5.46269" rx="2.58729" fill="#7D97F1"/>
<rect x="0.554688" y="429.254" width="5.46269" height="5.46269" rx="2.58729" fill="#7D97F1"/>
<rect x="22.4062" y="429.254" width="5.46269" height="5.46269" rx="2.58729" fill="#7D97F1"/>
<rect x="44.25" y="429.254" width="5.46269" height="5.46269" rx="2.58729" fill="#7D97F1"/>
<rect x="66.1094" y="429.254" width="5.46269" height="5.46269" rx="2.58729" fill="#7D97F1"/>
<rect x="87.9531" y="429.254" width="5.46269" height="5.46269" rx="2.58729" fill="#7D97F1"/>
<rect x="109.805" y="429.254" width="5.46269" height="5.46269" rx="2.58729" fill="#7D97F1"/>
<rect x="131.656" y="429.254" width="5.46269" height="5.46269" rx="2.58729" fill="#7D97F1"/>
<rect x="0.554688" y="451.102" width="5.46269" height="5.46269" rx="2.58729" fill="#7D97F1"/>
<rect x="0.554688" y="472.18" width="5.46269" height="5.46269" rx="2.58729" fill="#7D97F1"/>
<rect x="0.554688" y="493.25" width="5.46269" height="5.46269" rx="2.58729" fill="#7D97F1"/>
<rect x="0.554688" y="514.328" width="5.46269" height="5.46269" rx="2.58729" fill="#7D97F1"/>
<rect x="22.4062" y="451.102" width="5.46269" height="5.46269" rx="2.58729" fill="#7D97F1"/>
<rect x="22.4062" y="472.18" width="5.46269" height="5.46269" rx="2.58729" fill="#7D97F1"/>
<rect x="22.4062" y="493.25" width="5.46269" height="5.46269" rx="2.58729" fill="#7D97F1"/>
<rect x="22.4062" y="514.328" width="5.46269" height="5.46269" rx="2.58729" fill="#7D97F1"/>
<rect x="44.25" y="451.105" width="5.46269" height="5.46269" rx="2.58729" fill="#7D97F1"/>
<rect x="44.25" y="472.18" width="5.46269" height="5.46269" rx="2.58729" fill="#7D97F1"/>
<rect x="44.25" y="493.25" width="5.46269" height="5.46269" rx="2.58729" fill="#7D97F1"/>
<rect x="44.25" y="514.328" width="5.46269" height="5.46269" rx="2.58729" fill="#7D97F1"/>
<rect x="66.1094" y="451.102" width="5.46269" height="5.46269" rx="2.58729" fill="#7D97F1"/>
<rect x="66.1094" y="472.18" width="5.46269" height="5.46269" rx="2.58729" fill="#7D97F1"/>
<rect x="66.1094" y="493.25" width="5.46269" height="5.46269" rx="2.58729" fill="#7D97F1"/>
<rect x="66.1094" y="514.328" width="5.46269" height="5.46269" rx="2.58729" fill="#7D97F1"/>
<rect x="87.9531" y="451.105" width="5.46269" height="5.46269" rx="2.58729" fill="#7D97F1"/>
<rect x="87.9531" y="472.18" width="5.46269" height="5.46269" rx="2.58729" fill="#7D97F1"/>
<rect x="87.9531" y="493.25" width="5.46269" height="5.46269" rx="2.58729" fill="#7D97F1"/>
<rect x="87.9531" y="514.328" width="5.46269" height="5.46269" rx="2.58729" fill="#7D97F1"/>
<rect x="109.805" y="451.102" width="5.46269" height="5.46269" rx="2.58729" fill="#7D97F1"/>
<rect x="109.805" y="472.18" width="5.46269" height="5.46269" rx="2.58729" fill="#7D97F1"/>
<rect x="109.805" y="493.25" width="5.46269" height="5.46269" rx="2.58729" fill="#7D97F1"/>
<rect x="109.805" y="514.328" width="5.46269" height="5.46269" rx="2.58729" fill="#7D97F1"/>
<rect x="131.656" y="451.102" width="5.46269" height="5.46269" rx="2.58729" fill="#7D97F1"/>
<rect x="131.656" y="472.18" width="5.46269" height="5.46269" rx="2.58729" fill="#7D97F1"/>
<rect x="131.656" y="493.25" width="5.46269" height="5.46269" rx="2.58729" fill="#7D97F1"/>
<rect x="131.656" y="514.328" width="5.46269" height="5.46269" rx="2.58729" fill="#7D97F1"/>
<defs>
<linearGradient id="paint0_linear_0_1" x1="720" y1="0" x2="720" y2="875" gradientUnits="userSpaceOnUse">
<stop offset="0.295" stop-color="#262858"/>
<stop offset="0.9999" stop-color="#5156BE"/>
</linearGradient>
</defs>
</svg>
