<svg width="44" height="44" viewBox="0 0 44 44" fill="none" xmlns="http://www.w3.org/2000/svg">
<path d="M14.6683 28.4154C13.771 28.4122 12.8843 28.2207 12.0656 27.8532C11.247 27.4857 10.5147 26.9504 9.91602 26.2819C9.31737 25.6135 8.86577 24.8268 8.59043 23.9727C8.31509 23.1186 8.22215 22.2163 8.31764 21.324C8.48216 19.7524 9.22148 18.2969 10.3936 17.2371C11.5658 16.1773 13.0881 15.5879 14.6683 15.582C15.5656 15.5851 16.4523 15.7767 17.271 16.1442C18.0896 16.5117 18.822 17.047 19.4206 17.7155C20.0192 18.3839 20.4709 19.1706 20.7462 20.0247C21.0215 20.8788 21.1145 21.7811 21.019 22.6734C20.8545 24.245 20.1151 25.7005 18.943 26.7603C17.7709 27.8201 16.2485 28.4095 14.6683 28.4154Z" fill="#122A44"/>
<path fill-rule="evenodd" clip-rule="evenodd" d="M14.8027 34.375H29.1981C32.4801 34.375 35.6278 33.0712 37.9485 30.7504C40.2693 28.4297 41.5731 25.2821 41.5731 22C41.5731 18.7179 40.2693 15.5703 37.9485 13.2496C35.6278 10.9288 32.4801 9.625 29.1981 9.625H14.8027C11.5207 9.625 8.37305 10.9288 6.05229 13.2496C3.73153 15.5703 2.42773 18.7179 2.42773 22C2.42773 25.2821 3.73153 28.4297 6.05229 30.7504C8.37305 33.0712 11.5207 34.375 14.8027 34.375ZM14.8027 31.625C12.25 31.625 9.80187 30.6109 7.99683 28.8059C6.19179 27.0009 5.17773 24.5527 5.17773 22C5.17773 19.4473 6.19179 16.9991 7.99683 15.1941C9.80187 13.3891 12.25 12.375 14.8027 12.375H29.1981C31.7508 12.375 34.1989 13.3891 36.004 15.1941C37.809 16.9991 38.8231 19.4473 38.8231 22C38.8231 24.5527 37.809 27.0009 36.004 28.8059C34.1989 30.6109 31.7508 31.625 29.1981 31.625H14.8027Z" fill="#122A44"/>
</svg>
