<svg width="521" height="39" viewBox="0 0 521 39" fill="none" xmlns="http://www.w3.org/2000/svg">
<path d="M26.8691 30H19.6122C18.0038 27.4797 16.5473 25.3014 15.2428 23.465C13.951 21.6286 12.5452 19.7352 11.0255 17.7848H8.27086V26.3335C8.27086 26.7768 8.34052 27.1694 8.47983 27.5114C8.61914 27.8407 8.91676 28.0939 9.3727 28.2713C9.60066 28.3599 9.9996 28.4422 10.5695 28.5182C11.1394 28.5942 11.6207 28.6385 12.0133 28.6512V30H0.61499V28.6512C0.918945 28.6259 1.35588 28.5815 1.9258 28.5182C2.50838 28.4549 2.91365 28.3726 3.14162 28.2713C3.52156 28.1066 3.79385 27.866 3.9585 27.5494C4.1358 27.2327 4.22446 26.8275 4.22446 26.3335V6.84242C4.22446 6.39915 4.16113 6.00655 4.03448 5.6646C3.90784 5.32265 3.61021 5.06302 3.14162 4.88571C2.825 4.77173 2.41339 4.67041 1.9068 4.58176C1.40021 4.48044 0.969604 4.41711 0.61499 4.39178V3.04298H13.0582C14.198 3.04298 15.2682 3.1633 16.2687 3.40393C17.2692 3.6319 18.1747 4.00551 18.9853 4.52477C19.7705 5.03136 20.3974 5.69626 20.866 6.51947C21.3346 7.33002 21.5689 8.31154 21.5689 9.46404C21.5689 10.5025 21.4106 11.4207 21.094 12.2186C20.7773 13.0165 20.3087 13.7067 19.6882 14.2893C19.1183 14.8339 18.4344 15.3088 17.6365 15.7141C16.8386 16.1067 15.9584 16.4423 14.9959 16.721C16.3257 18.4814 17.4275 19.9632 18.3014 21.1663C19.1879 22.3695 20.2708 23.8322 21.5499 25.5547C22.1071 26.3145 22.6074 26.8781 23.0507 27.2454C23.5066 27.6 23.9562 27.8913 24.3995 28.1193C24.7288 28.2839 25.1404 28.4106 25.6343 28.4992C26.1282 28.5879 26.5398 28.6385 26.8691 28.6512V30ZM16.8766 9.90097C16.8766 8.26721 16.408 6.9754 15.4708 6.02554C14.5336 5.06302 13.2101 4.58176 11.5004 4.58176H8.27086V16.151H10.7595C12.5072 16.151 13.9637 15.5938 15.1288 14.4793C16.294 13.3521 16.8766 11.826 16.8766 9.90097ZM42.0806 25.5927C41.2953 27.0871 40.2442 28.2776 38.927 29.1641C37.6099 30.0507 36.0965 30.4939 34.3867 30.4939C32.8796 30.4939 31.5561 30.228 30.4163 29.696C29.2891 29.1641 28.3583 28.4422 27.6237 27.5304C26.8891 26.6185 26.3382 25.5547 25.9709 24.3388C25.6163 23.123 25.439 21.8375 25.439 20.4824C25.439 19.2666 25.629 18.0761 26.0089 16.9109C26.4016 15.7331 26.9715 14.6756 27.7187 13.7384C28.4406 12.8392 29.3335 12.1173 30.3973 11.5727C31.4738 11.0155 32.677 10.7368 34.0068 10.7368C35.3746 10.7368 36.5461 10.9521 37.5212 11.3828C38.4964 11.8134 39.288 12.4023 39.8959 13.1495C40.4785 13.8587 40.9091 14.6946 41.1877 15.6571C41.479 16.6196 41.6246 17.6645 41.6246 18.7917V20.0455H29.2195C29.2195 21.274 29.3335 22.3885 29.5614 23.389C29.802 24.3895 30.1757 25.2697 30.6823 26.0296C31.1762 26.7641 31.8221 27.3467 32.62 27.7773C33.4178 28.1953 34.3677 28.4042 35.4695 28.4042C36.5967 28.4042 37.5656 28.1446 38.3761 27.6254C39.1993 27.0934 39.9909 26.1436 40.7508 24.7758L42.0806 25.5927ZM37.8822 18.4497C37.8822 17.7405 37.8189 16.9806 37.6922 16.17C37.5782 15.3595 37.3883 14.6819 37.1223 14.1373C36.831 13.5548 36.4321 13.0798 35.9255 12.7126C35.4189 12.3453 34.7666 12.1616 33.9688 12.1616C32.639 12.1616 31.5308 12.7189 30.6443 13.8334C29.7704 14.9352 29.2955 16.474 29.2195 18.4497H37.8822ZM59.9896 29.6581C59.3944 29.8734 58.8688 30.0443 58.4129 30.171C57.9696 30.3103 57.463 30.3799 56.8931 30.3799C55.9052 30.3799 55.1137 30.152 54.5184 29.696C53.9359 29.2274 53.5622 28.5499 53.3976 27.6633H53.2836C52.4604 28.5752 51.5739 29.2718 50.624 29.753C49.6868 30.2343 48.5533 30.4749 47.2235 30.4749C45.8177 30.4749 44.6589 30.0443 43.747 29.1831C42.8478 28.3219 42.3982 27.1947 42.3982 25.8016C42.3982 25.0797 42.4995 24.4338 42.7022 23.8639C42.9048 23.294 43.2088 22.7811 43.614 22.3251C43.9307 21.9452 44.3486 21.6096 44.8679 21.3183C45.3871 21.0143 45.8747 20.7737 46.3306 20.5964C46.9006 20.3811 48.0531 19.9821 49.7881 19.3996C51.5359 18.817 52.7137 18.3611 53.3216 18.0318V16.151C53.3216 15.9864 53.2836 15.6698 53.2076 15.2012C53.1443 14.7326 52.9987 14.2893 52.7707 13.8714C52.5174 13.4028 52.1564 12.9975 51.6879 12.6556C51.2319 12.3009 50.5797 12.1236 49.7311 12.1236C49.1486 12.1236 48.604 12.225 48.0974 12.4276C47.6035 12.6176 47.2552 12.8202 47.0525 13.0355C47.0525 13.2888 47.1095 13.6624 47.2235 14.1563C47.3502 14.6503 47.4135 15.1062 47.4135 15.5241C47.4135 15.9674 47.2108 16.3727 46.8056 16.74C46.413 17.1072 45.862 17.2909 45.1528 17.2909C44.5196 17.2909 44.051 17.0692 43.747 16.626C43.4557 16.17 43.3101 15.6635 43.3101 15.1062C43.3101 14.5236 43.5127 13.9664 43.918 13.4344C44.3359 12.9025 44.8742 12.4276 45.5328 12.0097C46.1027 11.655 46.7929 11.3574 47.6035 11.1168C48.414 10.8635 49.2056 10.7368 49.9781 10.7368C51.0419 10.7368 51.9665 10.8128 52.7517 10.9648C53.5496 11.1041 54.2715 11.4144 54.9174 11.8957C55.5633 12.3643 56.0509 13.0038 56.3802 13.8144C56.7221 14.6123 56.8931 15.6445 56.8931 16.9109C56.8931 18.722 56.8741 20.3304 56.8361 21.7362C56.7981 23.1293 56.7791 24.6555 56.7791 26.3145C56.7791 26.8085 56.8614 27.2011 57.0261 27.4924C57.2034 27.7837 57.4693 28.0306 57.8239 28.2333C58.0139 28.3472 58.3115 28.4106 58.7168 28.4232C59.1348 28.4359 59.559 28.4422 59.9896 28.4422V29.6581ZM53.3596 19.6275C52.2831 19.9442 51.3396 20.2544 50.529 20.5584C49.7185 20.8624 48.9649 21.2423 48.2684 21.6982C47.6351 22.1288 47.1349 22.6418 46.7676 23.237C46.4003 23.8196 46.2167 24.5161 46.2167 25.3267C46.2167 26.3779 46.489 27.1504 47.0335 27.6443C47.5908 28.1383 48.2937 28.3852 49.1422 28.3852C50.0414 28.3852 50.833 28.1699 51.5169 27.7393C52.2008 27.2961 52.777 26.7768 53.2456 26.1816L53.3596 19.6275ZM80.3683 29.6581L73.8333 30.076L73.5483 29.81V28.0623L73.3963 28.0243C72.7378 28.7589 71.9209 29.3604 70.9457 29.829C69.9832 30.2976 68.989 30.5319 67.9632 30.5319C66.8993 30.5319 65.8671 30.2976 64.8666 29.829C63.8788 29.3478 63.0175 28.6765 62.283 27.8153C61.5358 26.9415 60.9405 25.8903 60.4973 24.6618C60.0667 23.4333 59.8513 22.0782 59.8513 20.5964C59.8513 19.2413 60.0856 17.9558 60.5542 16.74C61.0228 15.5241 61.6687 14.4603 62.492 13.5484C63.2645 12.6999 64.208 12.0223 65.3225 11.5157C66.4497 11.0091 67.5959 10.7558 68.761 10.7558C69.6349 10.7558 70.4898 10.8698 71.3257 11.0978C72.1742 11.3131 72.9024 11.5917 73.5103 11.9337V5.41763C73.5103 4.88571 73.4217 4.40445 73.2444 3.97385C73.0671 3.53058 72.8201 3.19496 72.5035 2.967C72.1489 2.72636 71.6676 2.55539 71.0597 2.45407C70.4644 2.34009 69.8185 2.25777 69.122 2.20711V1.02928L76.7778 0.592346L77.0628 0.877304V26.1436C77.0628 26.5868 77.1451 26.9668 77.3098 27.2834C77.4871 27.5874 77.7404 27.847 78.0697 28.0623C78.3103 28.2143 78.6586 28.3092 79.1145 28.3472C79.5704 28.3852 79.9884 28.4106 80.3683 28.4232V29.6581ZM73.5103 26.3715V15.4102C73.409 15.0809 73.2444 14.7263 73.0164 14.3463C72.7884 13.9664 72.5035 13.6181 72.1615 13.3015C71.7943 12.9848 71.3636 12.7252 70.8697 12.5226C70.3758 12.3073 69.7995 12.1996 69.141 12.1996C68.3811 12.1996 67.6782 12.3959 67.0323 12.7885C66.399 13.1812 65.8355 13.7447 65.3415 14.4793C64.8729 15.1885 64.4993 16.0941 64.2207 17.1959C63.9547 18.2851 63.8218 19.4946 63.8218 20.8244C63.8218 21.8882 63.9231 22.8571 64.1257 23.7309C64.3284 24.5921 64.6703 25.3963 65.1516 26.1436C65.5948 26.8528 66.1584 27.4227 66.8423 27.8533C67.5389 28.2839 68.3621 28.4992 69.312 28.4992C70.3251 28.4992 71.161 28.2776 71.8196 27.8343C72.4908 27.3911 73.0544 26.9035 73.5103 26.3715ZM78.7673 36.1171C78.7673 35.4839 78.9382 34.9646 79.2802 34.5593C79.6348 34.1667 80.0717 33.9704 80.591 33.9704C80.9963 33.9704 81.3445 34.0464 81.6358 34.1984C81.9271 34.3504 82.1868 34.5467 82.4147 34.7873C82.6047 34.9773 82.8073 35.2369 83.0226 35.5662C83.2379 35.8955 83.4089 36.1678 83.5356 36.3831C84.1688 36.0411 84.9223 35.1482 85.7962 33.7045C86.6828 32.2607 87.3223 30.9942 87.7149 29.905C86.5118 26.9035 85.4226 24.2185 84.4474 21.8502C83.4722 19.4819 82.4527 17.0312 81.3889 14.4983C81.1482 13.9157 80.743 13.4661 80.173 13.1495C79.6031 12.8202 79.0332 12.6112 78.4633 12.5226V11.2688H87.012V12.5986C86.6321 12.6112 86.1762 12.6936 85.6442 12.8455C85.1123 12.9848 84.8464 13.1495 84.8464 13.3395C84.8464 13.4155 84.8717 13.5421 84.9223 13.7194C84.9857 13.8967 85.0553 14.0804 85.1313 14.2703C85.6126 15.5241 86.3471 17.3352 87.335 19.7035C88.3228 22.0592 89.0891 23.9462 89.6337 25.3647C90.2036 24.0096 90.7925 22.6101 91.4004 21.1663C92.021 19.7099 92.7112 17.9938 93.4711 16.0181C93.5597 15.7774 93.6864 15.4482 93.851 15.0302C94.0157 14.5996 94.098 14.2323 94.098 13.9284C94.098 13.5991 93.8067 13.2951 93.2241 13.0165C92.6542 12.7252 92.1096 12.5479 91.5904 12.4846V11.2688H98.5433V12.4466C98.1634 12.5099 97.6631 12.7316 97.0426 13.1115C96.422 13.4788 95.9597 14.0044 95.6558 14.6883C94.1487 18.1837 92.8062 21.3689 91.6284 24.2439C90.4632 27.1188 89.5767 29.2338 88.9688 30.5889C88.1709 32.362 87.4553 33.7424 86.8221 34.7303C86.2015 35.7308 85.5936 36.516 84.9983 37.086C84.4158 37.6179 83.8838 37.9725 83.4026 38.1498C82.934 38.3398 82.4464 38.4348 81.9398 38.4348C80.9519 38.4348 80.173 38.2005 79.6031 37.7319C79.0459 37.2633 78.7673 36.725 78.7673 36.1171ZM116.295 29.1831C115.472 29.5251 114.693 29.81 113.958 30.038C113.224 30.2786 112.325 30.3989 111.261 30.3989C109.69 30.3989 108.582 30.0063 107.936 29.2211C107.303 28.4232 106.986 27.3024 106.986 25.8586V13.1685H103.605V11.3448H107.062V5.51262H110.52V11.3448H115.896V13.1685H110.558V23.6359C110.558 24.4212 110.583 25.0797 110.634 25.6116C110.697 26.1309 110.837 26.5868 111.052 26.9794C111.255 27.3467 111.558 27.6254 111.964 27.8153C112.369 28.0053 112.914 28.1003 113.598 28.1003C113.914 28.1003 114.376 28.075 114.984 28.0243C115.605 27.961 116.042 27.885 116.295 27.7963V29.1831ZM134.432 20.4444C134.432 21.7616 134.223 23.0597 133.805 24.3388C133.387 25.6053 132.792 26.6818 132.02 27.5684C131.146 28.5815 130.132 29.3351 128.98 29.829C127.827 30.323 126.536 30.5699 125.105 30.5699C123.914 30.5699 122.781 30.3483 121.704 29.905C120.628 29.4491 119.671 28.7905 118.835 27.9293C118.012 27.0808 117.354 26.0486 116.86 24.8328C116.378 23.6043 116.138 22.2301 116.138 20.7104C116.138 17.7848 116.986 15.3912 118.683 13.5294C120.393 11.6677 122.629 10.7368 125.389 10.7368C128.011 10.7368 130.17 11.6234 131.868 13.3965C133.577 15.1569 134.432 17.5062 134.432 20.4444ZM130.5 20.4824C130.5 19.5325 130.405 18.532 130.215 17.4809C130.025 16.417 129.74 15.5178 129.36 14.7832C128.955 13.998 128.423 13.3711 127.764 12.9025C127.106 12.4213 126.301 12.1806 125.351 12.1806C124.376 12.1806 123.54 12.4213 122.844 12.9025C122.16 13.3838 121.603 14.0424 121.172 14.8782C120.767 15.6508 120.482 16.531 120.317 17.5188C120.153 18.5067 120.07 19.4629 120.07 20.3874C120.07 21.6032 120.165 22.7304 120.355 23.7689C120.558 24.7948 120.874 25.713 121.305 26.5235C121.736 27.3341 122.274 27.9736 122.92 28.4422C123.578 28.8982 124.389 29.1261 125.351 29.1261C126.935 29.1261 128.188 28.3599 129.113 26.8275C130.037 25.295 130.5 23.18 130.5 20.4824ZM158.586 28.0623C159.093 28.5435 159.492 29.0881 159.783 29.696C160.074 30.304 160.22 31.0575 160.22 31.9567C160.22 32.8559 160.023 33.6981 159.631 34.4833C159.238 35.2812 158.643 35.9715 157.845 36.554C156.997 37.1493 155.983 37.6115 154.806 37.9408C153.628 38.2701 152.171 38.4348 150.436 38.4348C147.599 38.4348 145.478 38.0168 144.072 37.1809C142.666 36.3577 141.963 35.1482 141.963 33.5525C141.963 32.2607 142.47 31.2411 143.483 30.4939C144.496 29.7467 145.788 29.3414 147.359 29.2781V29.0121C146.979 28.8982 146.586 28.7589 146.181 28.5942C145.776 28.4169 145.427 28.2143 145.136 27.9863C144.807 27.7203 144.541 27.41 144.338 27.0554C144.135 26.6882 144.034 26.2386 144.034 25.7066C144.034 25.0354 144.268 24.4212 144.737 23.8639C145.218 23.294 145.94 22.8064 146.903 22.4011V22.1162C145.687 21.5462 144.743 20.818 144.072 19.9315C143.401 19.0323 143.065 17.9938 143.065 16.8159C143.065 15.0429 143.724 13.5864 145.041 12.4466C146.371 11.3068 148.068 10.7368 150.132 10.7368C150.702 10.7368 151.266 10.7938 151.823 10.9078C152.393 11.0218 152.969 11.1674 153.552 11.3448H160.087V13.1685H155.679V13.2825C156.148 13.8271 156.496 14.4286 156.724 15.0872C156.952 15.7458 157.066 16.3917 157.066 17.0249C157.066 18.6713 156.395 20.0645 155.053 21.2043C153.723 22.3441 152.171 22.914 150.398 22.914H148.1C147.808 23.0154 147.504 23.199 147.188 23.465C146.871 23.7309 146.713 24.0919 146.713 24.5478C146.713 25.0164 146.846 25.3773 147.112 25.6306C147.378 25.8713 147.701 26.0359 148.081 26.1246C148.448 26.2259 148.872 26.2892 149.353 26.3145C149.847 26.3399 150.354 26.3589 150.873 26.3715C151.43 26.3842 152.19 26.4222 153.153 26.4855C154.128 26.5488 154.818 26.5868 155.223 26.5995C155.806 26.6248 156.389 26.7641 156.971 27.0174C157.566 27.2707 158.105 27.619 158.586 28.0623ZM153.457 16.9489C153.457 15.4671 153.153 14.2893 152.545 13.4155C151.95 12.5289 151.107 12.0856 150.018 12.0856C149.423 12.0856 148.91 12.2123 148.479 12.4656C148.062 12.7062 147.72 13.0545 147.454 13.5104C147.2 13.9284 147.017 14.435 146.903 15.0302C146.801 15.6128 146.751 16.2144 146.751 16.8349C146.751 18.2407 147.055 19.3869 147.663 20.2734C148.283 21.16 149.081 21.6032 150.056 21.6032C151.145 21.6032 151.981 21.1663 152.564 20.2924C153.159 19.4059 153.457 18.2914 153.457 16.9489ZM157.104 32.6596C157.104 31.9504 156.94 31.3678 156.61 30.9119C156.281 30.4559 155.781 30.1456 155.109 29.981C154.755 29.9303 154.027 29.8734 152.925 29.81C151.823 29.7467 150.544 29.715 149.087 29.715C147.72 29.981 146.744 30.4243 146.162 31.0448C145.592 31.6781 145.307 32.4886 145.307 33.4765C145.307 33.9198 145.402 34.344 145.592 34.7493C145.782 35.1546 146.111 35.5282 146.58 35.8701C147.023 36.1994 147.618 36.4654 148.365 36.668C149.113 36.8833 150.025 36.991 151.101 36.991C152.963 36.991 154.426 36.63 155.489 35.9081C156.566 35.1989 157.104 34.1161 157.104 32.6596ZM177.008 25.5927C176.223 27.0871 175.172 28.2776 173.854 29.1641C172.537 30.0507 171.024 30.4939 169.314 30.4939C167.807 30.4939 166.484 30.228 165.344 29.696C164.217 29.1641 163.286 28.4422 162.551 27.5304C161.817 26.6185 161.266 25.5547 160.898 24.3388C160.544 23.123 160.366 21.8375 160.366 20.4824C160.366 19.2666 160.556 18.0761 160.936 16.9109C161.329 15.7331 161.899 14.6756 162.646 13.7384C163.368 12.8392 164.261 12.1173 165.325 11.5727C166.401 11.0155 167.604 10.7368 168.934 10.7368C170.302 10.7368 171.473 10.9521 172.449 11.3828C173.424 11.8134 174.215 12.4023 174.823 13.1495C175.406 13.8587 175.836 14.6946 176.115 15.6571C176.406 16.6196 176.552 17.6645 176.552 18.7917V20.0455H164.147C164.147 21.274 164.261 22.3885 164.489 23.389C164.729 24.3895 165.103 25.2697 165.61 26.0296C166.104 26.7641 166.749 27.3467 167.547 27.7773C168.345 28.1953 169.295 28.4042 170.397 28.4042C171.524 28.4042 172.493 28.1446 173.304 27.6254C174.127 27.0934 174.918 26.1436 175.678 24.7758L177.008 25.5927ZM172.81 18.4497C172.81 17.7405 172.746 16.9806 172.62 16.17C172.506 15.3595 172.316 14.6819 172.05 14.1373C171.758 13.5548 171.359 13.0798 170.853 12.7126C170.346 12.3453 169.694 12.1616 168.896 12.1616C167.566 12.1616 166.458 12.7189 165.572 13.8334C164.698 14.9352 164.223 16.474 164.147 18.4497H172.81ZM188.743 29.1831C187.92 29.5251 187.141 29.81 186.406 30.038C185.672 30.2786 184.773 30.3989 183.709 30.3989C182.138 30.3989 181.03 30.0063 180.384 29.2211C179.751 28.4232 179.434 27.3024 179.434 25.8586V13.1685H176.053V11.3448H179.51V5.51262H182.968V11.3448H188.344V13.1685H183.006V23.6359C183.006 24.4212 183.031 25.0797 183.082 25.6116C183.145 26.1309 183.284 26.5868 183.5 26.9794C183.702 27.3467 184.006 27.6254 184.412 27.8153C184.817 28.0053 185.361 28.1003 186.045 28.1003C186.362 28.1003 186.824 28.075 187.432 28.0243C188.053 27.961 188.49 27.885 188.743 27.7963V29.1831ZM194.583 36.1171C194.583 35.4839 194.754 34.9646 195.096 34.5593C195.451 34.1667 195.888 33.9704 196.407 33.9704C196.812 33.9704 197.161 34.0464 197.452 34.1984C197.743 34.3504 198.003 34.5467 198.231 34.7873C198.421 34.9773 198.624 35.2369 198.839 35.5662C199.054 35.8955 199.225 36.1678 199.352 36.3831C199.985 36.0411 200.739 35.1482 201.612 33.7045C202.499 32.2607 203.139 30.9942 203.531 29.905C202.328 26.9035 201.239 24.2185 200.264 21.8502C199.288 19.4819 198.269 17.0312 197.205 14.4983C196.964 13.9157 196.559 13.4661 195.989 13.1495C195.419 12.8202 194.849 12.6112 194.28 12.5226V11.2688H202.828V12.5986C202.448 12.6112 201.992 12.6936 201.46 12.8455C200.929 12.9848 200.663 13.1495 200.663 13.3395C200.663 13.4155 200.688 13.5421 200.739 13.7194C200.802 13.8967 200.872 14.0804 200.948 14.2703C201.429 15.5241 202.163 17.3352 203.151 19.7035C204.139 22.0592 204.905 23.9462 205.45 25.3647C206.02 24.0096 206.609 22.6101 207.217 21.1663C207.837 19.7099 208.527 17.9938 209.287 16.0181C209.376 15.7774 209.503 15.4482 209.667 15.0302C209.832 14.5996 209.914 14.2323 209.914 13.9284C209.914 13.5991 209.623 13.2951 209.04 13.0165C208.47 12.7252 207.926 12.5479 207.407 12.4846V11.2688H214.36V12.4466C213.98 12.5099 213.479 12.7316 212.859 13.1115C212.238 13.4788 211.776 14.0044 211.472 14.6883C209.965 18.1837 208.622 21.3689 207.445 24.2439C206.279 27.1188 205.393 29.2338 204.785 30.5889C203.987 32.362 203.272 33.7424 202.638 34.7303C202.018 35.7308 201.41 36.516 200.815 37.086C200.232 37.6179 199.7 37.9725 199.219 38.1498C198.75 38.3398 198.263 38.4348 197.756 38.4348C196.768 38.4348 195.989 38.2005 195.419 37.7319C194.862 37.2633 194.583 36.725 194.583 36.1171ZM231.414 20.4444C231.414 21.7616 231.205 23.0597 230.787 24.3388C230.369 25.6053 229.774 26.6818 229.001 27.5684C228.127 28.5815 227.114 29.3351 225.962 29.829C224.809 30.323 223.517 30.5699 222.086 30.5699C220.896 30.5699 219.762 30.3483 218.686 29.905C217.609 29.4491 216.653 28.7905 215.817 27.9293C214.994 27.0808 214.335 26.0486 213.841 24.8328C213.36 23.6043 213.119 22.2301 213.119 20.7104C213.119 17.7848 213.968 15.3912 215.665 13.5294C217.375 11.6677 219.61 10.7368 222.371 10.7368C224.993 10.7368 227.152 11.6234 228.849 13.3965C230.559 15.1569 231.414 17.5062 231.414 20.4444ZM227.481 20.4824C227.481 19.5325 227.386 18.532 227.196 17.4809C227.006 16.417 226.721 15.5178 226.341 14.7832C225.936 13.998 225.404 13.3711 224.746 12.9025C224.087 12.4213 223.283 12.1806 222.333 12.1806C221.358 12.1806 220.522 12.4213 219.825 12.9025C219.142 13.3838 218.584 14.0424 218.154 14.8782C217.748 15.6508 217.463 16.531 217.299 17.5188C217.134 18.5067 217.052 19.4629 217.052 20.3874C217.052 21.6032 217.147 22.7304 217.337 23.7689C217.539 24.7948 217.856 25.713 218.287 26.5235C218.717 27.3341 219.256 27.9736 219.901 28.4422C220.56 28.8982 221.371 29.1261 222.333 29.1261C223.916 29.1261 225.17 28.3599 226.095 26.8275C227.019 25.295 227.481 23.18 227.481 20.4824ZM252.21 29.6581L246.112 30.076L245.827 29.81V27.4354H245.713C245.409 27.752 245.067 28.0939 244.687 28.4612C244.308 28.8158 243.871 29.1388 243.377 29.4301C242.807 29.772 242.256 30.0317 241.724 30.209C241.192 30.3863 240.438 30.4749 239.463 30.4749C237.804 30.4749 236.538 29.9367 235.664 28.8602C234.803 27.771 234.372 26.1942 234.372 24.1299V15.1632C234.372 14.7073 234.283 14.3273 234.106 14.0234C233.941 13.7067 233.694 13.4344 233.365 13.2065C233.137 13.0545 232.852 12.9469 232.51 12.8835C232.168 12.8075 231.807 12.7569 231.427 12.7316V11.4967L237.678 11.0408L237.962 11.3068V24.3198C237.962 25.675 238.266 26.6945 238.874 27.3784C239.482 28.0623 240.21 28.4042 241.059 28.4042C241.756 28.4042 242.376 28.2966 242.921 28.0813C243.465 27.866 243.921 27.6127 244.289 27.3214C244.63 27.0554 244.928 26.7768 245.181 26.4855C245.447 26.1816 245.65 25.9029 245.789 25.6496V15.0302C245.789 14.6123 245.701 14.245 245.523 13.9284C245.346 13.5991 245.099 13.3205 244.782 13.0925C244.555 12.9405 244.213 12.8519 243.757 12.8265C243.313 12.7885 242.813 12.7569 242.256 12.7316V11.4967L249.057 11.0408L249.342 11.3068V26.1816C249.342 26.6122 249.43 26.9794 249.608 27.2834C249.785 27.5874 250.032 27.847 250.349 28.0623C250.577 28.2016 250.849 28.2966 251.166 28.3472C251.482 28.3852 251.83 28.4106 252.21 28.4232V29.6581ZM266.852 13.6814C266.852 14.3273 266.694 14.9036 266.377 15.4102C266.06 15.9041 265.573 16.151 264.914 16.151C264.205 16.151 263.66 15.9674 263.28 15.6001C262.913 15.2328 262.73 14.8276 262.73 14.3843C262.73 14.1057 262.749 13.8524 262.787 13.6244C262.837 13.3965 262.882 13.1685 262.919 12.9405C262.324 12.9405 261.628 13.1812 260.83 13.6624C260.032 14.1437 259.354 14.8276 258.797 15.7141V26.6185C258.797 27.0618 258.879 27.4227 259.044 27.7013C259.221 27.98 259.494 28.1889 259.861 28.3282C260.178 28.4549 260.583 28.5499 261.077 28.6132C261.583 28.6765 262.02 28.7209 262.388 28.7462V30H252.509V28.7462C252.8 28.7209 253.098 28.6955 253.402 28.6702C253.719 28.6449 253.991 28.5942 254.219 28.5182C254.573 28.4042 254.833 28.2079 254.998 27.9293C255.175 27.638 255.264 27.2644 255.264 26.8085V15.2392C255.264 14.8466 255.169 14.4603 254.979 14.0804C254.801 13.7004 254.548 13.3965 254.219 13.1685C253.978 13.0165 253.693 12.9089 253.364 12.8455C253.035 12.7695 252.68 12.7189 252.3 12.6936V11.4587L258.531 11.0408L258.797 11.3068V13.9474H258.892C259.677 12.9215 260.551 12.1426 261.514 11.6107C262.476 11.0788 263.356 10.8128 264.154 10.8128C264.952 10.8128 265.598 11.0725 266.092 11.5917C266.599 12.111 266.852 12.8075 266.852 13.6814ZM305.938 30H296.8V28.7462C297.091 28.7209 297.382 28.6955 297.674 28.6702C297.978 28.6449 298.244 28.5942 298.472 28.5182C298.826 28.4042 299.086 28.2079 299.251 27.9293C299.428 27.638 299.516 27.2644 299.516 26.8085V17.1389C299.516 15.8218 299.213 14.8086 298.605 14.0993C298.009 13.3775 297.262 13.0165 296.363 13.0165C295.742 13.0165 295.16 13.1115 294.615 13.3015C294.071 13.4914 293.57 13.7574 293.114 14.0993C292.747 14.378 292.437 14.6819 292.184 15.0112C291.943 15.3278 291.759 15.5938 291.633 15.8091V26.6185C291.633 27.0618 291.709 27.429 291.861 27.7203C292.013 27.999 292.272 28.2143 292.64 28.3662C292.931 28.4802 293.19 28.5689 293.418 28.6322C293.659 28.6829 293.969 28.7209 294.349 28.7462V30H285.402V28.7462C285.693 28.7209 285.971 28.6955 286.237 28.6702C286.516 28.6449 286.769 28.5942 286.997 28.5182C287.352 28.4042 287.612 28.2079 287.776 27.9293C287.954 27.638 288.042 27.2644 288.042 26.8085V17.1389C288.042 15.8218 287.738 14.8086 287.13 14.0993C286.535 13.3775 285.788 13.0165 284.889 13.0165C284.268 13.0165 283.686 13.1178 283.141 13.3205C282.596 13.5104 282.096 13.7764 281.64 14.1183C281.273 14.397 280.963 14.7136 280.709 15.0682C280.456 15.4102 280.266 15.6698 280.139 15.8471V26.5805C280.139 27.0111 280.228 27.3721 280.405 27.6633C280.583 27.9546 280.849 28.1763 281.203 28.3282C281.469 28.4549 281.741 28.5499 282.02 28.6132C282.299 28.6765 282.609 28.7209 282.951 28.7462V30H273.851V28.7462C274.143 28.7209 274.44 28.6955 274.744 28.6702C275.061 28.6449 275.333 28.5942 275.561 28.5182C275.916 28.4042 276.175 28.2079 276.34 27.9293C276.517 27.638 276.606 27.2644 276.606 26.8085V15.1632C276.606 14.7579 276.511 14.397 276.321 14.0804C276.144 13.7511 275.89 13.4724 275.561 13.2445C275.32 13.0925 275.023 12.9722 274.668 12.8835C274.314 12.7822 273.946 12.7189 273.566 12.6936V11.4587L279.835 11.0408L280.101 11.3068V13.9854H280.234C280.551 13.6687 280.937 13.2951 281.393 12.8645C281.849 12.4339 282.273 12.0856 282.666 11.8197C283.109 11.5157 283.66 11.2624 284.319 11.0598C284.99 10.8572 285.712 10.7558 286.484 10.7558C287.7 10.7558 288.745 11.0851 289.619 11.7437C290.493 12.3896 291.12 13.1748 291.5 14.0993C291.956 13.6561 292.355 13.2698 292.697 12.9405C293.051 12.5986 293.513 12.2376 294.083 11.8577C294.565 11.5284 295.128 11.2624 295.774 11.0598C296.433 10.8572 297.161 10.7558 297.959 10.7558C299.542 10.7558 300.796 11.2751 301.72 12.3136C302.645 13.3521 303.107 14.9479 303.107 17.1009V26.6185C303.107 27.0618 303.183 27.429 303.335 27.7203C303.487 27.999 303.747 28.2143 304.114 28.3662C304.405 28.4802 304.69 28.5689 304.969 28.6322C305.26 28.6829 305.583 28.7209 305.938 28.7462V30ZM324.379 20.4444C324.379 21.7616 324.17 23.0597 323.752 24.3388C323.334 25.6053 322.738 26.6818 321.966 27.5684C321.092 28.5815 320.079 29.3351 318.926 29.829C317.774 30.323 316.482 30.5699 315.051 30.5699C313.86 30.5699 312.727 30.3483 311.65 29.905C310.574 29.4491 309.618 28.7905 308.782 27.9293C307.959 27.0808 307.3 26.0486 306.806 24.8328C306.325 23.6043 306.084 22.2301 306.084 20.7104C306.084 17.7848 306.933 15.3912 308.63 13.5294C310.34 11.6677 312.575 10.7368 315.336 10.7368C317.957 10.7368 320.117 11.6234 321.814 13.3965C323.524 15.1569 324.379 17.5062 324.379 20.4444ZM320.446 20.4824C320.446 19.5325 320.351 18.532 320.161 17.4809C319.971 16.417 319.686 15.5178 319.306 14.7832C318.901 13.998 318.369 13.3711 317.711 12.9025C317.052 12.4213 316.248 12.1806 315.298 12.1806C314.323 12.1806 313.487 12.4213 312.79 12.9025C312.106 13.3838 311.549 14.0424 311.118 14.8782C310.713 15.6508 310.428 16.531 310.264 17.5188C310.099 18.5067 310.017 19.4629 310.017 20.3874C310.017 21.6032 310.112 22.7304 310.302 23.7689C310.504 24.7948 310.821 25.713 311.251 26.5235C311.682 27.3341 312.22 27.9736 312.866 28.4422C313.525 28.8982 314.335 29.1261 315.298 29.1261C316.881 29.1261 318.135 28.3599 319.059 26.8275C319.984 25.295 320.446 23.18 320.446 20.4824ZM345.783 30H336.607V28.7462C336.899 28.7209 337.215 28.6955 337.557 28.6702C337.912 28.6449 338.203 28.5942 338.431 28.5182C338.786 28.4042 339.045 28.2079 339.21 27.9293C339.387 27.638 339.476 27.2644 339.476 26.8085V17.1769C339.476 15.8471 339.159 14.8212 338.526 14.0993C337.906 13.3775 337.146 13.0165 336.246 13.0165C335.575 13.0165 334.961 13.1242 334.404 13.3395C333.846 13.5421 333.353 13.7954 332.922 14.0993C332.504 14.3906 332.168 14.7073 331.915 15.0492C331.674 15.3785 331.497 15.6445 331.383 15.8471V26.6185C331.383 27.0491 331.472 27.4037 331.649 27.6823C331.826 27.961 332.092 28.1763 332.447 28.3282C332.713 28.4549 332.998 28.5499 333.302 28.6132C333.619 28.6765 333.941 28.7209 334.271 28.7462V30H325.095V28.7462C325.386 28.7209 325.684 28.6955 325.988 28.6702C326.305 28.6449 326.577 28.5942 326.805 28.5182C327.159 28.4042 327.419 28.2079 327.584 27.9293C327.761 27.638 327.85 27.2644 327.85 26.8085V15.2392C327.85 14.8086 327.755 14.416 327.565 14.0614C327.387 13.6941 327.134 13.3965 326.805 13.1685C326.564 13.0165 326.279 12.9089 325.95 12.8455C325.621 12.7695 325.266 12.7189 324.886 12.6936V11.4587L331.117 11.0408L331.383 11.3068V13.9474H331.478C331.782 13.6434 332.162 13.2825 332.618 12.8645C333.074 12.4339 333.505 12.0856 333.91 11.8197C334.378 11.5157 334.936 11.2624 335.582 11.0598C336.227 10.8572 336.956 10.7558 337.766 10.7558C339.565 10.7558 340.894 11.3194 341.756 12.4466C342.63 13.5611 343.066 15.0492 343.066 16.9109V26.6565C343.066 27.0998 343.142 27.4607 343.294 27.7393C343.446 28.0053 343.706 28.2143 344.073 28.3662C344.377 28.4929 344.637 28.5815 344.852 28.6322C345.08 28.6829 345.39 28.7209 345.783 28.7462V30ZM362.723 25.5927C361.938 27.0871 360.887 28.2776 359.57 29.1641C358.253 30.0507 356.739 30.4939 355.029 30.4939C353.522 30.4939 352.199 30.228 351.059 29.696C349.932 29.1641 349.001 28.4422 348.266 27.5304C347.532 26.6185 346.981 25.5547 346.614 24.3388C346.259 23.123 346.082 21.8375 346.082 20.4824C346.082 19.2666 346.272 18.0761 346.652 16.9109C347.044 15.7331 347.614 14.6756 348.361 13.7384C349.083 12.8392 349.976 12.1173 351.04 11.5727C352.117 11.0155 353.32 10.7368 354.649 10.7368C356.017 10.7368 357.189 10.9521 358.164 11.3828C359.139 11.8134 359.931 12.4023 360.539 13.1495C361.121 13.8587 361.552 14.6946 361.83 15.6571C362.122 16.6196 362.267 17.6645 362.267 18.7917V20.0455H349.862C349.862 21.274 349.976 22.3885 350.204 23.389C350.445 24.3895 350.818 25.2697 351.325 26.0296C351.819 26.7641 352.465 27.3467 353.263 27.7773C354.061 28.1953 355.01 28.4042 356.112 28.4042C357.239 28.4042 358.208 28.1446 359.019 27.6254C359.842 27.0934 360.634 26.1436 361.393 24.7758L362.723 25.5927ZM358.525 18.4497C358.525 17.7405 358.462 16.9806 358.335 16.17C358.221 15.3595 358.031 14.6819 357.765 14.1373C357.474 13.5548 357.075 13.0798 356.568 12.7126C356.062 12.3453 355.409 12.1616 354.611 12.1616C353.282 12.1616 352.173 12.7189 351.287 13.8334C350.413 14.9352 349.938 16.474 349.862 18.4497H358.525ZM361.464 36.1171C361.464 35.4839 361.635 34.9646 361.977 34.5593C362.332 34.1667 362.769 33.9704 363.288 33.9704C363.693 33.9704 364.041 34.0464 364.333 34.1984C364.624 34.3504 364.884 34.5467 365.112 34.7873C365.302 34.9773 365.504 35.2369 365.72 35.5662C365.935 35.8955 366.106 36.1678 366.232 36.3831C366.866 36.0411 367.619 35.1482 368.493 33.7045C369.38 32.2607 370.019 30.9942 370.412 29.905C369.209 26.9035 368.12 24.2185 367.144 21.8502C366.169 19.4819 365.15 17.0312 364.086 14.4983C363.845 13.9157 363.44 13.4661 362.87 13.1495C362.3 12.8202 361.73 12.6112 361.16 12.5226V11.2688H369.709V12.5986C369.329 12.6112 368.873 12.6936 368.341 12.8455C367.809 12.9848 367.543 13.1495 367.543 13.3395C367.543 13.4155 367.569 13.5421 367.619 13.7194C367.683 13.8967 367.752 14.0804 367.828 14.2703C368.309 15.5241 369.044 17.3352 370.032 19.7035C371.02 22.0592 371.786 23.9462 372.331 25.3647C372.9 24.0096 373.489 22.6101 374.097 21.1663C374.718 19.7099 375.408 17.9938 376.168 16.0181C376.257 15.7774 376.383 15.4482 376.548 15.0302C376.713 14.5996 376.795 14.2323 376.795 13.9284C376.795 13.5991 376.504 13.2951 375.921 13.0165C375.351 12.7252 374.807 12.5479 374.287 12.4846V11.2688H381.24V12.4466C380.86 12.5099 380.36 12.7316 379.739 13.1115C379.119 13.4788 378.657 14.0044 378.353 14.6883C376.846 18.1837 375.503 21.3689 374.325 24.2439C373.16 27.1188 372.274 29.2338 371.666 30.5889C370.868 32.362 370.152 33.7424 369.519 34.7303C368.898 35.7308 368.29 36.516 367.695 37.086C367.113 37.6179 366.581 37.9725 366.099 38.1498C365.631 38.3398 365.143 38.4348 364.637 38.4348C363.649 38.4348 362.87 38.2005 362.3 37.7319C361.743 37.2633 361.464 36.725 361.464 36.1171ZM404.064 25.5927C403.279 27.0871 402.228 28.2776 400.911 29.1641C399.594 30.0507 398.08 30.4939 396.37 30.4939C394.863 30.4939 393.54 30.228 392.4 29.696C391.273 29.1641 390.342 28.4422 389.607 27.5304C388.873 26.6185 388.322 25.5547 387.955 24.3388C387.6 23.123 387.423 21.8375 387.423 20.4824C387.423 19.2666 387.613 18.0761 387.993 16.9109C388.385 15.7331 388.955 14.6756 389.702 13.7384C390.424 12.8392 391.317 12.1173 392.381 11.5727C393.458 11.0155 394.661 10.7368 395.99 10.7368C397.358 10.7368 398.53 10.9521 399.505 11.3828C400.48 11.8134 401.272 12.4023 401.88 13.1495C402.462 13.8587 402.893 14.6946 403.171 15.6571C403.463 16.6196 403.608 17.6645 403.608 18.7917V20.0455H391.203C391.203 21.274 391.317 22.3885 391.545 23.389C391.786 24.3895 392.159 25.2697 392.666 26.0296C393.16 26.7641 393.806 27.3467 394.604 27.7773C395.402 28.1953 396.351 28.4042 397.453 28.4042C398.58 28.4042 399.549 28.1446 400.36 27.6254C401.183 27.0934 401.975 26.1436 402.734 24.7758L404.064 25.5927ZM399.866 18.4497C399.866 17.7405 399.803 16.9806 399.676 16.17C399.562 15.3595 399.372 14.6819 399.106 14.1373C398.815 13.5548 398.416 13.0798 397.909 12.7126C397.403 12.3453 396.75 12.1616 395.952 12.1616C394.623 12.1616 393.514 12.7189 392.628 13.8334C391.754 14.9352 391.279 16.474 391.203 18.4497H399.866ZM421.973 29.6581C421.378 29.8734 420.852 30.0443 420.397 30.171C419.953 30.3103 419.447 30.3799 418.877 30.3799C417.889 30.3799 417.097 30.152 416.502 29.696C415.92 29.2274 415.546 28.5499 415.381 27.6633H415.267C414.444 28.5752 413.558 29.2718 412.608 29.753C411.671 30.2343 410.537 30.4749 409.207 30.4749C407.801 30.4749 406.643 30.0443 405.731 29.1831C404.832 28.3219 404.382 27.1947 404.382 25.8016C404.382 25.0797 404.483 24.4338 404.686 23.8639C404.889 23.294 405.192 22.7811 405.598 22.3251C405.914 21.9452 406.332 21.6096 406.852 21.3183C407.371 21.0143 407.858 20.7737 408.314 20.5964C408.884 20.3811 410.037 19.9821 411.772 19.3996C413.52 18.817 414.697 18.3611 415.305 18.0318V16.151C415.305 15.9864 415.267 15.6698 415.191 15.2012C415.128 14.7326 414.982 14.2893 414.754 13.8714C414.501 13.4028 414.14 12.9975 413.672 12.6556C413.216 12.3009 412.563 12.1236 411.715 12.1236C411.132 12.1236 410.588 12.225 410.081 12.4276C409.587 12.6176 409.239 12.8202 409.036 13.0355C409.036 13.2888 409.093 13.6624 409.207 14.1563C409.334 14.6503 409.397 15.1062 409.397 15.5241C409.397 15.9674 409.195 16.3727 408.789 16.74C408.397 17.1072 407.846 17.2909 407.137 17.2909C406.503 17.2909 406.035 17.0692 405.731 16.626C405.439 16.17 405.294 15.6635 405.294 15.1062C405.294 14.5236 405.496 13.9664 405.902 13.4344C406.32 12.9025 406.858 12.4276 407.516 12.0097C408.086 11.655 408.777 11.3574 409.587 11.1168C410.398 10.8635 411.189 10.7368 411.962 10.7368C413.026 10.7368 413.95 10.8128 414.735 10.9648C415.533 11.1041 416.255 11.4144 416.901 11.8957C417.547 12.3643 418.035 13.0038 418.364 13.8144C418.706 14.6123 418.877 15.6445 418.877 16.9109C418.877 18.722 418.858 20.3304 418.82 21.7362C418.782 23.1293 418.763 24.6555 418.763 26.3145C418.763 26.8085 418.845 27.2011 419.01 27.4924C419.187 27.7837 419.453 28.0306 419.808 28.2333C419.998 28.3472 420.295 28.4106 420.701 28.4232C421.118 28.4359 421.543 28.4422 421.973 28.4422V29.6581ZM415.343 19.6275C414.267 19.9442 413.323 20.2544 412.513 20.5584C411.702 20.8624 410.949 21.2423 410.252 21.6982C409.619 22.1288 409.119 22.6418 408.751 23.237C408.384 23.8196 408.2 24.5161 408.2 25.3267C408.2 26.3779 408.473 27.1504 409.017 27.6443C409.574 28.1383 410.277 28.3852 411.126 28.3852C412.025 28.3852 412.817 28.1699 413.501 27.7393C414.184 27.2961 414.761 26.7768 415.229 26.1816L415.343 19.6275ZM436.178 13.6814C436.178 14.3273 436.02 14.9036 435.703 15.4102C435.386 15.9041 434.899 16.151 434.24 16.151C433.531 16.151 432.986 15.9674 432.606 15.6001C432.239 15.2328 432.056 14.8276 432.056 14.3843C432.056 14.1057 432.075 13.8524 432.113 13.6244C432.163 13.3965 432.208 13.1685 432.246 12.9405C431.65 12.9405 430.954 13.1812 430.156 13.6624C429.358 14.1437 428.68 14.8276 428.123 15.7141V26.6185C428.123 27.0618 428.205 27.4227 428.37 27.7013C428.547 27.98 428.82 28.1889 429.187 28.3282C429.504 28.4549 429.909 28.5499 430.403 28.6132C430.909 28.6765 431.346 28.7209 431.714 28.7462V30H421.835V28.7462C422.126 28.7209 422.424 28.6955 422.728 28.6702C423.045 28.6449 423.317 28.5942 423.545 28.5182C423.899 28.4042 424.159 28.2079 424.324 27.9293C424.501 27.638 424.59 27.2644 424.59 26.8085V15.2392C424.59 14.8466 424.495 14.4603 424.305 14.0804C424.127 13.7004 423.874 13.3965 423.545 13.1685C423.304 13.0165 423.019 12.9089 422.69 12.8455C422.361 12.7695 422.006 12.7189 421.626 12.6936V11.4587L427.857 11.0408L428.123 11.3068V13.9474H428.218C429.003 12.9215 429.877 12.1426 430.84 11.6107C431.802 11.0788 432.682 10.8128 433.48 10.8128C434.278 10.8128 434.924 11.0725 435.418 11.5917C435.925 12.111 436.178 12.8075 436.178 13.6814ZM456.481 30H447.305V28.7462C447.596 28.7209 447.913 28.6955 448.255 28.6702C448.609 28.6449 448.901 28.5942 449.129 28.5182C449.483 28.4042 449.743 28.2079 449.908 27.9293C450.085 27.638 450.174 27.2644 450.174 26.8085V17.1769C450.174 15.8471 449.857 14.8212 449.224 14.0993C448.603 13.3775 447.843 13.0165 446.944 13.0165C446.273 13.0165 445.659 13.1242 445.101 13.3395C444.544 13.5421 444.05 13.7954 443.62 14.0993C443.202 14.3906 442.866 14.7073 442.613 15.0492C442.372 15.3785 442.195 15.6445 442.081 15.8471V26.6185C442.081 27.0491 442.169 27.4037 442.347 27.6823C442.524 27.961 442.79 28.1763 443.145 28.3282C443.411 28.4549 443.696 28.5499 443.999 28.6132C444.316 28.6765 444.639 28.7209 444.968 28.7462V30H435.793V28.7462C436.084 28.7209 436.382 28.6955 436.686 28.6702C437.002 28.6449 437.274 28.5942 437.502 28.5182C437.857 28.4042 438.117 28.2079 438.281 27.9293C438.459 27.638 438.547 27.2644 438.547 26.8085V15.2392C438.547 14.8086 438.452 14.416 438.262 14.0614C438.085 13.6941 437.832 13.3965 437.502 13.1685C437.262 13.0165 436.977 12.9089 436.648 12.8455C436.318 12.7695 435.964 12.7189 435.584 12.6936V11.4587L441.815 11.0408L442.081 11.3068V13.9474H442.176C442.48 13.6434 442.86 13.2825 443.316 12.8645C443.772 12.4339 444.202 12.0856 444.607 11.8197C445.076 11.5157 445.633 11.2624 446.279 11.0598C446.925 10.8572 447.653 10.7558 448.464 10.7558C450.262 10.7558 451.592 11.3194 452.453 12.4466C453.327 13.5611 453.764 15.0492 453.764 16.9109V26.6565C453.764 27.0998 453.84 27.4607 453.992 27.7393C454.144 28.0053 454.404 28.2143 454.771 28.3662C455.075 28.4929 455.334 28.5815 455.55 28.6322C455.778 28.6829 456.088 28.7209 456.481 28.7462V30ZM465.879 30H456.817V28.7462C457.109 28.7209 457.406 28.6955 457.71 28.6702C458.027 28.6449 458.299 28.5942 458.527 28.5182C458.882 28.4042 459.141 28.2079 459.306 27.9293C459.483 27.638 459.572 27.2644 459.572 26.8085V15.2392C459.572 14.8339 459.477 14.4666 459.287 14.1373C459.11 13.7954 458.856 13.5104 458.527 13.2825C458.286 13.1305 457.938 13.0038 457.482 12.9025C457.026 12.7885 456.608 12.7189 456.228 12.6936V11.4587L462.839 11.0408L463.105 11.3068V26.5805C463.105 27.0238 463.188 27.3911 463.352 27.6823C463.53 27.9736 463.802 28.1889 464.169 28.3282C464.448 28.4422 464.72 28.5372 464.986 28.6132C465.252 28.6765 465.55 28.7209 465.879 28.7462V30ZM463.485 3.65089C463.485 4.37279 463.245 5.00603 462.763 5.55061C462.295 6.08253 461.712 6.3485 461.016 6.3485C460.37 6.3485 459.806 6.0952 459.325 5.58861C458.856 5.06935 458.622 4.48044 458.622 3.82187C458.622 3.12531 458.856 2.5174 459.325 1.99814C459.806 1.47888 460.37 1.21925 461.016 1.21925C461.738 1.21925 462.326 1.46622 462.782 1.96014C463.251 2.44141 463.485 3.00499 463.485 3.65089ZM486.866 30H477.69V28.7462C477.981 28.7209 478.298 28.6955 478.64 28.6702C478.994 28.6449 479.286 28.5942 479.514 28.5182C479.868 28.4042 480.128 28.2079 480.293 27.9293C480.47 27.638 480.558 27.2644 480.558 26.8085V17.1769C480.558 15.8471 480.242 14.8212 479.609 14.0993C478.988 13.3775 478.228 13.0165 477.329 13.0165C476.658 13.0165 476.043 13.1242 475.486 13.3395C474.929 13.5421 474.435 13.7954 474.004 14.0993C473.587 14.3906 473.251 14.7073 472.998 15.0492C472.757 15.3785 472.58 15.6445 472.466 15.8471V26.6185C472.466 27.0491 472.554 27.4037 472.732 27.6823C472.909 27.961 473.175 28.1763 473.53 28.3282C473.795 28.4549 474.08 28.5499 474.384 28.6132C474.701 28.6765 475.024 28.7209 475.353 28.7462V30H466.178V28.7462C466.469 28.7209 466.767 28.6955 467.07 28.6702C467.387 28.6449 467.659 28.5942 467.887 28.5182C468.242 28.4042 468.502 28.2079 468.666 27.9293C468.844 27.638 468.932 27.2644 468.932 26.8085V15.2392C468.932 14.8086 468.837 14.416 468.647 14.0614C468.47 13.6941 468.217 13.3965 467.887 13.1685C467.647 13.0165 467.362 12.9089 467.032 12.8455C466.703 12.7695 466.349 12.7189 465.969 12.6936V11.4587L472.2 11.0408L472.466 11.3068V13.9474H472.561C472.865 13.6434 473.245 13.2825 473.701 12.8645C474.156 12.4339 474.587 12.0856 474.992 11.8197C475.461 11.5157 476.018 11.2624 476.664 11.0598C477.31 10.8572 478.038 10.7558 478.849 10.7558C480.647 10.7558 481.977 11.3194 482.838 12.4466C483.712 13.5611 484.149 15.0492 484.149 16.9109V26.6565C484.149 27.0998 484.225 27.4607 484.377 27.7393C484.529 28.0053 484.789 28.2143 485.156 28.3662C485.46 28.4929 485.719 28.5815 485.935 28.6322C486.163 28.6829 486.473 28.7209 486.866 28.7462V30ZM503.217 28.0623C503.723 28.5435 504.122 29.0881 504.414 29.696C504.705 30.304 504.851 31.0575 504.851 31.9567C504.851 32.8559 504.654 33.6981 504.262 34.4833C503.869 35.2812 503.274 35.9715 502.476 36.554C501.627 37.1493 500.614 37.6115 499.436 37.9408C498.259 38.2701 496.802 38.4348 495.067 38.4348C492.23 38.4348 490.109 38.0168 488.703 37.1809C487.297 36.3577 486.594 35.1482 486.594 33.5525C486.594 32.2607 487.101 31.2411 488.114 30.4939C489.127 29.7467 490.419 29.3414 491.99 29.2781V29.0121C491.61 28.8982 491.217 28.7589 490.812 28.5942C490.406 28.4169 490.058 28.2143 489.767 27.9863C489.438 27.7203 489.172 27.41 488.969 27.0554C488.766 26.6882 488.665 26.2386 488.665 25.7066C488.665 25.0354 488.899 24.4212 489.368 23.8639C489.849 23.294 490.571 22.8064 491.534 22.4011V22.1162C490.318 21.5462 489.374 20.818 488.703 19.9315C488.032 19.0323 487.696 17.9938 487.696 16.8159C487.696 15.0429 488.355 13.5864 489.672 12.4466C491.002 11.3068 492.699 10.7368 494.763 10.7368C495.333 10.7368 495.897 10.7938 496.454 10.9078C497.024 11.0218 497.6 11.1674 498.183 11.3448H504.718V13.1685H500.31V13.2825C500.779 13.8271 501.127 14.4286 501.355 15.0872C501.583 15.7458 501.697 16.3917 501.697 17.0249C501.697 18.6713 501.026 20.0645 499.683 21.2043C498.354 22.3441 496.802 22.914 495.029 22.914H492.73C492.439 23.0154 492.135 23.199 491.819 23.465C491.502 23.7309 491.344 24.0919 491.344 24.5478C491.344 25.0164 491.477 25.3773 491.743 25.6306C492.008 25.8713 492.331 26.0359 492.711 26.1246C493.079 26.2259 493.503 26.2892 493.984 26.3145C494.478 26.3399 494.985 26.3589 495.504 26.3715C496.061 26.3842 496.821 26.4222 497.784 26.4855C498.759 26.5488 499.449 26.5868 499.854 26.5995C500.437 26.6248 501.02 26.7641 501.602 27.0174C502.197 27.2707 502.736 27.619 503.217 28.0623ZM498.088 16.9489C498.088 15.4671 497.784 14.2893 497.176 13.4155C496.58 12.5289 495.738 12.0856 494.649 12.0856C494.054 12.0856 493.541 12.2123 493.11 12.4656C492.692 12.7062 492.35 13.0545 492.084 13.5104C491.831 13.9284 491.648 14.435 491.534 15.0302C491.432 15.6128 491.382 16.2144 491.382 16.8349C491.382 18.2407 491.686 19.3869 492.293 20.2734C492.914 21.16 493.712 21.6032 494.687 21.6032C495.776 21.6032 496.612 21.1663 497.195 20.2924C497.79 19.4059 498.088 18.2914 498.088 16.9489ZM501.735 32.6596C501.735 31.9504 501.57 31.3678 501.241 30.9119C500.912 30.4559 500.412 30.1456 499.74 29.981C499.386 29.9303 498.658 29.8734 497.556 29.81C496.454 29.7467 495.175 29.715 493.718 29.715C492.35 29.981 491.375 30.4243 490.793 31.0448C490.223 31.6781 489.938 32.4886 489.938 33.4765C489.938 33.9198 490.033 34.344 490.223 34.7493C490.413 35.1546 490.742 35.5282 491.211 35.8701C491.654 36.1994 492.249 36.4654 492.996 36.668C493.744 36.8833 494.655 36.991 495.732 36.991C497.594 36.991 499.056 36.63 500.12 35.9081C501.197 35.1989 501.735 34.1161 501.735 32.6596ZM518.276 4.75273C518.973 5.48729 519.486 6.31683 519.815 7.24136C520.157 8.15323 520.328 9.14742 520.328 10.2239C520.328 12.5669 519.581 14.4793 518.086 15.9611C516.592 17.4429 514.54 18.3357 511.931 18.6397V22.8381H510.184V15.6381C510.981 15.5748 511.773 15.4482 512.558 15.2582C513.343 15.0555 514.046 14.7326 514.667 14.2893C515.313 13.8207 515.813 13.2571 516.168 12.5986C516.535 11.9273 516.719 10.9965 516.719 9.80598C516.719 7.90627 516.313 6.44981 515.503 5.43663C514.705 4.42345 513.533 3.91685 511.988 3.91685C511.406 3.91685 510.893 4.00551 510.449 4.18282C510.019 4.34746 509.702 4.50577 509.5 4.65775C509.563 4.9617 509.645 5.39864 509.747 5.96855C509.861 6.53847 509.918 6.9754 509.918 7.27936C509.918 7.74796 509.715 8.17856 509.31 8.57117C508.904 8.95111 508.315 9.14108 507.543 9.14108C506.859 9.14108 506.371 8.90678 506.08 8.43819C505.789 7.96959 505.643 7.425 505.643 6.80443C505.643 6.29784 505.783 5.80391 506.061 5.32265C506.34 4.82872 506.777 4.35379 507.372 3.89786C507.879 3.49258 508.562 3.1443 509.424 2.85301C510.298 2.56172 511.203 2.41608 512.14 2.41608C513.483 2.41608 514.673 2.63138 515.712 3.06198C516.75 3.47992 517.605 4.0435 518.276 4.75273ZM513.717 27.8153C513.717 28.5246 513.457 29.1325 512.938 29.6391C512.432 30.133 511.824 30.3799 511.114 30.3799C510.405 30.3799 509.791 30.133 509.272 29.6391C508.765 29.1325 508.512 28.5246 508.512 27.8153C508.512 27.1061 508.765 26.4982 509.272 25.9916C509.791 25.4723 510.405 25.2127 511.114 25.2127C511.824 25.2127 512.432 25.4723 512.938 25.9916C513.457 26.4982 513.717 27.1061 513.717 27.8153Z" fill="#111827"/>
</svg>
