<svg width="18" height="18" viewBox="0 0 18 18" fill="none" xmlns="http://www.w3.org/2000/svg">
<path d="M8.46975 1.71959C8.6104 1.57899 8.80113 1.5 9 1.5C9.19887 1.5 9.3896 1.57899 9.53025 1.71959L12.5303 4.71959C12.6669 4.86104 12.7425 5.05049 12.7408 5.24714C12.739 5.44379 12.6602 5.6319 12.5211 5.77095C12.3821 5.91001 12.1939 5.98889 11.9973 5.9906C11.8007 5.9923 11.6112 5.91671 11.4698 5.78009L9.75 4.06034V11.9998C9.75 12.1988 9.67098 12.3895 9.53033 12.5302C9.38968 12.6708 9.19891 12.7498 9 12.7498C8.80109 12.7498 8.61032 12.6708 8.46967 12.5302C8.32902 12.3895 8.25 12.1988 8.25 11.9998V4.06034L6.53025 5.78009C6.3888 5.91671 6.19935 5.9923 6.0027 5.9906C5.80605 5.98889 5.61794 5.91001 5.47889 5.77095C5.33983 5.6319 5.26095 5.44379 5.25924 5.24714C5.25754 5.05049 5.33313 4.86104 5.46975 4.71959L8.46975 1.71959ZM3.75 12.7498C3.94891 12.7498 4.13968 12.8289 4.28033 12.9695C4.42098 13.1102 4.5 13.3009 4.5 13.4998V14.9998H13.5V13.4998C13.5 13.3009 13.579 13.1102 13.7197 12.9695C13.8603 12.8289 14.0511 12.7498 14.25 12.7498C14.4489 12.7498 14.6397 12.8289 14.7803 12.9695C14.921 13.1102 15 13.3009 15 13.4998V14.9998C15 15.3977 14.842 15.7792 14.5607 16.0605C14.2794 16.3418 13.8978 16.4998 13.5 16.4998H4.5C4.10218 16.4998 3.72064 16.3418 3.43934 16.0605C3.15804 15.7792 3 15.3977 3 14.9998V13.4998C3 13.3009 3.07902 13.1102 3.21967 12.9695C3.36032 12.8289 3.55109 12.7498 3.75 12.7498Z" fill="#F02626"/>
</svg>
