<svg width="24" height="24" viewBox="0 0 24 24" fill="none" xmlns="http://www.w3.org/2000/svg">
<path d="M12.0004 2.57031C13.8951 2.57014 15.7153 3.30807 17.075 4.6276C18.4347 5.94713 19.2269 7.74445 19.2835 9.63831L19.287 9.85688V13.81L20.499 16.9335C20.5315 17.018 20.5535 17.1052 20.565 17.1949L20.5735 17.3303C20.5734 17.6019 20.4726 17.8639 20.2905 18.0655C20.1084 18.267 19.858 18.3939 19.5878 18.4215L19.4764 18.4275L15.0021 18.4283C14.9993 19.2083 14.693 19.9566 14.1481 20.5146C13.6032 21.0727 12.8624 21.3968 12.0827 21.4182C11.303 21.4396 10.5456 21.1566 9.97092 20.6292C9.39622 20.1019 9.04937 19.3715 9.00381 18.5929L8.99867 18.4266L4.52181 18.4275C4.3528 18.4276 4.18604 18.3887 4.03455 18.3137C3.88305 18.2388 3.75092 18.1299 3.64845 17.9955C3.54599 17.8611 3.47596 17.7048 3.44383 17.5389C3.41171 17.3729 3.41835 17.2018 3.46324 17.0389L3.49924 16.9326L4.71296 13.8092V9.85774C4.71273 8.90068 4.90107 7.95295 5.26722 7.0687C5.63337 6.18444 6.17015 5.38099 6.84689 4.70425C7.52364 4.0275 8.32709 3.49072 9.21134 3.12458C10.0956 2.75843 11.0433 2.57009 12.0004 2.57031ZM13.7112 18.556L13.7147 18.4275L10.2861 18.4283C10.2841 18.8734 10.4552 19.3018 10.7633 19.623C11.0713 19.9443 11.4921 20.1332 11.9369 20.1499C12.3817 20.1666 12.8155 20.0097 13.1467 19.7125C13.478 19.4152 13.6807 19.0008 13.7121 18.5569M12.0004 3.85603C10.4445 3.85578 8.94943 4.4599 7.8305 5.54094C6.71156 6.62197 6.0563 8.09538 6.00296 9.65031L5.99953 9.85688V13.93C5.99909 13.9832 5.99248 14.0361 5.97981 14.0877L5.95581 14.1632L4.79696 17.1417H19.2004L18.045 14.164C18.0262 14.1143 18.0132 14.0625 18.0064 14.0097L18.0004 13.9309V9.85774C18.0006 9.06967 17.8456 8.28927 17.5442 7.56111C17.2427 6.83296 16.8008 6.17133 16.2436 5.61399C15.6865 5.05666 15.0249 4.61455 14.2969 4.31291C13.5688 4.01128 12.7885 3.85603 12.0004 3.85603Z" fill="#979797"/>
</svg>
