<svg width="17" height="17" viewBox="0 0 17 17" fill="none" xmlns="http://www.w3.org/2000/svg">
<path d="M12.5276 9.79393C12.1158 9.80422 11.735 9.89685 11.385 10.0718C11.0351 10.2468 10.7417 10.4784 10.505 10.7666L7.1392 9.22267C7.18037 9.10944 7.21125 8.99107 7.23184 8.86756C7.25242 8.74404 7.26271 8.61538 7.26271 8.48157C7.26271 8.34776 7.25242 8.21653 7.23184 8.08787C7.21125 7.9592 7.18037 7.83826 7.1392 7.72504V7.74048L10.505 6.19653C10.7417 6.48474 11.0351 6.71375 11.385 6.88359C11.735 7.05342 12.1158 7.13834 12.5276 7.13834C13.2584 7.13834 13.8811 6.88101 14.3957 6.36637C14.9104 5.85172 15.1677 5.23414 15.1677 4.51363C15.1677 3.78283 14.9104 3.16011 14.3957 2.64546C13.8811 2.13081 13.2584 1.87349 12.5276 1.87349C11.7968 1.87349 11.174 2.13081 10.6594 2.64546C10.1447 3.16011 9.88742 3.78283 9.88742 4.51363C9.88742 4.51363 9.88742 4.5162 9.88742 4.52135C9.88742 4.5265 9.88742 4.52907 9.88742 4.52907C9.88742 4.61141 9.89257 4.69376 9.90286 4.7761C9.91315 4.85845 9.92345 4.93564 9.93374 5.00769V4.99226L6.45986 6.59796C6.22312 6.36122 5.94779 6.17595 5.63385 6.04214C5.31992 5.90833 4.98282 5.84142 4.62257 5.84142C3.89177 5.84142 3.26904 6.09875 2.75439 6.6134C2.23975 7.12805 1.98242 7.75077 1.98242 8.48157C1.98242 9.21237 2.23975 9.8351 2.75439 10.3497C3.26904 10.8644 3.89177 11.1217 4.62257 11.1217C4.98282 11.1217 5.31992 11.0548 5.63385 10.921C5.94779 10.7872 6.22312 10.6019 6.45986 10.3652L9.93374 11.9709C9.92345 12.0326 9.91315 12.1047 9.90286 12.187C9.89257 12.2694 9.88742 12.3517 9.88742 12.4341C9.88742 13.1649 10.1447 13.7876 10.6594 14.3022C11.174 14.8169 11.7968 15.0742 12.5276 15.0742C13.2584 15.0742 13.8811 14.8169 14.3957 14.3022C14.9104 13.7876 15.1677 13.1649 15.1677 12.4341C15.1677 11.7033 14.9104 11.0805 14.3957 10.5659C13.8811 10.0512 13.2584 9.79393 12.5276 9.79393ZM12.5276 3.21672C12.8878 3.21672 13.1966 3.34538 13.4539 3.6027C13.7113 3.86003 13.8399 4.16882 13.8399 4.52907C13.8399 4.88933 13.7113 5.19811 13.4539 5.45544C13.1966 5.71276 12.8878 5.84142 12.5276 5.84142C12.1673 5.84142 11.8585 5.71276 11.6012 5.45544C11.3439 5.19811 11.2152 4.88933 11.2152 4.52907C11.2152 4.16882 11.3439 3.86003 11.6012 3.6027C11.8585 3.34538 12.1673 3.21672 12.5276 3.21672ZM4.62257 9.79393C4.26231 9.79393 3.95353 9.66526 3.6962 9.40794C3.43888 9.15061 3.31021 8.84183 3.31021 8.48157C3.31021 8.12132 3.43888 7.81253 3.6962 7.5552C3.95353 7.29788 4.26231 7.16922 4.62257 7.16922C4.98282 7.16922 5.29161 7.29788 5.54894 7.5552C5.80626 7.81253 5.93492 8.12132 5.93492 8.48157C5.93492 8.84183 5.80626 9.15061 5.54894 9.40794C5.29161 9.66526 4.98282 9.79393 4.62257 9.79393ZM12.5276 13.7464C12.1673 13.7464 11.8585 13.6178 11.6012 13.3604C11.3439 13.1031 11.2152 12.7943 11.2152 12.4341C11.2152 12.0738 11.3439 11.765 11.6012 11.5077C11.8585 11.2504 12.1673 11.1217 12.5276 11.1217C12.8878 11.1217 13.1966 11.2504 13.4539 11.5077C13.7113 11.765 13.8399 12.0738 13.8399 12.4341C13.8399 12.7943 13.7113 13.1031 13.4539 13.3604C13.1966 13.6178 12.8878 13.7464 12.5276 13.7464Z" fill="white"/>
</svg>
