<svg width="200" height="201" viewBox="0 0 200 201" fill="none" xmlns="http://www.w3.org/2000/svg">
<path d="M84.4842 56.0357C86.1001 56.0344 87.6939 56.4105 89.1379 57.1339C90.5819 57.8574 91.8359 58.9079 92.7996 60.2016L98.7715 52.4142L80.853 38.7461L67.1484 56.6168L74.8713 62.5077C75.6441 60.5961 76.9723 58.9586 78.6852 57.8053C80.3981 56.6521 82.4176 56.0358 84.4842 56.0357Z" fill="#5156BE"/>
<path d="M168.477 122.504H197.861C199.089 127.16 199.23 132.036 198.273 136.755C197.315 141.474 195.285 145.912 192.339 149.726C189.392 153.54 185.607 156.629 181.276 158.756C176.944 160.882 172.181 161.99 167.353 161.992C166.492 161.992 165.639 161.958 164.795 161.889V144.611C164.796 143.783 164.592 142.967 164.202 142.236C163.812 141.505 163.247 140.88 162.558 140.418C161.869 139.956 161.076 139.67 160.25 139.586C159.424 139.501 158.589 139.621 157.82 139.934V133.135C157.82 131.739 158.095 130.357 158.63 129.067C159.166 127.777 159.951 126.605 160.94 125.618C161.93 124.631 163.105 123.847 164.398 123.313C165.691 122.779 167.077 122.504 168.477 122.504Z" fill="#5156BE"/>
<path d="M19.0476 132.532L8.82031 124.73L0.998187 134.93L11.2255 142.732L19.0476 132.532Z" fill="#5156BE"/>
<path d="M25.2345 152.971L16.0267 84.1265L150.886 63.085L160.094 131.929L25.2345 152.971Z" fill="#F1F1F1" stroke="#111111" stroke-width="0.563637"/>
<path d="M148.055 69.3143L20.3828 89.2344L28.1275 147.139L155.799 127.219L148.055 69.3143Z" fill="white"/>
<path d="M16.1893 85.7775L15.433 80.1226L150.292 59.0811L151.049 64.736L16.1893 85.7775Z" fill="#E5E5E5" stroke="#111111" stroke-width="0.563637"/>
<path d="M19.8822 84.0382C20.4772 84.0382 20.9597 83.5172 20.9597 82.8746C20.9597 82.2319 20.4772 81.7109 19.8822 81.7109C19.2871 81.7109 18.8047 82.2319 18.8047 82.8746C18.8047 83.5172 19.2871 84.0382 19.8822 84.0382Z" fill="white"/>
<path d="M23.929 83.4054C24.5241 83.4054 25.0065 82.8844 25.0065 82.2417C25.0065 81.5991 24.5241 81.0781 23.929 81.0781C23.334 81.0781 22.8516 81.5991 22.8516 82.2417C22.8516 82.8844 23.334 83.4054 23.929 83.4054Z" fill="white"/>
<path d="M27.9759 82.7764C28.571 82.7764 29.0534 82.2555 29.0534 81.6128C29.0534 80.9702 28.571 80.4492 27.9759 80.4492C27.3808 80.4492 26.8984 80.9702 26.8984 81.6128C26.8984 82.2555 27.3808 82.7764 27.9759 82.7764Z" fill="white"/>
<path d="M45.6959 162.463V92.9029H181.954V162.463H45.6959Z" fill="#E6E6E6" stroke="#111111" stroke-width="0.563637"/>
<path d="M45.6618 94.5459V88.8727H181.879V94.5459H45.6618Z" fill="#E5E5E5" stroke="#111111" stroke-width="0.604864"/>
<path d="M49.679 93.4288C50.2741 93.4288 50.7565 92.9078 50.7565 92.2652C50.7565 91.6225 50.2741 91.1016 49.679 91.1016C49.084 91.1016 48.6016 91.6225 48.6016 92.2652C48.6016 92.9078 49.084 93.4288 49.679 93.4288Z" fill="white"/>
<path d="M53.765 93.4288C54.3601 93.4288 54.8425 92.9078 54.8425 92.2652C54.8425 91.6225 54.3601 91.1016 53.765 91.1016C53.1699 91.1016 52.6875 91.6225 52.6875 92.2652C52.6875 92.9078 53.1699 93.4288 53.765 93.4288Z" fill="white"/>
<path d="M57.8587 93.4288C58.4538 93.4288 58.9362 92.9078 58.9362 92.2652C58.9362 91.6225 58.4538 91.1016 57.8587 91.1016C57.2637 91.1016 56.7812 91.6225 56.7812 92.2652C56.7812 92.9078 57.2637 93.4288 57.8587 93.4288Z" fill="white"/>
<path d="M49.6099 156.861V98.9185H178.043V156.861H49.6099Z" fill="white" stroke="#111111" stroke-width="0.563637"/>
<ellipse cx="150.545" cy="122.353" rx="7.0611" ry="7.08383" fill="#5156BE"/>
<path d="M161.725 140.542C161.725 139.214 161.437 137.9 160.879 136.673C160.32 135.447 159.501 134.333 158.468 133.394C157.435 132.456 156.209 131.711 154.86 131.203C153.511 130.695 152.065 130.434 150.605 130.434C149.144 130.434 147.698 130.695 146.349 131.203C145 131.711 143.774 132.456 142.741 133.394C141.709 134.333 140.89 135.447 140.331 136.673C139.772 137.9 139.484 139.214 139.484 140.542L150.605 140.542H161.725Z" fill="#5156BE"/>
<path d="M84.3551 140.945H66.1875V142.42H84.3551V140.945Z" fill="#E6E6E6"/>
<path d="M86.6218 144.777H63.7578V146.252H86.6218V144.777Z" fill="#E6E6E6"/>
<path d="M83.7405 118.539H65.7578V132.505H83.7405V118.539Z" fill="#5156BE"/>
<path d="M85.5373 131.408H68.274C68.0833 131.408 67.9004 131.324 67.7656 131.174C67.6307 131.025 67.5549 130.822 67.5547 130.61V117.443C67.5549 117.231 67.6307 117.028 67.7656 116.879C67.9004 116.729 68.0833 116.645 68.274 116.645H85.5373C85.728 116.645 85.9109 116.729 86.0457 116.879C86.1806 117.028 86.2564 117.231 86.2566 117.443V130.61C86.2564 130.822 86.1806 131.025 86.0457 131.174C85.9109 131.324 85.728 131.408 85.5373 131.408ZM68.274 117.443V130.61H85.5378L85.5373 117.443H68.274Z" fill="#3F3D56"/>
<path d="M83.5571 116.944H82.8378C82.8378 115.198 82.2126 113.524 81.0997 112.289C79.9868 111.054 78.4774 110.361 76.9036 110.361C75.3297 110.361 73.8203 111.054 72.7074 112.289C71.5945 113.524 70.9693 115.198 70.9693 116.944H70.25C70.25 114.987 70.951 113.109 72.1988 111.725C73.4466 110.34 75.1389 109.562 76.9036 109.562C78.6682 109.562 80.3606 110.34 81.6084 111.725C82.8561 113.109 83.5571 114.987 83.5571 116.944Z" fill="#3F3D56"/>
<path d="M78.7065 122.431C78.7068 122.084 78.6254 121.742 78.4702 121.44C78.3151 121.139 78.0916 120.887 77.8218 120.71C77.5521 120.534 77.2455 120.438 76.9323 120.434C76.6192 120.429 76.3103 120.515 76.0364 120.683C75.7624 120.852 75.5328 121.097 75.3703 121.394C75.2079 121.691 75.1181 122.03 75.11 122.377C75.1018 122.724 75.1756 123.068 75.3239 123.374C75.4723 123.68 75.6901 123.937 75.9558 124.121V126.263C75.9558 126.401 75.9804 126.539 76.0283 126.667C76.0761 126.795 76.1463 126.912 76.2347 127.01C76.3231 127.108 76.4281 127.186 76.5436 127.239C76.6591 127.292 76.7829 127.319 76.908 127.319C77.1605 127.319 77.4027 127.208 77.5812 127.01C77.7598 126.812 77.8601 126.543 77.8601 126.263V124.121C78.119 123.943 78.3325 123.694 78.4806 123.398C78.6287 123.102 78.7064 122.769 78.7065 122.431Z" fill="#3F3D56"/>
</svg>
