<svg width="337" height="16" viewBox="0 0 337 16" fill="none" xmlns="http://www.w3.org/2000/svg">
<path d="M16.0049 0H0.00488281V16H16.0049V0Z" fill="#00B67A"/>
<path d="M8.00479 10.7825L10.4382 10.1659L11.4548 13.2992L8.00479 10.7825ZM13.6048 6.73256H9.32146L8.00479 2.69922L6.68813 6.73256H2.40479L5.87146 9.23256L4.55479 13.2659L8.02146 10.7659L10.1548 9.23256L13.6048 6.73256Z" fill="black"/>
<path d="M34.0049 0H18.0049V16H34.0049V0Z" fill="#00B67A"/>
<path d="M26.0048 10.7825L28.4382 10.1659L29.4548 13.2992L26.0048 10.7825ZM31.6048 6.73256H27.3215L26.0048 2.69922L24.6881 6.73256H20.4048L23.8715 9.23256L22.5548 13.2659L26.0215 10.7659L28.1548 9.23256L31.6048 6.73256Z" fill="black"/>
<path d="M52.0049 0H36.0049V16H52.0049V0Z" fill="#00B67A"/>
<path d="M44.0048 10.7825L46.4382 10.1659L47.4548 13.2992L44.0048 10.7825ZM49.6048 6.73256H45.3215L44.0048 2.69922L42.6881 6.73256H38.4048L41.8715 9.23256L40.5548 13.2659L44.0215 10.7659L46.1548 9.23256L49.6048 6.73256Z" fill="black"/>
<path d="M70.0049 0H54.0049V16H70.0049V0Z" fill="#00B67A"/>
<path d="M62.0048 10.7825L64.4382 10.1659L65.4548 13.2992L62.0048 10.7825ZM67.6048 6.73256H63.3215L62.0048 2.69922L60.6881 6.73256H56.4048L59.8715 9.23256L58.5548 13.2659L62.0215 10.7659L64.1548 9.23256L67.6048 6.73256Z" fill="black"/>
<path d="M88.0049 0H72.0049V16H88.0049V0Z" fill="#00B67A"/>
<path d="M80.0048 10.7825L82.4382 10.1659L83.4548 13.2992L80.0048 10.7825ZM85.6048 6.73256H81.3215L80.0048 2.69922L78.6881 6.73256H74.4048L77.8715 9.23256L76.5548 13.2659L80.0215 10.7659L82.1548 9.23256L85.6048 6.73256Z" fill="black"/>
</svg>
