<svg width="22" height="22" viewBox="0 0 22 22" fill="none" xmlns="http://www.w3.org/2000/svg">
<rect x="22" y="22" width="22" height="22" rx="2" transform="rotate(180 22 22)" fill="#13B799"/>
<g clip-path="url(#clip0_287_64742)">
<path d="M13.6021 6.23702C13.8446 6.37702 13.9362 6.65849 13.8102 6.87673L9.76016 13.8915C9.63416 14.1098 9.34463 14.1713 9.10214 14.0313C8.85966 13.8913 8.76813 13.6098 8.89413 13.3915L12.9441 6.37673C13.0701 6.15849 13.3597 6.09702 13.6021 6.23702Z" fill="#DDDDDD"/>
<path d="M7.61935 9.60281C7.67647 9.63503 7.72752 9.67664 7.76923 9.72496C7.81093 9.77328 7.84237 9.82723 7.86152 9.88336L9.30982 13.6748L13.3175 13.0334C13.5719 12.9926 13.8404 13.1476 13.9324 13.3884C14.0243 13.6291 13.8984 13.8472 13.6439 13.8879L9.19096 14.6007C8.93651 14.6414 8.66804 14.4864 8.57608 14.2457L6.96687 10.0329C6.87491 9.79221 7.00085 9.57408 7.2553 9.53336C7.38253 9.51299 7.51543 9.54281 7.61935 9.60281Z" fill="#DDDDDD"/>
</g>
<defs>
<clipPath id="clip0_287_64742">
<rect width="9" height="13" fill="white" transform="translate(11.5 18.8789) rotate(-150)"/>
</clipPath>
</defs>
</svg>
