<svg width="22" height="22" viewBox="0 0 22 22" fill="none" xmlns="http://www.w3.org/2000/svg">
<rect width="22" height="22" rx="2" fill="#F04444"/>
<g clip-path="url(#clip0_287_64734)">
<path d="M8.39786 15.763C8.15537 15.623 8.06384 15.3415 8.18984 15.1233L12.2398 8.10846C12.3658 7.89022 12.6554 7.82875 12.8979 7.96875C13.1403 8.10875 13.2319 8.39022 13.1059 8.60846L9.05587 15.6233C8.92987 15.8415 8.64034 15.903 8.39786 15.763Z" fill="#DDDDDD"/>
<path d="M14.3806 12.3972C14.3235 12.365 14.2725 12.3234 14.2308 12.275C14.1891 12.2267 14.1576 12.1728 14.1385 12.1166L12.6902 8.32516L8.68252 8.96664C8.42806 9.00737 8.15959 8.85237 8.06764 8.61164C7.97568 8.37092 8.10162 8.15279 8.35608 8.11206L12.809 7.3993C13.0635 7.35857 13.332 7.51357 13.4239 7.7543L15.0331 11.9671C15.1251 12.2078 14.9991 12.4259 14.7447 12.4666C14.6175 12.487 14.4846 12.4572 14.3806 12.3972Z" fill="#DDDDDD"/>
</g>
<defs>
<clipPath id="clip0_287_64734">
<rect width="9" height="13" fill="white" transform="translate(10.5 3.12109) rotate(30)"/>
</clipPath>
</defs>
</svg>
