<svg width="24" height="24" viewBox="0 0 24 24" fill="none" xmlns="http://www.w3.org/2000/svg">
<path fill-rule="evenodd" clip-rule="evenodd" d="M11.206 4.48881C12.0446 4.99192 12.9822 5.30764 13.9544 5.41432C14.9265 5.52099 15.9102 5.41609 16.838 5.10681L18.418 4.57981L17.11 8.50881C16.9978 8.84522 17.0084 9.2105 17.14 9.53981L18.679 13.3858L16.207 14.2098C15.553 14.4277 14.8595 14.5016 14.1743 14.4263C13.489 14.3511 12.8282 14.1285 12.237 13.7738C11.3045 13.2141 10.251 12.8869 9.1655 12.8199C8.07998 12.7529 6.99427 12.948 6 13.3888V4.98081C6.00012 4.87138 6.03067 4.76413 6.08824 4.67107C6.14581 4.578 6.22813 4.50278 6.326 4.45381C7.893 3.67081 9.659 3.56081 11.206 4.48881ZM4 6.99881V4.98081C4 4.00081 4.554 3.10381 5.431 2.66481C7.607 1.57681 10.105 1.49581 12.235 2.77381C12.8262 3.12847 13.487 3.35106 14.1723 3.42631C14.8575 3.50157 15.551 3.42772 16.205 3.20981L19.494 2.11381C19.6876 2.04947 19.8953 2.04025 20.0939 2.08719C20.2925 2.13412 20.4741 2.23536 20.6184 2.37959C20.7627 2.52382 20.8641 2.70535 20.9112 2.90388C20.9583 3.10242 20.9492 3.31014 20.885 3.50381L19.065 8.96781L20.889 13.5288C20.9447 13.668 20.9713 13.817 20.9673 13.9668C20.9633 14.1166 20.9287 14.264 20.8657 14.4C20.8027 14.536 20.7126 14.6576 20.6008 14.7575C20.4891 14.8574 20.3582 14.9334 20.216 14.9808L16.838 16.1068C15.9102 16.4161 14.9265 16.521 13.9544 16.4143C12.9822 16.3076 12.0446 15.9919 11.206 15.4888C10.5165 15.075 9.73374 14.8419 8.93019 14.8109C8.12665 14.78 7.32828 14.9523 6.609 15.3118L6 15.6168V20.9988C6 21.264 5.89464 21.5184 5.70711 21.7059C5.51957 21.8935 5.26522 21.9988 5 21.9988C4.73478 21.9988 4.48043 21.8935 4.29289 21.7059C4.10536 21.5184 4 21.264 4 20.9988V14.9988V6.99881Z" fill="#14233A" fill-opacity="0.6"/>
</svg>
