<svg width="14" height="14" viewBox="0 0 14 14" fill="none" xmlns="http://www.w3.org/2000/svg">
<path d="M8.00985 2.04656L9.03651 4.0999C9.17651 4.38573 9.54985 4.6599 9.86485 4.7124L11.7257 5.02156C12.9157 5.2199 13.1957 6.08323 12.3382 6.9349L10.8915 8.38156C10.6465 8.62656 10.5123 9.09906 10.5882 9.4374L11.0023 11.2282C11.329 12.6457 10.5765 13.1941 9.32235 12.4532L7.57818 11.4207C7.26318 11.2341 6.74401 11.2341 6.42318 11.4207L4.67901 12.4532C3.43068 13.1941 2.67235 12.6399 2.99901 11.2282L3.41318 9.4374C3.48901 9.09906 3.35485 8.62656 3.10985 8.38156L1.66318 6.9349C0.811513 6.08323 1.08568 5.2199 2.27568 5.02156L4.13651 4.7124C4.44568 4.6599 4.81901 4.38573 4.95901 4.0999L5.98568 2.04656C6.54568 0.932396 7.45568 0.932396 8.00985 2.04656Z" stroke="#979797" stroke-linecap="round" stroke-linejoin="round"/>
</svg>
