<svg width="24" height="24" viewBox="0 0 24 24" fill="none" xmlns="http://www.w3.org/2000/svg">
<g clip-path="url(#clip0_287_67274)">
<path fill-rule="evenodd" clip-rule="evenodd" d="M4.46848 0.802346L0.23226 10.7474C0.21614 10.7844 0.211031 10.8262 0.217682 10.8666C0.224332 10.9071 0.242393 10.9441 0.269222 10.9723L11.7102 23.2253C11.7427 23.2602 11.786 23.2796 11.831 23.2796C11.8761 23.2796 11.9194 23.2602 11.9519 23.2253L23.3929 10.9731C23.4197 10.9449 23.4378 10.9079 23.4444 10.8674C23.4511 10.8269 23.446 10.7851 23.4298 10.7481L19.1936 0.803111C19.1799 0.769712 19.158 0.741418 19.1303 0.721612C19.1026 0.701805 19.0704 0.691324 19.0376 0.691421H4.62591C4.59289 0.690962 4.56046 0.701191 4.53253 0.720873C4.50459 0.740556 4.48235 0.768851 4.46848 0.802346Z" fill="#50AF95"/>
<path fill-rule="evenodd" clip-rule="evenodd" d="M13.3038 11.7692C13.2216 11.776 12.7973 11.8044 11.8506 11.8044C11.0977 11.8044 10.5631 11.7791 10.3756 11.7692C7.46589 11.6261 5.29405 11.06 5.29405 10.3822C5.29405 9.70442 7.46589 9.13908 10.3756 8.99373V11.2054C10.5659 11.2207 11.1107 11.2566 11.8636 11.2566C12.7672 11.2566 13.2196 11.2145 13.301 11.2061V8.99526C16.2046 9.13985 18.3716 9.70595 18.3716 10.3822C18.3716 11.0585 16.2053 11.6246 13.301 11.7684L13.3038 11.7692ZM13.3038 8.76653V6.78747H17.3559V3.76953H6.3235V6.78747H10.3749V8.76576C7.0819 8.93483 4.60547 9.66388 4.60547 10.5375C4.60547 11.4111 7.0819 12.1394 10.3749 12.3093V18.6511H13.3031V12.307C16.5886 12.1379 19.0609 11.4096 19.0609 10.5367C19.0609 9.66388 16.5906 8.93559 13.3031 8.76576L13.3038 8.76653Z" fill="white"/>
</g>
<defs>
<clipPath id="clip0_287_67274">
<rect width="24" height="24" fill="white"/>
</clipPath>
</defs>
</svg>
