<svg width="24" height="24" viewBox="0 0 24 24" fill="none" xmlns="http://www.w3.org/2000/svg">
<path opacity="0.2" d="M23.9339 11.9992C23.9339 18.5917 18.5898 23.936 11.9973 23.936C5.40479 23.936 0.0605469 18.5917 0.0605469 11.9992C0.0605469 5.40674 5.40479 0.0625 11.9973 0.0625C18.5897 0.0625 23.9339 5.40674 23.9339 11.9992Z" fill="#505050"/>
<path d="M8 9.33594H10.6667" stroke="black" stroke-width="1.5" stroke-linecap="round" stroke-linejoin="round"/>
<path d="M17.8887 10H16.154C14.964 10 14 10.8953 14 12C14 13.1047 14.9647 14 16.1533 14H17.8887C17.9447 14 17.972 14 17.9953 13.9987C18.3553 13.9767 18.642 13.7107 18.6653 13.3767C18.6667 13.3553 18.6667 13.3293 18.6667 13.278V10.722C18.6667 10.6707 18.6667 10.6447 18.6653 10.6233C18.6413 10.2893 18.3553 10.0233 17.9953 10.0013C17.9727 10 17.9447 10 17.8887 10Z" stroke="black" stroke-width="1.5"/>
<path opacity="0.4" d="M17.9768 10.0013C17.9248 8.7533 17.7582 7.98797 17.2188 7.4493C16.4382 6.66797 15.1808 6.66797 12.6668 6.66797H10.6668C8.15283 6.66797 6.8955 6.66797 6.11483 7.4493C5.3335 8.22997 5.3335 9.4873 5.3335 12.0013C5.3335 14.5153 5.3335 15.7726 6.11483 16.5533C6.8955 17.3346 8.15283 17.3346 10.6668 17.3346H12.6668C15.1808 17.3346 16.4382 17.3346 17.2188 16.5533C17.7582 16.0146 17.9255 15.2493 17.9768 14.0013" stroke="black" stroke-width="1.5"/>
<path opacity="0.5" d="M15.9941 12H16.0001" stroke="black" stroke-width="2" stroke-linecap="round" stroke-linejoin="round"/>
</svg>
