<svg width="16" height="16" viewBox="0 0 16 16" fill="none" xmlns="http://www.w3.org/2000/svg">
<path d="M4 5.33594H6.66667" stroke="black" stroke-width="1.5" stroke-linecap="round" stroke-linejoin="round"/>
<path d="M13.8887 6H12.154C10.964 6 10 6.89533 10 8C10 9.10467 10.9647 10 12.1533 10H13.8887C13.9447 10 13.972 10 13.9953 9.99867C14.3553 9.97667 14.642 9.71067 14.6653 9.37667C14.6667 9.35533 14.6667 9.32933 14.6667 9.278V6.722C14.6667 6.67067 14.6667 6.64467 14.6653 6.62333C14.6413 6.28933 14.3553 6.02333 13.9953 6.00133C13.9727 6 13.9447 6 13.8887 6Z" stroke="black" stroke-width="1.5"/>
<path opacity="0.4" d="M13.9773 6.0013C13.9253 4.7533 13.7587 3.98797 13.2193 3.4493C12.4387 2.66797 11.1813 2.66797 8.66732 2.66797H6.66732C4.15332 2.66797 2.89598 2.66797 2.11532 3.4493C1.33398 4.22997 1.33398 5.4873 1.33398 8.0013C1.33398 10.5153 1.33398 11.7726 2.11532 12.5533C2.89598 13.3346 4.15332 13.3346 6.66732 13.3346H8.66732C11.1813 13.3346 12.4387 13.3346 13.2193 12.5533C13.7587 12.0146 13.926 11.2493 13.9773 10.0013" stroke="black" stroke-width="1.5"/>
<path opacity="0.5" d="M11.9941 8H12.0001" stroke="black" stroke-width="2" stroke-linecap="round" stroke-linejoin="round"/>
</svg>
